<svg width="562" height="315" viewBox="0 0 562 315" fill="none" xmlns="http://www.w3.org/2000/svg">
<g clip-path="url(#clip0_1144_173)">
<path d="M154.98 153.38C154.98 160.7 154.44 168.02 153.36 175.34C152.28 182.54 150.36 189.38 147.6 195.86C144.96 202.22 141.18 207.92 136.26 212.96C131.46 217.88 125.28 221.78 117.72 224.66C110.28 227.42 101.22 228.8 90.54 228.8C88.02 228.8 85.08 228.68 81.72 228.44C78.36 228.32 75.54 228.02 73.26 227.54V205.76C75.66 206.24 78.18 206.66 80.82 207.02C83.46 207.38 86.1 207.56 88.74 207.56C99.42 207.56 107.64 205.88 113.4 202.52C119.28 199.04 123.42 194.3 125.82 188.3C128.22 182.3 129.6 175.34 129.96 167.42H128.88C126.36 171.62 123 175.16 118.8 178.04C114.72 180.92 108.6 182.36 100.44 182.36C89.52 182.36 80.76 178.82 74.16 171.74C67.56 164.66 64.26 154.64 64.26 141.68C64.26 127.76 68.16 116.84 75.96 108.92C83.88 101 94.56 97.04 108 97.04C116.76 97.04 124.68 99.08 131.76 103.16C138.84 107.12 144.48 113.3 148.68 121.7C152.88 129.98 154.98 140.54 154.98 153.38ZM108.54 118.82C103.26 118.82 98.94 120.62 95.58 124.22C92.22 127.82 90.54 133.52 90.54 141.32C90.54 147.56 91.98 152.48 94.86 156.08C97.74 159.68 102.12 161.48 108 161.48C112.08 161.48 115.56 160.58 118.44 158.78C121.44 156.98 123.78 154.76 125.46 152.12C127.14 149.36 127.98 146.54 127.98 143.66C127.98 139.7 127.26 135.8 125.82 131.96C124.38 128.12 122.22 125 119.34 122.6C116.46 120.08 112.86 118.82 108.54 118.82ZM256.008 162.74C256.008 176.54 254.508 188.36 251.508 198.2C248.628 208.04 243.888 215.6 237.288 220.88C230.808 226.16 222.048 228.8 211.008 228.8C195.528 228.8 184.188 222.98 176.988 211.34C169.788 199.58 166.188 183.38 166.188 162.74C166.188 148.82 167.628 136.94 170.508 127.1C173.388 117.26 178.128 109.7 184.728 104.42C191.328 99.14 200.088 96.5 211.008 96.5C226.368 96.5 237.708 102.32 245.028 113.96C252.348 125.6 256.008 141.86 256.008 162.74ZM193.188 162.74C193.188 177.38 194.448 188.42 196.968 195.86C199.488 203.18 204.168 206.84 211.008 206.84C217.728 206.84 222.408 203.18 225.048 195.86C227.688 188.54 229.008 177.5 229.008 162.74C229.008 148.1 227.688 137.06 225.048 129.62C222.408 122.18 217.728 118.46 211.008 118.46C204.168 118.46 199.488 122.18 196.968 129.62C194.448 137.06 193.188 148.1 193.188 162.74ZM296.736 96.68C306.816 96.68 314.436 100.22 319.596 107.3C324.876 114.26 327.516 124.1 327.516 136.82C327.516 149.54 325.056 159.5 320.136 166.7C315.216 173.78 307.416 177.32 296.736 177.32C286.896 177.32 279.396 173.78 274.236 166.7C269.076 159.5 266.496 149.54 266.496 136.82C266.496 124.1 268.896 114.26 273.696 107.3C278.496 100.22 286.176 96.68 296.736 96.68ZM387.996 98.48L316.716 227H295.656L366.936 98.48H387.996ZM296.916 115.04C291.396 115.04 288.636 122.36 288.636 137C288.636 151.76 291.396 159.14 296.916 159.14C302.556 159.14 305.376 151.76 305.376 137C305.376 122.36 302.556 115.04 296.916 115.04ZM386.736 147.98C396.816 147.98 404.436 151.52 409.596 158.6C414.876 165.56 417.516 175.4 417.516 188.12C417.516 200.84 415.056 210.8 410.136 218C405.216 225.08 397.416 228.62 386.736 228.62C376.896 228.62 369.396 225.08 364.236 218C359.076 210.8 356.496 200.84 356.496 188.12C356.496 175.4 358.896 165.56 363.696 158.6C368.496 151.52 376.176 147.98 386.736 147.98ZM386.916 166.34C381.396 166.34 378.636 173.66 378.636 188.3C378.636 203.06 381.396 210.44 386.916 210.44C392.556 210.44 395.376 203.06 395.376 188.3C395.376 173.66 392.556 166.34 386.916 166.34Z" fill="#37A3E2"/>
<path d="M447.7 175.5L443.5 171.3L465.7 148.95L477.7 160.95L493.3 145.5H485.5V139.5H503.5V157.5H497.5V149.7L477.7 169.5L465.7 157.5L447.7 175.5Z" fill="#37A3E2"/>
</g>
<defs>
<clipPath id="clip0_1144_173">
<rect width="562" height="315" fill="white"/>
</clipPath>
</defs>
</svg>
