<svg width="562" height="315" viewBox="0 0 562 315" fill="none" xmlns="http://www.w3.org/2000/svg">
<g clip-path="url(#clip0_1144_174)">
<path d="M117.4 200.36H101.92V227H75.46V200.36H20.56V181.46L76.9 98.48H101.92V179.3H117.4V200.36ZM75.46 157.52C75.46 154.76 75.52 151.4 75.64 147.44C75.76 143.48 75.88 139.82 76 136.46C76.24 132.98 76.42 130.7 76.54 129.62H75.82C74.74 132.02 73.6 134.36 72.4 136.64C71.2 138.92 69.76 141.26 68.08 143.66L44.5 179.3H75.46V157.52ZM159.028 208.1C157.468 214.46 155.248 221.42 152.368 228.98C149.488 236.54 146.548 243.62 143.548 250.22H124.288C125.968 243.14 127.648 235.58 129.328 227.54C131.008 219.5 132.268 212.36 133.108 206.12H157.768L159.028 208.1ZM268.136 200.36H252.656V227H226.196V200.36H171.296V181.46L227.636 98.48H252.656V179.3H268.136V200.36ZM226.196 157.52C226.196 154.76 226.256 151.4 226.376 147.44C226.496 143.48 226.616 139.82 226.736 136.46C226.976 132.98 227.156 130.7 227.276 129.62H226.556C225.476 132.02 224.336 134.36 223.136 136.64C221.936 138.92 220.496 141.26 218.816 143.66L195.236 179.3H226.196V157.52ZM361.424 127.28C361.424 136.16 358.724 143.24 353.324 148.52C348.044 153.8 341.504 157.4 333.704 159.32V159.86C344.024 161.06 351.824 164.18 357.104 169.22C362.504 174.26 365.204 181.04 365.204 189.56C365.204 197 363.344 203.72 359.624 209.72C356.024 215.6 350.384 220.28 342.704 223.76C335.144 227.12 325.364 228.8 313.364 228.8C299.444 228.8 287.084 226.46 276.284 221.78V198.74C281.804 201.5 287.564 203.6 293.564 205.04C299.684 206.48 305.324 207.2 310.484 207.2C320.204 207.2 326.984 205.52 330.824 202.16C334.784 198.8 336.764 194.06 336.764 187.94C336.764 184.34 335.864 181.34 334.064 178.94C332.264 176.42 329.084 174.56 324.524 173.36C320.084 172.04 313.844 171.38 305.804 171.38H296.084V150.5H305.984C313.904 150.5 319.904 149.78 323.984 148.34C328.184 146.78 331.004 144.74 332.444 142.22C334.004 139.58 334.784 136.58 334.784 133.22C334.784 128.66 333.344 125.12 330.464 122.6C327.704 119.96 323.024 118.64 316.424 118.64C310.304 118.64 304.964 119.72 300.404 121.88C295.964 123.92 292.184 125.96 289.064 128L276.464 109.28C281.504 105.68 287.384 102.68 294.104 100.28C300.944 97.88 309.044 96.68 318.404 96.68C331.604 96.68 342.044 99.38 349.724 104.78C357.524 110.06 361.424 117.56 361.424 127.28ZM424.652 144.92C432.452 144.92 439.412 146.42 445.532 149.42C451.652 152.42 456.452 156.8 459.932 162.56C463.532 168.32 465.332 175.46 465.332 183.98C465.332 197.9 461.012 208.88 452.372 216.92C443.732 224.84 430.952 228.8 414.032 228.8C407.312 228.8 400.952 228.2 394.952 227C389.072 225.8 383.912 224.06 379.472 221.78V198.38C383.912 200.66 389.252 202.64 395.492 204.32C401.732 205.88 407.612 206.66 413.132 206.66C421.172 206.66 427.292 205.04 431.492 201.8C435.812 198.44 437.972 193.28 437.972 186.32C437.972 173.36 429.392 166.88 412.232 166.88C408.872 166.88 405.392 167.24 401.792 167.96C398.192 168.56 395.192 169.16 392.792 169.76L381.992 164L386.852 98.48H456.512V121.52H410.612L408.272 146.72C410.312 146.36 412.472 146 414.752 145.64C417.152 145.16 420.452 144.92 424.652 144.92Z" fill="#37A3E2"/>
<g clip-path="url(#clip1_1144_174)">
<path d="M544.5 161.071H523.071V182.5H515.929V161.071H494.5V153.929H515.929V132.5H523.071V153.929H544.5V161.071Z" fill="#37A3E2"/>
</g>
</g>
<defs>
<clipPath id="clip0_1144_174">
<rect width="562" height="315" fill="white"/>
</clipPath>
<clipPath id="clip1_1144_174">
<rect width="50" height="164" fill="white" transform="translate(494.5 75.5)"/>
</clipPath>
</defs>
</svg>
