<svg width="990" height="432" viewBox="0 0 990 432" fill="none" xmlns="http://www.w3.org/2000/svg">
<rect width="990" height="432" fill="#C4C4C4" fill-opacity="0.1"/>
<rect x="40" y="67.75" width="40" height="40" rx="20" fill="#D8D7E9"/>
<path d="M60 78.75C55.58 78.75 52 80.54 52 82.75V92.75C52 94.96 55.59 96.75 60 96.75C64.41 96.75 68 94.96 68 92.75V82.75C68 80.54 64.42 78.75 60 78.75ZM66 92.75C66 93.25 63.87 94.75 60 94.75C56.13 94.75 54 93.25 54 92.75V90.52C55.61 91.3 57.72 91.75 60 91.75C62.28 91.75 64.39 91.3 66 90.52V92.75ZM66 88.2C64.7 89.15 62.42 89.75 60 89.75C57.58 89.75 55.3 89.15 54 88.2V85.39C55.47 86.22 57.61 86.75 60 86.75C62.39 86.75 64.53 86.22 66 85.39V88.2ZM60 84.75C56.13 84.75 54 83.25 54 82.75C54 82.25 56.13 80.75 60 80.75C63.87 80.75 66 82.25 66 82.75C66 83.25 63.87 84.75 60 84.75Z" fill="#222222"/>
<rect x="110.411" y="40.4106" width="529.179" height="94.6787" rx="9.58935" fill="white"/>
<rect x="110.411" y="40.4106" width="529.179" height="94.6787" rx="9.58935" stroke="#D8D7E9" stroke-width="0.821293"/>
<path d="M143.771 67.7832C143.758 70.5127 146.551 73.5215 151.845 74.1816L150.575 76.7969C146.538 76.2129 143.58 74.3467 142.069 71.8457C140.546 74.334 137.601 76.2129 133.614 76.7969L132.319 74.1816C137.575 73.5215 140.355 70.5127 140.368 67.7832V66.666H143.771V67.7832ZM131.507 81.1895V78.5488H152.581V81.1895H143.593V89.0859H140.394V81.1895H131.507ZM173.141 65.9805V89.0859H169.866V65.9805H173.141ZM153.794 82.5352C159.761 79.7168 162.388 76.0605 162.909 70.9316H155.038V68.3926H166.21C166.197 75.4004 163.747 81.2275 155.495 85.125L153.794 82.5352ZM202.785 77.8379V80.377H194.076V84.1094H190.877V80.377H181.635V77.8379H202.785ZM184.123 88.6797V82.2812H187.323V86.0898H200.449V88.6797H184.123ZM184.352 76.2129V66.7168H187.551V69.1289H196.819V66.7168H200.043V76.2129H184.352ZM187.551 73.6484H196.819V71.541H187.551V73.6484ZM212.529 69.5859C212.517 72.4678 214.129 75.2607 217.785 76.416L216.059 78.9805C213.583 78.1426 211.882 76.4795 210.904 74.3848C209.889 76.6699 208.073 78.46 205.471 79.3867L203.719 76.7969C207.591 75.5654 209.241 72.5439 209.254 69.3828V67.1738H212.529V69.5859ZM207.477 83.3477V80.7832H223.346V89.0859H220.121V83.3477H207.477ZM215.779 72.9375V70.2715H220.121V65.9805H223.346V79.7422H220.121V72.9375H215.779ZM236.619 66.3105C241.938 66.3105 245.011 67.707 245.023 70.2461C245.011 72.8232 241.938 74.207 236.619 74.207C231.287 74.207 228.189 72.8232 228.189 70.2461C228.189 67.707 231.287 66.3105 236.619 66.3105ZM226.082 77.8633V75.2988H247.156V77.8633H226.082ZM228.519 81.5703V79.209H244.592V85.0996H231.719V86.4961H245.201V88.9336H228.545V82.8398H241.392V81.5703H228.519ZM231.592 70.2461C231.579 71.376 233.229 71.8203 236.619 71.8203C240.034 71.8203 241.672 71.376 241.672 70.2461C241.672 69.2178 240.034 68.6719 236.619 68.6719C233.229 68.6719 231.579 69.2178 231.592 70.2461ZM261.566 66.9453C265.095 66.9199 267.659 68.9385 267.659 71.8457C267.659 74.7275 265.095 76.7715 261.566 76.7461C258.049 76.7715 255.485 74.7275 255.497 71.8457C255.485 68.9385 258.049 66.9199 261.566 66.9453ZM254.076 78.168C258.176 78.1553 263.978 78.0791 268.904 77.3301L269.107 79.7168C267.202 80.0977 265.247 80.3389 263.318 80.4912V88.4004H260.093V80.6816C258.062 80.7705 256.145 80.7832 254.482 80.8086L254.076 78.168ZM258.62 71.8457C258.608 73.293 259.839 74.1309 261.566 74.1055C263.343 74.1309 264.587 73.293 264.587 71.8457C264.587 70.373 263.343 69.5225 261.566 69.5352C259.839 69.5225 258.608 70.373 258.62 71.8457ZM270.3 89.0859V66.0059H273.499V89.0859H270.3ZM294.567 66.0059V73.0898H297.691V75.7305H294.567V83.2461H291.317V66.0059H294.567ZM276.235 70.9824V68.418H281.491V65.9551H284.716V68.418H289.946V70.9824H276.235ZM277.353 76.2637C277.353 73.585 279.727 71.7949 283.091 71.7949C286.442 71.7949 288.778 73.585 288.778 76.2637C288.778 78.9297 286.442 80.6816 283.091 80.6816C279.727 80.6816 277.353 78.9297 277.353 76.2637ZM279.587 88.6797V81.9258H282.812V86.0898H295.405V88.6797H279.587ZM280.526 76.2637C280.514 77.5332 281.542 78.2188 283.091 78.2188C284.652 78.2188 285.706 77.5332 285.706 76.2637C285.706 74.9814 284.652 74.2705 283.091 74.2578C281.542 74.2705 280.514 74.9814 280.526 76.2637ZM324.212 65.9805V89.0859H321.088V65.9805H324.212ZM304.889 83.9316V68.5957H313.725V71.1855H308.063V81.2529C310.526 81.2275 312.405 81.0879 314.563 80.6562L314.817 83.2969C312.202 83.8174 309.879 83.9316 306.489 83.9316H304.889ZM312.151 77.0508V74.4102H316.29V66.3867H319.311V88.0449H316.29V77.0508H312.151ZM345.737 65.9805V89.1367H342.461V65.9805H345.737ZM327.075 75.832C327.062 70.792 329.639 67.6055 333.194 67.6055C336.672 67.6055 339.262 70.792 339.262 75.832C339.262 80.9102 336.672 84.084 333.194 84.084C329.639 84.084 327.062 80.9102 327.075 75.832ZM330.198 75.832C330.185 79.2725 331.391 81.1514 333.194 81.1387C334.946 81.1514 336.126 79.2725 336.139 75.832C336.126 72.4043 334.946 70.5254 333.194 70.5254C331.391 70.5254 330.185 72.4043 330.198 75.832ZM368.1 65.9805V89.1367H364.901V76.7461H360.838V74.1309H364.901V65.9805H368.1ZM349.666 83.9062V67.9102H360.457V70.5254H352.891V74.3594H359.619V76.8984H352.891V81.2656C356.103 81.2402 358.667 81.126 361.524 80.6816L361.854 83.2715C358.477 83.7793 355.455 83.8936 351.494 83.9062H349.666ZM388.806 67.7832C388.794 70.5127 391.587 73.5215 396.881 74.1816L395.611 76.7969C391.574 76.2129 388.616 74.3467 387.105 71.8457C385.582 74.334 382.636 76.2129 378.65 76.7969L377.355 74.1816C382.611 73.5215 385.391 70.5127 385.404 67.7832V66.666H388.806V67.7832ZM376.543 81.1895V78.5488H397.617V81.1895H388.629V89.0859H385.429V81.1895H376.543ZM412.413 67.25V69.8398H407.78C407.932 72.29 409.697 74.7148 413.302 75.7051L411.677 78.2188C409.037 77.457 407.196 75.8701 406.142 73.8643C405.101 76.0479 403.197 77.7871 400.454 78.625L398.829 76.0859C402.511 75.0322 404.301 72.4551 404.454 69.8398H399.718V67.25H412.413ZM402.638 88.832V79.4883H405.837V81.6465H414.876V79.4883H418.101V88.832H402.638ZM405.837 86.2422H414.876V84.1602H405.837V86.2422ZM414.851 78.5234V65.9805H418.101V78.5234H414.851ZM446.095 65.9805V77.8379H442.845V65.9805H446.095ZM427.077 74.8418C427.864 74.8418 428.702 74.8291 429.565 74.8164V69.8652H427.686V67.4023H440.255V69.8652H438.35V74.4736C439.303 74.3975 440.242 74.3086 441.143 74.207L441.296 76.5176C436.7 77.2539 431.444 77.3809 427.433 77.3809L427.077 74.8418ZM430.378 81.2656V78.752H446.095V84.9219H433.628V86.3691H446.729V88.9336H430.429V82.6113H442.895V81.2656H430.378ZM432.663 74.7529C433.514 74.7275 434.364 74.7021 435.227 74.6641V69.8652H432.663V74.7529ZM470.057 83.7285V86.3945H448.907V83.7285H453.63V78.0664C451.84 76.9873 450.76 75.3496 450.76 73.3184C450.76 69.5732 454.417 67.1104 459.444 67.0977C464.446 67.1104 468.14 69.5732 468.153 73.3184C468.14 75.3115 467.099 76.9238 465.36 78.0029V83.7285H470.057ZM453.96 73.3184C453.96 75.5781 456.131 76.9746 459.444 76.9746C462.707 76.9746 464.941 75.5781 464.954 73.3184C464.941 70.9951 462.707 69.6494 459.444 69.6621C456.131 69.6494 453.96 70.9951 453.96 73.3184ZM456.829 83.7285H462.085V79.2344C461.259 79.3994 460.371 79.4883 459.444 79.4883C458.517 79.4883 457.641 79.3994 456.829 79.2471V83.7285Z" fill="#222222"/>
<path d="M135.894 103.383C135.9 105.721 136.844 107.997 138.915 108.893L137.849 110.287C136.468 109.617 135.538 108.373 135.019 106.835C134.485 108.469 133.528 109.809 132.106 110.506L131.013 109.084C133.146 108.12 134.116 105.721 134.13 103.383V101.523H135.894V103.383ZM137.521 105.885V104.477H139.968V100.566H141.69V113.035H139.968V105.885H137.521ZM153.708 100.566V113.035H151.944V100.566H153.708ZM143.905 110.123V101.551H145.655V104.586H148.335V101.551H150.058V110.123H143.905ZM145.655 108.715H148.335V105.939H145.655V108.715ZM161.938 102.207C161.932 104.032 163.552 105.98 166.368 106.459L165.603 107.908C163.429 107.478 161.822 106.254 161.016 104.661C160.195 106.24 158.582 107.471 156.429 107.908L155.677 106.459C158.445 105.967 160.065 104.012 160.079 102.207V101.305H161.938V102.207ZM155.39 111.477V110.041H166.778V111.477H155.39ZM175.569 103.027C175.562 104.511 176.492 106.028 178.536 106.65L177.647 108.018C176.253 107.573 175.275 106.678 174.715 105.557C174.147 106.787 173.136 107.765 171.673 108.25L170.771 106.883C172.842 106.22 173.792 104.6 173.792 103.027V102.85H171.235V101.455H178.071V102.85H175.569V103.027ZM172.794 112.789V108.756H174.558V111.395H181.462V112.789H172.794ZM179.384 109.576V100.58H181.134V109.576H179.384ZM193.233 100.566V107.252H191.483V100.566H193.233ZM183.007 104.039C183.007 102.289 184.47 101.072 186.411 101.086C188.346 101.072 189.809 102.289 189.815 104.039C189.809 105.734 188.346 106.951 186.411 106.951C184.47 106.951 183.007 105.734 183.007 104.039ZM184.716 104.039C184.702 104.962 185.413 105.516 186.411 105.516C187.382 105.516 188.086 104.962 188.093 104.039C188.086 103.103 187.382 102.528 186.411 102.535C185.413 102.528 184.702 103.103 184.716 104.039ZM184.907 112.871V107.799H186.63V108.961H191.497V107.799H193.233V112.871H184.907ZM186.63 111.463H191.497V110.314H186.63V111.463Z" fill="#7D7D85"/>
<rect x="40" y="196" width="40" height="40" rx="20" fill="#EF677F"/>
<path d="M52 217.147H53.6V220.971H66.4V217.147H68V220.971C68 221.819 67.288 222.5 66.4 222.5H53.6C52.72 222.5 52 221.819 52 220.971V217.147ZM60 219.441L64.44 215.266L63.304 214.188L60.8 216.574V209.5H59.2V216.574L56.704 214.188L55.568 215.274L60 219.441Z" fill="white"/>
<rect x="110" y="155.5" width="530" height="121" rx="10" fill="#EF677F"/>
<path d="M150.541 183.73V197.568H147.469V183.73H150.541ZM130.787 190.764C130.774 187.45 133.009 185.114 136.094 185.127C138.76 185.114 140.816 186.866 141.324 189.494H142.873V184.111H145.869V197.391H142.873V192.109H141.312C140.791 194.712 138.734 196.426 136.094 196.4C133.009 196.426 130.774 194.115 130.787 190.764ZM133.682 190.764C133.669 192.643 134.672 193.747 136.094 193.734C137.503 193.747 138.531 192.643 138.557 190.764C138.531 188.948 137.503 187.882 136.094 187.869C134.672 187.882 133.669 188.948 133.682 190.764ZM134.57 201.021V198.457H150.541V206.861H147.316V201.021H134.57ZM160.183 186.219C160.171 188.974 161.339 191.602 164.297 192.795L162.595 195.207C160.64 194.407 159.384 192.985 158.647 191.208C157.835 193.227 156.464 194.915 154.42 195.893L152.566 193.455C155.791 191.995 157.035 189.062 157.035 186.168V184.594H160.183V186.219ZM156.933 199.117V196.629H172.752V202.773H160.183V204.119H173.539V206.684H156.959V200.387H169.552V199.117H156.933ZM162.291 189.926V187.361H165.008V184.086H168.08V195.715H165.008V189.926H162.291ZM169.679 195.791V183.756H172.752V195.791H169.679ZM200.187 183.73V197.645H196.937V183.73H200.187ZM180.941 194.775C184.762 193.544 186.527 190.548 186.552 187.666H181.804V185.076H194.499V187.666H189.853C189.866 190.383 191.592 193.201 195.363 194.344L193.712 196.857C191.122 196.045 189.307 194.382 188.266 192.287C187.212 194.572 185.333 196.388 182.616 197.289L180.941 194.775ZM184.292 201.25V198.66H200.187V206.836H196.937V201.25H184.292ZM222.524 183.73V196.375H219.3V191.551H215.644V188.91H219.3V183.73H222.524ZM202.923 194.242C206.566 193.023 208.306 190.23 208.471 187.412H203.837V184.771H216.38V187.412H211.797C211.937 189.989 213.6 192.655 217.091 193.811L215.491 196.299C212.939 195.461 211.175 193.798 210.172 191.729C209.144 194.039 207.303 195.893 204.573 196.781L202.923 194.242ZM207.112 206.582V197.264H210.312V199.447H219.3V197.264H222.524V206.582H207.112ZM210.312 203.992H219.3V201.936H210.312V203.992ZM249.223 183.73V192.312H252.626V194.953H249.223V206.887H245.973V183.73H249.223ZM231.907 201.275V185.863H242.749V188.479H235.131V198.609C238.483 198.584 241.251 198.406 244.323 197.873L244.678 200.59C241.086 201.199 237.937 201.288 233.862 201.275H231.907ZM274.328 194.979V197.568H265.569V201.58H262.293V197.568H253.178V194.979H274.328ZM255.362 188.961C255.362 186.028 258.713 184.188 263.741 184.162C268.743 184.188 272.081 186.028 272.094 188.961C272.081 191.906 268.743 193.734 263.741 193.734C258.713 193.734 255.362 191.906 255.362 188.961ZM255.692 206.43V199.523H258.967V203.814H271.993V206.43H255.692ZM258.866 188.961C258.853 190.37 260.757 191.132 263.741 191.145C266.724 191.132 268.616 190.37 268.616 188.961C268.616 187.488 266.724 186.727 263.741 186.727C260.757 186.727 258.853 187.488 258.866 188.961ZM296.565 201.605V204.271H275.414V201.605H284.326V198.127H277.852V190.357H290.928V187.818H277.826V185.229H294.127V192.896H281.102V195.486H294.66V198.127H287.551V201.605H296.565ZM316.465 194.42V197.01H300.113V185.66H316.287V188.275H303.312V194.42H316.465ZM297.625 204.018V201.352H318.775V204.018H297.625Z" fill="white"/>
<path d="M141.156 218.316V230.758H139.488V224.482H138.367V230.184H136.713V218.494H138.367V223.061H139.488V218.316H141.156ZM130.725 227.627V219.602H135.674V227.627H130.725ZM132.352 226.26H134.047V220.982H132.352V226.26ZM153.01 218.33V225.535H151.26V225.139H149.004V224.086H151.26V218.33H153.01ZM142.469 222.705C144.875 222.712 147.855 222.698 150.521 222.445L150.604 223.525C149.503 223.669 148.375 223.765 147.268 223.826V225.562H145.545V223.888C144.526 223.915 143.549 223.915 142.646 223.908L142.469 222.705ZM143.316 220.367C143.316 219.246 144.574 218.501 146.475 218.494C148.327 218.501 149.599 219.246 149.605 220.367C149.599 221.522 148.327 222.233 146.475 222.227C144.574 222.233 143.316 221.522 143.316 220.367ZM144.246 227.08V225.904H153.01V228.816H146.01V229.459H153.297V230.676H144.301V227.695H151.273V227.08H144.246ZM144.971 220.367C144.957 220.825 145.531 221.085 146.475 221.092C147.391 221.085 147.972 220.825 147.979 220.367C147.972 219.909 147.391 219.636 146.475 219.643C145.531 219.636 144.957 219.909 144.971 220.367ZM167.666 218.316V220.723H169.348V222.158H167.666V224.537H165.916V218.316H167.666ZM158.164 224.072V218.904H164.139V224.072H158.164ZM159.408 226.369V225.029H167.666V228.42H161.145V229.254H168.021V230.621H159.436V227.162H165.93V226.369H159.408ZM159.887 222.691H162.416V220.271H159.887V222.691ZM183.908 218.316V230.758H182.227V218.316H183.908ZM173.504 227.982V219.725H178.262V221.119H175.213V226.54C176.539 226.526 177.551 226.451 178.713 226.219L178.85 227.641C177.441 227.921 176.19 227.982 174.365 227.982H173.504ZM177.414 224.277V222.855H179.643V218.535H181.27V230.197H179.643V224.277H177.414ZM195.639 218.316V230.785H193.875V218.316H195.639ZM185.59 223.621C185.583 220.907 186.971 219.191 188.885 219.191C190.758 219.191 192.152 220.907 192.152 223.621C192.152 226.355 190.758 228.064 188.885 228.064C186.971 228.064 185.583 226.355 185.59 223.621ZM187.271 223.621C187.265 225.474 187.914 226.485 188.885 226.479C189.828 226.485 190.464 225.474 190.471 223.621C190.464 221.775 189.828 220.764 188.885 220.764C187.914 220.764 187.265 221.775 187.271 223.621ZM207.82 218.316V230.785H206.098V224.113H203.91V222.705H206.098V218.316H207.82ZM197.895 227.969V219.355H203.705V220.764H199.631V222.828H203.254V224.195H199.631V226.547C201.36 226.533 202.741 226.472 204.279 226.232L204.457 227.627C202.639 227.9 201.012 227.962 198.879 227.969H197.895ZM219.236 218.316V223.088H221V224.523H219.236V230.73H217.486V218.316H219.236ZM209.283 227.244C212.229 225.768 213.815 223.785 214.144 221.01H209.994V219.588H215.914C215.9 223.307 214.451 226.526 210.268 228.584L209.283 227.244ZM229.326 221.133C229.319 223.361 230.27 225.61 232.266 226.574L231.213 227.969C229.88 227.306 228.978 226.075 228.465 224.578C227.918 226.185 226.961 227.504 225.553 228.201L224.473 226.793C226.585 225.822 227.576 223.443 227.576 221.133V219.273H229.326V221.133ZM232.812 230.758V218.316H234.562V223.115H236.395V224.592H234.562V230.758H232.812ZM246.662 218.316V223.02H248.494V224.455H246.662V230.785H244.939V218.316H246.662ZM237.352 220.764V219.355H243.107V224.182H239.102V226.438C240.913 226.431 242.41 226.349 244.064 226.068L244.215 227.463C242.314 227.812 240.605 227.887 238.418 227.887H237.365V222.801H241.371V220.764H237.352ZM253.771 221.707C253.765 223.717 254.804 225.87 256.889 226.738L255.945 228.105C254.482 227.483 253.471 226.246 252.91 224.742C252.35 226.376 251.317 227.743 249.848 228.42L248.85 227.039C250.914 226.116 251.98 223.812 251.98 221.707V220.941H249.342V219.52H256.369V220.941H253.771V221.707ZM257.6 230.758V218.316H259.363V230.758H257.6ZM271.148 221.707V223.074H262.453V218.754H264.189V221.707H271.148ZM261.031 225.781V224.414H272.42V225.781H261.031ZM262.344 230.484V226.793H264.094V229.09H271.23V230.484H262.344ZM281.074 221.133C281.081 223.471 282.024 225.747 284.096 226.643L283.029 228.037C281.648 227.367 280.719 226.123 280.199 224.585C279.666 226.219 278.709 227.559 277.287 228.256L276.193 226.834C278.326 225.87 279.297 223.471 279.311 221.133V219.273H281.074V221.133ZM282.701 223.635V222.227H285.148V218.316H286.871V230.785H285.148V223.635H282.701ZM298.889 218.316V230.785H297.125V218.316H298.889ZM289.086 227.873V219.301H290.836V222.336H293.516V219.301H295.238V227.873H289.086ZM290.836 226.465H293.516V223.689H290.836V226.465ZM307.119 219.957C307.112 221.782 308.732 223.73 311.549 224.209L310.783 225.658C308.609 225.228 307.003 224.004 306.196 222.411C305.376 223.99 303.763 225.221 301.609 225.658L300.857 224.209C303.626 223.717 305.246 221.762 305.26 219.957V219.055H307.119V219.957ZM300.57 229.227V227.791H311.959V229.227H300.57ZM327.271 224.373V225.768H322.555V227.928H320.791V225.768H315.883V224.373H327.271ZM317.059 221.133C317.059 219.554 318.863 218.562 321.57 218.549C324.264 218.562 326.062 219.554 326.068 221.133C326.062 222.719 324.264 223.703 321.57 223.703C318.863 223.703 317.059 222.719 317.059 221.133ZM317.236 230.539V226.82H319V229.131H326.014V230.539H317.236ZM318.945 221.133C318.938 221.892 319.964 222.302 321.57 222.309C323.177 222.302 324.195 221.892 324.195 221.133C324.195 220.34 323.177 219.93 321.57 219.93C319.964 219.93 318.938 220.34 318.945 221.133ZM331.469 218.986C332.46 218.979 333.328 219.349 333.923 219.957H336.746V218.316H338.482V225.604H336.746V224.113H333.909C333.314 224.715 332.453 225.077 331.469 225.07C329.582 225.077 328.146 223.792 328.16 222.035C328.146 220.258 329.582 218.979 331.469 218.986ZM329.814 222.035C329.808 222.992 330.498 223.601 331.469 223.594C332.405 223.601 333.089 222.992 333.096 222.035C333.089 221.044 332.405 220.47 331.469 220.477C330.498 220.47 329.808 221.044 329.814 222.035ZM329.951 228.311C329.951 226.766 331.599 225.856 334.23 225.863C336.862 225.856 338.517 226.766 338.523 228.311C338.517 229.855 336.862 230.765 334.23 230.758C331.599 230.765 329.951 229.855 329.951 228.311ZM331.66 228.311C331.66 229.035 332.583 229.404 334.23 229.404C335.912 229.404 336.808 229.035 336.814 228.311C336.808 227.565 335.912 227.196 334.23 227.189C332.583 227.196 331.66 227.565 331.66 228.311ZM334.668 221.338C334.723 221.557 334.75 221.796 334.75 222.035C334.75 222.274 334.723 222.5 334.675 222.719H336.746V221.338H334.668ZM349.119 225.932C351.71 225.932 353.31 226.82 353.316 228.338C353.31 229.876 351.71 230.771 349.119 230.771C346.487 230.771 344.847 229.876 344.854 228.338C344.847 226.82 346.487 225.932 349.119 225.932ZM343.691 224.947V219.096H345.428V220.668H347.971V219.096H349.721V224.947H343.691ZM345.428 223.566H347.971V222.021H345.428V223.566ZM346.604 228.338C346.59 229.049 347.485 229.418 349.119 229.418C350.732 229.418 351.594 229.049 351.594 228.338C351.594 227.627 350.732 227.292 349.119 227.285C347.485 227.292 346.59 227.627 346.604 228.338ZM351.443 225.658V218.316H353.193V221.201H354.875V222.664H353.193V225.658H351.443ZM360.193 220.08C360.18 221.632 361.068 223.143 363.119 223.758L362.244 225.125C360.829 224.674 359.845 223.785 359.291 222.65C358.73 223.874 357.719 224.845 356.256 225.316L355.381 223.949C357.459 223.286 358.375 221.666 358.375 220.08V218.891H360.193V220.08ZM357.281 227.668V226.273H365.84V230.758H364.09V227.668H357.281ZM364.09 225.74V218.316H365.84V225.74H364.09ZM369.135 229.623C368.492 229.623 367.973 229.11 367.986 228.475C367.973 227.846 368.492 227.333 369.135 227.34C369.743 227.333 370.27 227.846 370.27 228.475C370.27 229.11 369.743 229.623 369.135 229.623ZM141.156 239.316V251.758H139.475V239.316H141.156ZM130.752 248.982V240.725H135.51V242.119H132.461V247.54C133.787 247.526 134.799 247.451 135.961 247.219L136.098 248.641C134.689 248.921 133.438 248.982 131.613 248.982H130.752ZM134.662 245.277V243.855H136.891V239.535H138.518V251.197H136.891V245.277H134.662ZM152.887 239.316V251.785H151.123V239.316H152.887ZM142.838 244.621C142.831 241.907 144.219 240.191 146.133 240.191C148.006 240.191 149.4 241.907 149.4 244.621C149.4 247.355 148.006 249.064 146.133 249.064C144.219 249.064 142.831 247.355 142.838 244.621ZM144.52 244.621C144.513 246.474 145.162 247.485 146.133 247.479C147.076 247.485 147.712 246.474 147.719 244.621C147.712 242.775 147.076 241.764 146.133 241.764C145.162 241.764 144.513 242.775 144.52 244.621ZM165.068 239.316V251.785H163.346V245.113H161.158V243.705H163.346V239.316H165.068ZM155.143 248.969V240.355H160.953V241.764H156.879V243.828H160.502V245.195H156.879V247.547C158.608 247.533 159.989 247.472 161.527 247.232L161.705 248.627C159.887 248.9 158.26 248.962 156.127 248.969H155.143ZM180.312 239.316V251.785H178.549V239.316H180.312ZM170.51 248.873V240.301H172.26V243.336H174.939V240.301H176.662V248.873H170.51ZM172.26 247.465H174.939V244.689H172.26V247.465ZM192.316 240.396V241.613C192.31 243.131 192.31 244.833 191.852 247.342L190.143 247.191C190.546 244.908 190.56 243.22 190.566 241.777H183.115V240.396H192.316ZM181.994 250.24V248.818H184.414V244.908H186.15V248.818H187.518V244.908H189.24V248.818H193.342V250.24H181.994ZM205.469 244.895V246.193H194.08V244.895H205.469ZM195.379 248.012V246.809H204.102V249.748H197.129V250.459H204.471V251.648H195.393V248.641H202.379V248.012H195.379ZM195.475 240.725V239.535H204.088V242.461H197.238V243.131H204.307V244.307H195.502V241.354H202.338V240.725H195.475ZM213.48 239.836C215.381 239.822 216.762 240.909 216.762 242.475C216.762 244.026 215.381 245.127 213.48 245.113C211.587 245.127 210.206 244.026 210.213 242.475C210.206 240.909 211.587 239.822 213.48 239.836ZM209.447 245.879C211.655 245.872 214.779 245.831 217.432 245.428L217.541 246.713C216.516 246.918 215.463 247.048 214.424 247.13V251.389H212.688V247.232C211.594 247.28 210.562 247.287 209.666 247.301L209.447 245.879ZM211.895 242.475C211.888 243.254 212.551 243.705 213.48 243.691C214.438 243.705 215.107 243.254 215.107 242.475C215.107 241.682 214.438 241.224 213.48 241.23C212.551 241.224 211.888 241.682 211.895 242.475ZM218.184 251.758V239.33H219.906V251.758H218.184ZM227.521 241.217V242.598H221.506V241.217H223.666V239.658H225.389V241.217H227.521ZM221.793 246.111C221.793 244.382 222.955 243.165 224.541 243.158C226.134 243.165 227.269 244.382 227.275 246.111C227.269 247.848 226.134 249.078 224.541 249.078C222.955 249.078 221.793 247.848 221.793 246.111ZM223.324 246.111C223.324 247.062 223.816 247.602 224.541 247.602C225.238 247.602 225.737 247.062 225.744 246.111C225.737 245.175 225.238 244.607 224.541 244.607C223.816 244.607 223.324 245.175 223.324 246.111ZM227.986 251.225V239.562H229.613V244.375H230.625V239.316H232.279V251.758H230.625V245.77H229.613V251.225H227.986ZM247.332 239.316V246.699H245.596V243.76H243.654V242.352H245.596V239.316H247.332ZM236.764 245.332C238.801 244.648 239.73 243.021 239.771 241.463H237.27V240.068H244.023V241.463H241.549C241.583 242.912 242.472 244.375 244.406 245.018L243.545 246.385C242.178 245.94 241.228 245.038 240.688 243.924C240.141 245.188 239.143 246.207 237.666 246.713L236.764 245.332ZM238.801 249.379C238.801 247.868 240.428 246.979 243.08 246.973C245.739 246.979 247.366 247.868 247.373 249.379C247.366 250.89 245.739 251.771 243.08 251.771C240.428 251.771 238.801 250.89 238.801 249.379ZM240.537 249.379C240.537 250.09 241.433 250.445 243.08 250.445C244.734 250.445 245.63 250.09 245.637 249.379C245.63 248.661 244.734 248.306 243.08 248.312C241.433 248.306 240.537 248.661 240.537 249.379ZM259.404 239.316V251.758H257.641V239.316H259.404ZM248.986 248.23C252.199 246.713 253.614 244.744 253.895 241.982H249.656V240.615H255.672C255.665 244.389 254.346 247.526 249.902 249.625L248.986 248.23ZM268.223 240.014V241.395H265.748C265.755 242.857 266.644 244.368 268.605 245.018L267.744 246.357C266.37 245.927 265.42 245.024 264.88 243.91C264.326 245.147 263.335 246.146 261.865 246.617L260.977 245.236C263.027 244.587 263.957 242.939 263.971 241.395H261.469V240.014H268.223ZM262.986 248.668V247.273H271.531V251.758H269.795V248.668H262.986ZM267.867 243.732V242.311H269.795V239.316H271.531V246.727H269.795V243.732H267.867ZM278.818 239.945C281.443 239.952 283.501 241.374 283.508 243.527C283.501 245.701 281.443 247.116 278.818 247.109C276.187 247.116 274.143 245.701 274.143 243.527C274.143 241.374 276.187 239.952 278.818 239.945ZM273.145 250.24V248.832H284.533V250.24H273.145ZM275.838 243.527C275.831 244.881 277.089 245.688 278.818 245.688C280.534 245.688 281.778 244.881 281.785 243.527C281.778 242.194 280.534 241.354 278.818 241.367C277.089 241.354 275.831 242.194 275.838 243.527ZM296.633 248.941V250.377H285.244V248.941H290.043V247.068H286.557V242.885H293.598V241.518H286.543V240.123H295.32V244.252H288.307V245.646H295.607V247.068H291.779V248.941H296.633ZM310.387 239.316V243.938H312.219V245.359H310.387V251.785H308.637V239.316H310.387ZM301.062 248.764V240.465H306.9V241.873H302.799V247.328C304.604 247.314 306.094 247.219 307.748 246.932L307.939 248.395C306.005 248.723 304.31 248.771 302.115 248.764H301.062ZM324.045 245.373V246.768H319.328V248.928H317.564V246.768H312.656V245.373H324.045ZM313.832 242.133C313.832 240.554 315.637 239.562 318.344 239.549C321.037 239.562 322.835 240.554 322.842 242.133C322.835 243.719 321.037 244.703 318.344 244.703C315.637 244.703 313.832 243.719 313.832 242.133ZM314.01 251.539V247.82H315.773V250.131H322.787V251.539H314.01ZM315.719 242.133C315.712 242.892 316.737 243.302 318.344 243.309C319.95 243.302 320.969 242.892 320.969 242.133C320.969 241.34 319.95 240.93 318.344 240.93C316.737 240.93 315.712 241.34 315.719 242.133ZM336.158 248.941V250.377H324.77V248.941H329.568V247.068H326.082V242.885H333.123V241.518H326.068V240.123H334.846V244.252H327.832V245.646H335.133V247.068H331.305V248.941H336.158ZM347.014 245.072V246.467H338.209V240.355H346.918V241.764H339.932V245.072H347.014ZM336.869 250.24V248.805H348.258V250.24H336.869ZM358.785 239.316V244.088H360.549V245.523H358.785V251.73H357.035V239.316H358.785ZM348.832 248.244C351.778 246.768 353.364 244.785 353.692 242.01H349.543V240.588H355.463C355.449 244.307 354 247.526 349.816 249.584L348.832 248.244ZM374.781 239.316V245.715H373.045V244.471H370.748V245.359H364.828V239.85H366.578V241.299H369.025V239.85H370.748V240.902H373.045V239.316H374.781ZM366.496 247.52V246.18H374.781V249.502H368.26V250.254H375.15V251.621H366.51V248.23H373.045V247.52H366.496ZM366.578 243.992H369.025V242.625H366.578V243.992ZM370.748 243.158H373.045V242.201H370.748V243.158ZM386.539 244.881V246.262H382.93V248.914H387.783V250.336H376.395V248.914H381.193V246.262H377.734V240.191H386.443V241.586H379.484V244.881H386.539ZM402.166 239.316V245.701H400.416V239.316H402.166ZM391.926 244.088C392.35 244.088 392.801 244.081 393.266 244.074V241.408H392.254V240.082H399.021V241.408H397.996V243.89C398.509 243.849 399.015 243.801 399.5 243.746L399.582 244.99C397.107 245.387 394.277 245.455 392.117 245.455L391.926 244.088ZM393.703 247.547V246.193H402.166V249.516H395.453V250.295H402.508V251.676H393.73V248.271H400.443V247.547H393.703ZM394.934 244.04C395.392 244.026 395.85 244.013 396.314 243.992V241.408H394.934V244.04ZM415.209 248.873V250.309H403.82V248.873H406.363V245.824C405.399 245.243 404.818 244.361 404.818 243.268C404.818 241.251 406.787 239.925 409.494 239.918C412.188 239.925 414.177 241.251 414.184 243.268C414.177 244.341 413.616 245.209 412.68 245.79V248.873H415.209ZM406.541 243.268C406.541 244.484 407.71 245.236 409.494 245.236C411.251 245.236 412.454 244.484 412.461 243.268C412.454 242.017 411.251 241.292 409.494 241.299C407.71 241.292 406.541 242.017 406.541 243.268ZM408.086 248.873H410.916V246.453C410.472 246.542 409.993 246.59 409.494 246.59C408.995 246.59 408.523 246.542 408.086 246.46V248.873ZM425.791 239.316V242.379H427.473V243.842H425.791V246.822H424.041V239.316H425.791ZM415.92 241.818V240.438H418.75V239.248H420.486V240.438H423.303V241.818H415.92ZM416.521 244.43C416.521 243.117 417.779 242.201 419.611 242.201C421.423 242.201 422.674 243.117 422.674 244.43C422.674 245.776 421.423 246.679 419.611 246.686C417.779 246.679 416.521 245.776 416.521 244.43ZM417.656 251.621V247.369H425.791V251.621H417.656ZM418.23 244.43C418.224 245.065 418.777 245.394 419.611 245.4C420.452 245.394 421.02 245.065 421.02 244.43C421.02 243.835 420.452 243.507 419.611 243.514C418.777 243.507 418.224 243.835 418.23 244.43ZM419.379 250.227H424.068V248.736H419.379V250.227Z" fill="white"/>
<rect x="40" y="324.25" width="40" height="40" rx="20" fill="#D8D7E9"/>
<path d="M53.7778 336.25C52.7911 336.25 52 337.041 52 338.028V350.472C52 351.459 52.7911 352.25 53.7778 352.25H66.2222C67.2089 352.25 68 351.459 68 350.472V338.028C68 337.041 67.2089 336.25 66.2222 336.25H53.7778ZM53.7778 338.028H66.2222V350.472H53.7778V338.028ZM55.5556 339.806V341.583H64.4444V339.806H55.5556ZM55.5556 343.361V345.139H64.4444V343.361H55.5556ZM55.5556 346.917V348.694H61.7778V346.917H55.5556Z" fill="#222222"/>
<rect x="110.411" y="296.911" width="529.179" height="94.6787" rx="9.58935" fill="white"/>
<rect x="110.411" y="296.911" width="529.179" height="94.6787" rx="9.58935" stroke="#D8D7E9" stroke-width="0.821293"/>
<path d="M152.657 340.254V342.895H131.507V340.254H140.419V335.988H133.741V323.953H136.991V327.533H147.071V323.953H150.296V335.988H143.644V340.254H152.657ZM136.991 333.398H147.071V330.123H136.991V333.398ZM172.761 324.486V326.67C172.748 329.564 172.748 332.814 171.821 337.715L168.571 337.385C169.46 333.018 169.498 329.768 169.511 327.051H155.901V324.486H172.761ZM153.718 342.768V340.127H161.259V332.18H164.483V340.127H174.792V342.768H153.718ZM184.663 327.711C184.675 332.053 186.427 336.28 190.274 337.943L188.293 340.533C185.729 339.289 184.002 336.979 183.038 334.122C182.047 337.156 180.27 339.645 177.629 340.939L175.598 338.299C179.559 336.509 181.362 332.053 181.387 327.711V324.258H184.663V327.711ZM187.684 332.357V329.742H192.229V322.48H195.428V345.637H192.229V332.357H187.684ZM216.998 323.826V326.416H212.402C212.415 329.12 214.04 331.9 217.785 333.094L216.135 335.607C213.57 334.77 211.806 333.119 210.803 331.062C209.774 333.31 207.921 335.112 205.242 335.988L203.516 333.5C207.337 332.269 209.089 329.298 209.127 326.416H204.404V323.826H216.998ZM206.639 339.975V337.41H222.203V345.586H218.953V339.975H206.639ZM218.953 336.42V322.48H222.203V328.092H225.326V330.783H222.203V336.42H218.953ZM234.816 325.629C234.804 328.714 236.39 331.57 240.097 332.713L238.396 335.252C235.908 334.389 234.22 332.802 233.242 330.72C232.226 333.132 230.36 335.023 227.58 335.963L225.879 333.373C229.827 332.104 231.528 329.006 231.541 325.781V323.674H234.816V325.629ZM229.713 341.117C229.713 338.273 232.734 336.61 237.66 336.623C242.598 336.61 245.62 338.273 245.633 341.117C245.62 343.974 242.598 345.599 237.66 345.586C232.734 345.599 229.713 343.974 229.713 341.117ZM232.937 341.117C232.937 342.399 234.6 343.072 237.66 343.072C240.732 343.072 242.395 342.399 242.408 341.117C242.395 339.797 240.732 339.137 237.66 339.137C234.6 339.137 232.937 339.797 232.937 341.117ZM237.99 329.361V326.721H242.332V322.48H245.556V336.014H242.332V329.361H237.99ZM262.556 328.777C262.543 332.294 264.422 336.356 268.218 338.121L266.415 340.66C263.838 339.479 262.01 337.118 260.969 334.351C259.941 337.397 258.036 339.987 255.37 341.244L253.492 338.68C257.338 336.89 259.281 332.599 259.306 328.777V327.355H254.406V324.715H267.202V327.355H262.556V328.777ZM269.005 345.586V322.48H272.255V331.291H275.658V334.008H272.255V345.586H269.005ZM297.386 340.355V343.021H276.235V340.355H281.644V336.826H278.673V329.057H291.749V326.568H278.648V323.979H294.948V331.646H281.923V334.211H295.482V336.826H292.206V340.355H297.386ZM284.792 340.355H289.032V336.826H284.792V340.355ZM318.067 324.791V327.305H313.497C313.573 329.12 315.211 330.783 318.626 331.418L317.356 333.906C314.741 333.398 312.938 332.243 311.91 330.694C310.894 332.396 309.053 333.69 306.337 334.236L305.016 331.723C308.507 331.062 310.132 329.247 310.221 327.305H305.626V324.791H310.247V322.531H313.497V324.791H318.067ZM304.229 335.227C308.495 335.227 314.182 335.188 319.057 334.566L319.26 336.902C317.356 337.232 315.401 337.448 313.471 337.588V344.875H310.247V337.766C308.241 337.842 306.324 337.842 304.635 337.842L304.229 335.227ZM320.454 345.586V322.506H323.653V345.586H320.454ZM344.721 322.48V328.041H347.844V330.732H344.721V336.014H341.471V322.48H344.721ZM326.389 327.051V324.512H331.645V322.328H334.869V324.512H340.1V327.051H326.389ZM327.506 331.799C327.506 329.336 329.842 327.711 333.244 327.711C336.609 327.711 338.932 329.336 338.932 331.799C338.932 334.262 336.609 335.887 333.244 335.887C329.842 335.887 327.506 334.262 327.506 331.799ZM329.588 345.332V336.902H332.813V338.654H341.471V336.902H344.721V345.332H329.588ZM330.68 331.799C330.667 332.916 331.696 333.513 333.244 333.525C334.806 333.513 335.86 332.916 335.86 331.799C335.86 330.72 334.806 330.072 333.244 330.098C331.696 330.072 330.667 330.72 330.68 331.799ZM332.813 342.793H341.471V341.143H332.813V342.793Z" fill="#222222"/>
<path d="M135.894 359.883C135.9 362.221 136.844 364.497 138.915 365.393L137.849 366.787C136.468 366.117 135.538 364.873 135.019 363.335C134.485 364.969 133.528 366.309 132.106 367.006L131.013 365.584C133.146 364.62 134.116 362.221 134.13 359.883V358.023H135.894V359.883ZM137.521 362.385V360.977H139.968V357.066H141.69V369.535H139.968V362.385H137.521ZM153.708 357.066V369.535H151.944V357.066H153.708ZM143.905 366.623V358.051H145.655V361.086H148.335V358.051H150.058V366.623H143.905ZM145.655 365.215H148.335V362.439H145.655V365.215ZM161.938 358.707C161.932 360.532 163.552 362.48 166.368 362.959L165.603 364.408C163.429 363.978 161.822 362.754 161.016 361.161C160.195 362.74 158.582 363.971 156.429 364.408L155.677 362.959C158.445 362.467 160.065 360.512 160.079 358.707V357.805H161.938V358.707ZM155.39 367.977V366.541H166.778V367.977H155.39ZM174.749 357.805C176.725 357.812 178.188 359.069 178.194 360.854C178.188 362.371 177.135 363.506 175.61 363.82V365.495C176.663 365.434 177.723 365.345 178.728 365.201L178.864 366.459C176.103 366.985 173.149 367.006 170.976 367.006L170.771 365.598C171.687 365.598 172.753 365.591 173.874 365.563V363.813C172.356 363.499 171.283 362.364 171.29 360.854C171.283 359.069 172.787 357.812 174.749 357.805ZM173.026 360.854C173.02 361.817 173.765 362.419 174.749 362.412C175.74 362.419 176.492 361.817 176.499 360.854C176.492 359.862 175.74 359.302 174.749 359.295C173.765 359.302 173.02 359.862 173.026 360.854ZM179.438 369.535V357.066H181.175V369.535H179.438ZM194.19 364.244V365.611H189.323V369.508H187.601V365.611H182.802V364.244H194.19ZM184.142 363.041V357.545H185.864V358.98H191.087V357.545H192.837V363.041H184.142ZM185.864 361.646H191.087V360.348H185.864V361.646ZM205.702 357.066V369.508H204.034V357.066H205.702ZM195.024 362.453C195.024 359.671 196.084 357.948 197.731 357.955C199.229 357.948 200.254 359.35 200.445 361.674H201.464V357.244H203.104V368.934H201.464V363.055H200.459C200.309 365.495 199.263 366.979 197.731 366.979C196.084 366.979 195.024 365.249 195.024 362.453ZM196.638 362.453C196.624 364.367 197.034 365.311 197.731 365.297C198.449 365.311 198.873 364.367 198.866 362.453C198.873 360.546 198.449 359.596 197.731 359.596C197.034 359.596 196.624 360.546 196.638 362.453ZM211.718 359.883C211.725 362.221 212.668 364.497 214.739 365.393L213.673 366.787C212.292 366.117 211.362 364.873 210.843 363.335C210.31 364.969 209.353 366.309 207.931 367.006L206.837 365.584C208.97 364.62 209.94 362.221 209.954 359.883V358.023H211.718V359.883ZM213.345 362.385V360.977H215.792V357.066H217.515V369.535H215.792V362.385H213.345ZM233.128 357.066V369.508H231.446V357.066H233.128ZM222.724 366.732V358.475H227.481V359.869H224.433V365.29C225.759 365.276 226.771 365.201 227.933 364.969L228.069 366.391C226.661 366.671 225.41 366.732 223.585 366.732H222.724ZM226.634 363.027V361.605H228.862V357.285H230.489V368.947H228.862V363.027H226.634ZM244.858 357.066V369.535H243.095V357.066H244.858ZM234.81 362.371C234.803 359.657 236.19 357.941 238.104 357.941C239.978 357.941 241.372 359.657 241.372 362.371C241.372 365.105 239.978 366.814 238.104 366.814C236.19 366.814 234.803 365.105 234.81 362.371ZM236.491 362.371C236.484 364.224 237.134 365.235 238.104 365.229C239.048 365.235 239.684 364.224 239.69 362.371C239.684 360.525 239.048 359.514 238.104 359.514C237.134 359.514 236.484 360.525 236.491 362.371ZM257.04 357.066V369.535H255.317V362.863H253.13V361.455H255.317V357.066H257.04ZM247.114 366.719V358.105H252.925V359.514H248.851V361.578H252.474V362.945H248.851V365.297C250.58 365.283 251.961 365.222 253.499 364.982L253.677 366.377C251.858 366.65 250.231 366.712 248.099 366.719H247.114ZM272.325 357.066V369.508H270.562V357.066H272.325ZM261.907 365.98C265.12 364.463 266.535 362.494 266.815 359.732H262.577V358.365H268.593C268.586 362.139 267.267 365.276 262.823 367.375L261.907 365.98ZM283.837 357.08V360.58H285.519V362.016H283.837V366.24H282.087V357.08H283.837ZM274.335 364.258V357.955H276.071V359.76H278.614V357.955H280.364V364.258H274.335ZM275.771 369.289V365.297H277.507V367.895H284.288V369.289H275.771ZM276.071 362.891H278.614V361.1H276.071V362.891ZM291.739 357.695C294.364 357.702 296.422 359.124 296.429 361.277C296.422 363.451 294.364 364.866 291.739 364.859C289.107 364.866 287.063 363.451 287.063 361.277C287.063 359.124 289.107 357.702 291.739 357.695ZM286.065 367.99V366.582H297.454V367.99H286.065ZM288.759 361.277C288.752 362.631 290.01 363.438 291.739 363.438C293.455 363.438 294.699 362.631 294.706 361.277C294.699 359.944 293.455 359.104 291.739 359.117C290.01 359.104 288.752 359.944 288.759 361.277ZM309.554 366.691V368.127H298.165V366.691H302.964V364.818H299.478V360.635H306.519V359.268H299.464V357.873H308.241V362.002H301.228V363.396H308.528V364.818H304.7V366.691H309.554ZM318.085 360.457C318.078 362.351 319.09 364.538 321.134 365.488L320.163 366.855C318.775 366.22 317.791 364.948 317.23 363.458C316.677 365.099 315.651 366.493 314.216 367.17L313.204 365.789C315.275 364.825 316.321 362.515 316.335 360.457V359.691H313.696V358.27H320.587V359.691H318.085V360.457ZM321.558 369.508V357.066H323.308V361.811H325.14V363.273H323.308V369.508H321.558ZM336.979 366.691V368.127H325.591V366.691H328.503V364.791H326.903V360.607H333.944V359.268H326.89V357.873H335.667V362.002H328.653V363.383H335.954V364.791H334.19V366.691H336.979ZM330.198 366.691H332.481V364.791H330.198V366.691ZM348.396 358.311V359.664H345.935C345.976 360.642 346.857 361.537 348.696 361.879L348.013 363.219C346.604 362.945 345.634 362.323 345.08 361.489C344.533 362.405 343.542 363.103 342.079 363.396L341.368 362.043C343.248 361.688 344.123 360.71 344.171 359.664H341.696V358.311H344.185V357.094H345.935V358.311H348.396ZM340.944 363.93C343.241 363.93 346.304 363.909 348.929 363.574L349.038 364.832C348.013 365.01 346.96 365.126 345.921 365.201V369.125H344.185V365.297C343.104 365.338 342.072 365.338 341.163 365.338L340.944 363.93ZM349.681 369.508V357.08H351.403V369.508H349.681ZM362.888 357.066V360.061H364.569V361.51H362.888V364.354H361.138V357.066H362.888ZM353.017 359.527V358.16H355.847V356.984H357.583V358.16H360.399V359.527H353.017ZM353.618 362.084C353.618 360.758 354.876 359.883 356.708 359.883C358.52 359.883 359.771 360.758 359.771 362.084C359.771 363.41 358.52 364.285 356.708 364.285C354.876 364.285 353.618 363.41 353.618 362.084ZM354.739 369.371V364.832H356.476V365.775H361.138V364.832H362.888V369.371H354.739ZM355.327 362.084C355.32 362.686 355.874 363.007 356.708 363.014C357.549 363.007 358.116 362.686 358.116 362.084C358.116 361.503 357.549 361.154 356.708 361.168C355.874 361.154 355.32 361.503 355.327 362.084ZM356.476 368.004H361.138V367.115H356.476V368.004ZM375.056 357.818V363.055H368.972V357.818H375.056ZM369.628 368.168C372.116 367.963 373.429 366.979 373.62 366.104H370.134V364.805H373.675V363.779H375.425V364.805H378.966V366.104H375.479C375.671 366.951 376.977 367.929 379.444 368.168L378.856 369.48C376.785 369.289 375.315 368.537 374.557 367.566C373.791 368.551 372.308 369.282 370.229 369.48L369.628 368.168ZM370.694 361.688H373.319V359.172H370.694V361.688ZM377.011 364.121V357.066H378.747V364.121H377.011ZM394.087 357.066V369.535H392.323V357.066H394.087ZM384.284 366.623V358.051H386.034V361.086H388.714V358.051H390.437V366.623H384.284ZM386.034 365.215H388.714V362.439H386.034V365.215ZM406.091 358.146V359.363C406.084 360.881 406.084 362.583 405.626 365.092L403.917 364.941C404.32 362.658 404.334 360.97 404.341 359.527H396.89V358.146H406.091ZM395.769 367.99V366.568H398.188V362.658H399.925V366.568H401.292V362.658H403.015V366.568H407.116V367.99H395.769ZM415.921 360.457C415.914 362.467 416.953 364.62 419.038 365.488L418.095 366.855C416.632 366.233 415.62 364.996 415.06 363.492C414.499 365.126 413.467 366.493 411.997 367.17L410.999 365.789C413.063 364.866 414.13 362.562 414.13 360.457V359.691H411.491V358.27H418.519V359.691H415.921V360.457ZM419.749 369.508V357.066H421.513V369.508H419.749ZM434.583 366.732V368.127H423.194V366.732H426.024V364.367H424.138V362.959H425.806V359.459H424.083V358.064H433.626V359.459H431.876V362.959H433.571V364.367H431.698V366.732H434.583ZM427.556 362.959H430.153V359.459H427.556V362.959ZM427.774 366.732H429.948V364.367H427.774V366.732ZM442.499 359.281C442.499 360.628 443.196 361.954 444.851 362.59L443.921 363.916C442.854 363.513 442.123 362.774 441.679 361.858C441.228 362.932 440.448 363.827 439.286 364.312L438.343 362.973C440.1 362.2 440.804 360.669 440.804 359.281V357.818H442.499V359.281ZM440.653 367.184C440.646 365.728 442.321 364.853 444.96 364.859C447.585 364.853 449.267 365.728 449.28 367.184C449.267 368.626 447.585 369.515 444.96 369.508C442.321 369.515 440.646 368.626 440.653 367.184ZM442.403 367.184C442.39 367.854 443.326 368.195 444.96 368.195C446.58 368.195 447.517 367.854 447.517 367.184C447.517 366.507 446.58 366.158 444.96 366.158C443.326 366.158 442.39 366.507 442.403 367.184ZM444.892 364.299V357.299H446.519V360.115H447.558V357.08H449.212V364.682H447.558V361.523H446.519V364.299H444.892ZM455.323 358.762C455.316 360.423 456.171 361.961 458.167 362.576L457.251 363.943C455.911 363.479 455.002 362.624 454.476 361.503C453.929 362.802 452.924 363.82 451.427 364.326L450.511 362.932C452.637 362.248 453.553 360.58 453.56 358.844V357.709H455.323V358.762ZM452.575 367.102C452.575 365.57 454.202 364.675 456.854 364.682C459.514 364.675 461.141 365.57 461.147 367.102C461.141 368.64 459.514 369.515 456.854 369.508C454.202 369.515 452.575 368.64 452.575 367.102ZM454.312 367.102C454.312 367.792 455.207 368.154 456.854 368.154C458.509 368.154 459.404 367.792 459.411 367.102C459.404 366.391 458.509 366.035 456.854 366.035C455.207 366.035 454.312 366.391 454.312 367.102ZM457.032 360.771V359.35H459.37V357.066H461.106V364.354H459.37V360.771H457.032Z" fill="#7D7D85"/>
<g filter="url(#filter0_d_1179_36605)">
<rect x="680" y="40" width="270" height="352" rx="10" fill="white"/>
<rect x="681" y="41" width="268" height="350" rx="9" stroke="#EF677F" stroke-width="2"/>
<path d="M874.717 173.93V180.531H877.334V182.562H874.717V191.742H872.217V173.93H874.717ZM861.396 187.426V175.57H869.736V177.582H863.877V185.375C866.455 185.355 868.584 185.219 870.947 184.809L871.221 186.898C868.457 187.367 866.035 187.436 862.9 187.426H861.396Z" fill="#222222"/>
<path d="M858.35 173.93V191.703H855.869V173.93H858.35ZM844.365 187.309V175.629H846.826V185.189C849.229 185.15 851.807 184.926 854.424 184.418L854.736 186.469C851.621 187.123 848.672 187.318 845.928 187.309H844.365Z" fill="#222222"/>
<path d="M830.479 184.594V186.098H837.803V184.594H840.283V191.508H828.018V184.594H830.479ZM826.123 183.695V181.684H842.334V183.695H826.123ZM826.924 178.949C830.889 178.471 832.939 176.537 832.959 174.711V174.105H835.518V174.711C835.518 176.488 837.559 178.5 841.533 178.949L840.654 180.902C837.598 180.512 835.371 179.242 834.229 177.523C833.076 179.242 830.85 180.512 827.822 180.902L826.924 178.949ZM830.479 189.555H837.803V187.992H830.479V189.555Z" fill="#222222"/>
<path d="M813.115 184.32V186.098H815.029V184.32H817.334V189.721C819.307 188.822 820.147 187.162 820.147 185.551V184.184H822.647V185.551C822.637 187.367 823.506 189.086 825.732 189.809L824.443 191.664C822.91 191.137 821.924 190.121 821.357 188.842C820.772 190.082 819.795 191.107 818.35 191.664L817.334 190.131V191.508H810.811V184.32H813.115ZM809.072 178.773C809.053 176.332 811.064 174.604 813.799 174.594C816.055 174.604 817.861 175.854 818.35 177.738H821.338V173.93H823.818V183.344H821.338V179.789H818.359C817.881 181.713 816.064 182.992 813.799 182.992C811.064 182.992 809.053 181.254 809.072 178.773ZM811.436 178.773C811.426 180.121 812.402 180.951 813.799 180.961C815.147 180.951 816.113 180.121 816.123 178.773C816.113 177.465 815.147 176.654 813.799 176.645C812.402 176.654 811.426 177.465 811.436 178.773ZM813.115 189.613H815.029V187.934H813.115V189.613Z" fill="#222222"/>
<path d="M800.967 173.93V180.746H803.486V182.797H800.967V191.664H798.467V173.93H800.967ZM786.748 186.684C790.957 184.574 793.223 181.742 793.691 177.777H787.764V175.746H796.221C796.201 181.059 794.131 185.658 788.154 188.598L786.748 186.684Z" fill="#222222"/>
<path d="M779.131 175.531V187.465H770.537V175.531H779.131ZM773.037 185.492H776.709V177.484H773.037V185.492ZM782.021 191.742V173.93H784.541V191.742H782.021Z" fill="#222222"/>
<path d="M758.135 175.121C760.957 175.111 763.047 176.928 763.057 179.477C763.047 182.035 760.957 183.842 758.135 183.852C755.332 183.842 753.184 182.035 753.193 179.477C753.184 176.928 755.332 175.111 758.135 175.121ZM752.451 186.078C755.625 186.088 760.02 186.049 763.818 185.512L764.014 187.309C760.068 188.08 755.85 188.109 752.744 188.109L752.451 186.078ZM755.674 179.477C755.664 180.883 756.729 181.693 758.135 181.684C759.551 181.693 760.625 180.883 760.635 179.477C760.625 178.09 759.551 177.27 758.135 177.27C756.729 177.27 755.664 178.09 755.674 179.477ZM764.834 191.742V173.93H767.314V191.742H764.834Z" fill="#222222"/>
<path d="M877.432 148.773V150.727H865.01V144.555H867.49V148.773H877.432ZM862.979 154.594V152.641H879.248V154.594H862.979ZM864.854 161.312V156.039H867.354V159.32H877.549V161.312H864.854Z" fill="#222222"/>
<path d="M860.459 145.473V147.211C860.449 149.379 860.449 151.811 859.795 155.395L857.354 155.18C857.93 151.918 857.949 149.506 857.959 147.445H847.314V145.473H860.459ZM845.713 159.535V157.504H849.17V151.918H851.65V157.504H853.604V151.918H856.064V157.504H861.924V159.535H845.713Z" fill="#222222"/>
<path d="M843.311 143.93V161.742H840.791V143.93H843.311ZM829.307 157.582V145.336H831.807V149.672H835.635V145.336H838.096V157.582H829.307ZM831.807 155.57H835.635V151.605H831.807V155.57Z" fill="#222222"/>
<path d="M821.592 143.949V154.242H819.092V153.676H815.869V152.172H819.092V143.949H821.592ZM806.533 150.199C809.971 150.209 814.229 150.189 818.037 149.828L818.154 151.371C816.582 151.576 814.971 151.713 813.389 151.801V154.281H810.928V151.889C809.473 151.928 808.076 151.928 806.787 151.918L806.533 150.199ZM807.744 146.859C807.744 145.258 809.541 144.193 812.256 144.184C814.902 144.193 816.719 145.258 816.729 146.859C816.719 148.51 814.902 149.525 812.256 149.516C809.541 149.525 807.744 148.51 807.744 146.859ZM809.072 156.449V154.77H821.592V158.93H811.592V159.848H822.002V161.586H809.15V157.328H819.111V156.449H809.072ZM810.107 146.859C810.088 147.514 810.908 147.885 812.256 147.895C813.564 147.885 814.395 147.514 814.404 146.859C814.395 146.205 813.564 145.814 812.256 145.824C810.908 145.814 810.088 146.205 810.107 146.859Z" fill="#222222"/>
<path d="M804.229 143.949V156.918H801.748V150.551H798.838V148.539H801.748V143.949H804.229ZM789.15 152.914C792.09 151.996 793.418 149.682 793.428 147.406V147.133H789.854V145.141H799.502V147.133H795.967V147.426C795.957 149.486 797.227 151.684 800.049 152.602L798.818 154.574C796.855 153.93 795.498 152.641 794.727 151.049C793.936 152.816 792.52 154.252 790.42 154.945L789.15 152.914ZM792.432 161.391V155.785H794.932V159.398H804.658V161.391H792.432Z" fill="#222222"/>
<path d="M776.748 144.965C776.748 146.947 778.838 149.145 782.744 149.672L781.807 151.645C778.809 151.195 776.602 149.818 775.469 147.992C774.326 149.848 772.109 151.234 769.111 151.684L768.193 149.73C772.08 149.174 774.17 147.016 774.189 144.965V144.379H776.748V144.965ZM767.334 154.652V152.66H783.604V154.652H776.904V157.719H774.443V154.652H767.334ZM769.248 161.391V156.176H771.729V159.398H781.807V161.391H769.248Z" fill="#222222"/>
<path d="M764.17 143.93V148.773H766.572V150.824H764.17V156.781H761.67V143.93H764.17ZM750.752 153.852V145.355H758.779V147.348H753.252V151.84C756.475 151.82 758.242 151.713 760.225 151.293L760.479 153.285C758.242 153.744 756.191 153.852 752.256 153.852H750.752ZM752.646 161.391V155.414H755.127V159.398H764.814V161.391H752.646Z" fill="#222222"/>
<path d="M901.44 255.049C900.798 255.049 900.278 254.536 900.292 253.9C900.278 253.271 900.798 252.759 901.44 252.766C902.049 252.759 902.575 253.271 902.575 253.9C902.575 254.536 902.049 255.049 901.44 255.049Z" fill="#7D7D85"/>
<path d="M899.116 253.299V254.734H887.728V253.299H890.271V250.25C889.307 249.669 888.726 248.787 888.726 247.693C888.726 245.677 890.694 244.351 893.401 244.344C896.095 244.351 898.084 245.677 898.091 247.693C898.084 248.767 897.523 249.635 896.587 250.216V253.299H899.116ZM890.448 247.693C890.448 248.91 891.617 249.662 893.401 249.662C895.158 249.662 896.361 248.91 896.368 247.693C896.361 246.442 895.158 245.718 893.401 245.725C891.617 245.718 890.448 246.442 890.448 247.693ZM891.993 253.299H894.823V250.879C894.379 250.968 893.9 251.016 893.401 251.016C892.902 251.016 892.431 250.968 891.993 250.886V253.299Z" fill="#7D7D85"/>
<path d="M881.63 245.643V247.023H875.614V245.643H877.774V244.084H879.497V245.643H881.63ZM875.901 250.537C875.901 248.808 877.063 247.591 878.649 247.584C880.242 247.591 881.377 248.808 881.384 250.537C881.377 252.273 880.242 253.504 878.649 253.504C877.063 253.504 875.901 252.273 875.901 250.537ZM877.433 250.537C877.433 251.487 877.925 252.027 878.649 252.027C879.347 252.027 879.846 251.487 879.853 250.537C879.846 249.601 879.347 249.033 878.649 249.033C877.925 249.033 877.433 249.601 877.433 250.537ZM882.095 255.65V243.988H883.722V248.801H884.733V243.742H886.388V256.184H884.733V250.195H883.722V255.65H882.095Z" fill="#7D7D85"/>
<path d="M863.651 244.617C865.552 244.617 866.926 246.333 866.933 249.047C866.926 251.781 865.552 253.49 863.651 253.49C861.744 253.49 860.363 251.781 860.37 249.047C860.363 246.333 861.744 244.617 863.651 244.617ZM862.052 249.047C862.052 250.899 862.701 251.911 863.651 251.904C864.622 251.911 865.258 250.899 865.265 249.047C865.258 247.201 864.622 246.189 863.651 246.189C862.701 246.189 862.052 247.201 862.052 249.047ZM868.368 256.184V243.742H870.118V246.627H871.882V248.09H870.118V250.305H871.882V251.727H870.118V256.184H868.368Z" fill="#7D7D85"/>
<path d="M854.204 245.643V247.023H848.188V245.643H850.349V244.084H852.071V245.643H854.204ZM848.476 250.537C848.476 248.808 849.638 247.591 851.224 247.584C852.816 247.591 853.951 248.808 853.958 250.537C853.951 252.273 852.816 253.504 851.224 253.504C849.638 253.504 848.476 252.273 848.476 250.537ZM850.007 250.537C850.007 251.487 850.499 252.027 851.224 252.027C851.921 252.027 852.42 251.487 852.427 250.537C852.42 249.601 851.921 249.033 851.224 249.033C850.499 249.033 850.007 249.601 850.007 250.537ZM854.669 255.65V243.988H856.296V248.801H857.308V243.742H858.962V256.184H857.308V250.195H856.296V255.65H854.669Z" fill="#7D7D85"/>
<path d="M843.171 244.576V245.971H840.696C840.703 247.42 841.585 248.821 843.567 249.402L842.733 250.77C841.359 250.353 840.402 249.512 839.855 248.452C839.302 249.703 838.29 250.701 836.8 251.193L835.911 249.812C837.976 249.163 838.912 247.55 838.933 245.971H836.39V244.576H843.171ZM837.634 253.764C837.627 252.246 839.268 251.364 841.899 251.371C844.49 251.364 846.09 252.246 846.097 253.764C846.09 255.288 844.49 256.19 841.899 256.184C839.268 256.19 837.627 255.288 837.634 253.764ZM839.384 253.764C839.37 254.475 840.266 254.83 841.899 254.83C843.513 254.83 844.374 254.475 844.374 253.764C844.374 253.066 843.513 252.718 841.899 252.725C840.266 252.718 839.37 253.066 839.384 253.764ZM844.224 251.125V243.742H845.974V246.627H847.655V248.049H845.974V251.125H844.224Z" fill="#7D7D85"/>
<path d="M834.517 243.742V256.211H832.767V249.498H830.538V248.076H832.767V243.742H834.517ZM823.812 252.492C825.896 251.535 826.915 249.163 826.915 246.859V246.34H824.331V244.945H831.29V246.34H828.706V246.859C828.699 249.047 829.711 251.33 831.81 252.232L830.784 253.613C829.335 252.943 828.364 251.638 827.831 250.052C827.291 251.747 826.3 253.155 824.851 253.873L823.812 252.492Z" fill="#7D7D85"/>
<path d="M820.065 253.367V254.803H808.677V253.367H813.476V251.494H809.989V247.311H817.03V245.943H809.976V244.549H818.753V248.678H811.739V250.072H819.04V251.494H815.212V253.367H820.065Z" fill="#7D7D85"/>
<path d="M806.64 243.701V248.391H808.144V249.854H806.64V256.184H804.903V243.701H806.64ZM796.823 253.121V244.986H800.063V246.381H798.573V251.679C799.079 251.658 799.578 251.604 800.132 251.494L800.269 252.93C799.243 253.114 798.443 253.128 797.452 253.121H796.823ZM800.706 253.121V244.986H804.069V246.381H802.429V251.692C803.181 251.672 803.687 251.61 804.247 251.467L804.384 252.902C803.536 253.114 802.839 253.128 801.362 253.121H800.706Z" fill="#7D7D85"/>
<path d="M792.038 243.742V256.184H790.37V243.742H792.038ZM781.36 249.129C781.36 246.347 782.42 244.624 784.067 244.631C785.564 244.624 786.59 246.025 786.781 248.35H787.8V243.92H789.44V255.609H787.8V249.73H786.795C786.645 252.171 785.599 253.654 784.067 253.654C782.42 253.654 781.36 251.925 781.36 249.129ZM782.974 249.129C782.96 251.043 783.37 251.986 784.067 251.973C784.785 251.986 785.209 251.043 785.202 249.129C785.209 247.222 784.785 246.271 784.067 246.271C783.37 246.271 782.96 247.222 782.974 249.129Z" fill="#7D7D85"/>
<path d="M773.075 245.082C773.068 246.565 773.697 247.98 775.29 248.623L774.374 249.922C773.321 249.491 772.645 248.726 772.248 247.769C771.811 248.855 771.072 249.765 769.972 250.291L768.974 248.979C770.71 248.192 771.38 246.613 771.38 245.055V244.207H773.075V245.082ZM771.325 252.027V250.688H779.843V253.996H773.075V254.721H780.267V256.102H771.339V252.711H778.12V252.027H771.325ZM774.21 247.078V245.697H775.673V243.934H777.327V250.195H775.673V247.078H774.21ZM778.188 250.236V243.756H779.843V250.236H778.188Z" fill="#7D7D85"/>
<path d="M767.743 243.742V251.193H766.089V243.742H767.743ZM757.106 247.529C757.1 245.745 758.303 244.487 759.964 244.494C761.399 244.487 762.507 245.431 762.78 246.846H763.614V243.947H765.228V251.098H763.614V248.254H762.773C762.493 249.655 761.386 250.578 759.964 250.564C758.303 250.578 757.1 249.334 757.106 247.529ZM758.665 247.529C758.658 248.541 759.198 249.136 759.964 249.129C760.723 249.136 761.276 248.541 761.29 247.529C761.276 246.552 760.723 245.978 759.964 245.971C759.198 245.978 758.658 246.552 758.665 247.529ZM759.144 253.053V251.672H767.743V256.197H766.007V253.053H759.144Z" fill="#7D7D85"/>
<path d="M752.185 243.742V256.184H750.448V243.742H752.185ZM742.396 253.107V244.932H744.118V251.624C745.8 251.597 747.604 251.439 749.437 251.084L749.655 252.52C747.475 252.978 745.41 253.114 743.489 253.107H742.396Z" fill="#7D7D85"/>
<path d="M737.036 248.801V250.195H734.616V252.239C735.642 252.198 736.667 252.13 737.638 252.027L737.774 253.299C735.054 253.716 732.224 253.736 729.886 253.736L729.681 252.314C730.672 252.321 731.752 252.321 732.866 252.294V250.195H730.501V244.85H736.968V246.23H732.237V248.801H737.036ZM738.349 256.211V243.742H740.085V256.211H738.349Z" fill="#7D7D85"/>
<path d="M898.029 223.303V224.779H900.572V223.303H902.322V228.73H896.293V223.303H898.029ZM897.537 230.891V229.537H905.795V232.914H899.273V233.721H906.15V235.102H897.564V231.67H904.059V230.891H897.537ZM898.029 227.363H900.572V226.092H898.029V227.363ZM904.045 229.072V222.742H905.795V225.162H907.477V226.57H905.795V229.072H904.045Z" fill="#7D7D85"/>
<path d="M894.311 222.756V235.197H892.588V222.756H894.311ZM883.879 230.412C886.285 230.412 889.266 230.405 891.877 230.125L892 231.383C890.934 231.54 889.84 231.636 888.773 231.697V234.979H887.01V231.772C885.984 231.8 885 231.807 884.084 231.807L883.879 230.412ZM884.234 225.258V223.945H887.037V222.646H888.773V223.945H891.59V225.258H884.234ZM884.836 227.732C884.829 226.468 886.087 225.613 887.912 225.613C889.71 225.613 890.968 226.468 890.975 227.732C890.968 228.99 889.71 229.845 887.912 229.838C886.087 229.845 884.829 228.99 884.836 227.732ZM886.504 227.732C886.504 228.279 887.044 228.546 887.912 228.553C888.739 228.546 889.293 228.279 889.293 227.732C889.293 227.179 888.739 226.905 887.912 226.898C887.044 226.905 886.504 227.179 886.504 227.732Z" fill="#7D7D85"/>
<path d="M878.314 222.742V227.514H880.078V228.949H878.314V235.156H876.564V222.742H878.314ZM868.361 231.67C871.308 230.193 872.894 228.211 873.222 225.436H869.072V224.014H874.992C874.979 227.732 873.529 230.952 869.346 233.01L868.361 231.67Z" fill="#7D7D85"/>
<path d="M866.898 222.742V235.211H865.176V228.539H862.988V227.131H865.176V222.742H866.898ZM856.973 232.395V223.781H862.783V225.189H858.709V227.254H862.332V228.621H858.709V230.973C860.438 230.959 861.819 230.897 863.357 230.658L863.535 232.053C861.717 232.326 860.09 232.388 857.957 232.395H856.973Z" fill="#7D7D85"/>
<path d="M854.717 222.742V235.211H852.953V222.742H854.717ZM844.668 228.047C844.661 225.333 846.049 223.617 847.963 223.617C849.836 223.617 851.23 225.333 851.23 228.047C851.23 230.781 849.836 232.49 847.963 232.49C846.049 232.49 844.661 230.781 844.668 228.047ZM846.35 228.047C846.343 229.899 846.992 230.911 847.963 230.904C848.906 230.911 849.542 229.899 849.549 228.047C849.542 226.201 848.906 225.189 847.963 225.189C846.992 225.189 846.343 226.201 846.35 228.047Z" fill="#7D7D85"/>
<path d="M842.986 222.742V235.184H841.305V222.742H842.986ZM832.582 232.408V224.15H837.34V225.545H834.291V230.966C835.617 230.952 836.629 230.877 837.791 230.645L837.928 232.066C836.52 232.347 835.269 232.408 833.443 232.408H832.582ZM836.492 228.703V227.281H838.721V222.961H840.348V234.623H838.721V228.703H836.492Z" fill="#7D7D85"/>
<path d="M821.576 225.559C821.583 227.896 822.526 230.173 824.598 231.068L823.531 232.463C822.15 231.793 821.221 230.549 820.701 229.011C820.168 230.645 819.211 231.984 817.789 232.682L816.695 231.26C818.828 230.296 819.799 227.896 819.812 225.559V223.699H821.576V225.559ZM823.203 228.061V226.652H825.65V222.742H827.373V235.211H825.65V228.061H823.203Z" fill="#7D7D85"/>
<path d="M815.561 222.742V235.184H813.893V222.742H815.561ZM804.883 228.129C804.883 225.347 805.942 223.624 807.59 223.631C809.087 223.624 810.112 225.025 810.304 227.35H811.322V222.92H812.963V234.609H811.322V228.73H810.317C810.167 231.171 809.121 232.654 807.59 232.654C805.942 232.654 804.883 230.925 804.883 228.129ZM806.496 228.129C806.482 230.043 806.893 230.986 807.59 230.973C808.308 230.986 808.731 230.043 808.725 228.129C808.731 226.222 808.308 225.271 807.59 225.271C806.893 225.271 806.482 226.222 806.496 228.129Z" fill="#7D7D85"/>
<path d="M799.223 224.383C799.216 226.208 800.836 228.156 803.652 228.635L802.887 230.084C800.713 229.653 799.106 228.43 798.3 226.837C797.479 228.416 795.866 229.646 793.713 230.084L792.961 228.635C795.729 228.143 797.35 226.188 797.363 224.383V223.48H799.223V224.383ZM792.674 233.652V232.217H804.062V233.652H792.674Z" fill="#7D7D85"/>
<path d="M790.992 222.742V235.211H789.229V222.742H790.992ZM781.189 232.299V223.727H782.939V226.762H785.619V223.727H787.342V232.299H781.189ZM782.939 230.891H785.619V228.115H782.939V230.891Z" fill="#7D7D85"/>
<path d="M773.178 225.559C773.185 227.896 774.128 230.173 776.199 231.068L775.133 232.463C773.752 231.793 772.822 230.549 772.303 229.011C771.77 230.645 770.812 231.984 769.391 232.682L768.297 231.26C770.43 230.296 771.4 227.896 771.414 225.559V223.699H773.178V225.559ZM774.805 228.061V226.652H777.252V222.742H778.975V235.211H777.252V228.061H774.805Z" fill="#7D7D85"/>
<path d="M764.305 232.914L763.129 236.811H761.68L762.363 232.914H764.305Z" fill="#7D7D85"/>
<path d="M760.367 222.742V235.184H758.686V222.742H760.367ZM749.963 232.408V224.15H754.721V225.545H751.672V230.966C752.998 230.952 754.01 230.877 755.172 230.645L755.309 232.066C753.9 232.347 752.649 232.408 750.824 232.408H749.963ZM753.873 228.703V227.281H756.102V222.961H757.729V234.623H756.102V228.703H753.873Z" fill="#7D7D85"/>
<path d="M747.584 226.133V227.5H738.889V223.18H740.625V226.133H747.584ZM737.467 230.207V228.84H748.855V230.207H737.467ZM738.779 234.91V231.219H740.529V233.516H747.666V234.91H738.779Z" fill="#7D7D85"/>
<path d="M735.197 222.742V227.609H737.029V229.045H735.197V235.184H733.475V222.742H735.197ZM725.312 225.996V224.602H728.129V222.934H729.879V224.602H732.627V225.996H725.312ZM725.818 229.66C725.812 227.924 727.165 226.687 729.004 226.693C730.815 226.687 732.176 227.924 732.176 229.66C732.176 231.396 730.815 232.62 729.004 232.627C727.165 232.62 725.812 231.396 725.818 229.66ZM727.486 229.66C727.486 230.624 728.122 231.198 729.004 231.191C729.872 231.198 730.508 230.624 730.508 229.66C730.508 228.703 729.872 228.115 729.004 228.102C728.122 228.115 727.486 228.703 727.486 229.66Z" fill="#7D7D85"/>
<path d="M898.713 202.617C900.613 202.617 901.987 204.333 901.994 207.047C901.987 209.781 900.613 211.49 898.713 211.49C896.806 211.49 895.425 209.781 895.432 207.047C895.425 204.333 896.806 202.617 898.713 202.617ZM897.113 207.047C897.113 208.899 897.763 209.911 898.713 209.904C899.684 209.911 900.319 208.899 900.326 207.047C900.319 205.201 899.684 204.189 898.713 204.189C897.763 204.189 897.113 205.201 897.113 207.047ZM903.43 214.184V201.742H905.18V204.627H906.943V206.09H905.18V208.305H906.943V209.727H905.18V214.184H903.43Z" fill="#7D7D85"/>
<path d="M885.588 202.727V204.285H888.445V202.727H890.195V208.455H887.912V210.342C888.876 210.294 889.84 210.219 890.742 210.096L890.865 211.367C888.261 211.832 885.458 211.839 883.346 211.846L883.113 210.424C884.029 210.424 885.075 210.424 886.176 210.403V208.455H883.879V202.727H885.588ZM885.588 207.088H888.445V205.611H885.588V207.088ZM891.398 214.184V201.742H893.148V206.719H894.844V208.168H893.148V214.184H891.398Z" fill="#7D7D85"/>
<path d="M879.312 207.32V208.619H867.924V207.32H879.312ZM869.223 210.438V209.234H877.945V212.174H870.973V212.885H878.314V214.074H869.236V211.066H876.223V210.438H869.223ZM869.318 203.15V201.961H877.932V204.887H871.082V205.557H878.15V206.732H869.346V203.779H876.182V203.15H869.318Z" fill="#7D7D85"/>
<path d="M865.791 201.742V206.801H867.418V208.25H865.791V214.184H864.027V201.742H865.791ZM855.688 210.67C856.597 210.67 857.656 210.67 858.764 210.643V209.576C857.444 209.316 856.583 208.476 856.59 207.32C856.583 205.933 857.841 204.982 859.652 204.982C861.43 204.982 862.701 205.933 862.715 207.32C862.701 208.476 861.826 209.323 860.514 209.576V210.581C861.498 210.526 862.489 210.444 863.412 210.314L863.521 211.586C860.876 212.078 858.019 212.099 855.92 212.092L855.688 210.67ZM855.934 204.49V203.123H858.764V201.811H860.514V203.123H863.316V204.49H855.934ZM858.244 207.32C858.237 207.977 858.798 208.332 859.652 208.332C860.479 208.332 861.033 207.977 861.033 207.32C861.033 206.678 860.479 206.315 859.652 206.309C858.798 206.315 858.237 206.678 858.244 207.32Z" fill="#7D7D85"/>
<path d="M854.225 201.756V210.93H852.488V207.895H850.191V208.961H844.271V202.562H846.021V204.477H848.469V202.562H850.191V203.834H852.488V201.756H854.225ZM845.939 213.965V210.014H847.703V212.57H854.484V213.965H845.939ZM846.021 207.594H848.469V205.803H846.021V207.594ZM850.191 206.5H852.488V205.242H850.191V206.5Z" fill="#7D7D85"/>
<path d="M838.83 201.742V214.211H837.066V201.742H838.83ZM829.027 211.299V202.727H830.777V205.762H833.457V202.727H835.18V211.299H829.027ZM830.777 209.891H833.457V207.115H830.777V209.891Z" fill="#7D7D85"/>
<path d="M827.072 201.742V214.184H825.418V207.936H824.215V213.582H822.615V201.947H824.215V206.541H825.418V201.742H827.072ZM816.668 211.367V203.178H821.303V204.586H818.418V209.904C819.621 209.884 820.688 209.815 821.891 209.604L822.014 211.025C820.496 211.312 819.17 211.36 817.529 211.367H816.668Z" fill="#7D7D85"/>
<path d="M811.623 209.152C811.616 211.729 810.823 213.869 809.518 215.715H807.59C808.533 214.341 809.518 211.606 809.518 209.152C809.518 206.705 808.533 203.964 807.59 202.604H809.518C810.823 204.442 811.616 206.582 811.623 209.152Z" fill="#7D7D85"/>
<path d="M797.76 203.027H800.07L802.354 207.293H802.449L804.719 203.027H807.029L803.42 209.398V212.926H801.369V209.398L797.76 203.027Z" fill="#7D7D85"/>
<path d="M794.984 213.076C792.742 213.069 791.341 211.531 791.348 209.234C791.341 206.944 792.742 205.406 794.984 205.406C797.233 205.406 798.628 206.944 798.635 209.234C798.628 211.531 797.233 213.069 794.984 213.076ZM793.398 209.234C793.398 210.533 793.939 211.497 794.998 211.504C796.03 211.497 796.577 210.533 796.57 209.234C796.577 207.929 796.03 206.951 794.998 206.951C793.939 206.951 793.398 207.929 793.398 209.234Z" fill="#7D7D85"/>
<path d="M782.885 203.027H785.195L787.479 207.293H787.574L789.844 203.027H792.154L788.545 209.398V212.926H786.494V209.398L782.885 203.027Z" fill="#7D7D85"/>
<path d="M778.291 209.152C778.298 206.582 779.091 204.442 780.396 202.604H782.324C781.381 203.964 780.396 206.705 780.396 209.152C780.396 211.606 781.381 214.341 782.324 215.715H780.396C779.091 213.869 778.298 211.729 778.291 209.152Z" fill="#7D7D85"/>
<path d="M772.699 201.742V214.184H770.936V201.742H772.699ZM762.281 210.656C765.494 209.139 766.909 207.17 767.189 204.408H762.951V203.041H768.967C768.96 206.814 767.641 209.952 763.197 212.051L762.281 210.656Z" fill="#7D7D85"/>
<path d="M761.516 207.621V208.988H750.141V207.621H754.98V206.555H751.521V202.289H760.148V203.643H753.258V205.188H760.217V206.555H756.689V207.621H761.516ZM751.439 211.914C751.439 210.438 753.08 209.617 755.801 209.617C758.501 209.617 760.121 210.438 760.135 211.914C760.121 213.37 758.501 214.197 755.801 214.197C753.08 214.197 751.439 213.37 751.439 211.914ZM753.217 211.914C753.21 212.563 754.078 212.871 755.801 212.871C757.489 212.871 758.378 212.563 758.385 211.914C758.378 211.271 757.489 210.943 755.801 210.943C754.078 210.943 753.21 211.271 753.217 211.914Z" fill="#7D7D85"/>
<path d="M745.301 201.756V210.902H743.564V206.828H740.475V205.461H743.564V204.504H740.475V203.137H743.564V201.756H745.301ZM735.512 209.289V202.535H737.234V207.854C738.752 207.833 740.188 207.737 741.732 207.457L741.91 208.865C740.044 209.221 738.369 209.282 736.51 209.289H735.512ZM737.029 213.965V210.082H738.779V212.57H745.602V213.965H737.029Z" fill="#7D7D85"/>
<path d="M729.783 202.467V203.861H727.309C727.315 205.317 728.19 206.814 730.207 207.457L729.318 208.811C727.938 208.359 726.987 207.471 726.447 206.363C725.894 207.573 724.896 208.544 723.453 209.016L722.523 207.676C724.581 207.013 725.524 205.413 725.545 203.861H723.002V202.467H729.783ZM724.205 211.162V209.781H732.586V214.184H730.836V211.162H724.205ZM730.836 209.248V201.742H732.586V204.764H734.268V206.213H732.586V209.248H730.836Z" fill="#7D7D85"/>
<path d="M885.096 282.445C885.084 284.66 884.486 286.5 883.408 288.07H882.518C883.309 286.904 884.047 284.537 884.053 282.445C884.047 280.359 883.309 277.986 882.518 276.832H883.408C884.486 278.396 885.084 280.236 885.096 282.445Z" fill="#7D7D85"/>
<path d="M875.615 279.012C875.615 280.846 876.828 282.738 878.311 283.465L877.748 284.203C876.6 283.605 875.639 282.369 875.176 280.922C874.713 282.457 873.729 283.775 872.557 284.402L871.971 283.664C873.494 282.914 874.701 280.916 874.713 279.012V277.113H875.615V279.012ZM879.271 286.629V276.211H880.186V280.441H881.932V281.238H880.186V286.629H879.271Z" fill="#7D7D85"/>
<path d="M870.6 276.223V282.363H869.721V279.609H868.303V282.293H867.424V276.422H868.303V278.848H869.721V276.223H870.6ZM861.811 281.789C863.973 280.91 865.197 279.498 865.373 277.746H862.232V276.984H866.322C866.316 279.475 864.91 281.355 862.268 282.48L861.811 281.789ZM863.568 283.594V282.844H870.6V286.629H869.697V283.594H863.568Z" fill="#7D7D85"/>
<path d="M859.736 277.266V278.309C859.725 279.586 859.725 281.016 859.35 283.113L858.412 283.008C858.805 281.016 858.805 279.557 858.811 278.309V278.027H852.389V277.266H859.736ZM851.381 285.152V284.391H855.107V280.664H856.01V284.391H860.873V285.152H851.381Z" fill="#7D7D85"/>
<path d="M847.936 282.445C847.947 280.236 848.545 278.396 849.623 276.832H850.514C849.723 277.986 848.984 280.359 848.979 282.445C848.984 284.537 849.723 286.904 850.514 288.07H849.623C848.545 286.5 847.947 284.66 847.936 282.445Z" fill="#7D7D85"/>
<path d="M842.545 276.211V286.652H841.631V280.91H839.428V280.148H841.631V276.211H842.545ZM834.389 284.133V277.172H839.252V277.934H835.314V280.102H838.795V280.852H835.314V283.371C837.225 283.365 838.455 283.312 839.885 283.055L839.99 283.816C838.473 284.062 837.201 284.133 835.186 284.133H834.389Z" fill="#7D7D85"/>
<path d="M828.131 277.453C828.125 278.438 828.014 279.416 827.715 280.336H829.385V276.492H830.264V286.102H829.385V281.098H827.416C826.83 282.381 825.811 283.541 824.135 284.461L823.607 283.805C825.213 282.932 826.168 281.836 826.695 280.605L823.725 280.91L823.584 280.09L826.953 279.879C827.105 279.34 827.193 278.789 827.229 278.215H824.088V277.453H828.131ZM831.576 286.629V276.211H832.455V286.629H831.576Z" fill="#7D7D85"/>
<path d="M818.404 277.266V283.98H813.6V277.266H818.404ZM814.49 283.23H817.49V278.004H814.49V283.23ZM820.314 286.629V276.211H821.229V280.371H822.975V281.168H821.229V286.629H820.314Z" fill="#7D7D85"/>
<path d="M808.197 281.227V281.988H801.002V277.184H808.092V277.945H801.916V281.227H808.197ZM799.783 285.211V284.438H809.322V285.211H799.783Z" fill="#7D7D85"/>
<path d="M798.26 276.223V283.98H797.381V280.113H795.916V283.676H795.061V276.422H795.916V279.34H797.381V276.223H798.26ZM789.869 277.863V277.113H793.818V280.09H790.783V281.672C792.154 281.66 793.209 281.602 794.439 281.355L794.545 282.094C793.191 282.357 792.084 282.416 790.572 282.41H789.893V279.363H792.939V277.863H789.869ZM791.428 286.406V283.266H792.342V285.633H798.576V286.406H791.428Z" fill="#7D7D85"/>
<path d="M788.58 284.473V285.246H779.041V284.473H788.58ZM780.166 282.387V276.961H781.092V278.906H786.506V276.961H787.408V282.387H780.166ZM781.092 281.648H786.506V279.645H781.092V281.648Z" fill="#7D7D85"/>
<path d="M775.15 281.25V282.012H770.85V283.242H773.99V286.488H766.818V283.242H769.947V282.012H765.658V281.25H775.15ZM766.549 277.312V276.551H774.248V277.312H772.643V279.504H774.213V280.266H766.584V279.504H768.154V277.312H766.549ZM767.732 285.738H773.088V283.969H767.732V285.738ZM769.068 279.504H771.729V277.312H769.068V279.504Z" fill="#7D7D85"/>
<path d="M764.193 276.211V286.629H763.314V276.211H764.193ZM755.158 283.852C756.611 282.984 757.461 281.08 757.455 279.188V278.203H755.451V277.441H760.256V278.203H758.346V279.188C758.346 280.986 759.16 282.785 760.596 283.617L760.033 284.297C759.008 283.682 758.281 282.557 757.918 281.232C757.543 282.668 756.787 283.893 755.744 284.543L755.158 283.852ZM759.459 280.723V279.973H761.217V276.469H762.084V286.09H761.217V280.723H759.459Z" fill="#7D7D85"/>
<path d="M754.443 282.152V282.914H751.924V286.629H750.998V282.914H748.326V286.629H747.377V282.914H744.904V282.152H754.443ZM745.982 278.906C745.988 277.518 747.459 276.639 749.65 276.633C751.836 276.639 753.318 277.518 753.318 278.906C753.318 280.295 751.836 281.162 749.65 281.156C747.459 281.162 745.988 280.295 745.982 278.906ZM746.932 278.906C746.92 279.826 748.027 280.418 749.65 280.418C751.273 280.418 752.375 279.826 752.381 278.906C752.375 277.98 751.273 277.383 749.65 277.383C748.027 277.383 746.92 277.98 746.932 278.906Z" fill="#7D7D85"/>
</g>
<path d="M674.667 216C674.667 218.946 677.054 221.333 680 221.333C682.946 221.333 685.333 218.946 685.333 216C685.333 213.054 682.946 210.667 680 210.667C677.054 210.667 674.667 213.054 674.667 216ZM640 216V217H645V216V215H640V216ZM655 216V217H665V216V215H655V216ZM675 216V217H680V216V215H675V216Z" fill="#EF677F"/>
<defs>
<filter id="filter0_d_1179_36605" x="676" y="36" width="286" height="368" filterUnits="userSpaceOnUse" color-interpolation-filters="sRGB">
<feFlood flood-opacity="0" result="BackgroundImageFix"/>
<feColorMatrix in="SourceAlpha" type="matrix" values="0 0 0 0 0 0 0 0 0 0 0 0 0 0 0 0 0 0 127 0" result="hardAlpha"/>
<feOffset dx="4" dy="4"/>
<feGaussianBlur stdDeviation="4"/>
<feComposite in2="hardAlpha" operator="out"/>
<feColorMatrix type="matrix" values="0 0 0 0 0 0 0 0 0 0 0 0 0 0 0 0 0 0 0.06 0"/>
<feBlend mode="normal" in2="BackgroundImageFix" result="effect1_dropShadow_1179_36605"/>
<feBlend mode="normal" in="SourceGraphic" in2="effect1_dropShadow_1179_36605" result="shape"/>
</filter>
</defs>
</svg>
