<svg width="990" height="432" viewBox="0 0 990 432" fill="none" xmlns="http://www.w3.org/2000/svg">
<rect width="990" height="432" fill="#C4C4C4" fill-opacity="0.1"/>
<g filter="url(#filter0_d_1185_37068)">
<rect x="40" y="40" width="435" height="156" rx="12" fill="white" shape-rendering="crispEdges"/>
<rect x="41" y="41" width="433" height="154" rx="11" stroke="#D8D7E9" stroke-opacity="0.5" stroke-width="2" shape-rendering="crispEdges"/>
<path d="M74 96.5312V90.5312C74 89.25 73.6406 88.1797 72.9219 87.3203C72.2031 86.4609 71.2344 86.0312 70.0156 86.0312C68.7969 86.0312 67.8281 86.4609 67.1094 87.3203C66.3906 88.1797 66.0312 89.25 66.0312 90.5312V96.5312H74V96.5312M76.0156 95.5L78.0312 97.5156V98.5H62V97.5156L64.0156 95.5V90.5312C64.0156 88.9688 64.4141 87.6094 65.2109 86.4531C66.0078 85.2969 67.1094 84.5469 68.5156 84.2031V83.5C68.5156 83.0938 68.6562 82.7422 68.9375 82.4453C69.2188 82.1484 69.5781 82 70.0156 82C70.4531 82 70.8125 82.1484 71.0938 82.4453C71.375 82.7422 71.5156 83.0938 71.5156 83.5V84.2031C72.9219 84.5469 74.0234 85.2969 74.8203 86.4531C75.6172 87.6094 76.0156 88.9688 76.0156 90.5312V95.5V95.5M71.4219 100.914C71.0156 101.305 70.5469 101.5 70.0156 101.5C69.4844 101.5 69.0156 101.305 68.6094 100.914C68.2031 100.523 68 100.062 68 99.5312H72.0312C72.0312 100.062 71.8281 100.523 71.4219 100.914V100.914" fill="#7D7D85"/>
<path d="M103.938 83.0234V100.797H101.594V83.0234H103.938ZM88.2539 95.3477C91.8574 93.2188 93.4395 90.6309 93.7812 87.1445H89.2891V85.1328H96.2617C96.2617 86.0215 96.2031 86.8809 96.0957 87.7109H97.8633V83.4141H100.227V100.016H97.8633V94.1562H95.3438V92.1445H97.8633V89.7227H95.6855C94.8555 92.6621 93.0391 95.1328 89.7188 97.1055L88.2539 95.3477ZM120.754 83.0234V100.797H118.234V83.0234H120.754ZM105.871 95.7578C110.461 93.5898 112.482 90.7773 112.883 86.832H106.828V84.8789H115.422C115.412 90.2695 113.527 94.752 107.18 97.75L105.871 95.7578Z" fill="#222222"/>
<path d="M73.1562 115.816V128.258H71.4883V121.982H70.3672V127.684H68.7129V115.994H70.3672V120.561H71.4883V115.816H73.1562ZM62.7246 125.127V117.102H67.6738V125.127H62.7246ZM64.3516 123.76H66.0469V118.482H64.3516V123.76ZM80.498 116.459V117.84H76.6426V120.355C78.8096 120.342 80.1221 120.246 81.5781 119.945L81.7559 121.299C80.1426 121.675 78.625 121.716 75.9453 121.709H74.9062V116.459H80.498ZM76.082 123.896V122.516H84.3398V125.947H77.8184V126.727H84.6953V128.121H76.1094V124.635H82.6035V123.896H76.082ZM82.5898 122.01V115.816H84.3398V118.168H86.0215V119.59H84.3398V122.01H82.5898ZM100.582 115.816V128.258H98.9004V115.816H100.582ZM90.1777 125.482V117.225H94.9355V118.619H91.8867V124.04C93.2129 124.026 94.2246 123.951 95.3867 123.719L95.5234 125.141C94.1152 125.421 92.8643 125.482 91.0391 125.482H90.1777ZM94.0879 121.777V120.355H96.3164V116.035H97.9434V127.697H96.3164V121.777H94.0879ZM112.312 115.816V128.285H110.549V115.816H112.312ZM102.264 121.121C102.257 118.407 103.645 116.691 105.559 116.691C107.432 116.691 108.826 118.407 108.826 121.121C108.826 123.855 107.432 125.564 105.559 125.564C103.645 125.564 102.257 123.855 102.264 121.121ZM103.945 121.121C103.938 122.974 104.588 123.985 105.559 123.979C106.502 123.985 107.138 122.974 107.145 121.121C107.138 119.275 106.502 118.264 105.559 118.264C104.588 118.264 103.938 119.275 103.945 121.121ZM124.494 115.816V128.285H122.771V121.613H120.584V120.205H122.771V115.816H124.494ZM114.568 125.469V116.855H120.379V118.264H116.305V120.328H119.928V121.695H116.305V124.047C118.034 124.033 119.415 123.972 120.953 123.732L121.131 125.127C119.312 125.4 117.686 125.462 115.553 125.469H114.568ZM137.469 121.395V122.693H126.08V121.395H137.469ZM127.379 124.512V123.309H136.102V126.248H129.129V126.959H136.471V128.148H127.393V125.141H134.379V124.512H127.379ZM127.475 117.225V116.035H136.088V118.961H129.238V119.631H136.307V120.807H127.502V117.854H134.338V117.225H127.475ZM151.236 115.816V120.438H153.068V121.859H151.236V128.285H149.486V115.816H151.236ZM141.912 125.264V116.965H147.75V118.373H143.648V123.828C145.453 123.814 146.943 123.719 148.598 123.432L148.789 124.895C146.854 125.223 145.159 125.271 142.965 125.264H141.912ZM164.895 121.873V123.268H160.178V125.428H158.414V123.268H153.506V121.873H164.895ZM154.682 118.633C154.682 117.054 156.486 116.062 159.193 116.049C161.887 116.062 163.685 117.054 163.691 118.633C163.685 120.219 161.887 121.203 159.193 121.203C156.486 121.203 154.682 120.219 154.682 118.633ZM154.859 128.039V124.32H156.623V126.631H163.637V128.039H154.859ZM156.568 118.633C156.562 119.392 157.587 119.802 159.193 119.809C160.8 119.802 161.818 119.392 161.818 118.633C161.818 117.84 160.8 117.43 159.193 117.43C157.587 117.43 156.562 117.84 156.568 118.633ZM177.008 125.441V126.877H165.619V125.441H170.418V123.568H166.932V119.385H173.973V118.018H166.918V116.623H175.695V120.752H168.682V122.146H175.982V123.568H172.154V125.441H177.008ZM187.863 121.572V122.967H179.059V116.855H187.768V118.264H180.781V121.572H187.863ZM177.719 126.74V125.305H189.107V126.74H177.719ZM199.635 115.816V120.684H201.467V122.119H199.635V128.258H197.912V115.816H199.635ZM189.75 119.07V117.676H192.566V116.008H194.316V117.676H197.064V119.07H189.75ZM190.256 122.734C190.249 120.998 191.603 119.761 193.441 119.768C195.253 119.761 196.613 120.998 196.613 122.734C196.613 124.471 195.253 125.694 193.441 125.701C191.603 125.694 190.249 124.471 190.256 122.734ZM191.924 122.734C191.924 123.698 192.56 124.272 193.441 124.266C194.31 124.272 194.945 123.698 194.945 122.734C194.945 121.777 194.31 121.189 193.441 121.176C192.56 121.189 191.924 121.777 191.924 122.734ZM206.744 119.207C206.737 121.217 207.776 123.37 209.861 124.238L208.918 125.605C207.455 124.983 206.443 123.746 205.883 122.242C205.322 123.876 204.29 125.243 202.82 125.92L201.822 124.539C203.887 123.616 204.953 121.312 204.953 119.207V118.441H202.314V117.02H209.342V118.441H206.744V119.207ZM210.572 128.258V115.816H212.336V128.258H210.572ZM220.676 116.418C222.59 116.411 224.012 117.628 224.012 119.316C224.012 121.019 222.59 122.229 220.676 122.229C218.775 122.229 217.319 121.019 217.326 119.316C217.319 117.628 218.775 116.411 220.676 116.418ZM218.365 127.93V123.158H220.061V126.508C220.751 126.46 221.4 126.357 222.043 126.152L222.289 127.506C221.243 127.882 220.238 127.93 219.049 127.93H218.365ZM219.035 119.316C219.021 120.232 219.732 120.8 220.676 120.807C221.619 120.8 222.316 120.232 222.316 119.316C222.316 118.407 221.619 117.847 220.676 117.854C219.732 117.847 219.021 118.407 219.035 119.316ZM221.865 124.457V123.172H224.162V122.297H225.857V123.172H228.127V124.457H221.865ZM222.59 126.508C222.576 125.435 223.554 124.744 224.982 124.744C226.404 124.744 227.396 125.435 227.402 126.508C227.396 127.588 226.404 128.265 224.982 128.258C223.547 128.265 222.576 127.588 222.59 126.508ZM224.135 126.508C224.128 126.884 224.49 127.068 224.982 127.068C225.481 127.068 225.837 126.884 225.844 126.508C225.837 126.152 225.481 125.954 224.982 125.947C224.49 125.954 224.128 126.152 224.135 126.508ZM225.365 121.955V115.816H227.115V118.4H228.797V119.836H227.115V121.955H225.365ZM235.018 116.445C237.643 116.452 239.7 117.874 239.707 120.027C239.7 122.201 237.643 123.616 235.018 123.609C232.386 123.616 230.342 122.201 230.342 120.027C230.342 117.874 232.386 116.452 235.018 116.445ZM229.344 126.74V125.332H240.732V126.74H229.344ZM232.037 120.027C232.03 121.381 233.288 122.188 235.018 122.188C236.733 122.188 237.978 121.381 237.984 120.027C237.978 118.694 236.733 117.854 235.018 117.867C233.288 117.854 232.03 118.694 232.037 120.027ZM247.869 116.828V117.771H250.193V115.83H251.93V124.881H250.193V121.832H247.869V122.885H241.963V116.828H247.869ZM243.645 128.039V124.02H245.408V126.645H252.189V128.039H243.645ZM243.699 121.531H246.16V118.209H243.699V121.531ZM247.869 120.451H250.193V119.18H247.869V120.451ZM72.7871 136.816V149.285H71.0234V136.816H72.7871ZM62.9844 146.373V137.801H64.7344V140.836H67.4141V137.801H69.1367V146.373H62.9844ZM64.7344 144.965H67.4141V142.189H64.7344V144.965ZM84.791 137.896V139.113C84.7842 140.631 84.7842 142.333 84.3262 144.842L82.6172 144.691C83.0205 142.408 83.0342 140.72 83.041 139.277H75.5898V137.896H84.791ZM74.4688 147.74V146.318H76.8887V142.408H78.625V146.318H79.9922V142.408H81.7148V146.318H85.8164V147.74H74.4688ZM96.3848 136.816V141.588H98.1484V143.023H96.3848V149.23H94.6348V136.816H96.3848ZM86.4316 145.744C89.3779 144.268 90.9639 142.285 91.292 139.51H87.1426V138.088H93.0625C93.0488 141.807 91.5996 145.026 87.416 147.084L86.4316 145.744ZM105.066 137.008V137.869H110.057V137.008H111.793V141.178H103.344V137.008H105.066ZM101.895 143.229V141.82H113.242V143.229H108.43V144.008H111.861V147.152H104.93V147.863H112.189V149.176H103.221V145.949H110.139V145.279H103.207V144.008H106.68V143.229H101.895ZM105.066 139.879H110.057V139.127H105.066V139.879ZM123.811 136.816V141.588H125.574V143.023H123.811V149.23H122.061V136.816H123.811ZM113.857 145.744C116.804 144.268 118.39 142.285 118.718 139.51H114.568V138.088H120.488C120.475 141.807 119.025 145.026 114.842 147.084L113.857 145.744ZM136.184 139.934V141.328H127.529V137.008H129.266V139.934H136.184ZM126.094 143.816V142.395H137.469V143.816H126.094ZM127.393 146.906C127.393 145.437 129.033 144.603 131.754 144.596C134.454 144.603 136.074 145.437 136.088 146.906C136.074 148.39 134.454 149.217 131.754 149.217C129.033 149.217 127.393 148.39 127.393 146.906ZM129.17 146.906C129.163 147.556 130.031 147.884 131.754 147.891C133.442 147.884 134.331 147.556 134.338 146.906C134.331 146.243 133.442 145.963 131.754 145.949C130.031 145.963 129.163 146.243 129.17 146.906ZM144.195 138.717V140.098H138.18V138.717H140.34V137.158H142.062V138.717H144.195ZM138.467 143.611C138.467 141.882 139.629 140.665 141.215 140.658C142.808 140.665 143.942 141.882 143.949 143.611C143.942 145.348 142.808 146.578 141.215 146.578C139.629 146.578 138.467 145.348 138.467 143.611ZM139.998 143.611C139.998 144.562 140.49 145.102 141.215 145.102C141.912 145.102 142.411 144.562 142.418 143.611C142.411 142.675 141.912 142.107 141.215 142.107C140.49 142.107 139.998 142.675 139.998 143.611ZM144.66 148.725V137.062H146.287V141.875H147.299V136.816H148.953V149.258H147.299V143.27H146.287V148.725H144.66ZM156.691 137.008V137.869H161.682V137.008H163.418V141.178H154.969V137.008H156.691ZM153.52 143.229V141.82H164.867V143.229H160.055V144.008H163.486V147.152H156.555V147.863H163.814V149.176H154.846V145.949H161.764V145.279H154.832V144.008H158.305V143.229H153.52ZM156.691 139.879H161.682V139.127H156.691V139.879ZM175.49 136.816V140.385H177.172V141.834H175.49V145.881H173.74V136.816H175.49ZM165.701 140.781C165.694 138.929 167.205 137.616 169.119 137.623C171.026 137.616 172.51 138.929 172.51 140.781C172.51 142.606 171.026 143.939 169.119 143.939C167.205 143.939 165.694 142.606 165.701 140.781ZM167.424 149.039V144.924H169.16V147.645H175.941V149.039H167.424ZM167.424 140.781C167.41 141.793 168.169 142.422 169.119 142.422C170.076 142.422 170.808 141.793 170.814 140.781C170.808 139.742 170.076 139.134 169.119 139.141C168.169 139.134 167.41 139.742 167.424 140.781ZM183.721 138.717V140.098H177.705V138.717H179.865V137.158H181.588V138.717H183.721ZM177.992 143.611C177.992 141.882 179.154 140.665 180.74 140.658C182.333 140.665 183.468 141.882 183.475 143.611C183.468 145.348 182.333 146.578 180.74 146.578C179.154 146.578 177.992 145.348 177.992 143.611ZM179.523 143.611C179.523 144.562 180.016 145.102 180.74 145.102C181.438 145.102 181.937 144.562 181.943 143.611C181.937 142.675 181.438 142.107 180.74 142.107C180.016 142.107 179.523 142.675 179.523 143.611ZM184.186 148.725V137.062H185.812V141.875H186.824V136.816H188.479V149.258H186.824V143.27H185.812V148.725H184.186ZM201.207 146.373V147.809H189.818V146.373H192.361V143.324C191.397 142.743 190.816 141.861 190.816 140.768C190.816 138.751 192.785 137.425 195.492 137.418C198.186 137.425 200.175 138.751 200.182 140.768C200.175 141.841 199.614 142.709 198.678 143.29V146.373H201.207ZM192.539 140.768C192.539 141.984 193.708 142.736 195.492 142.736C197.249 142.736 198.452 141.984 198.459 140.768C198.452 139.517 197.249 138.792 195.492 138.799C193.708 138.792 192.539 139.517 192.539 140.768ZM194.084 146.373H196.914V143.953C196.47 144.042 195.991 144.09 195.492 144.09C194.993 144.09 194.521 144.042 194.084 143.96V146.373Z" fill="#7D7D85"/>
</g>
<rect x="515" y="40" width="435" height="156" rx="12" fill="white"/>
<rect x="516" y="41" width="433" height="154" rx="11" stroke="#D8D7E9" stroke-opacity="0.5" stroke-width="2"/>
<path d="M546.703 97.9844C545.641 97.9219 544.68 97.6172 543.82 97.0703C542.961 96.5234 542.273 95.8047 541.758 94.9141C541.242 94.0234 540.984 93.0469 540.984 91.9844C540.984 90.8906 541.258 89.8906 541.805 88.9844C542.352 88.0781 543.078 87.3516 543.984 86.8047C544.891 86.2578 545.891 85.9844 546.984 85.9844C548.047 85.9844 549.023 86.2422 549.914 86.7578C550.805 87.2734 551.523 87.9609 552.07 88.8203C552.617 89.6797 552.922 90.6406 552.984 91.7031L550.875 91.0469C550.656 90.1719 550.188 89.4453 549.469 88.8672C548.75 88.2891 547.922 88 546.984 88C546.234 88 545.562 88.1797 544.969 88.5391C544.375 88.8984 543.898 89.375 543.539 89.9688C543.18 90.5625 543 91.2344 543 91.9844C543 92.9219 543.289 93.75 543.867 94.4688C544.445 95.1875 545.172 95.6562 546.047 95.875L546.703 97.9844V97.9844M556.969 91.9844C556.969 92.1406 556.969 92.2891 556.969 92.4297C556.969 92.5703 556.953 92.7188 556.922 92.875L554.953 92.3125C554.984 92.25 555 92.1953 555 92.1484C555 92.1016 555 92.0469 555 91.9844C555 90.8906 554.789 89.8594 554.367 88.8906C553.945 87.9219 553.367 87.0703 552.633 86.3359C551.898 85.6016 551.047 85.0234 550.078 84.6016C549.109 84.1797 548.078 83.9688 546.984 83.9688C545.891 83.9688 544.859 84.1797 543.891 84.6016C542.922 85.0234 542.07 85.6016 541.336 86.3359C540.602 87.0703 540.023 87.9219 539.602 88.8906C539.18 89.8594 538.969 90.8906 538.969 91.9844C538.969 93.0781 539.18 94.1094 539.602 95.0781C540.023 96.0469 540.602 96.8984 541.336 97.6328C542.07 98.3672 542.922 98.9453 543.891 99.3672C544.859 99.7891 545.891 100 546.984 100C547.047 100 547.102 100 547.148 100C547.195 100 547.25 99.9844 547.312 99.9531L547.875 101.922C547.719 101.953 547.57 101.969 547.43 101.969C547.289 101.969 547.141 101.969 546.984 101.969C545.609 101.969 544.32 101.711 543.117 101.195C541.914 100.68 540.852 99.9609 539.93 99.0391C539.008 98.1172 538.289 97.0547 537.773 95.8516C537.258 94.6484 537 93.3594 537 91.9844C537 90.6094 537.258 89.3203 537.773 88.1172C538.289 86.9141 539.008 85.8516 539.93 84.9297C540.852 84.0078 541.914 83.2891 543.117 82.7734C544.32 82.2578 545.609 82 546.984 82C548.359 82 549.648 82.2578 550.852 82.7734C552.055 83.2891 553.117 84.0078 554.039 84.9297C554.961 85.8516 555.68 86.9141 556.195 88.1172C556.711 89.3203 556.969 90.6094 556.969 91.9844V91.9844M553.219 96.25L556.969 94.9844L546.984 91.9844L549.984 101.969L551.25 98.2188L555.516 102.484L557.484 100.516L553.219 96.25V96.25" fill="#7D7D85"/>
<path d="M582.801 83.0234V94.1758H580.438V89.4492H579.012V93.5898H576.688V83.3555H579.012V87.418H580.438V83.0234H582.801ZM567.43 86.793V84.8594H570.574V83.1797H573.055V84.8594H576.16V86.793H567.43ZM567.977 90.4844C567.967 88.6191 569.598 87.3789 571.824 87.3789C574.08 87.3789 575.701 88.6191 575.711 90.4844C575.701 92.3301 574.08 93.5605 571.824 93.5703C569.598 93.5605 567.967 92.3301 567.977 90.4844ZM570.203 90.4844C570.193 91.3047 570.848 91.8027 571.824 91.793C572.791 91.8027 573.455 91.3047 573.465 90.4844C573.455 89.6543 572.791 89.166 571.824 89.1758C570.857 89.166 570.193 89.6543 570.203 90.4844ZM570.574 97.5742C570.564 95.5137 572.898 94.3418 576.727 94.332C580.564 94.3418 582.879 95.5137 582.898 97.5742C582.879 99.625 580.564 100.807 576.727 100.797C572.898 100.807 570.564 99.625 570.574 97.5742ZM573.074 97.5742C573.055 98.4727 574.314 98.9219 576.727 98.9219C579.148 98.9219 580.379 98.4727 580.379 97.5742C580.379 96.6367 579.148 96.1973 576.727 96.207C574.314 96.1973 573.055 96.6367 573.074 97.5742ZM601.062 91.4219V93.375H584.812V91.4219H591.727V89.8984H586.785V83.8047H599.109V85.7383H589.266V87.9453H599.207V89.8984H594.168V91.4219H601.062ZM586.668 97.5547C586.668 95.4453 589.012 94.2734 592.898 94.2734C596.756 94.2734 599.07 95.4453 599.09 97.5547C599.07 99.6348 596.756 100.816 592.898 100.816C589.012 100.816 586.668 99.6348 586.668 97.5547ZM589.207 97.5547C589.197 98.4824 590.438 98.9219 592.898 98.9219C595.311 98.9219 596.58 98.4824 596.59 97.5547C596.58 96.6367 595.311 96.168 592.898 96.168C590.438 96.168 589.197 96.6367 589.207 97.5547Z" fill="#222222"/>
<path d="M548.717 121.982V123.391H537.369V121.982H542.154V120.93H538.818V116.117H540.541V117.252H545.531V116.117H547.268V120.93H543.904V121.982H548.717ZM538.627 125.619V124.238H547.336V128.258H545.6V125.619H538.627ZM540.541 119.562H545.531V118.537H540.541V119.562ZM556.51 116.5V117.895H554.035C554.076 119.255 554.972 120.615 556.947 121.189L556.127 122.529C554.705 122.126 553.728 121.285 553.167 120.226C552.613 121.408 551.608 122.345 550.125 122.789L549.236 121.408C551.273 120.813 552.217 119.351 552.271 117.895H549.729V116.5H556.51ZM551.164 128.121V123.172H552.914V124.307H557.59V123.172H559.34V128.121H551.164ZM552.914 126.727H557.59V125.646H552.914V126.727ZM557.59 122.666V115.816H559.34V118.469H561.021V119.891H559.34V122.666H557.59ZM571.439 115.83V119.645H573.121V121.066H571.439V125.113H569.689V115.83H571.439ZM561.568 118.51V117.129H564.398V115.803H566.135V117.129H568.951V118.51H561.568ZM562.17 121.354C562.17 119.911 563.448 118.947 565.26 118.947C567.064 118.947 568.322 119.911 568.322 121.354C568.322 122.789 567.064 123.732 565.26 123.732C563.448 123.732 562.17 122.789 562.17 121.354ZM563.373 128.039V124.402H565.109V126.645H571.891V128.039H563.373ZM563.879 121.354C563.872 122.037 564.426 122.406 565.26 122.406C566.101 122.406 566.668 122.037 566.668 121.354C566.668 120.663 566.101 120.28 565.26 120.273C564.426 120.28 563.872 120.663 563.879 121.354ZM587.381 115.816V122.146H585.645V119.057H583.307V117.676H585.645V115.816H587.381ZM576.799 120.861C578.863 120.253 579.786 118.735 579.793 117.129V116.227H581.557V117.129C581.55 118.612 582.418 120.055 584.4 120.643L583.484 121.982C582.151 121.559 581.222 120.725 580.682 119.658C580.135 120.854 579.157 121.784 577.701 122.242L576.799 120.861ZM579.109 124.006V122.666H587.381V125.988H580.846V126.754H587.736V128.121H579.123V124.717H585.658V124.006H579.109ZM599.48 115.816V123.199H597.744V120.26H595.803V118.852H597.744V115.816H599.48ZM588.912 121.832C590.949 121.148 591.879 119.521 591.92 117.963H589.418V116.568H596.172V117.963H593.697C593.731 119.412 594.62 120.875 596.555 121.518L595.693 122.885C594.326 122.44 593.376 121.538 592.836 120.424C592.289 121.688 591.291 122.707 589.814 123.213L588.912 121.832ZM590.949 125.879C590.949 124.368 592.576 123.479 595.229 123.473C597.888 123.479 599.515 124.368 599.521 125.879C599.515 127.39 597.888 128.271 595.229 128.271C592.576 128.271 590.949 127.39 590.949 125.879ZM592.686 125.879C592.686 126.59 593.581 126.945 595.229 126.945C596.883 126.945 597.778 126.59 597.785 125.879C597.778 125.161 596.883 124.806 595.229 124.812C593.581 124.806 592.686 125.161 592.686 125.879ZM607.314 123.09V124.334H608.654V123.09H610.268V126.87C611.648 126.241 612.236 125.079 612.236 123.951V122.994H613.986V123.951C613.979 125.223 614.588 126.426 616.146 126.932L615.244 128.23C614.171 127.861 613.48 127.15 613.084 126.255C612.674 127.123 611.99 127.841 610.979 128.23L610.268 127.157V128.121H605.701V123.09H607.314ZM604.484 119.207C604.471 117.498 605.879 116.288 607.793 116.281C609.372 116.288 610.637 117.163 610.979 118.482H613.07V115.816H614.807V122.406H613.07V119.918H610.985C610.65 121.265 609.379 122.16 607.793 122.16C605.879 122.16 604.471 120.943 604.484 119.207ZM606.139 119.207C606.132 120.15 606.815 120.731 607.793 120.738C608.736 120.731 609.413 120.15 609.42 119.207C609.413 118.291 608.736 117.724 607.793 117.717C606.815 117.724 606.132 118.291 606.139 119.207ZM607.314 126.795H608.654V125.619H607.314V126.795ZM626.838 115.816V128.285H625.074V115.816H626.838ZM616.789 121.121C616.782 118.407 618.17 116.691 620.084 116.691C621.957 116.691 623.352 118.407 623.352 121.121C623.352 123.855 621.957 125.564 620.084 125.564C618.17 125.564 616.782 123.855 616.789 121.121ZM618.471 121.121C618.464 122.974 619.113 123.985 620.084 123.979C621.027 123.985 621.663 122.974 621.67 121.121C621.663 119.275 621.027 118.264 620.084 118.264C619.113 118.264 618.464 119.275 618.471 121.121ZM631.145 125.988L629.969 129.885H628.52L629.203 125.988H631.145ZM645.35 116.268V117.348C645.356 118.325 645.356 119.364 645.11 120.629H646.635V122.01H635.342V120.629H643.36C643.436 120.253 643.483 119.904 643.518 119.576L636.559 119.85L636.367 118.51L643.6 118.359C643.606 118.113 643.606 117.874 643.613 117.635H636.709V116.268H645.35ZM636.572 124.074V122.748H645.404V126.016H638.322V126.781H645.842V128.121H636.586V124.758H643.668V124.074H636.572ZM657.832 115.83V123.445H656.082V115.83H657.832ZM648.057 117.908V116.514H653.826V120.328H649.779V121.518C651.857 121.504 653.327 121.436 655.002 121.189L655.221 122.584C653.313 122.885 651.632 122.946 649.164 122.939H648.07V119.002H652.09V117.908H648.057ZM649.273 125.4V123.992H657.832V128.258H656.082V125.4H649.273ZM547.24 136.83V140.645H548.922V142.066H547.24V146.113H545.49V136.83H547.24ZM537.369 139.51V138.129H540.199V136.803H541.936V138.129H544.752V139.51H537.369ZM537.971 142.354C537.971 140.911 539.249 139.947 541.061 139.947C542.865 139.947 544.123 140.911 544.123 142.354C544.123 143.789 542.865 144.732 541.061 144.732C539.249 144.732 537.971 143.789 537.971 142.354ZM539.174 149.039V145.402H540.91V147.645H547.691V149.039H539.174ZM539.68 142.354C539.673 143.037 540.227 143.406 541.061 143.406C541.901 143.406 542.469 143.037 542.469 142.354C542.469 141.663 541.901 141.28 541.061 141.273C540.227 141.28 539.673 141.663 539.68 142.354ZM563.182 136.83V146.004H561.445V141.52H559.148V144.035H553.229V137.637H554.979V139.551H557.426V137.637H559.148V140.125H561.445V136.83H563.182ZM554.896 149.039V145.088H556.66V147.645H563.441V149.039H554.896ZM554.979 142.668H557.426V140.877H554.979V142.668ZM570.469 137.445C573.094 137.452 575.151 138.874 575.158 141.027C575.151 143.201 573.094 144.616 570.469 144.609C567.837 144.616 565.793 143.201 565.793 141.027C565.793 138.874 567.837 137.452 570.469 137.445ZM564.795 147.74V146.332H576.184V147.74H564.795ZM567.488 141.027C567.481 142.381 568.739 143.188 570.469 143.188C572.185 143.188 573.429 142.381 573.436 141.027C573.429 139.694 572.185 138.854 570.469 138.867C568.739 138.854 567.481 139.694 567.488 141.027ZM588.283 146.441V147.877H576.895V146.441H581.693V144.568H578.207V140.385H585.248V139.018H578.193V137.623H586.971V141.752H579.957V143.146H587.258V144.568H583.43V146.441H588.283ZM593.957 138.102V141.848H592.494V138.102H593.957ZM601.955 137.719V138.498C601.955 139.359 601.955 140.604 601.668 142.148L599.959 141.984C600.185 140.795 600.239 139.886 600.253 139.141H595.557V137.719H601.955ZM594.818 143.051C595.516 143.051 596.302 143.051 597.129 143.03V140.59H598.865V142.976C600.109 142.921 601.374 142.825 602.543 142.654L602.639 143.912C600.048 144.391 597.136 144.438 594.969 144.445L594.818 143.051ZM596.65 149.039V145.293H598.4V147.645H605.387V149.039H596.65ZM603.213 146.127V136.816H605.004V140.604H606.508V142.066H605.004V146.127H603.213ZM617.5 136.83V143.844H615.75V136.83H617.5ZM607.041 142.258C609.126 141.629 610.035 140.036 610.035 138.484V137.281H611.854V138.484C611.84 139.995 612.756 141.444 614.766 142.066L613.918 143.393C612.496 142.969 611.512 142.107 610.951 140.993C610.384 142.203 609.372 143.16 607.889 143.625L607.041 142.258ZM609.16 149.121V144.418H617.5V149.121H609.16ZM610.883 147.727H615.791V145.799H610.883V147.727ZM620.918 138.102V141.848H619.455V138.102H620.918ZM636.545 142.504V143.926H625.17V142.504H636.545ZM626.469 146.961C626.469 145.498 628.109 144.671 630.83 144.678C633.53 144.671 635.15 145.498 635.164 146.961C635.15 148.431 633.53 149.265 630.83 149.258C628.109 149.265 626.469 148.431 626.469 146.961ZM626.551 141.629V137.145H635.178V138.553H628.287V140.248H635.246V141.629H626.551ZM628.246 146.961C628.239 147.617 629.107 147.932 630.83 147.932C632.519 147.932 633.407 147.617 633.414 146.961C633.407 146.332 632.519 146.004 630.83 146.004C629.107 146.004 628.239 146.332 628.246 146.961ZM648.645 143.488V144.883H637.256V143.488H642.082V142.586H638.678V139.168H645.514V138.402H638.65V137.049H647.264V140.426H640.414V141.246H647.496V142.586H643.818V143.488H648.645ZM638.527 146.961V145.594H647.332V149.203H645.568V146.961H638.527ZM651.105 138.102V141.848H649.643V138.102H651.105ZM652.145 141.848V138.102H653.607V141.848H652.145Z" fill="#7D7D85"/>
<g filter="url(#filter1_d_1185_37068)">
<rect x="40" y="236" width="435" height="156" rx="12" fill="white" shape-rendering="crispEdges"/>
<rect x="41" y="237" width="433" height="154" rx="11" stroke="#D8D7E9" stroke-opacity="0.5" stroke-width="2" shape-rendering="crispEdges"/>
<path d="M75.9688 282H81.9688V288L79.6719 285.703L73.3906 291.984L69.4062 288L63.4062 294L62 292.594L69.4062 285.188L73.3906 289.172L78.2656 284.297L75.9688 282V282" fill="#7D7D85"/>
<path d="M107.801 279.023V290.176H105.438V285.449H104.012V289.59H101.688V279.355H104.012V283.418H105.438V279.023H107.801ZM92.4297 282.793V280.859H95.5742V279.18H98.0547V280.859H101.16V282.793H92.4297ZM92.9766 286.484C92.9668 284.619 94.5977 283.379 96.8242 283.379C99.0801 283.379 100.701 284.619 100.711 286.484C100.701 288.33 99.0801 289.561 96.8242 289.57C94.5977 289.561 92.9668 288.33 92.9766 286.484ZM95.2031 286.484C95.1934 287.305 95.8477 287.803 96.8242 287.793C97.791 287.803 98.4551 287.305 98.4648 286.484C98.4551 285.654 97.791 285.166 96.8242 285.176C95.8574 285.166 95.1934 285.654 95.2031 286.484ZM95.5742 293.574C95.5645 291.514 97.8984 290.342 101.727 290.332C105.564 290.342 107.879 291.514 107.898 293.574C107.879 295.625 105.564 296.807 101.727 296.797C97.8984 296.807 95.5645 295.625 95.5742 293.574ZM98.0742 293.574C98.0547 294.473 99.3145 294.922 101.727 294.922C104.148 294.922 105.379 294.473 105.379 293.574C105.379 292.637 104.148 292.197 101.727 292.207C99.3145 292.197 98.0547 292.637 98.0742 293.574ZM126.062 287.422V289.375H109.812V287.422H116.727V285.898H111.785V279.805H124.109V281.738H114.266V283.945H124.207V285.898H119.168V287.422H126.062ZM111.668 293.555C111.668 291.445 114.012 290.273 117.898 290.273C121.756 290.273 124.07 291.445 124.09 293.555C124.07 295.635 121.756 296.816 117.898 296.816C114.012 296.816 111.668 295.635 111.668 293.555ZM114.207 293.555C114.197 294.482 115.438 294.922 117.898 294.922C120.311 294.922 121.58 294.482 121.59 293.555C121.58 292.637 120.311 292.168 117.898 292.168C115.438 292.168 114.197 292.637 114.207 293.555ZM147.957 289.551V291.582H141.023V296.797H138.562V291.582H131.688V289.551H147.957ZM133.738 288.262V279.746H146.023V281.699H136.18V283.027H145.652V284.941H136.18V286.289H146.219V288.262H133.738ZM155.555 283.867C155.545 286.572 156.99 289.697 159.91 291.055L158.523 293.008C156.541 292.1 155.135 290.283 154.334 288.154C153.543 290.498 152.078 292.49 150.027 293.457L148.582 291.484C151.541 290.107 153.035 286.807 153.055 283.867V282.773H149.285V280.742H159.129V282.773H155.555V283.867ZM160.516 296.797V279.023H163.016V285.801H165.633V287.891H163.016V296.797H160.516Z" fill="#222222"/>
<path d="M73.1562 316.816V329.258H71.4746V316.816H73.1562ZM62.752 326.482V318.225H67.5098V319.619H64.4609V325.04C65.7871 325.026 66.7988 324.951 67.9609 324.719L68.0977 326.141C66.6895 326.421 65.4385 326.482 63.6133 326.482H62.752ZM66.6621 322.777V321.355H68.8906V317.035H70.5176V328.697H68.8906V322.777H66.6621ZM84.8867 316.816V329.285H83.123V316.816H84.8867ZM74.8379 322.121C74.8311 319.407 76.2188 317.691 78.1328 317.691C80.0059 317.691 81.4004 319.407 81.4004 322.121C81.4004 324.855 80.0059 326.564 78.1328 326.564C76.2188 326.564 74.8311 324.855 74.8379 322.121ZM76.5195 322.121C76.5127 323.974 77.1621 324.985 78.1328 324.979C79.0762 324.985 79.7119 323.974 79.7188 322.121C79.7119 320.275 79.0762 319.264 78.1328 319.264C77.1621 319.264 76.5127 320.275 76.5195 322.121ZM97.0684 316.816V329.285H95.3457V322.613H93.1582V321.205H95.3457V316.816H97.0684ZM87.1426 326.469V317.855H92.9531V319.264H88.8789V321.328H92.502V322.695H88.8789V325.047C90.6084 325.033 91.9893 324.972 93.5273 324.732L93.7051 326.127C91.8867 326.4 90.2598 326.462 88.127 326.469H87.1426ZM108.484 316.816V321.588H110.248V323.023H108.484V329.23H106.734V316.816H108.484ZM98.5312 325.744C101.478 324.268 103.063 322.285 103.392 319.51H99.2422V318.088H105.162C105.148 321.807 103.699 325.026 99.5156 327.084L98.5312 325.744ZM124.221 316.816V319.305H125.547V320.713H124.221V323.338H122.484V316.816H124.221ZM113.762 321.479C115.17 320.692 115.58 319.147 115.58 317.732V317.24H117.221V317.732C117.221 318.737 117.392 319.92 118.082 320.843C118.766 319.934 118.93 318.765 118.93 317.746V317.254H119.354V317.24H120.557V317.732C120.557 319.188 120.98 320.727 122.402 321.479L121.5 322.723C120.618 322.258 120.078 321.492 119.757 320.59C119.456 321.52 118.943 322.34 118.082 322.859C117.221 322.34 116.701 321.506 116.4 320.569C116.079 321.479 115.539 322.251 114.678 322.723L113.762 321.479ZM115.594 325.238V323.926H119.217V322.887H120.98V323.926H124.59V325.238H115.594ZM116.291 327.439C116.284 326.291 117.672 325.628 120.105 325.635C122.498 325.628 123.879 326.291 123.879 327.439C123.879 328.636 122.498 329.265 120.105 329.258C117.672 329.265 116.284 328.636 116.291 327.439ZM118.027 327.439C118.014 327.87 118.663 328.041 120.105 328.041C121.493 328.041 122.163 327.87 122.17 327.439C122.163 327.05 121.493 326.858 120.105 326.865C118.663 326.858 118.014 327.05 118.027 327.439ZM129.635 317.186C131.528 317.179 132.95 318.368 132.957 320.029C132.95 321.677 131.528 322.853 129.635 322.859C127.714 322.853 126.285 321.677 126.285 320.029C126.285 318.368 127.714 317.179 129.635 317.186ZM127.98 320.029C127.967 320.918 128.671 321.444 129.635 321.451C130.578 321.444 131.269 320.918 131.275 320.029C131.269 319.134 130.578 318.607 129.635 318.607C128.678 318.607 127.967 319.134 127.98 320.029ZM128.158 324.91V323.57H136.512V326.947H129.895V327.754H136.854V329.121H128.186V325.676H134.775V324.91H128.158ZM134.762 323.051V316.816H136.512V323.051H134.762ZM144.797 317.787C144.79 319.257 146.294 320.877 149.145 321.232L148.461 322.641C146.287 322.326 144.694 321.321 143.881 319.975C143.061 321.314 141.475 322.326 139.328 322.641L138.631 321.232C141.461 320.877 142.958 319.257 142.965 317.787V317.186H144.797V317.787ZM138.193 325.006V323.584H149.541V325.006H144.701V329.258H142.979V325.006H138.193ZM161.668 323.488V324.883H150.279V323.488H155.105V322.586H151.701V319.168H158.537V318.402H151.674V317.049H160.287V320.426H153.438V321.246H160.52V322.586H156.842V323.488H161.668ZM151.551 326.961V325.594H160.355V329.203H158.592V326.961H151.551ZM177.008 326.332V327.754H165.619V326.332H177.008ZM166.822 324.254V317.609H168.572V319.674H174V317.609H175.736V324.254H166.822ZM168.572 322.887H174V321.027H168.572V322.887ZM188.41 316.83V326.059H186.756V321.766H185.676V325.799H184.049V317.049H185.676V320.357H186.756V316.83H188.41ZM178.211 319.195V317.828H182.955V321.697H179.906V322.976C181.267 322.962 182.285 322.894 183.461 322.668L183.611 324.049C182.155 324.309 180.932 324.35 179.086 324.35H178.225V320.412H181.273V319.195H178.211ZM179.975 329.039V325.184H181.725V327.645H188.725V329.039H179.975ZM199.963 322.572V323.967H191.158V317.855H199.867V319.264H192.881V322.572H199.963ZM189.818 327.74V326.305H201.207V327.74H189.818ZM211.488 317.623V323.078H205.514V317.623H211.488ZM206.252 327.877C208.487 327.604 209.704 326.715 209.984 325.758H206.785V324.377H215.166V325.758H211.98C212.268 326.688 213.505 327.61 215.713 327.904L215.098 329.23C213.102 328.964 211.693 328.171 210.976 327.104C210.265 328.171 208.87 328.95 206.881 329.203L206.252 327.877ZM207.236 321.697H209.766V319.004H207.236V321.697ZM213.266 323.789V316.816H215.016V319.523H216.697V320.945H215.016V323.789H213.266ZM228.592 322.791V324.172H223.766V325.129H227.238V329.121H218.557V325.129H222.043V324.172H217.244V322.791H228.592ZM217.723 321.041C220.423 320.884 221.667 320.104 221.893 319.25H218.338V317.883H222.043V316.816H223.766V317.883H227.498V319.25H223.909C224.135 320.104 225.406 320.884 228.086 321.041L227.58 322.326C225.276 322.169 223.684 321.54 222.904 320.562C222.118 321.54 220.525 322.169 218.229 322.326L217.723 321.041ZM220.279 327.727H225.529V326.51H220.279V327.727ZM67.209 340.633C67.2021 342.916 68.2412 345.206 70.3535 346.102L69.3281 347.496C67.9062 346.854 66.9219 345.609 66.3545 344.071C65.7939 345.753 64.7754 347.106 63.2578 347.797L62.2051 346.348C64.3789 345.432 65.4385 343.046 65.4453 340.633V338.773H67.209V340.633ZM71.0234 350.285V337.816H72.7871V350.285H71.0234ZM81.5371 338.65V340.045H79.0625C79.0693 341.494 79.9512 342.896 81.9336 343.477L81.0996 344.844C79.7256 344.427 78.7686 343.586 78.2217 342.526C77.668 343.777 76.6562 344.775 75.166 345.268L74.2773 343.887C76.3418 343.237 77.2783 341.624 77.2988 340.045H74.7559V338.65H81.5371ZM76 347.838C75.9932 346.32 77.6338 345.438 80.2656 345.445C82.8564 345.438 84.4561 346.32 84.4629 347.838C84.4561 349.362 82.8564 350.265 80.2656 350.258C77.6338 350.265 75.9932 349.362 76 347.838ZM77.75 347.838C77.7363 348.549 78.6318 348.904 80.2656 348.904C81.8789 348.904 82.7402 348.549 82.7402 347.838C82.7402 347.141 81.8789 346.792 80.2656 346.799C78.6318 346.792 77.7363 347.141 77.75 347.838ZM82.5898 345.199V337.816H84.3398V340.701H86.0215V342.123H84.3398V345.199H82.5898ZM101.17 344.201V345.568H96.4805V347.578H94.7578V345.568H89.7812V344.201H101.17ZM91.1211 350.039V346.594H92.8438V348.645H99.9121V350.039H91.1211ZM91.2441 343.326V338.213H92.9668V339.512H97.957V338.213H99.6934V343.326H91.2441ZM92.9668 341.945H97.957V340.811H92.9668V341.945ZM106.557 339.758C106.55 341.31 107.418 342.813 109.387 343.436L108.457 344.816C107.124 344.365 106.208 343.47 105.682 342.342C105.135 343.572 104.157 344.536 102.756 345.035L101.812 343.641C103.897 342.978 104.786 341.351 104.793 339.648V338.459H106.557V339.758ZM103.836 347.168V345.787H112.381V350.258H110.645V347.168H103.836ZM108.307 341.562V340.127H110.645V337.816H112.381V345.227H110.645V341.562H108.307ZM127.652 337.816V350.285H125.916V337.816H127.652ZM117.877 340.264V338.855H123.797V343.654H119.695V345.938C121.596 345.924 123.202 345.828 125.027 345.527L125.178 346.936C123.134 347.298 121.281 347.373 119.012 347.373H117.891V342.273H122.02V340.264H117.877ZM140.709 347.414V348.877H129.32V347.414H134.105V345.172H130.264V343.805H131.932V340.25H130.209V338.855H139.752V340.25H138.002V343.805H139.697V345.172H135.842V347.414H140.709ZM133.682 343.805H136.279V340.25H133.682V343.805ZM151.564 344.242V345.623H142.76V338.732H151.469V340.141H144.537V341.453H151.182V342.82H144.537V344.242H151.564ZM141.42 348.809V347.387H152.809V348.809H141.42ZM163.336 337.816V342.588H165.1V344.023H163.336V350.23H161.586V337.816H163.336ZM153.383 346.744C156.329 345.268 157.915 343.285 158.243 340.51H154.094V339.088H160.014C160 342.807 158.551 346.026 154.367 348.084L153.383 346.744ZM172.592 338.322C174.41 338.329 175.716 339.348 175.723 340.852C175.716 342.068 174.827 342.998 173.494 343.285V344.194C174.472 344.133 175.442 344.044 176.352 343.914L176.488 345.186C173.925 345.637 171.074 345.698 168.996 345.691L168.818 344.311C169.68 344.311 170.685 344.304 171.744 344.276V343.299C170.37 343.025 169.454 342.089 169.461 340.852C169.454 339.348 170.76 338.329 172.592 338.322ZM170.459 350.025V346.484H172.209V348.631H179.223V350.025H170.459ZM171.088 340.852C171.074 341.61 171.71 342.048 172.592 342.055C173.487 342.048 174.082 341.61 174.082 340.852C174.082 340.072 173.48 339.648 172.592 339.635C171.71 339.648 171.074 340.072 171.088 340.852ZM177.049 347.318V337.83H178.799V341.74H180.385V343.189H178.799V347.318H177.049ZM185.648 339.512C185.642 341.173 186.496 342.711 188.492 343.326L187.576 344.693C186.236 344.229 185.327 343.374 184.801 342.253C184.254 343.552 183.249 344.57 181.752 345.076L180.836 343.682C182.962 342.998 183.878 341.33 183.885 339.594V338.459H185.648V339.512ZM182.9 347.852C182.9 346.32 184.527 345.425 187.18 345.432C189.839 345.425 191.466 346.32 191.473 347.852C191.466 349.39 189.839 350.265 187.18 350.258C184.527 350.265 182.9 349.39 182.9 347.852ZM184.637 347.852C184.637 348.542 185.532 348.904 187.18 348.904C188.834 348.904 189.729 348.542 189.736 347.852C189.729 347.141 188.834 346.785 187.18 346.785C185.532 346.785 184.637 347.141 184.637 347.852ZM187.357 341.521V340.1H189.695V337.816H191.432V345.104H189.695V341.521H187.357ZM203.518 337.83V345.377H201.781V337.83H203.518ZM193.141 343.736C194.091 343.736 195.178 343.729 196.312 343.702V342.574H194.152V338.445H200.223V339.854H195.902V341.18H200.291V342.574H198.076V343.627C199.074 343.565 200.072 343.483 201.016 343.354L201.125 344.557C198.466 345.035 195.52 345.062 193.318 345.062L193.141 343.736ZM195.055 350.121V345.883H203.518V350.121H195.055ZM196.764 348.727H201.822V347.264H196.764V348.727Z" fill="#7D7D85"/>
</g>
<g filter="url(#filter2_d_1185_37068)">
<rect x="515" y="236" width="435" height="156" rx="12" fill="white" shape-rendering="crispEdges"/>
<rect x="516" y="237" width="433" height="154" rx="11" stroke="#D8D7E9" stroke-opacity="0.5" stroke-width="2" shape-rendering="crispEdges"/>
<path d="M555 290V284H549.891L552 286.812L550.359 287.984C548.359 285.266 547.234 283.734 546.984 283.391C546.734 283.734 545.609 285.266 543.609 287.984L541.969 286.812L544.078 284H538.969V290H555V290M555 294.969V293H538.969V294.969H555V294.969M544.688 280.273C544.5 280.07 544.266 279.969 543.984 279.969C543.703 279.969 543.469 280.07 543.281 280.273C543.094 280.477 543 280.719 543 281C543 281.281 543.094 281.516 543.281 281.703C543.469 281.891 543.703 281.984 543.984 281.984C544.266 281.984 544.5 281.891 544.688 281.703C544.875 281.516 544.969 281.281 544.969 281C544.969 280.719 544.875 280.477 544.688 280.273V280.273M550.688 280.273C550.5 280.07 550.266 279.969 549.984 279.969C549.703 279.969 549.469 280.07 549.281 280.273C549.094 280.477 549 280.719 549 281C549 281.281 549.094 281.516 549.281 281.703C549.469 281.891 549.703 281.984 549.984 281.984C550.266 281.984 550.5 281.891 550.688 281.703C550.875 281.516 550.969 281.281 550.969 281C550.969 280.719 550.875 280.477 550.688 280.273V280.273M555 281.984C555.562 281.984 556.031 282.18 556.406 282.57C556.781 282.961 556.969 283.438 556.969 284V294.969C556.969 295.531 556.781 296.008 556.406 296.398C556.031 296.789 555.562 296.984 555 296.984H538.969C538.406 296.984 537.938 296.789 537.562 296.398C537.188 296.008 537 295.531 537 294.969V284C537 283.438 537.188 282.961 537.562 282.57C537.938 282.18 538.406 281.984 538.969 281.984H541.172C541.047 281.547 540.984 281.219 540.984 281C540.984 280.188 541.281 279.484 541.875 278.891C542.469 278.297 543.172 278 543.984 278C545.016 278 545.844 278.438 546.469 279.312L546.984 280.016L547.5 279.312C547.719 278.938 548.078 278.625 548.578 278.375C549.078 278.125 549.547 278 549.984 278C550.797 278 551.5 278.297 552.094 278.891C552.688 279.484 552.984 280.188 552.984 281C552.984 281.219 552.922 281.547 552.797 281.984H555V281.984" fill="#7D7D85"/>
<path d="M582.551 279.023V285.84H585.07V287.891H582.551V296.758H580.051V279.023H582.551ZM568.332 291.777C572.541 289.668 574.807 286.836 575.275 282.871H569.348V280.84H577.805C577.785 286.152 575.715 290.752 569.738 293.691L568.332 291.777ZM600.793 279.043V292.148H598.312V287.812H595.031V289.336H586.574V280.195H589.074V282.93H592.57V280.195H595.031V282.012H598.312V279.043H600.793ZM588.957 296.484V290.84H591.477V294.492H601.164V296.484H588.957ZM589.074 287.383H592.57V284.824H589.074V287.383ZM595.031 285.82H598.312V284.023H595.031V285.82ZM613.352 280.02V281.992H609.816C609.826 284.082 611.096 286.24 613.898 287.168L612.668 289.082C610.705 288.467 609.348 287.178 608.576 285.586C607.785 287.354 606.369 288.779 604.27 289.453L603 287.48C605.93 286.553 607.258 284.199 607.277 281.992H603.703V280.02H613.352ZM605.871 292.383V290.391H618.078V296.797H615.598V292.383H605.871ZM612.844 285.332V283.301H615.598V279.023H618.078V289.609H615.598V285.332H612.844ZM641.262 292.695V294.727H624.992V292.695H631.848V289.414H626.711V280.156H629.211V282.91H636.965V280.156H639.445V289.414H634.328V292.695H641.262ZM629.211 287.422H636.965V284.902H629.211V287.422ZM648.762 281.816C648.752 283.975 650.012 286.045 652.824 286.914L651.496 288.848C649.611 288.223 648.293 287.012 647.531 285.459C646.76 287.246 645.383 288.652 643.352 289.336L642.004 287.383C644.973 286.396 646.242 284.033 646.262 281.582V279.961H648.762V281.816ZM644.465 293.359C644.455 291.201 646.809 289.922 650.559 289.922C654.24 289.922 656.545 291.201 656.555 293.359C656.545 295.537 654.24 296.807 650.559 296.797C646.809 296.807 644.455 295.537 644.465 293.359ZM646.965 293.359C646.945 294.365 648.225 294.844 650.559 294.844C652.863 294.844 654.094 294.365 654.094 293.359C654.094 292.393 652.863 291.875 650.559 291.875C648.225 291.875 646.945 292.393 646.965 293.359ZM653.879 289.57V279.023H656.379V283.184H658.781V285.254H656.379V289.57H653.879Z" fill="#222222"/>
<path d="M547.883 316.816V329.285H546.133V322.572H543.904V321.15H546.133V316.816H547.883ZM537.178 325.566C539.263 324.609 540.281 322.237 540.281 319.934V319.414H537.697V318.02H544.656V319.414H542.072V319.934C542.065 322.121 543.077 324.404 545.176 325.307L544.15 326.688C542.701 326.018 541.73 324.712 541.197 323.126C540.657 324.821 539.666 326.229 538.217 326.947L537.178 325.566ZM556.537 317.65V319.045H554.062C554.069 320.494 554.951 321.896 556.934 322.477L556.1 323.844C554.726 323.427 553.769 322.586 553.222 321.526C552.668 322.777 551.656 323.775 550.166 324.268L549.277 322.887C551.342 322.237 552.278 320.624 552.299 319.045H549.756V317.65H556.537ZM551 326.838C550.993 325.32 552.634 324.438 555.266 324.445C557.856 324.438 559.456 325.32 559.463 326.838C559.456 328.362 557.856 329.265 555.266 329.258C552.634 329.265 550.993 328.362 551 326.838ZM552.75 326.838C552.736 327.549 553.632 327.904 555.266 327.904C556.879 327.904 557.74 327.549 557.74 326.838C557.74 326.141 556.879 325.792 555.266 325.799C553.632 325.792 552.736 326.141 552.75 326.838ZM557.59 324.199V316.816H559.34V319.701H561.021V321.123H559.34V324.199H557.59ZM575.117 317.322V318.717H571.706C571.973 319.653 573.258 320.556 575.664 320.781L575.035 322.121C572.697 321.902 571.118 321.007 570.455 319.77C569.799 321 568.247 321.902 565.916 322.121L565.301 320.781C567.666 320.535 568.944 319.64 569.211 318.717H565.834V317.322H575.117ZM564.795 324.035V322.654H576.143V324.035H564.795ZM566.053 326.332V324.938H574.762V329.258H573.025V326.332H566.053ZM581.734 319.633C581.728 321.916 582.767 324.206 584.879 325.102L583.854 326.496C582.432 325.854 581.447 324.609 580.88 323.071C580.319 324.753 579.301 326.106 577.783 326.797L576.73 325.348C578.904 324.432 579.964 322.046 579.971 319.633V317.773H581.734V319.633ZM585.549 329.285V316.816H587.312V329.285H585.549ZM591.619 326.988L590.443 330.885H588.994L589.678 326.988H591.619ZM600.779 323.543V325.416C601.805 325.354 602.83 325.259 603.801 325.115L603.938 326.387C601.176 326.913 598.223 326.94 596.049 326.947L595.844 325.539C596.78 325.539 597.881 325.532 599.043 325.498V323.543H600.779ZM596.09 322.613C597.97 322.114 598.886 320.952 599.002 319.688H596.486V318.279H599.043V316.926H600.779V318.279H603.35V319.688H600.807C600.923 320.891 601.853 322.019 603.732 322.477L602.939 323.83C601.483 323.461 600.479 322.654 599.911 321.622C599.371 322.709 598.38 323.55 596.91 323.926L596.09 322.613ZM604.512 329.285V316.816H606.248V329.285H604.512ZM618.307 316.83V325.908H616.557V316.83H618.307ZM607.848 322.832C609.933 322.135 610.842 320.405 610.842 318.717V317.514H612.66V318.717C612.646 320.364 613.528 321.971 615.572 322.627L614.684 323.994C613.275 323.529 612.312 322.6 611.758 321.417C611.197 322.688 610.206 323.714 608.75 324.213L607.848 322.832ZM609.967 329.039V325.033H611.73V327.645H618.635V329.039H609.967ZM628.055 319.633C628.048 321.916 629.087 324.206 631.199 325.102L630.174 326.496C628.752 325.854 627.768 324.609 627.2 323.071C626.64 324.753 625.621 326.106 624.104 326.797L623.051 325.348C625.225 324.432 626.284 322.046 626.291 319.633V317.773H628.055V319.633ZM631.869 329.285V316.816H633.633V329.285H631.869ZM645.801 316.816V324.008H644.064V321.109H642.096V319.688H644.064V316.816H645.801ZM635.246 322.654C637.263 322.005 638.192 320.419 638.24 318.854H635.738V317.445H642.492V318.854H640.018C640.038 320.275 640.934 321.772 642.875 322.422L642.014 323.803C640.633 323.352 639.683 322.442 639.143 321.321C638.596 322.565 637.598 323.557 636.135 324.021L635.246 322.654ZM637.434 329.121V324.527H645.801V329.121H637.434ZM639.184 327.727H644.092V325.895H639.184V327.727ZM653.088 317.445C655.713 317.452 657.771 318.874 657.777 321.027C657.771 323.201 655.713 324.616 653.088 324.609C650.456 324.616 648.412 323.201 648.412 321.027C648.412 318.874 650.456 317.452 653.088 317.445ZM647.414 327.74V326.332H658.803V327.74H647.414ZM650.107 321.027C650.101 322.381 651.358 323.188 653.088 323.188C654.804 323.188 656.048 322.381 656.055 321.027C656.048 319.694 654.804 318.854 653.088 318.867C651.358 318.854 650.101 319.694 650.107 321.027ZM670.902 326.441V327.877H659.514V326.441H664.312V324.568H660.826V320.385H667.867V319.018H660.812V317.623H669.59V321.752H662.576V323.146H669.877V324.568H666.049V326.441H670.902ZM682.988 323.994V325.361H678.121V329.258H676.398V325.361H671.6V323.994H682.988ZM672.939 322.791V317.295H674.662V318.73H679.885V317.295H681.635V322.791H672.939ZM674.662 321.396H679.885V320.098H674.662V321.396ZM694.213 316.816V329.285H692.49V322.613H690.303V321.205H692.49V316.816H694.213ZM684.287 326.469V317.855H690.098V319.264H686.023V321.328H689.646V322.695H686.023V325.047C687.753 325.033 689.134 324.972 690.672 324.732L690.85 326.127C689.031 326.4 687.404 326.462 685.271 326.469H684.287ZM542.045 339.102V349H539.98V341.057H539.926L537.656 342.479V340.66L540.104 339.102H542.045ZM554.418 337.83V346.977H552.682V342.902H549.592V341.535H552.682V340.578H549.592V339.211H552.682V337.83H554.418ZM544.629 345.363V338.609H546.352V343.928C547.869 343.907 549.305 343.812 550.85 343.531L551.027 344.939C549.161 345.295 547.486 345.356 545.627 345.363H544.629ZM546.146 350.039V346.156H547.896V348.645H554.719V350.039H546.146ZM569.744 337.83V346.908H568.008V342.451H565.971V341.043H568.008V337.83H569.744ZM559.189 344.105C561.247 343.463 562.177 341.843 562.184 340.25V340.059H559.682V338.664H566.436V340.059H563.961V340.264C563.954 341.706 564.843 343.244 566.818 343.887L565.957 345.268C564.583 344.816 563.633 343.914 563.093 342.8C562.539 344.037 561.548 345.042 560.078 345.527L559.189 344.105ZM561.486 350.039V346.115H563.236V348.645H570.045V350.039H561.486ZM585.371 337.816V350.258H583.689V337.816H585.371ZM574.967 347.482V339.225H579.725V340.619H576.676V346.04C578.002 346.026 579.014 345.951 580.176 345.719L580.312 347.141C578.904 347.421 577.653 347.482 575.828 347.482H574.967ZM578.877 343.777V342.355H581.105V338.035H582.732V349.697H581.105V343.777H578.877ZM597.102 337.816V350.285H595.338V337.816H597.102ZM587.053 343.121C587.046 340.407 588.434 338.691 590.348 338.691C592.221 338.691 593.615 340.407 593.615 343.121C593.615 345.855 592.221 347.564 590.348 347.564C588.434 347.564 587.046 345.855 587.053 343.121ZM588.734 343.121C588.728 344.974 589.377 345.985 590.348 345.979C591.291 345.985 591.927 344.974 591.934 343.121C591.927 341.275 591.291 340.264 590.348 340.264C589.377 340.264 588.728 341.275 588.734 343.121ZM609.283 337.816V350.285H607.561V343.613H605.373V342.205H607.561V337.816H609.283ZM599.357 347.469V338.855H605.168V340.264H601.094V342.328H604.717V343.695H601.094V346.047C602.823 346.033 604.204 345.972 605.742 345.732L605.92 347.127C604.102 347.4 602.475 347.462 600.342 347.469H599.357ZM620.85 337.816V342.697H622.504V344.133H620.85V350.258H619.1V337.816H620.85ZM610.637 346.648C612.332 344.81 612.824 342.991 612.934 340.51H611.184V339.088H614.602C614.588 342.506 614.232 345.172 612.004 347.619L610.637 346.648ZM614.15 347.455C615.839 345.377 616.304 343.244 616.399 340.51H615.012V339.088H618.047C618.04 342.636 617.732 345.719 615.531 348.426L614.15 347.455ZM627.809 341.207C627.802 343.217 628.841 345.37 630.926 346.238L629.982 347.605C628.52 346.983 627.508 345.746 626.947 344.242C626.387 345.876 625.354 347.243 623.885 347.92L622.887 346.539C624.951 345.616 626.018 343.312 626.018 341.207V340.441H623.379V339.02H630.406V340.441H627.809V341.207ZM631.637 350.258V337.816H633.4V350.258H631.637ZM648.262 337.83V341.385H649.848V342.82H648.262V346.279H646.512V337.83H648.262ZM638.172 344.68C639.081 344.68 640.113 344.68 641.193 344.652V343.955C639.84 343.764 638.999 343.101 639.006 342.15C638.999 340.995 640.209 340.284 642.055 340.291C643.887 340.284 645.097 340.995 645.104 342.15C645.097 343.101 644.263 343.757 642.93 343.948V344.591C643.955 344.536 644.98 344.461 645.938 344.338L646.061 345.541C643.429 346.006 640.544 346.033 638.35 346.033L638.172 344.68ZM638.5 340.004V338.732H641.193V337.721H642.93V338.732H645.623V340.004H638.5ZM639.758 348.125V346.785H648.262V350.258H646.512V348.125H639.758ZM640.674 342.15C640.667 342.602 641.166 342.868 642.055 342.861C642.93 342.868 643.429 342.602 643.436 342.15C643.429 341.665 642.93 341.453 642.055 341.453C641.166 341.453 640.667 341.665 640.674 342.15ZM660.826 337.83V346.771H659.076V337.83H660.826ZM650.6 341.754C650.6 339.929 652.09 338.616 654.004 338.623C655.911 338.616 657.401 339.929 657.408 341.754C657.401 343.606 655.911 344.912 654.004 344.912C652.09 344.912 650.6 343.606 650.6 341.754ZM652.309 341.754C652.295 342.793 653.026 343.395 654.004 343.395C654.947 343.395 655.679 342.793 655.686 341.754C655.679 340.742 654.947 340.134 654.004 340.141C653.026 340.134 652.295 340.742 652.309 341.754ZM652.486 350.039V345.869H654.25V348.645H661.154V350.039H652.486ZM669.918 342.875V344.27H667.498V346.313C668.523 346.272 669.549 346.204 670.52 346.102L670.656 347.373C667.936 347.79 665.105 347.811 662.768 347.811L662.562 346.389C663.554 346.396 664.634 346.396 665.748 346.368V344.27H663.383V338.924H669.85V340.305H665.119V342.875H669.918ZM671.23 350.285V337.816H672.967V350.285H671.23ZM684.752 343.381V344.762H681.143V347.414H685.996V348.836H674.607V347.414H679.406V344.762H675.947V338.691H684.656V340.086H677.697V343.381H684.752ZM698.082 344.488V345.883H686.693V344.488H691.52V343.586H688.115V340.168H694.951V339.402H688.088V338.049H696.701V341.426H689.852V342.246H696.934V343.586H693.256V344.488H698.082ZM687.965 347.961V346.594H696.77V350.203H695.006V347.961H687.965ZM712.793 337.816V350.258H711.139V337.816H712.793ZM701.773 346.621C703.605 345.493 704.289 343.265 704.289 341.152V340.482H702.252V339.088H707.857V340.482H705.971V341.152C705.964 343.217 706.613 345.309 708.432 346.348L707.406 347.633C706.292 346.977 705.567 345.869 705.144 344.529C704.72 345.979 703.968 347.209 702.826 347.906L701.773 346.621ZM706.969 343.49V342.082H708.609V338.021H710.25V349.684H708.609V343.49H706.969ZM719.738 345.568C722.459 345.568 724.168 346.43 724.182 347.92C724.168 349.39 722.459 350.265 719.738 350.258C717.038 350.265 715.302 349.39 715.309 347.92C715.302 346.43 717.038 345.568 719.738 345.568ZM714.16 344.775V343.367H718.398V341.193H720.121V343.367H725.453V344.775H714.16ZM715.432 339.744V338.377H724.113V339.389C724.12 340.38 724.12 341.446 723.758 342.725L722.049 342.561C722.329 341.433 722.363 340.592 722.377 339.744H715.432ZM717.045 347.92C717.038 348.59 718.022 348.932 719.738 348.932C721.454 348.932 722.445 348.59 722.445 347.92C722.445 347.229 721.454 346.86 719.738 346.867C718.022 346.86 717.038 347.229 717.045 347.92Z" fill="#7D7D85"/>
</g>
<path d="M514 118.5L504 112.726V124.274L514 118.5ZM475 118.5V119.5H505V118.5V117.5H475V118.5Z" fill="#7D7D85"/>
<path d="M732 236L737.774 226L726.226 226L732 236ZM732 196L731 196L731 227L732 227L733 227L733 196L732 196Z" fill="#7D7D85"/>
<path d="M475 314L485 319.774L485 308.226L475 314ZM515 314L515 313L484 313L484 314L484 315L515 315L515 314Z" fill="#7D7D85"/>
<path d="M257 196L251.226 206L262.774 206L257 196ZM257 236L258 236L258 205L257 205L256 205L256 236L257 236Z" fill="#7D7D85"/>
<defs>
<filter id="filter0_d_1185_37068" x="38" y="39" width="439" height="160" filterUnits="userSpaceOnUse" color-interpolation-filters="sRGB">
<feFlood flood-opacity="0" result="BackgroundImageFix"/>
<feColorMatrix in="SourceAlpha" type="matrix" values="0 0 0 0 0 0 0 0 0 0 0 0 0 0 0 0 0 0 127 0" result="hardAlpha"/>
<feOffset dy="1"/>
<feGaussianBlur stdDeviation="1"/>
<feComposite in2="hardAlpha" operator="out"/>
<feColorMatrix type="matrix" values="0 0 0 0 0 0 0 0 0 0 0 0 0 0 0 0 0 0 0.05 0"/>
<feBlend mode="normal" in2="BackgroundImageFix" result="effect1_dropShadow_1185_37068"/>
<feBlend mode="normal" in="SourceGraphic" in2="effect1_dropShadow_1185_37068" result="shape"/>
</filter>
<filter id="filter1_d_1185_37068" x="38" y="235" width="439" height="160" filterUnits="userSpaceOnUse" color-interpolation-filters="sRGB">
<feFlood flood-opacity="0" result="BackgroundImageFix"/>
<feColorMatrix in="SourceAlpha" type="matrix" values="0 0 0 0 0 0 0 0 0 0 0 0 0 0 0 0 0 0 127 0" result="hardAlpha"/>
<feOffset dy="1"/>
<feGaussianBlur stdDeviation="1"/>
<feComposite in2="hardAlpha" operator="out"/>
<feColorMatrix type="matrix" values="0 0 0 0 0 0 0 0 0 0 0 0 0 0 0 0 0 0 0.05 0"/>
<feBlend mode="normal" in2="BackgroundImageFix" result="effect1_dropShadow_1185_37068"/>
<feBlend mode="normal" in="SourceGraphic" in2="effect1_dropShadow_1185_37068" result="shape"/>
</filter>
<filter id="filter2_d_1185_37068" x="513" y="235" width="439" height="160" filterUnits="userSpaceOnUse" color-interpolation-filters="sRGB">
<feFlood flood-opacity="0" result="BackgroundImageFix"/>
<feColorMatrix in="SourceAlpha" type="matrix" values="0 0 0 0 0 0 0 0 0 0 0 0 0 0 0 0 0 0 127 0" result="hardAlpha"/>
<feOffset dy="1"/>
<feGaussianBlur stdDeviation="1"/>
<feComposite in2="hardAlpha" operator="out"/>
<feColorMatrix type="matrix" values="0 0 0 0 0 0 0 0 0 0 0 0 0 0 0 0 0 0 0.05 0"/>
<feBlend mode="normal" in2="BackgroundImageFix" result="effect1_dropShadow_1185_37068"/>
<feBlend mode="normal" in="SourceGraphic" in2="effect1_dropShadow_1185_37068" result="shape"/>
</filter>
</defs>
</svg>
