<svg width="860" height="328" viewBox="0 0 860 328" fill="none" xmlns="http://www.w3.org/2000/svg">
<g clip-path="url(#clip0_1144_181)">
<circle cx="430.237" cy="163.763" r="142.041" fill="#D8D7E9" fill-opacity="0.5"/>
<path d="M430 21.7219C508.578 21.722 572.278 85.4222 572.278 164C572.278 242.578 508.578 306.278 430 306.279C351.422 306.279 287.722 242.578 287.722 164C287.722 121.296 306.537 82.9867 336.328 56.9075L373.8 101.16L429.147 82.427V22.1477L428.264 21.7327C428.842 21.7258 429.42 21.7219 430 21.7219Z" fill="#37A3E2" fill-opacity="0.7"/>
<path d="M429.066 21.7258C432.392 21.7425 435.69 21.8725 438.957 22.1135L439.011 22.1956L436.402 69.385H434.98L433.32 69.8586L433.157 69.8948C431.889 70.1766 430.561 69.975 429.434 69.3293L429.115 69.1477L429.066 21.7258Z" fill="#37A3E2"/>
<circle cx="430.949" cy="164" r="94.8521" fill="white"/>
<path d="M375.801 148.211C377.761 148.211 379.547 148.511 381.16 149.112C382.804 149.713 384.116 150.614 385.096 151.815C386.108 153.017 386.614 154.534 386.614 156.368C386.614 158.392 386.029 160.067 384.859 161.395C383.721 162.692 382.282 163.767 380.543 164.62C381.745 165.253 382.883 165.996 383.958 166.849C385.065 167.671 385.95 168.652 386.614 169.79C387.309 170.896 387.657 172.209 387.657 173.726C387.657 175.592 387.151 177.22 386.14 178.611C385.159 180.002 383.768 181.077 381.966 181.836C380.195 182.595 378.14 182.974 375.801 182.974C372.007 182.974 369.066 182.168 366.979 180.556C364.924 178.943 363.897 176.73 363.897 173.916C363.897 171.576 364.529 169.695 365.794 168.272C367.058 166.849 368.592 165.695 370.394 164.81C368.876 163.862 367.58 162.723 366.505 161.395C365.462 160.036 364.94 158.344 364.94 156.321C364.94 154.519 365.446 153.017 366.458 151.815C367.469 150.614 368.797 149.713 370.442 149.112C372.117 148.511 373.904 148.211 375.801 148.211ZM375.753 153.428C374.583 153.428 373.603 153.728 372.813 154.329C372.054 154.93 371.675 155.783 371.675 156.89C371.675 158.06 372.086 159.008 372.908 159.735C373.73 160.463 374.694 161.095 375.801 161.633C376.876 161.127 377.824 160.526 378.646 159.83C379.468 159.103 379.879 158.123 379.879 156.89C379.879 155.783 379.484 154.93 378.694 154.329C377.935 153.728 376.955 153.428 375.753 153.428ZM370.536 173.489C370.536 174.722 370.963 175.734 371.817 176.524C372.702 177.315 373.998 177.71 375.706 177.71C377.476 177.71 378.804 177.331 379.69 176.572C380.575 175.813 381.018 174.801 381.018 173.536C381.018 172.683 380.765 171.94 380.259 171.307C379.753 170.643 379.12 170.059 378.362 169.553C377.634 169.015 376.876 168.525 376.085 168.082L375.469 167.75C374.014 168.446 372.829 169.252 371.912 170.169C370.995 171.086 370.536 172.193 370.536 173.489ZM402.467 148.211C404.427 148.211 406.213 148.511 407.826 149.112C409.47 149.713 410.782 150.614 411.762 151.815C412.774 153.017 413.28 154.534 413.28 156.368C413.28 158.392 412.695 160.067 411.525 161.395C410.387 162.692 408.948 163.767 407.209 164.62C408.411 165.253 409.549 165.996 410.624 166.849C411.731 167.671 412.616 168.652 413.28 169.79C413.975 170.896 414.323 172.209 414.323 173.726C414.323 175.592 413.817 177.22 412.806 178.611C411.825 180.002 410.434 181.077 408.632 181.836C406.862 182.595 404.806 182.974 402.467 182.974C398.673 182.974 395.732 182.168 393.645 180.556C391.59 178.943 390.563 176.73 390.563 173.916C390.563 171.576 391.195 169.695 392.46 168.272C393.725 166.849 395.258 165.695 397.06 164.81C395.543 163.862 394.246 162.723 393.171 161.395C392.128 160.036 391.606 158.344 391.606 156.321C391.606 154.519 392.112 153.017 393.124 151.815C394.136 150.614 395.463 149.713 397.108 149.112C398.783 148.511 400.57 148.211 402.467 148.211ZM402.419 153.428C401.249 153.428 400.269 153.728 399.479 154.329C398.72 154.93 398.341 155.783 398.341 156.89C398.341 158.06 398.752 159.008 399.574 159.735C400.396 160.463 401.36 161.095 402.467 161.633C403.542 161.127 404.49 160.526 405.312 159.83C406.134 159.103 406.545 158.123 406.545 156.89C406.545 155.783 406.15 154.93 405.36 154.329C404.601 153.728 403.621 153.428 402.419 153.428ZM397.202 173.489C397.202 174.722 397.629 175.734 398.483 176.524C399.368 177.315 400.665 177.71 402.372 177.71C404.142 177.71 405.47 177.331 406.356 176.572C407.241 175.813 407.684 174.801 407.684 173.536C407.684 172.683 407.431 171.94 406.925 171.307C406.419 170.643 405.787 170.059 405.028 169.553C404.301 169.015 403.542 168.525 402.751 168.082L402.135 167.75C400.68 168.446 399.495 169.252 398.578 170.169C397.661 171.086 397.202 172.193 397.202 173.489ZM418.272 179.18C418.272 177.726 418.667 176.714 419.458 176.145C420.248 175.544 421.213 175.244 422.351 175.244C423.457 175.244 424.406 175.544 425.196 176.145C425.987 176.714 426.382 177.726 426.382 179.18C426.382 180.571 425.987 181.583 425.196 182.215C424.406 182.816 423.457 183.117 422.351 183.117C421.213 183.117 420.248 182.816 419.458 182.215C418.667 181.583 418.272 180.571 418.272 179.18ZM430.278 168.13C430.278 166.17 430.421 164.241 430.705 162.344C430.99 160.447 431.48 158.661 432.175 156.985C432.903 155.277 433.899 153.776 435.163 152.479C436.46 151.151 438.088 150.124 440.048 149.397C442.04 148.638 444.443 148.258 447.257 148.258C447.921 148.258 448.695 148.29 449.581 148.353C450.466 148.385 451.209 148.464 451.81 148.59V154.329C451.209 154.171 450.545 154.06 449.818 153.997C449.122 153.902 448.427 153.855 447.731 153.855C444.917 153.855 442.736 154.297 441.186 155.183C439.669 156.068 438.594 157.317 437.961 158.929C437.329 160.51 436.965 162.344 436.871 164.431H437.155C437.787 163.324 438.689 162.391 439.858 161.633C441.06 160.874 442.609 160.494 444.506 160.494C447.478 160.494 449.834 161.427 451.573 163.292C453.312 165.158 454.181 167.798 454.181 171.213C454.181 174.88 453.138 177.757 451.051 179.844C448.996 181.931 446.198 182.974 442.657 182.974C440.349 182.974 438.262 182.453 436.396 181.409C434.531 180.334 433.045 178.706 431.938 176.524C430.832 174.311 430.278 171.513 430.278 168.13ZM442.514 177.236C443.905 177.236 445.044 176.761 445.929 175.813C446.814 174.833 447.257 173.331 447.257 171.307C447.257 169.663 446.877 168.367 446.119 167.419C445.36 166.47 444.206 165.996 442.657 165.996C441.613 165.996 440.696 166.233 439.906 166.707C439.115 167.15 438.499 167.735 438.056 168.462C437.614 169.189 437.392 169.932 437.392 170.691C437.392 171.734 437.582 172.762 437.961 173.774C438.341 174.754 438.91 175.576 439.669 176.24C440.459 176.904 441.408 177.236 442.514 177.236ZM464.722 148.164C467.378 148.164 469.386 149.096 470.745 150.962C472.137 152.795 472.832 155.388 472.832 158.74C472.832 162.091 472.184 164.715 470.888 166.612C469.591 168.478 467.536 169.41 464.722 169.41C462.13 169.41 460.154 168.478 458.794 166.612C457.434 164.715 456.755 162.091 456.755 158.74C456.755 155.388 457.387 152.795 458.652 150.962C459.916 149.096 461.94 148.164 464.722 148.164ZM488.767 148.638L469.987 182.5H464.438L483.218 148.638H488.767ZM464.77 153.001C463.315 153.001 462.588 154.93 462.588 158.787C462.588 162.676 463.315 164.62 464.77 164.62C466.256 164.62 466.999 162.676 466.999 158.787C466.999 154.93 466.256 153.001 464.77 153.001ZM488.435 161.68C491.091 161.68 493.099 162.613 494.458 164.478C495.85 166.312 496.545 168.905 496.545 172.256C496.545 175.607 495.897 178.232 494.601 180.129C493.304 181.994 491.249 182.927 488.435 182.927C485.843 182.927 483.867 181.994 482.507 180.129C481.148 178.232 480.468 175.607 480.468 172.256C480.468 168.905 481.1 166.312 482.365 164.478C483.629 162.613 485.653 161.68 488.435 161.68ZM488.483 166.517C487.028 166.517 486.301 168.446 486.301 172.303C486.301 176.192 487.028 178.137 488.483 178.137C489.969 178.137 490.712 176.192 490.712 172.303C490.712 168.446 489.969 166.517 488.483 166.517Z" fill="#37A3E2"/>
</g>
<defs>
<clipPath id="clip0_1144_181">
<rect width="284.556" height="284.556" fill="white" transform="translate(287.722 21.7219)"/>
</clipPath>
</defs>
</svg>
