<svg width="860" height="328" viewBox="0 0 860 328" fill="none" xmlns="http://www.w3.org/2000/svg">
<rect x="294" y="177.27" width="103" height="87" fill="#D8D7E9"/>
<path d="M278.401 273.821H284.364V282.085H278.401V273.821ZM282.6 275.234H280.164V280.685H282.6V275.234ZM285.979 272.663H287.783V285.127H285.979V272.663ZM287.392 277.361H289.586V278.828H287.392V277.361ZM298.818 272.636H300.609V285.141H298.818V272.636ZM293.892 273.511C294.529 273.511 295.095 273.695 295.588 274.063C296.082 274.422 296.468 274.938 296.746 275.611C297.033 276.275 297.176 277.06 297.176 277.967C297.176 278.882 297.033 279.676 296.746 280.349C296.468 281.013 296.082 281.529 295.588 281.897C295.095 282.256 294.529 282.435 293.892 282.435C293.264 282.435 292.703 282.256 292.21 281.897C291.716 281.529 291.326 281.013 291.039 280.349C290.761 279.676 290.621 278.882 290.621 277.967C290.621 277.06 290.761 276.275 291.039 275.611C291.326 274.938 291.716 274.422 292.21 274.063C292.703 273.695 293.264 273.511 293.892 273.511ZM293.892 275.14C293.587 275.14 293.318 275.248 293.085 275.463C292.851 275.678 292.667 275.997 292.533 276.419C292.407 276.831 292.344 277.347 292.344 277.967C292.344 278.577 292.407 279.097 292.533 279.528C292.667 279.95 292.851 280.268 293.085 280.483C293.318 280.699 293.587 280.807 293.892 280.807C294.206 280.807 294.48 280.699 294.713 280.483C294.947 280.268 295.126 279.95 295.252 279.528C295.386 279.097 295.454 278.577 295.454 277.967C295.454 277.347 295.386 276.831 295.252 276.419C295.126 275.997 294.947 275.678 294.713 275.463C294.48 275.248 294.206 275.14 293.892 275.14ZM310.888 273.848H312.624C312.624 274.808 312.543 275.732 312.382 276.621C312.22 277.5 311.933 278.339 311.52 279.138C311.108 279.936 310.529 280.681 309.784 281.372C309.039 282.063 308.079 282.7 306.904 283.283L305.961 281.897C306.922 281.421 307.72 280.91 308.357 280.362C308.994 279.815 309.497 279.223 309.865 278.586C310.233 277.949 310.493 277.258 310.645 276.513C310.807 275.768 310.888 274.956 310.888 274.077V273.848ZM306.715 273.848H311.776V275.275H306.715V273.848ZM310.874 276.903V278.276L306.298 278.693L306.069 277.186L310.874 276.903ZM314.468 272.65H316.258V285.114H314.468V272.65ZM321.13 279.676H322.933V284.75H321.13V279.676ZM326.89 272.65H328.694V285.114H326.89V272.65ZM318.29 280.43L318.088 278.976C318.85 278.976 319.685 278.972 320.591 278.963C321.497 278.954 322.422 278.922 323.364 278.868C324.306 278.814 325.221 278.729 326.11 278.613L326.204 279.905C325.298 280.075 324.378 280.196 323.445 280.268C322.52 280.34 321.619 280.385 320.739 280.403C319.869 280.421 319.052 280.43 318.29 280.43ZM324.4 281.035H327.24V282.381H324.4V281.035ZM322.112 273.175C322.722 273.175 323.265 273.283 323.741 273.498C324.225 273.713 324.602 274.014 324.871 274.4C325.141 274.777 325.275 275.216 325.275 275.719C325.275 276.23 325.141 276.679 324.871 277.065C324.602 277.451 324.225 277.751 323.741 277.967C323.265 278.173 322.722 278.276 322.112 278.276C321.502 278.276 320.955 278.173 320.47 277.967C319.994 277.751 319.618 277.451 319.339 277.065C319.07 276.679 318.936 276.23 318.936 275.719C318.936 275.216 319.07 274.777 319.339 274.4C319.618 274.014 319.994 273.713 320.47 273.498C320.955 273.283 321.502 273.175 322.112 273.175ZM322.112 274.521C321.825 274.521 321.565 274.57 321.331 274.669C321.107 274.759 320.932 274.893 320.807 275.073C320.681 275.252 320.618 275.467 320.618 275.719C320.618 275.979 320.681 276.199 320.807 276.378C320.932 276.558 321.107 276.692 321.331 276.782C321.565 276.872 321.825 276.917 322.112 276.917C322.408 276.917 322.664 276.872 322.879 276.782C323.104 276.692 323.279 276.558 323.404 276.378C323.539 276.199 323.606 275.979 323.606 275.719C323.606 275.467 323.539 275.252 323.404 275.073C323.279 274.893 323.104 274.759 322.879 274.669C322.664 274.57 322.408 274.521 322.112 274.521ZM331.694 278.411H340.457V279.824H331.694V278.411ZM330.375 282.166H341.668V283.62H330.375V282.166ZM331.694 273.673H340.363V275.126H333.471V279.003H331.694V273.673ZM349.175 279.434H350.965V282.004H349.175V279.434ZM349.161 274.992H350.588V275.261C350.588 275.961 350.458 276.616 350.197 277.226C349.946 277.836 349.565 278.366 349.053 278.814C348.542 279.263 347.887 279.595 347.088 279.811L346.294 278.424C346.958 278.254 347.501 278.007 347.923 277.684C348.345 277.352 348.654 276.979 348.851 276.567C349.058 276.145 349.161 275.71 349.161 275.261V274.992ZM349.538 274.992H350.978V275.261C350.978 275.692 351.077 276.109 351.274 276.513C351.481 276.917 351.795 277.276 352.216 277.59C352.647 277.904 353.195 278.146 353.859 278.316L353.064 279.689C352.275 279.483 351.615 279.164 351.086 278.734C350.565 278.294 350.175 277.778 349.915 277.186C349.664 276.585 349.538 275.943 349.538 275.261V274.992ZM346.658 274.117H353.495V275.53H346.658V274.117ZM349.175 272.758H350.965V274.75H349.175V272.758ZM354.585 272.636H356.376V285.141H354.585V272.636ZM346.24 282.825L346.038 281.372C346.765 281.372 347.568 281.367 348.448 281.358C349.336 281.34 350.247 281.305 351.18 281.251C352.122 281.188 353.033 281.094 353.912 280.968L354.034 282.274C353.136 282.444 352.225 282.57 351.301 282.651C350.377 282.731 349.484 282.781 348.623 282.799C347.761 282.808 346.967 282.817 346.24 282.825ZM358.232 282.26H369.525V283.714H358.232V282.26ZM362.983 279.851H364.76V283H362.983V279.851ZM362.97 275.248H364.545V275.517C364.545 276.118 364.428 276.683 364.195 277.213C363.961 277.733 363.616 278.204 363.158 278.626C362.71 279.048 362.158 279.402 361.503 279.689C360.848 279.977 360.089 280.174 359.228 280.282L358.582 278.855C359.345 278.765 360 278.613 360.547 278.397C361.103 278.173 361.556 277.904 361.906 277.59C362.265 277.276 362.53 276.944 362.701 276.594C362.88 276.235 362.97 275.876 362.97 275.517V275.248ZM363.199 275.248H364.773V275.517C364.773 275.876 364.859 276.235 365.029 276.594C365.209 276.944 365.473 277.276 365.823 277.59C366.182 277.904 366.64 278.173 367.196 278.397C367.752 278.613 368.408 278.765 369.161 278.855L368.515 280.282C367.654 280.174 366.896 279.977 366.24 279.689C365.585 279.402 365.029 279.048 364.571 278.626C364.123 278.204 363.782 277.733 363.549 277.213C363.315 276.683 363.199 276.118 363.199 275.517V275.248ZM359.188 274.346H368.542V275.773H359.188V274.346ZM362.983 272.825H364.76V274.925H362.983V272.825ZM378.579 279.003H380.356V280.793H378.579V279.003ZM373.868 277.953H385.08V279.259H373.868V277.953ZM378.565 272.65H380.356V274.144H378.565V272.65ZM378.458 274.225H380.033V274.48C380.033 274.929 379.92 275.337 379.696 275.705C379.472 276.064 379.14 276.383 378.7 276.661C378.26 276.93 377.713 277.15 377.058 277.32C376.403 277.482 375.645 277.585 374.783 277.63L374.285 276.311C375.048 276.275 375.694 276.203 376.223 276.096C376.753 275.979 377.179 275.84 377.502 275.678C377.834 275.508 378.076 275.319 378.229 275.113C378.382 274.907 378.458 274.696 378.458 274.48V274.225ZM378.888 274.225H380.463V274.48C380.463 274.696 380.535 274.907 380.679 275.113C380.831 275.319 381.073 275.508 381.405 275.678C381.737 275.84 382.168 275.979 382.698 276.096C383.236 276.203 383.882 276.275 384.636 276.311L384.138 277.63C383.276 277.585 382.518 277.482 381.863 277.32C381.208 277.15 380.661 276.93 380.221 276.661C379.781 276.383 379.449 276.064 379.225 275.705C379.001 275.337 378.888 274.929 378.888 274.48V274.225ZM374.904 273.619H384.017V274.925H374.904V273.619ZM375.12 280.012H383.734V283.095H376.91V284.279H375.133V281.897H381.971V281.291H375.12V280.012ZM375.133 283.741H384.071V285.046H375.133V283.741ZM389.117 273.619H390.584V275.423C390.584 276.23 390.512 277.006 390.369 277.751C390.225 278.487 390.005 279.178 389.709 279.824C389.422 280.461 389.05 281.026 388.592 281.52C388.143 282.004 387.609 282.39 386.99 282.677L385.927 281.197C386.474 280.955 386.945 280.636 387.34 280.241C387.744 279.837 388.076 279.38 388.336 278.868C388.596 278.348 388.789 277.796 388.915 277.213C389.05 276.63 389.117 276.033 389.117 275.423V273.619ZM389.467 273.619H390.92V275.423C390.92 276.006 390.983 276.576 391.109 277.132C391.235 277.688 391.423 278.213 391.674 278.707C391.934 279.2 392.257 279.64 392.643 280.026C393.038 280.403 393.5 280.703 394.03 280.928L392.993 282.381C392.392 282.103 391.867 281.731 391.419 281.264C390.979 280.798 390.615 280.259 390.328 279.649C390.041 279.03 389.826 278.366 389.682 277.657C389.539 276.939 389.467 276.194 389.467 275.423V273.619ZM394.635 272.636H396.426V285.141H394.635V272.636ZM402.223 273.955H412.385V275.355H402.223V273.955ZM401.698 280.726H412.99V282.153H401.698V280.726ZM406.435 281.991H408.212V285.127H406.435V281.991ZM407.337 275.84C408.674 275.84 409.72 276.024 410.473 276.392C411.227 276.76 411.604 277.289 411.604 277.98C411.604 278.671 411.227 279.205 410.473 279.582C409.72 279.95 408.67 280.134 407.324 280.134C405.987 280.134 404.941 279.95 404.188 279.582C403.434 279.205 403.057 278.671 403.057 277.98C403.057 277.289 403.434 276.76 404.188 276.392C404.941 276.024 405.991 275.84 407.337 275.84ZM407.324 277.172C406.516 277.172 405.91 277.235 405.507 277.361C405.112 277.486 404.914 277.693 404.914 277.98C404.914 278.258 405.112 278.465 405.507 278.599C405.91 278.734 406.516 278.801 407.324 278.801C408.14 278.801 408.746 278.734 409.141 278.599C409.545 278.465 409.747 278.258 409.747 277.98C409.747 277.693 409.545 277.486 409.141 277.361C408.746 277.235 408.14 277.172 407.324 277.172ZM406.435 272.65H408.212V274.884H406.435V272.65Z" fill="#222222"/>
<path opacity="0.3" d="M312.077 304H306.911V302.913L308.764 301.039C309.137 300.652 309.437 300.331 309.665 300.076C309.893 299.814 310.058 299.579 310.162 299.372C310.265 299.158 310.317 298.93 310.317 298.689C310.317 298.392 310.234 298.171 310.069 298.026C309.91 297.881 309.693 297.808 309.416 297.808C309.133 297.808 308.857 297.874 308.588 298.005C308.319 298.136 308.036 298.323 307.739 298.564L306.89 297.56C307.104 297.374 307.328 297.201 307.563 297.042C307.805 296.884 308.081 296.756 308.391 296.659C308.709 296.556 309.089 296.504 309.53 296.504C310.014 296.504 310.428 296.594 310.773 296.773C311.125 296.946 311.394 297.184 311.58 297.488C311.774 297.784 311.87 298.123 311.87 298.502C311.87 298.909 311.787 299.282 311.622 299.62C311.463 299.959 311.228 300.293 310.918 300.625C310.614 300.956 310.245 301.322 309.81 301.722L308.857 302.613V302.685H312.077V304ZM318.168 302.468H317.278V304H315.756V302.468H312.598V301.381L315.839 296.607H317.278V301.256H318.168V302.468ZM315.756 300.003C315.756 299.845 315.759 299.651 315.766 299.424C315.773 299.196 315.78 298.985 315.787 298.792C315.801 298.592 315.811 298.461 315.818 298.399H315.776C315.714 298.537 315.649 298.671 315.58 298.802C315.511 298.934 315.428 299.068 315.331 299.206L313.975 301.256H315.756V300.003ZM322.571 296.607L319.817 304H318.419L321.173 296.607H322.571ZM328.163 300.304C328.163 301.098 328.077 301.777 327.904 302.343C327.739 302.909 327.466 303.344 327.086 303.648C326.714 303.952 326.21 304.104 325.575 304.104C324.684 304.104 324.032 303.769 323.618 303.099C323.204 302.423 322.997 301.491 322.997 300.304C322.997 299.503 323.079 298.82 323.245 298.254C323.411 297.688 323.683 297.253 324.063 296.949C324.443 296.645 324.946 296.494 325.575 296.494C326.458 296.494 327.11 296.828 327.531 297.498C327.953 298.167 328.163 299.103 328.163 300.304ZM324.55 300.304C324.55 301.146 324.622 301.781 324.767 302.209C324.912 302.63 325.181 302.84 325.575 302.84C325.961 302.84 326.23 302.63 326.382 302.209C326.534 301.788 326.61 301.153 326.61 300.304C326.61 299.462 326.534 298.827 326.382 298.399C326.23 297.971 325.961 297.757 325.575 297.757C325.181 297.757 324.912 297.971 324.767 298.399C324.622 298.827 324.55 299.462 324.55 300.304ZM329.698 304L332.473 297.922H328.828V296.607H334.13V297.591L331.334 304H329.698ZM338.698 296.607L335.944 304H334.546L337.3 296.607H338.698ZM344.332 304H339.165V302.913L341.018 301.039C341.391 300.652 341.691 300.331 341.919 300.076C342.147 299.814 342.313 299.579 342.416 299.372C342.52 299.158 342.571 298.93 342.571 298.689C342.571 298.392 342.489 298.171 342.323 298.026C342.164 297.881 341.947 297.808 341.671 297.808C341.388 297.808 341.112 297.874 340.842 298.005C340.573 298.136 340.29 298.323 339.993 298.564L339.144 297.56C339.358 297.374 339.583 297.201 339.817 297.042C340.059 296.884 340.335 296.756 340.646 296.659C340.963 296.556 341.343 296.504 341.785 296.504C342.268 296.504 342.682 296.594 343.027 296.773C343.379 296.946 343.648 297.184 343.835 297.488C344.028 297.784 344.124 298.123 344.124 298.502C344.124 298.909 344.042 299.282 343.876 299.62C343.717 299.959 343.483 300.293 343.172 300.625C342.868 300.956 342.499 301.322 342.064 301.722L341.112 302.613V302.685H344.332V304ZM350.226 299.765C350.226 300.186 350.194 300.607 350.132 301.028C350.07 301.443 349.96 301.836 349.801 302.209C349.649 302.575 349.432 302.903 349.149 303.192C348.873 303.475 348.517 303.7 348.082 303.865C347.654 304.024 347.133 304.104 346.519 304.104C346.374 304.104 346.205 304.097 346.012 304.083C345.818 304.076 345.656 304.059 345.525 304.031V302.778C345.663 302.806 345.808 302.83 345.96 302.851C346.112 302.871 346.264 302.882 346.415 302.882C347.03 302.882 347.503 302.785 347.834 302.592C348.172 302.392 348.41 302.119 348.548 301.774C348.686 301.429 348.766 301.028 348.786 300.573H348.724C348.579 300.815 348.386 301.018 348.144 301.184C347.91 301.349 347.558 301.432 347.088 301.432C346.46 301.432 345.956 301.229 345.577 300.821C345.197 300.414 345.007 299.838 345.007 299.092C345.007 298.292 345.232 297.664 345.68 297.208C346.136 296.752 346.75 296.525 347.523 296.525C348.027 296.525 348.483 296.642 348.89 296.877C349.297 297.104 349.622 297.46 349.863 297.943C350.105 298.419 350.226 299.027 350.226 299.765ZM347.554 297.777C347.251 297.777 347.002 297.881 346.809 298.088C346.616 298.295 346.519 298.623 346.519 299.072C346.519 299.431 346.602 299.714 346.767 299.921C346.933 300.128 347.185 300.231 347.523 300.231C347.758 300.231 347.958 300.179 348.124 300.076C348.296 299.972 348.431 299.845 348.528 299.693C348.624 299.534 348.672 299.372 348.672 299.206C348.672 298.978 348.631 298.754 348.548 298.533C348.465 298.312 348.341 298.133 348.175 297.995C348.01 297.85 347.803 297.777 347.554 297.777ZM353.376 300.884C353.12 300.773 352.903 300.701 352.724 300.666C352.551 300.625 352.385 300.604 352.227 300.604C352.033 300.604 351.83 300.663 351.616 300.78C351.409 300.897 351.219 301.042 351.046 301.215V300.045C351.391 299.679 351.823 299.496 352.34 299.496C352.541 299.496 352.741 299.517 352.941 299.558C353.148 299.593 353.414 299.679 353.738 299.817C353.994 299.928 354.211 300.003 354.39 300.045C354.57 300.079 354.736 300.097 354.887 300.097C355.088 300.097 355.291 300.038 355.498 299.921C355.705 299.803 355.895 299.658 356.068 299.486V300.656C355.723 301.022 355.291 301.205 354.774 301.205C354.573 301.205 354.37 301.184 354.163 301.142C353.963 301.101 353.7 301.015 353.376 300.884ZM362.065 300.304C362.065 301.098 361.979 301.777 361.806 302.343C361.641 302.909 361.368 303.344 360.989 303.648C360.616 303.952 360.112 304.104 359.477 304.104C358.586 304.104 357.934 303.769 357.52 303.099C357.106 302.423 356.899 301.491 356.899 300.304C356.899 299.503 356.982 298.82 357.147 298.254C357.313 297.688 357.586 297.253 357.965 296.949C358.345 296.645 358.849 296.494 359.477 296.494C360.36 296.494 361.013 296.828 361.434 297.498C361.855 298.167 362.065 299.103 362.065 300.304ZM358.452 300.304C358.452 301.146 358.524 301.781 358.669 302.209C358.814 302.63 359.083 302.84 359.477 302.84C359.863 302.84 360.133 302.63 360.284 302.209C360.436 301.788 360.512 301.153 360.512 300.304C360.512 299.462 360.436 298.827 360.284 298.399C360.133 297.971 359.863 297.757 359.477 297.757C359.083 297.757 358.814 297.971 358.669 298.399C358.524 298.827 358.452 299.462 358.452 300.304ZM368.001 299.765C368.001 300.186 367.97 300.607 367.908 301.028C367.845 301.443 367.735 301.836 367.576 302.209C367.424 302.575 367.207 302.903 366.924 303.192C366.648 303.475 366.292 303.7 365.857 303.865C365.43 304.024 364.908 304.104 364.294 304.104C364.149 304.104 363.98 304.097 363.787 304.083C363.593 304.076 363.431 304.059 363.3 304.031V302.778C363.438 302.806 363.583 302.83 363.735 302.851C363.887 302.871 364.039 302.882 364.191 302.882C364.805 302.882 365.278 302.785 365.609 302.592C365.947 302.392 366.185 302.119 366.323 301.774C366.461 301.429 366.541 301.028 366.562 300.573H366.499C366.354 300.815 366.161 301.018 365.92 301.184C365.685 301.349 365.333 301.432 364.864 301.432C364.235 301.432 363.732 301.229 363.352 300.821C362.972 300.414 362.782 299.838 362.782 299.092C362.782 298.292 363.007 297.664 363.455 297.208C363.911 296.752 364.525 296.525 365.298 296.525C365.802 296.525 366.258 296.642 366.665 296.877C367.072 297.104 367.397 297.46 367.638 297.943C367.88 298.419 368.001 299.027 368.001 299.765ZM365.329 297.777C365.026 297.777 364.777 297.881 364.584 298.088C364.391 298.295 364.294 298.623 364.294 299.072C364.294 299.431 364.377 299.714 364.543 299.921C364.708 300.128 364.96 300.231 365.298 300.231C365.533 300.231 365.733 300.179 365.899 300.076C366.071 299.972 366.206 299.845 366.303 299.693C366.399 299.534 366.448 299.372 366.448 299.206C366.448 298.978 366.406 298.754 366.323 298.533C366.241 298.312 366.116 298.133 365.951 297.995C365.785 297.85 365.578 297.777 365.329 297.777ZM372.6 296.607L369.846 304H368.449L371.203 296.607H372.6ZM378.192 300.304C378.192 301.098 378.106 301.777 377.934 302.343C377.768 302.909 377.495 303.344 377.116 303.648C376.743 303.952 376.239 304.104 375.604 304.104C374.714 304.104 374.061 303.769 373.647 303.099C373.233 302.423 373.026 301.491 373.026 300.304C373.026 299.503 373.109 298.82 373.274 298.254C373.44 297.688 373.713 297.253 374.092 296.949C374.472 296.645 374.976 296.494 375.604 296.494C376.487 296.494 377.14 296.828 377.561 297.498C377.982 298.167 378.192 299.103 378.192 300.304ZM374.579 300.304C374.579 301.146 374.651 301.781 374.796 302.209C374.941 302.63 375.211 302.84 375.604 302.84C375.99 302.84 376.26 302.63 376.412 302.209C376.563 301.788 376.639 301.153 376.639 300.304C376.639 299.462 376.563 298.827 376.412 298.399C376.26 297.971 375.99 297.757 375.604 297.757C375.211 297.757 374.941 297.971 374.796 298.399C374.651 298.827 374.579 299.462 374.579 300.304ZM384.325 302.468H383.434V304H381.912V302.468H378.754V301.381L381.995 296.607H383.434V301.256H384.325V302.468ZM381.912 300.003C381.912 299.845 381.916 299.651 381.922 299.424C381.929 299.196 381.936 298.985 381.943 298.792C381.957 298.592 381.967 298.461 381.974 298.399H381.933C381.871 298.537 381.805 298.671 381.736 298.802C381.667 298.934 381.584 299.068 381.488 299.206L380.131 301.256H381.912V300.003Z" fill="#222222"/>
<rect x="460.792" y="20.1021" width="95.4147" height="51.3537" rx="5.17684" fill="#37A3E2"/>
<path d="M487.221 40.2788H485.189V34.7199C485.189 34.4866 485.193 34.1815 485.202 33.8046C485.22 33.4278 485.234 33.0958 485.242 32.8086C485.198 32.8625 485.099 32.9612 484.946 33.1047C484.803 33.2393 484.668 33.3605 484.543 33.4682L483.439 34.3565L482.456 33.1317L485.552 30.6685H487.221V40.2788ZM496.431 35.4737C496.431 36.5056 496.319 37.3894 496.095 38.1252C495.879 38.861 495.525 39.4264 495.031 39.8212C494.547 40.216 493.892 40.4134 493.066 40.4134C491.909 40.4134 491.061 39.9782 490.522 39.1078C489.984 38.2284 489.715 37.0171 489.715 35.4737C489.715 34.4328 489.822 33.5444 490.038 32.8086C490.253 32.0728 490.608 31.5075 491.101 31.1127C491.595 30.7179 492.25 30.5205 493.066 30.5205C494.215 30.5205 495.063 30.9557 495.61 31.8261C496.157 32.6965 496.431 33.9123 496.431 35.4737ZM491.734 35.4737C491.734 36.5684 491.828 37.3939 492.016 37.9503C492.205 38.4976 492.555 38.7713 493.066 38.7713C493.569 38.7713 493.919 38.4976 494.116 37.9503C494.313 37.4029 494.412 36.5774 494.412 35.4737C494.412 34.3789 494.313 33.5534 494.116 32.9971C493.919 32.4407 493.569 32.1626 493.066 32.1626C492.555 32.1626 492.205 32.4407 492.016 32.9971C491.828 33.5534 491.734 34.3789 491.734 35.4737ZM498.292 40.2788L501.899 32.3779H497.162V30.6685H504.053V31.9472L500.419 40.2788H498.292ZM505.133 39.3366C505.133 38.9239 505.245 38.6367 505.47 38.4752C505.694 38.3047 505.968 38.2195 506.291 38.2195C506.605 38.2195 506.874 38.3047 507.098 38.4752C507.323 38.6367 507.435 38.9239 507.435 39.3366C507.435 39.7314 507.323 40.0186 507.098 40.198C506.874 40.3685 506.605 40.4538 506.291 40.4538C505.968 40.4538 505.694 40.3685 505.47 40.198C505.245 40.0186 505.133 39.7314 505.133 39.3366ZM513.629 40.2788H511.596V34.7199C511.596 34.4866 511.601 34.1815 511.61 33.8046C511.628 33.4278 511.641 33.0958 511.65 32.8086C511.605 32.8625 511.506 32.9612 511.354 33.1047C511.21 33.2393 511.076 33.3605 510.95 33.4682L509.846 34.3565L508.864 33.1317L511.96 30.6685H513.629V40.2788ZM519.487 30.5474C520.043 30.5474 520.55 30.6326 521.008 30.8031C521.475 30.9736 521.847 31.2293 522.125 31.5703C522.412 31.9113 522.556 32.342 522.556 32.8625C522.556 33.4367 522.39 33.9123 522.058 34.2892C521.735 34.6571 521.327 34.9622 520.833 35.2045C521.174 35.3839 521.497 35.5948 521.802 35.8371C522.116 36.0704 522.368 36.3485 522.556 36.6716C522.753 36.9856 522.852 37.358 522.852 37.7887C522.852 38.3182 522.709 38.7803 522.421 39.1751C522.143 39.5699 521.748 39.875 521.237 40.0904C520.734 40.3057 520.151 40.4134 519.487 40.4134C518.41 40.4134 517.576 40.1846 516.984 39.727C516.4 39.2693 516.109 38.6412 516.109 37.8426C516.109 37.1786 516.288 36.6447 516.647 36.2409C517.006 35.8371 517.441 35.5096 517.953 35.2583C517.522 34.9891 517.154 34.6661 516.849 34.2892C516.553 33.9034 516.405 33.4233 516.405 32.849C516.405 32.3375 516.548 31.9113 516.836 31.5703C517.123 31.2293 517.5 30.9736 517.966 30.8031C518.442 30.6326 518.949 30.5474 519.487 30.5474ZM519.474 32.028C519.142 32.028 518.863 32.1132 518.639 32.2837C518.424 32.4542 518.316 32.6965 518.316 33.0105C518.316 33.3425 518.433 33.6117 518.666 33.8181C518.899 34.0245 519.173 34.204 519.487 34.3565C519.792 34.2129 520.061 34.0424 520.295 33.845C520.528 33.6386 520.645 33.3605 520.645 33.0105C520.645 32.6965 520.533 32.4542 520.308 32.2837C520.093 32.1132 519.815 32.028 519.474 32.028ZM517.993 37.7214C517.993 38.0714 518.114 38.3585 518.357 38.5829C518.608 38.8072 518.976 38.9194 519.46 38.9194C519.963 38.9194 520.34 38.8117 520.591 38.5963C520.842 38.381 520.968 38.0938 520.968 37.7349C520.968 37.4926 520.896 37.2818 520.752 37.1023C520.609 36.9139 520.429 36.7479 520.214 36.6043C520.008 36.4517 519.792 36.3127 519.568 36.187L519.393 36.0928C518.98 36.2902 518.644 36.519 518.383 36.7793C518.123 37.0395 517.993 37.3535 517.993 37.7214ZM525.884 30.5339C526.638 30.5339 527.208 30.7986 527.594 31.328C527.988 31.8485 528.186 32.5843 528.186 33.5355C528.186 34.4866 528.002 35.2314 527.634 35.7698C527.266 36.2992 526.683 36.5639 525.884 36.5639C525.148 36.5639 524.587 36.2992 524.202 35.7698C523.816 35.2314 523.623 34.4866 523.623 33.5355C523.623 32.5843 523.802 31.8485 524.161 31.328C524.52 30.7986 525.094 30.5339 525.884 30.5339ZM532.708 30.6685L527.378 40.2788H525.803L531.133 30.6685H532.708ZM525.898 31.9068C525.485 31.9068 525.278 32.4542 525.278 33.5489C525.278 34.6526 525.485 35.2045 525.898 35.2045C526.319 35.2045 526.53 34.6526 526.53 33.5489C526.53 32.4542 526.319 31.9068 525.898 31.9068ZM532.614 34.37C533.368 34.37 533.938 34.6347 534.323 35.1641C534.718 35.6845 534.916 36.4203 534.916 37.3715C534.916 38.3227 534.732 39.0674 534.364 39.6058C533.996 40.1352 533.413 40.3999 532.614 40.3999C531.878 40.3999 531.317 40.1352 530.932 39.6058C530.546 39.0674 530.353 38.3227 530.353 37.3715C530.353 36.4203 530.532 35.6845 530.891 35.1641C531.25 34.6347 531.824 34.37 532.614 34.37ZM532.627 35.7429C532.215 35.7429 532.008 36.2902 532.008 37.385C532.008 38.4887 532.215 39.0405 532.627 39.0405C533.049 39.0405 533.26 38.4887 533.26 37.385C533.26 36.2902 533.049 35.7429 532.627 35.7429ZM496.724 55.7603H508.003V57.1736H496.724V55.7603ZM502.336 57.86C503.682 57.86 504.741 58.0619 505.513 58.4657C506.285 58.8695 506.671 59.4348 506.671 60.1616C506.671 60.8974 506.285 61.4672 505.513 61.871C504.741 62.2748 503.682 62.4767 502.336 62.4767C500.99 62.4767 499.932 62.2748 499.16 61.871C498.397 61.4672 498.016 60.8974 498.016 60.1616C498.016 59.4348 498.397 58.8695 499.16 58.4657C499.932 58.0619 500.99 57.86 502.336 57.86ZM502.336 59.2329C501.78 59.2329 501.314 59.2688 500.937 59.3406C500.569 59.4034 500.291 59.5021 500.102 59.6367C499.914 59.7713 499.819 59.9463 499.819 60.1616C499.819 60.377 499.914 60.5565 500.102 60.7C500.291 60.8346 500.569 60.9333 500.937 60.9962C501.314 61.059 501.78 61.0904 502.336 61.0904C502.893 61.0904 503.355 61.059 503.723 60.9962C504.1 60.9333 504.382 60.8346 504.571 60.7C504.759 60.5565 504.853 60.377 504.853 60.1616C504.853 59.9463 504.759 59.7713 504.571 59.6367C504.382 59.5021 504.1 59.4034 503.723 59.3406C503.355 59.2688 502.893 59.2329 502.336 59.2329ZM501.139 51.2916H502.727V51.5878C502.727 51.9557 502.66 52.3146 502.525 52.6645C502.39 53.0055 502.188 53.3241 501.919 53.6202C501.659 53.9073 501.331 54.1676 500.937 54.4009C500.542 54.6252 500.084 54.8136 499.564 54.9662C499.043 55.1187 498.465 55.2264 497.827 55.2892L497.208 53.8894C497.756 53.8445 498.24 53.7682 498.662 53.6606C499.093 53.5439 499.461 53.4093 499.766 53.2568C500.08 53.0953 500.335 52.9248 500.533 52.7453C500.739 52.5658 500.892 52.3774 500.99 52.18C501.089 51.9736 501.139 51.7762 501.139 51.5878V51.2916ZM502.013 51.2916H503.588V51.5878C503.588 51.7852 503.638 51.9826 503.736 52.18C503.835 52.3774 503.983 52.5703 504.18 52.7588C504.387 52.9382 504.643 53.1087 504.948 53.2702C505.262 53.4228 505.63 53.5529 506.051 53.6606C506.482 53.7682 506.971 53.8445 507.518 53.8894L506.899 55.2892C506.262 55.2264 505.683 55.1232 505.163 54.9796C504.643 54.8271 504.185 54.6342 503.79 54.4009C503.404 54.1676 503.077 53.9073 502.808 53.6202C502.547 53.3241 502.35 53.0055 502.215 52.6645C502.081 52.3236 502.013 51.9646 502.013 51.5878V51.2916ZM497.76 50.5917H506.994V52.005H497.76V50.5917ZM516.939 49.986H518.743V62.4498H516.939V49.986ZM518.285 54.7643H520.479V56.2314H518.285V54.7643ZM513.669 51.2782H515.432C515.432 52.5255 515.252 53.7054 514.893 54.8181C514.543 55.9308 513.96 56.9537 513.144 57.8869C512.336 58.8112 511.241 59.6188 509.859 60.3097L508.85 58.9503C509.945 58.385 510.846 57.7479 511.555 57.039C512.273 56.3301 512.803 55.527 513.144 54.6297C513.494 53.7234 513.669 52.7139 513.669 51.6012V51.2782ZM509.536 51.2782H514.597V52.7184H509.536V51.2782Z" fill="white"/>
<rect x="508.5" y="60.4814" width="12.0373" height="12.0373" transform="rotate(45 508.5 60.4814)" fill="#37A3E2"/>
<rect x="457" y="83.717" width="103" height="179" fill="#37A3E2"/>
<path d="M439.436 273.363H441.321C441.321 274.458 441.096 275.436 440.648 276.297C440.208 277.159 439.567 277.895 438.723 278.505C437.889 279.106 436.861 279.577 435.641 279.918L434.954 278.518C435.95 278.249 436.78 277.904 437.444 277.482C438.108 277.051 438.606 276.562 438.938 276.015C439.27 275.459 439.436 274.857 439.436 274.211V273.363ZM435.627 273.363H440.688V274.79H435.627V273.363ZM443.528 272.65H445.332V279.622H443.528V272.65ZM441.388 275.611H443.784V277.065H441.388V275.611ZM437.108 280.134H445.332V284.993H437.108V280.134ZM443.569 281.533H438.871V283.579H443.569V281.533ZM449.382 273.363H450.782V274.803C450.782 275.512 450.683 276.203 450.486 276.876C450.288 277.549 449.979 278.15 449.557 278.68C449.144 279.209 448.597 279.622 447.915 279.918L446.973 278.532C447.547 278.272 448.009 277.94 448.359 277.536C448.718 277.132 448.978 276.692 449.14 276.217C449.301 275.741 449.382 275.27 449.382 274.803V273.363ZM449.719 273.363H451.118V274.803C451.118 275.261 451.195 275.71 451.347 276.149C451.5 276.58 451.747 276.975 452.088 277.334C452.429 277.693 452.873 277.989 453.42 278.222L452.478 279.582C451.832 279.312 451.302 278.936 450.89 278.451C450.486 277.958 450.19 277.401 450.001 276.782C449.813 276.154 449.719 275.494 449.719 274.803V273.363ZM456.058 272.663H457.768V280.228H456.058V272.663ZM454.578 275.692H456.556V277.132H454.578V275.692ZM453.434 272.852H455.103V280.16H453.434V272.852ZM449.194 280.766H457.768V285.127H455.977V282.193H449.194V280.766ZM468.696 274.332H470.849V275.786H468.696V274.332ZM468.696 276.957H470.849V278.424H468.696V276.957ZM467.404 272.65H469.194V280.174H467.404V272.65ZM459.839 278.209H460.889C461.706 278.209 462.433 278.2 463.07 278.182C463.716 278.164 464.313 278.128 464.86 278.074C465.416 278.011 465.982 277.931 466.556 277.832L466.717 279.259C466.143 279.366 465.564 279.452 464.981 279.514C464.407 279.568 463.788 279.604 463.124 279.622C462.469 279.64 461.724 279.649 460.889 279.649H459.839V278.209ZM459.812 273.39H465.506V277.145H461.603V279.084H459.839V275.813H463.743V274.817H459.812V273.39ZM465.102 280.389C465.973 280.389 466.722 280.483 467.35 280.672C467.987 280.86 468.472 281.13 468.804 281.48C469.145 281.829 469.315 282.256 469.315 282.758C469.315 283.503 468.938 284.082 468.184 284.495C467.44 284.916 466.412 285.127 465.102 285.127C464.241 285.127 463.491 285.033 462.854 284.844C462.226 284.665 461.742 284.396 461.401 284.037C461.06 283.678 460.889 283.252 460.889 282.758C460.889 282.256 461.06 281.829 461.401 281.48C461.742 281.13 462.226 280.86 462.854 280.672C463.491 280.483 464.241 280.389 465.102 280.389ZM465.102 281.749C464.564 281.749 464.111 281.785 463.743 281.856C463.384 281.928 463.11 282.04 462.922 282.193C462.742 282.345 462.652 282.534 462.652 282.758C462.652 282.992 462.742 283.184 462.922 283.337C463.11 283.481 463.384 283.588 463.743 283.66C464.111 283.732 464.564 283.768 465.102 283.768C465.65 283.768 466.103 283.732 466.462 283.66C466.829 283.588 467.103 283.481 467.283 283.337C467.471 283.184 467.565 282.992 467.565 282.758C467.565 282.534 467.471 282.345 467.283 282.193C467.103 282.04 466.829 281.928 466.462 281.856C466.103 281.785 465.65 281.749 465.102 281.749ZM476.353 272.973H477.888V273.377C477.888 273.834 477.816 274.279 477.673 274.709C477.529 275.131 477.318 275.53 477.04 275.907C476.762 276.275 476.416 276.607 476.004 276.903C475.6 277.199 475.133 277.451 474.604 277.657C474.083 277.863 473.505 278.011 472.867 278.101L472.194 276.701C472.751 276.63 473.249 276.513 473.688 276.351C474.137 276.181 474.527 275.988 474.859 275.773C475.191 275.548 475.465 275.306 475.681 275.046C475.905 274.777 476.071 274.503 476.179 274.225C476.295 273.938 476.353 273.655 476.353 273.377V272.973ZM476.65 272.973H478.184V273.377C478.184 273.646 478.238 273.924 478.346 274.211C478.462 274.489 478.633 274.759 478.857 275.019C479.081 275.279 479.36 275.521 479.692 275.746C480.024 275.961 480.409 276.149 480.849 276.311C481.298 276.472 481.796 276.594 482.343 276.674L481.67 278.061C481.033 277.971 480.45 277.823 479.92 277.617C479.4 277.41 478.933 277.163 478.521 276.876C478.117 276.58 477.776 276.248 477.498 275.88C477.219 275.503 477.009 275.109 476.865 274.696C476.721 274.274 476.65 273.834 476.65 273.377V272.973ZM471.629 278.788H482.922V280.201H471.629V278.788ZM476.528 279.676H478.319V282.301H476.528V279.676ZM472.935 283.472H481.67V284.912H472.935V283.472ZM472.935 281.251H474.725V283.929H472.935V281.251ZM491.976 280.632H493.766V285.141H491.976V280.632ZM487.252 280.12H498.531V281.574H487.252V280.12ZM491.963 274.898H493.537V275.194C493.537 275.607 493.466 276.01 493.322 276.405C493.187 276.791 492.981 277.154 492.703 277.495C492.425 277.827 492.079 278.133 491.667 278.411C491.254 278.68 490.778 278.909 490.24 279.097C489.701 279.277 489.105 279.407 488.45 279.487L487.817 278.074C488.382 278.011 488.885 277.908 489.325 277.765C489.773 277.621 490.164 277.451 490.496 277.253C490.828 277.056 491.101 276.845 491.317 276.621C491.541 276.387 491.702 276.149 491.801 275.907C491.909 275.656 491.963 275.418 491.963 275.194V274.898ZM492.205 274.898H493.766V275.194C493.766 275.409 493.82 275.642 493.928 275.894C494.044 276.136 494.21 276.374 494.426 276.607C494.641 276.831 494.915 277.047 495.247 277.253C495.579 277.451 495.965 277.621 496.404 277.765C496.853 277.908 497.356 278.011 497.912 278.074L497.293 279.487C496.629 279.416 496.028 279.286 495.489 279.097C494.96 278.9 494.489 278.666 494.076 278.397C493.663 278.128 493.318 277.823 493.039 277.482C492.761 277.132 492.55 276.764 492.407 276.378C492.272 275.992 492.205 275.598 492.205 275.194V274.898ZM488.261 274.077H497.495V275.49H488.261V274.077ZM491.976 272.69H493.766V274.561H491.976V272.69ZM507.454 272.636H509.257V285.1H507.454V272.636ZM508.8 277.415H510.994V278.882H508.8V277.415ZM504.183 273.929H505.946C505.946 275.176 505.767 276.356 505.408 277.468C505.058 278.581 504.475 279.604 503.658 280.537C502.851 281.462 501.756 282.269 500.374 282.96L499.364 281.601C500.459 281.035 501.361 280.398 502.07 279.689C502.788 278.98 503.317 278.177 503.658 277.28C504.008 276.374 504.183 275.364 504.183 274.252V273.929ZM500.051 273.929H505.112V275.369H500.051V273.929ZM523.696 272.65H525.486V285.114H523.696V272.65ZM520.021 273.942H521.784C521.784 274.893 521.69 275.804 521.502 276.674C521.322 277.536 521.017 278.348 520.586 279.111C520.165 279.873 519.581 280.582 518.837 281.237C518.101 281.883 517.181 282.476 516.077 283.014L515.135 281.601C516.338 281.017 517.293 280.376 518.002 279.676C518.72 278.967 519.236 278.168 519.55 277.28C519.864 276.383 520.021 275.378 520.021 274.265V273.942ZM515.808 273.942H520.856V275.369H515.808V273.942ZM528.769 275.759H537.383V277.172H528.769V275.759ZM528.769 272.865H530.559V276.405H528.769V272.865ZM527.369 278.236H538.635V279.662H527.369V278.236ZM532.955 280.47C534.301 280.47 535.36 280.672 536.131 281.076C536.903 281.471 537.289 282.04 537.289 282.785C537.289 283.512 536.903 284.077 536.131 284.481C535.36 284.894 534.301 285.1 532.955 285.1C531.609 285.1 530.55 284.894 529.778 284.481C529.016 284.077 528.634 283.512 528.634 282.785C528.634 282.04 529.016 281.471 529.778 281.076C530.55 280.672 531.609 280.47 532.955 280.47ZM532.955 281.829C532.399 281.829 531.932 281.865 531.555 281.937C531.187 282 530.909 282.103 530.721 282.247C530.532 282.381 530.438 282.556 530.438 282.772C530.438 282.987 530.532 283.166 530.721 283.31C530.909 283.445 531.187 283.548 531.555 283.62C531.932 283.691 532.399 283.727 532.955 283.727C533.511 283.727 533.973 283.691 534.341 283.62C534.718 283.548 535.001 283.445 535.189 283.31C535.378 283.166 535.472 282.987 535.472 282.772C535.472 282.556 535.378 282.381 535.189 282.247C535.001 282.103 534.718 282 534.341 281.937C533.973 281.865 533.511 281.829 532.955 281.829ZM544.284 278.209H553.046V279.649H544.284V278.209ZM542.965 282.26H554.258V283.727H542.965V282.26ZM547.703 278.868H549.479V282.731H547.703V278.868ZM544.284 273.511H552.952V274.938H546.06V278.828H544.284V273.511ZM563.773 272.663H565.563V279.353H563.773V272.663ZM557.285 279.905H559.048V281.062H563.786V279.905H565.563V284.993H557.285V279.905ZM559.048 282.435V283.566H563.786V282.435H559.048ZM558.779 273.175C559.425 273.175 560.004 273.3 560.515 273.552C561.027 273.803 561.431 274.148 561.727 274.588C562.023 275.028 562.171 275.535 562.171 276.109C562.171 276.683 562.023 277.195 561.727 277.643C561.431 278.083 561.027 278.429 560.515 278.68C560.004 278.931 559.425 279.057 558.779 279.057C558.133 279.057 557.554 278.931 557.043 278.68C556.531 278.429 556.127 278.083 555.831 277.643C555.535 277.195 555.387 276.683 555.387 276.109C555.387 275.535 555.535 275.028 555.831 274.588C556.127 274.148 556.531 273.803 557.043 273.552C557.554 273.3 558.133 273.175 558.779 273.175ZM558.779 274.642C558.465 274.642 558.182 274.7 557.931 274.817C557.68 274.934 557.482 275.104 557.339 275.328C557.204 275.544 557.137 275.804 557.137 276.109C557.137 276.423 557.204 276.692 557.339 276.917C557.482 277.132 557.68 277.298 557.931 277.415C558.182 277.522 558.465 277.576 558.779 277.576C559.093 277.576 559.371 277.522 559.613 277.415C559.865 277.298 560.062 277.132 560.206 276.917C560.349 276.692 560.421 276.423 560.421 276.109C560.421 275.804 560.349 275.544 560.206 275.328C560.062 275.104 559.865 274.934 559.613 274.817C559.371 274.7 559.093 274.642 558.779 274.642ZM571.346 273.955H581.508V275.355H571.346V273.955ZM570.821 280.726H582.114V282.153H570.821V280.726ZM575.559 281.991H577.336V285.127H575.559V281.991ZM576.461 275.84C577.798 275.84 578.843 276.024 579.597 276.392C580.351 276.76 580.728 277.289 580.728 277.98C580.728 278.671 580.351 279.205 579.597 279.582C578.843 279.95 577.793 280.134 576.447 280.134C575.11 280.134 574.065 279.95 573.311 279.582C572.558 279.205 572.181 278.671 572.181 277.98C572.181 277.289 572.558 276.76 573.311 276.392C574.065 276.024 575.115 275.84 576.461 275.84ZM576.447 277.172C575.64 277.172 575.034 277.235 574.63 277.361C574.236 277.486 574.038 277.693 574.038 277.98C574.038 278.258 574.236 278.465 574.63 278.599C575.034 278.734 575.64 278.801 576.447 278.801C577.264 278.801 577.87 278.734 578.265 278.599C578.668 278.465 578.87 278.258 578.87 277.98C578.87 277.693 578.668 277.486 578.265 277.361C577.87 277.235 577.264 277.172 576.447 277.172ZM575.559 272.65H577.336V274.884H575.559V272.65Z" fill="#222222"/>
<path opacity="0.3" d="M475.077 304H469.911V302.913L471.764 301.039C472.137 300.652 472.437 300.331 472.665 300.076C472.893 299.814 473.058 299.579 473.162 299.372C473.265 299.158 473.317 298.93 473.317 298.689C473.317 298.392 473.234 298.171 473.069 298.026C472.91 297.881 472.693 297.808 472.416 297.808C472.133 297.808 471.857 297.874 471.588 298.005C471.319 298.136 471.036 298.323 470.739 298.564L469.89 297.56C470.104 297.374 470.328 297.201 470.563 297.042C470.805 296.884 471.081 296.756 471.391 296.659C471.709 296.556 472.089 296.504 472.53 296.504C473.014 296.504 473.428 296.594 473.773 296.773C474.125 296.946 474.394 297.184 474.58 297.488C474.774 297.784 474.87 298.123 474.87 298.502C474.87 298.909 474.787 299.282 474.622 299.62C474.463 299.959 474.228 300.293 473.918 300.625C473.614 300.956 473.245 301.322 472.81 301.722L471.857 302.613V302.685H475.077V304ZM481.168 302.468H480.278V304H478.756V302.468H475.598V301.381L478.839 296.607H480.278V301.256H481.168V302.468ZM478.756 300.003C478.756 299.845 478.759 299.651 478.766 299.424C478.773 299.196 478.78 298.985 478.787 298.792C478.801 298.592 478.811 298.461 478.818 298.399H478.776C478.714 298.537 478.649 298.671 478.58 298.802C478.511 298.934 478.428 299.068 478.331 299.206L476.975 301.256H478.756V300.003ZM485.571 296.607L482.817 304H481.419L484.173 296.607H485.571ZM491.163 300.304C491.163 301.098 491.077 301.777 490.904 302.343C490.739 302.909 490.466 303.344 490.086 303.648C489.714 303.952 489.21 304.104 488.575 304.104C487.684 304.104 487.032 303.769 486.618 303.099C486.204 302.423 485.997 301.491 485.997 300.304C485.997 299.503 486.079 298.82 486.245 298.254C486.411 297.688 486.683 297.253 487.063 296.949C487.443 296.645 487.946 296.494 488.575 296.494C489.458 296.494 490.11 296.828 490.531 297.498C490.953 298.167 491.163 299.103 491.163 300.304ZM487.55 300.304C487.55 301.146 487.622 301.781 487.767 302.209C487.912 302.63 488.181 302.84 488.575 302.84C488.961 302.84 489.23 302.63 489.382 302.209C489.534 301.788 489.61 301.153 489.61 300.304C489.61 299.462 489.534 298.827 489.382 298.399C489.23 297.971 488.961 297.757 488.575 297.757C488.181 297.757 487.912 297.971 487.767 298.399C487.622 298.827 487.55 299.462 487.55 300.304ZM497.098 299.765C497.098 300.186 497.067 300.607 497.005 301.028C496.943 301.443 496.833 301.836 496.674 302.209C496.522 302.575 496.305 302.903 496.022 303.192C495.746 303.475 495.39 303.7 494.955 303.865C494.527 304.024 494.006 304.104 493.392 304.104C493.247 304.104 493.078 304.097 492.884 304.083C492.691 304.076 492.529 304.059 492.398 304.031V302.778C492.536 302.806 492.681 302.83 492.833 302.851C492.985 302.871 493.136 302.882 493.288 302.882C493.903 302.882 494.375 302.785 494.707 302.592C495.045 302.392 495.283 302.119 495.421 301.774C495.559 301.429 495.639 301.028 495.659 300.573H495.597C495.452 300.815 495.259 301.018 495.017 301.184C494.783 301.349 494.431 301.432 493.961 301.432C493.333 301.432 492.829 301.229 492.45 300.821C492.07 300.414 491.88 299.838 491.88 299.092C491.88 298.292 492.105 297.664 492.553 297.208C493.009 296.752 493.623 296.525 494.396 296.525C494.9 296.525 495.356 296.642 495.763 296.877C496.17 297.104 496.494 297.46 496.736 297.943C496.978 298.419 497.098 299.027 497.098 299.765ZM494.427 297.777C494.123 297.777 493.875 297.881 493.682 298.088C493.488 298.295 493.392 298.623 493.392 299.072C493.392 299.431 493.475 299.714 493.64 299.921C493.806 300.128 494.058 300.231 494.396 300.231C494.631 300.231 494.831 300.179 494.997 300.076C495.169 299.972 495.304 299.845 495.4 299.693C495.497 299.534 495.545 299.372 495.545 299.206C495.545 298.978 495.504 298.754 495.421 298.533C495.338 298.312 495.214 298.133 495.048 297.995C494.883 297.85 494.676 297.777 494.427 297.777ZM501.698 296.607L498.944 304H497.546L500.3 296.607H501.698ZM507.29 300.304C507.29 301.098 507.204 301.777 507.031 302.343C506.866 302.909 506.593 303.344 506.213 303.648C505.841 303.952 505.337 304.104 504.702 304.104C503.811 304.104 503.159 303.769 502.745 303.099C502.331 302.423 502.124 301.491 502.124 300.304C502.124 299.503 502.206 298.82 502.372 298.254C502.538 297.688 502.81 297.253 503.19 296.949C503.57 296.645 504.074 296.494 504.702 296.494C505.585 296.494 506.237 296.828 506.659 297.498C507.08 298.167 507.29 299.103 507.29 300.304ZM503.677 300.304C503.677 301.146 503.749 301.781 503.894 302.209C504.039 302.63 504.308 302.84 504.702 302.84C505.088 302.84 505.357 302.63 505.509 302.209C505.661 301.788 505.737 301.153 505.737 300.304C505.737 299.462 505.661 298.827 505.509 298.399C505.357 297.971 505.088 297.757 504.702 297.757C504.308 297.757 504.039 297.971 503.894 298.399C503.749 298.827 503.677 299.462 503.677 300.304ZM508.038 300.863C508.038 300.435 508.069 300.014 508.132 299.6C508.194 299.186 508.301 298.796 508.452 298.43C508.611 298.057 508.829 297.729 509.105 297.446C509.388 297.156 509.743 296.932 510.171 296.773C510.606 296.607 511.131 296.525 511.745 296.525C511.89 296.525 512.059 296.532 512.252 296.545C512.446 296.552 512.608 296.57 512.739 296.597V297.85C512.608 297.815 512.463 297.791 512.304 297.777C512.152 297.757 512 297.746 511.848 297.746C511.234 297.746 510.758 297.843 510.42 298.036C510.088 298.23 509.854 298.502 509.716 298.854C509.578 299.199 509.498 299.6 509.477 300.055H509.54C509.678 299.814 509.874 299.61 510.13 299.444C510.392 299.279 510.73 299.196 511.144 299.196C511.793 299.196 512.308 299.4 512.687 299.807C513.067 300.214 513.257 300.79 513.257 301.536C513.257 302.337 513.029 302.965 512.573 303.42C512.125 303.876 511.514 304.104 510.741 304.104C510.237 304.104 509.781 303.99 509.374 303.762C508.967 303.527 508.642 303.172 508.401 302.695C508.159 302.212 508.038 301.601 508.038 300.863ZM510.71 302.851C511.013 302.851 511.262 302.747 511.455 302.54C511.648 302.326 511.745 301.998 511.745 301.557C511.745 301.198 511.662 300.915 511.496 300.708C511.331 300.5 511.079 300.397 510.741 300.397C510.513 300.397 510.313 300.449 510.14 300.552C509.968 300.649 509.833 300.777 509.736 300.935C509.64 301.094 509.591 301.256 509.591 301.422C509.591 301.65 509.633 301.874 509.716 302.095C509.798 302.309 509.923 302.488 510.088 302.633C510.261 302.778 510.468 302.851 510.71 302.851ZM516.376 300.884C516.12 300.773 515.903 300.701 515.724 300.666C515.551 300.625 515.385 300.604 515.227 300.604C515.033 300.604 514.83 300.663 514.616 300.78C514.409 300.897 514.219 301.042 514.046 301.215V300.045C514.391 299.679 514.823 299.496 515.34 299.496C515.541 299.496 515.741 299.517 515.941 299.558C516.148 299.593 516.414 299.679 516.738 299.817C516.994 299.928 517.211 300.003 517.39 300.045C517.57 300.079 517.736 300.097 517.887 300.097C518.088 300.097 518.291 300.038 518.498 299.921C518.705 299.803 518.895 299.658 519.068 299.486V300.656C518.723 301.022 518.291 301.205 517.774 301.205C517.573 301.205 517.37 301.184 517.163 301.142C516.963 301.101 516.7 301.015 516.376 300.884ZM523.802 304H522.239V299.724C522.239 299.544 522.242 299.31 522.249 299.02C522.263 298.73 522.273 298.475 522.28 298.254C522.246 298.295 522.17 298.371 522.052 298.481C521.942 298.585 521.838 298.678 521.742 298.761L520.893 299.444L520.137 298.502L522.518 296.607H523.802V304ZM530.99 300.304C530.99 301.098 530.904 301.777 530.732 302.343C530.566 302.909 530.293 303.344 529.914 303.648C529.541 303.952 529.037 304.104 528.402 304.104C527.512 304.104 526.859 303.769 526.445 303.099C526.031 302.423 525.824 301.491 525.824 300.304C525.824 299.503 525.907 298.82 526.072 298.254C526.238 297.688 526.511 297.253 526.89 296.949C527.27 296.645 527.774 296.494 528.402 296.494C529.285 296.494 529.938 296.828 530.359 297.498C530.78 298.167 530.99 299.103 530.99 300.304ZM527.377 300.304C527.377 301.146 527.449 301.781 527.594 302.209C527.739 302.63 528.008 302.84 528.402 302.84C528.788 302.84 529.058 302.63 529.21 302.209C529.361 301.788 529.437 301.153 529.437 300.304C529.437 299.462 529.361 298.827 529.21 298.399C529.058 297.971 528.788 297.757 528.402 297.757C528.008 297.757 527.739 297.971 527.594 298.399C527.449 298.827 527.377 299.462 527.377 300.304ZM535.6 296.607L532.846 304H531.449L534.203 296.607H535.6ZM541.234 304H536.067V302.913L537.921 301.039C538.293 300.652 538.594 300.331 538.821 300.076C539.049 299.814 539.215 299.579 539.318 299.372C539.422 299.158 539.474 298.93 539.474 298.689C539.474 298.392 539.391 298.171 539.225 298.026C539.066 297.881 538.849 297.808 538.573 297.808C538.29 297.808 538.014 297.874 537.745 298.005C537.475 298.136 537.192 298.323 536.896 298.564L536.047 297.56C536.261 297.374 536.485 297.201 536.72 297.042C536.961 296.884 537.237 296.756 537.548 296.659C537.865 296.556 538.245 296.504 538.687 296.504C539.17 296.504 539.584 296.594 539.929 296.773C540.281 296.946 540.55 297.184 540.737 297.488C540.93 297.784 541.027 298.123 541.027 298.502C541.027 298.909 540.944 299.282 540.778 299.62C540.619 299.959 540.385 300.293 540.074 300.625C539.77 300.956 539.401 301.322 538.966 301.722L538.014 302.613V302.685H541.234V304ZM546.869 298.264C546.869 298.775 546.714 299.182 546.403 299.486C546.099 299.79 545.723 299.997 545.274 300.107V300.138C545.868 300.207 546.317 300.387 546.62 300.676C546.931 300.966 547.086 301.356 547.086 301.846C547.086 302.274 546.979 302.661 546.765 303.006C546.558 303.344 546.234 303.613 545.792 303.814C545.357 304.007 544.795 304.104 544.105 304.104C543.304 304.104 542.593 303.969 541.972 303.7V302.374C542.289 302.533 542.62 302.654 542.966 302.737C543.318 302.82 543.642 302.861 543.939 302.861C544.498 302.861 544.888 302.764 545.109 302.571C545.337 302.378 545.45 302.105 545.45 301.753C545.45 301.546 545.399 301.374 545.295 301.236C545.192 301.091 545.009 300.984 544.746 300.915C544.491 300.839 544.132 300.801 543.67 300.801H543.111V299.6H543.68C544.136 299.6 544.481 299.558 544.715 299.475C544.957 299.386 545.119 299.268 545.202 299.123C545.292 298.972 545.337 298.799 545.337 298.606C545.337 298.343 545.254 298.14 545.088 297.995C544.929 297.843 544.66 297.767 544.281 297.767C543.929 297.767 543.621 297.829 543.359 297.953C543.104 298.071 542.886 298.188 542.707 298.305L541.982 297.229C542.272 297.022 542.61 296.849 542.997 296.711C543.39 296.573 543.856 296.504 544.394 296.504C545.154 296.504 545.754 296.659 546.196 296.97C546.645 297.274 546.869 297.705 546.869 298.264Z" fill="#222222"/>
</svg>
