<svg width="860" height="328" viewBox="0 0 860 328" fill="none" xmlns="http://www.w3.org/2000/svg">
<g clip-path="url(#clip0_1144_188)">
<path d="M388.892 129.721C389.034 118.854 393.411 108.472 401.089 100.787C408.768 93.1017 419.142 88.7215 430 88.5795C440.859 88.7215 451.232 93.1017 458.911 100.787C466.59 108.472 470.966 118.854 471.108 129.721C470.966 140.588 466.59 150.97 458.911 158.655C451.232 166.34 440.859 170.72 430 170.862C419.142 170.72 408.768 166.34 401.089 158.655C393.411 150.97 389.034 140.588 388.892 129.721ZM430 253.145L484.811 266.859V224.62C468.281 234.583 449.294 239.713 430 239.431C410.706 239.713 391.719 234.583 375.189 224.62V266.859M430 47.4381C419.202 47.2409 408.478 49.2561 398.486 53.3596C388.495 57.4631 379.448 63.5684 371.901 71.3001C364.092 78.8614 357.921 87.95 353.772 98.0005C349.623 108.051 347.585 118.848 347.784 129.721C347.641 140.525 349.707 151.243 353.854 161.219C358.001 171.195 364.143 180.216 371.901 187.73C379.412 195.536 388.444 201.718 398.437 205.893C408.43 210.068 419.172 212.147 430 212.004C440.828 212.147 451.57 210.068 461.563 205.893C471.556 201.718 480.588 195.536 488.1 187.73C495.858 180.216 501.999 171.195 506.146 161.219C510.293 151.243 512.359 140.525 512.216 129.721C512.416 118.848 510.377 108.051 506.228 98.0005C502.079 87.95 495.909 78.8614 488.1 71.3001C480.553 63.5684 471.505 57.4631 461.514 53.3596C451.523 49.2561 440.798 47.2409 430 47.4381ZM539.622 129.721C539.33 142.884 536.685 155.889 531.811 168.119C527.42 180.564 520.778 192.093 512.216 202.13V308L430 280.572L347.784 308V202.13C330.048 182.196 320.29 156.412 320.379 129.721C320.137 115.329 322.846 101.041 328.337 87.7381C333.828 74.4351 341.986 62.3998 352.306 52.3751C362.36 41.9539 374.441 33.7056 387.804 28.1391C401.166 22.5726 415.527 19.8062 430 20.0105C444.473 19.8062 458.834 22.5726 472.197 28.1391C485.56 33.7056 497.641 41.9539 507.694 52.3751C518.015 62.3998 526.172 74.4351 531.663 87.7381C537.155 101.041 539.863 115.329 539.622 129.721Z" fill="#37A3E2"/>
</g>
<defs>
<clipPath id="clip0_1144_188">
<rect width="860" height="328" fill="white"/>
</clipPath>
</defs>
</svg>
