<svg width="562" height="315" viewBox="0 0 562 315" fill="none" xmlns="http://www.w3.org/2000/svg">
<g clip-path="url(#clip0_1144_194)">
<rect x="207.913" y="51.4131" width="146.175" height="146.175" rx="73.0874" fill="#37A3E2"/>
<g filter="url(#filter0_dd_1144_194)">
<rect x="207.913" y="51.4131" width="146.175" height="146.175" rx="73.0874" fill="white" fill-opacity="0.01" shape-rendering="crispEdges"/>
</g>
<path d="M265.189 109.516H262.293V114.5H257.343V109.516H247.072V105.981L257.612 90.4574H262.293V105.577H265.189V109.516ZM257.343 101.502C257.343 100.986 257.354 100.357 257.376 99.6165C257.399 98.8757 257.421 98.191 257.444 97.5625C257.489 96.9114 257.522 96.4849 257.545 96.2829H257.41C257.208 96.7319 256.995 97.1696 256.77 97.5961C256.546 98.0227 256.276 98.4604 255.962 98.9094L251.551 105.577H257.343V101.502ZM275.535 99.1451C276.994 99.1451 278.296 99.4257 279.441 99.9869C280.586 100.548 281.484 101.368 282.135 102.445C282.808 103.523 283.145 104.858 283.145 106.452C283.145 109.056 282.337 111.11 280.721 112.614C279.104 114.096 276.714 114.837 273.548 114.837C272.291 114.837 271.101 114.724 269.979 114.5C268.879 114.276 267.914 113.95 267.083 113.523V109.146C267.914 109.573 268.913 109.943 270.08 110.257C271.247 110.549 272.347 110.695 273.38 110.695C274.884 110.695 276.029 110.392 276.815 109.786C277.623 109.157 278.027 108.192 278.027 106.89C278.027 104.465 276.422 103.253 273.212 103.253C272.583 103.253 271.932 103.321 271.259 103.455C270.585 103.567 270.024 103.68 269.575 103.792L267.555 102.714L268.464 90.4574H281.495V94.7676H272.909L272.471 99.4818C272.852 99.4145 273.257 99.3471 273.683 99.2798C274.132 99.19 274.749 99.1451 275.535 99.1451ZM291.067 90.1207C292.953 90.1207 294.379 90.783 295.344 92.1074C296.332 93.4094 296.825 95.2502 296.825 97.6298C296.825 100.009 296.365 101.873 295.445 103.22C294.524 104.544 293.065 105.206 291.067 105.206C289.227 105.206 287.823 104.544 286.858 103.22C285.893 101.873 285.41 100.009 285.41 97.6298C285.41 95.2502 285.859 93.4094 286.757 92.1074C287.655 90.783 289.092 90.1207 291.067 90.1207ZM308.14 90.4574L294.805 114.5H290.865L304.2 90.4574H308.14ZM291.101 93.5554C290.068 93.5554 289.552 94.9247 289.552 97.6635C289.552 100.425 290.068 101.805 291.101 101.805C292.156 101.805 292.684 100.425 292.684 97.6635C292.684 94.9247 292.156 93.5554 291.101 93.5554ZM307.904 99.7175C309.79 99.7175 311.215 100.38 312.18 101.704C313.168 103.006 313.662 104.847 313.662 107.227C313.662 109.606 313.202 111.469 312.281 112.816C311.361 114.141 309.902 114.803 307.904 114.803C306.063 114.803 304.66 114.141 303.695 112.816C302.729 111.469 302.247 109.606 302.247 107.227C302.247 104.847 302.696 103.006 303.594 101.704C304.492 100.38 305.928 99.7175 307.904 99.7175ZM307.938 103.152C306.905 103.152 306.389 104.522 306.389 107.26C306.389 110.021 306.905 111.402 307.938 111.402C308.993 111.402 309.52 110.021 309.52 107.26C309.52 104.522 308.993 103.152 307.938 103.152Z" fill="white"/>
<path d="M273.807 132.282H278.05V163.463H273.807V132.282ZM269.833 144.034H275.019V147.637H269.833V144.034ZM260.54 136.121H264.85C264.85 138.321 264.659 140.408 264.277 142.384C263.918 144.359 263.312 146.234 262.459 148.007C261.606 149.758 260.45 151.397 258.991 152.924C257.554 154.428 255.747 155.819 253.569 157.099L250.977 153.967C253.334 152.576 255.208 151.049 256.6 149.388C258.014 147.704 259.024 145.852 259.63 143.832C260.237 141.789 260.54 139.522 260.54 137.03V136.121ZM252.525 136.121H261.853V139.69H252.525V136.121ZM266.87 133.09H271.079V162.116H266.87V133.09ZM297.914 138.916H305.154V142.552H297.914V138.916ZM289.159 134.201H292.762V137.569C292.762 139.679 292.459 141.666 291.853 143.529C291.247 145.392 290.304 147.02 289.024 148.411C287.767 149.781 286.151 150.825 284.176 151.543L281.818 148.041C283.12 147.592 284.232 147.008 285.152 146.29C286.072 145.572 286.824 144.752 287.408 143.832C287.992 142.889 288.43 141.89 288.721 140.835C289.013 139.78 289.159 138.691 289.159 137.569V134.201ZM290.102 134.201H293.671V137.602C293.671 138.613 293.806 139.6 294.075 140.566C294.345 141.531 294.76 142.451 295.321 143.327C295.883 144.202 296.601 144.988 297.476 145.684C298.374 146.357 299.429 146.907 300.642 147.334L298.285 150.768C296.421 150.073 294.884 149.074 293.671 147.772C292.459 146.47 291.561 144.943 290.977 143.192C290.394 141.441 290.102 139.578 290.102 137.602V134.201ZM303.605 132.316H308.117V155.314H303.605V132.316ZM287.475 159.355H308.791V162.958H287.475V159.355ZM287.475 153.025H291.954V161.375H287.475V153.025Z" fill="white"/>
<path d="M190.42 234.932C190.42 236.593 189.914 237.918 188.904 238.905C187.917 239.893 186.693 240.567 185.234 240.926V241.027C187.165 241.251 188.624 241.835 189.611 242.778C190.622 243.721 191.127 244.989 191.127 246.583C191.127 247.975 190.779 249.232 190.083 250.354C189.409 251.454 188.354 252.33 186.918 252.981C185.503 253.609 183.674 253.924 181.429 253.924C178.825 253.924 176.513 253.486 174.492 252.61V248.3C175.525 248.817 176.602 249.209 177.725 249.479C178.87 249.748 179.925 249.883 180.89 249.883C182.708 249.883 183.977 249.569 184.695 248.94C185.436 248.311 185.806 247.425 185.806 246.28C185.806 245.606 185.638 245.045 185.301 244.596C184.965 244.125 184.37 243.777 183.517 243.552C182.686 243.305 181.519 243.182 180.015 243.182H178.196V239.276H180.048C181.53 239.276 182.652 239.141 183.416 238.872C184.201 238.58 184.729 238.198 184.998 237.727C185.29 237.233 185.436 236.672 185.436 236.043C185.436 235.19 185.167 234.528 184.628 234.057C184.111 233.563 183.236 233.316 182.001 233.316C180.856 233.316 179.857 233.518 179.004 233.922C178.174 234.303 177.467 234.685 176.883 235.067L174.526 231.565C175.469 230.891 176.569 230.33 177.826 229.881C179.105 229.432 180.621 229.208 182.372 229.208C184.841 229.208 186.794 229.713 188.231 230.723C189.69 231.711 190.42 233.114 190.42 234.932ZM194.065 251.23C194.065 250.197 194.346 249.479 194.907 249.075C195.468 248.648 196.153 248.435 196.961 248.435C197.747 248.435 198.42 248.648 198.981 249.075C199.543 249.479 199.823 250.197 199.823 251.23C199.823 252.218 199.543 252.936 198.981 253.385C198.42 253.811 197.747 254.025 196.961 254.025C196.153 254.025 195.468 253.811 194.907 253.385C194.346 252.936 194.065 252.218 194.065 251.23ZM211.042 229.241C212.434 229.241 213.702 229.455 214.847 229.881C216.014 230.308 216.946 230.947 217.642 231.8C218.36 232.654 218.719 233.731 218.719 235.033C218.719 236.47 218.304 237.66 217.473 238.602C216.665 239.523 215.644 240.286 214.409 240.892C215.262 241.341 216.07 241.869 216.833 242.475C217.619 243.058 218.248 243.754 218.719 244.563C219.213 245.348 219.46 246.28 219.46 247.357C219.46 248.682 219.101 249.838 218.382 250.826C217.687 251.813 216.699 252.577 215.419 253.115C214.162 253.654 212.703 253.924 211.042 253.924C208.348 253.924 206.26 253.351 204.779 252.206C203.319 251.061 202.59 249.49 202.59 247.492C202.59 245.831 203.039 244.495 203.937 243.485C204.835 242.475 205.923 241.655 207.203 241.027C206.125 240.353 205.205 239.545 204.442 238.602C203.701 237.637 203.331 236.436 203.331 234.999C203.331 233.72 203.69 232.654 204.408 231.8C205.126 230.947 206.069 230.308 207.237 229.881C208.426 229.455 209.695 229.241 211.042 229.241ZM211.008 232.945C210.177 232.945 209.482 233.159 208.92 233.585C208.382 234.012 208.112 234.618 208.112 235.403C208.112 236.234 208.404 236.908 208.988 237.424C209.571 237.94 210.256 238.389 211.042 238.771C211.805 238.412 212.478 237.985 213.062 237.491C213.646 236.975 213.938 236.279 213.938 235.403C213.938 234.618 213.657 234.012 213.096 233.585C212.557 233.159 211.861 232.945 211.008 232.945ZM207.304 247.189C207.304 248.065 207.607 248.783 208.213 249.344C208.842 249.905 209.762 250.186 210.974 250.186C212.231 250.186 213.174 249.917 213.803 249.378C214.431 248.839 214.746 248.121 214.746 247.223C214.746 246.617 214.566 246.089 214.207 245.64C213.848 245.169 213.399 244.753 212.86 244.394C212.344 244.013 211.805 243.665 211.244 243.35L210.806 243.115C209.773 243.608 208.932 244.181 208.281 244.832C207.629 245.483 207.304 246.269 207.304 247.189ZM235.8 248.132C235.8 249.995 235.138 251.432 233.814 252.442C232.512 253.43 230.559 253.924 227.955 253.924C226.675 253.924 225.575 253.834 224.655 253.654C223.734 253.497 222.814 253.228 221.893 252.846V248.704C222.881 249.153 223.947 249.524 225.092 249.816C226.237 250.107 227.247 250.253 228.123 250.253C229.111 250.253 229.807 250.107 230.211 249.816C230.637 249.524 230.85 249.142 230.85 248.671C230.85 248.356 230.761 248.076 230.581 247.829C230.424 247.582 230.065 247.301 229.503 246.987C228.942 246.673 228.067 246.269 226.877 245.775C225.732 245.281 224.789 244.798 224.048 244.327C223.308 243.833 222.758 243.249 222.398 242.576C222.039 241.88 221.86 241.016 221.86 239.983C221.86 238.277 222.522 236.997 223.846 236.144C225.171 235.291 226.933 234.865 229.133 234.865C230.278 234.865 231.367 234.977 232.399 235.201C233.432 235.426 234.498 235.796 235.598 236.313L234.083 239.916C233.185 239.534 232.332 239.22 231.524 238.973C230.716 238.703 229.896 238.569 229.066 238.569C227.584 238.569 226.843 238.973 226.843 239.781C226.843 240.073 226.933 240.342 227.113 240.589C227.315 240.814 227.685 241.061 228.224 241.33C228.785 241.599 229.604 241.958 230.682 242.407C231.737 242.834 232.646 243.283 233.41 243.754C234.173 244.203 234.756 244.776 235.161 245.472C235.587 246.145 235.8 247.032 235.8 248.132Z" fill="#7D7D85"/>
<path d="M308.95 235.374L319.616 246.041M319.616 246.041L308.95 256.707M319.616 246.041H271.616" stroke="#D8D7E9" stroke-width="7.29841" stroke-linecap="round" stroke-linejoin="round"/>
<path d="M343.068 253.587H326.265V250.051L332.292 243.956C333.504 242.699 334.481 241.655 335.222 240.825C335.962 239.972 336.501 239.209 336.838 238.535C337.175 237.839 337.343 237.098 337.343 236.313C337.343 235.347 337.074 234.629 336.535 234.158C336.019 233.686 335.311 233.45 334.414 233.45C333.493 233.45 332.595 233.664 331.72 234.09C330.844 234.517 329.924 235.123 328.958 235.909L326.197 232.642C326.893 232.036 327.623 231.475 328.386 230.959C329.172 230.442 330.07 230.027 331.08 229.713C332.113 229.376 333.347 229.208 334.784 229.208C336.355 229.208 337.702 229.499 338.825 230.083C339.97 230.644 340.845 231.419 341.451 232.407C342.08 233.372 342.394 234.472 342.394 235.707C342.394 237.031 342.125 238.243 341.586 239.343C341.07 240.443 340.306 241.532 339.296 242.61C338.308 243.687 337.107 244.877 335.693 246.179L332.595 249.075V249.31H343.068V253.587ZM345.77 251.23C345.77 250.197 346.051 249.479 346.612 249.075C347.173 248.648 347.858 248.435 348.666 248.435C349.452 248.435 350.125 248.648 350.687 249.075C351.248 249.479 351.528 250.197 351.528 251.23C351.528 252.218 351.248 252.936 350.687 253.385C350.125 253.811 349.452 254.025 348.666 254.025C347.858 254.025 347.173 253.811 346.612 253.385C346.051 252.936 345.77 252.218 345.77 251.23ZM367.023 253.587H361.939V239.68C361.939 239.096 361.95 238.333 361.972 237.39C362.017 236.447 362.051 235.617 362.073 234.898C361.961 235.033 361.714 235.28 361.333 235.639C360.973 235.976 360.637 236.279 360.322 236.548L357.561 238.771L355.103 235.707L362.848 229.544H367.023V253.587ZM387.505 248.132C387.505 249.995 386.843 251.432 385.519 252.442C384.217 253.43 382.264 253.924 379.66 253.924C378.38 253.924 377.28 253.834 376.36 253.654C375.439 253.497 374.519 253.228 373.598 252.846V248.704C374.586 249.153 375.652 249.524 376.797 249.816C377.942 250.107 378.952 250.253 379.828 250.253C380.816 250.253 381.512 250.107 381.916 249.816C382.342 249.524 382.555 249.142 382.555 248.671C382.555 248.356 382.466 248.076 382.286 247.829C382.129 247.582 381.77 247.301 381.209 246.987C380.647 246.673 379.772 246.269 378.582 245.775C377.437 245.281 376.494 244.798 375.754 244.327C375.013 243.833 374.463 243.249 374.104 242.576C373.744 241.88 373.565 241.016 373.565 239.983C373.565 238.277 374.227 236.997 375.551 236.144C376.876 235.291 378.638 234.865 380.838 234.865C381.983 234.865 383.072 234.977 384.104 235.201C385.137 235.426 386.203 235.796 387.303 236.313L385.788 239.916C384.89 239.534 384.037 239.22 383.229 238.973C382.421 238.703 381.601 238.569 380.771 238.569C379.289 238.569 378.548 238.973 378.548 239.781C378.548 240.073 378.638 240.342 378.818 240.589C379.02 240.814 379.39 241.061 379.929 241.33C380.49 241.599 381.31 241.958 382.387 242.407C383.442 242.834 384.351 243.283 385.115 243.754C385.878 244.203 386.462 244.776 386.866 245.472C387.292 246.145 387.505 247.032 387.505 248.132Z" fill="#37A3E2"/>
</g>
<defs>
<filter id="filter0_dd_1144_194" x="196.949" y="49.5859" width="168.101" height="168.101" filterUnits="userSpaceOnUse" color-interpolation-filters="sRGB">
<feFlood flood-opacity="0" result="BackgroundImageFix"/>
<feColorMatrix in="SourceAlpha" type="matrix" values="0 0 0 0 0 0 0 0 0 0 0 0 0 0 0 0 0 0 127 0" result="hardAlpha"/>
<feMorphology radius="3.65437" operator="erode" in="SourceAlpha" result="effect1_dropShadow_1144_194"/>
<feOffset dy="3.65437"/>
<feGaussianBlur stdDeviation="2.74078"/>
<feComposite in2="hardAlpha" operator="out"/>
<feColorMatrix type="matrix" values="0 0 0 0 0 0 0 0 0 0 0 0 0 0 0 0 0 0 0.1 0"/>
<feBlend mode="normal" in2="BackgroundImageFix" result="effect1_dropShadow_1144_194"/>
<feColorMatrix in="SourceAlpha" type="matrix" values="0 0 0 0 0 0 0 0 0 0 0 0 0 0 0 0 0 0 127 0" result="hardAlpha"/>
<feMorphology radius="2.74078" operator="erode" in="SourceAlpha" result="effect2_dropShadow_1144_194"/>
<feOffset dy="9.13592"/>
<feGaussianBlur stdDeviation="6.85194"/>
<feComposite in2="hardAlpha" operator="out"/>
<feColorMatrix type="matrix" values="0 0 0 0 0 0 0 0 0 0 0 0 0 0 0 0 0 0 0.1 0"/>
<feBlend mode="normal" in2="effect1_dropShadow_1144_194" result="effect2_dropShadow_1144_194"/>
<feBlend mode="normal" in="SourceGraphic" in2="effect2_dropShadow_1144_194" result="shape"/>
</filter>
<clipPath id="clip0_1144_194">
<rect width="562" height="315" fill="white"/>
</clipPath>
</defs>
</svg>
