<svg width="562" height="315" viewBox="0 0 562 315" fill="none" xmlns="http://www.w3.org/2000/svg">
<g clip-path="url(#clip0_1144_196)">
<path d="M192.113 90.7444V81.2242H212.558V90.7444H192.113ZM257.448 95.3484H250.737V106.897H239.266V95.3484H215.466V87.1548L239.89 51.181H250.737V86.2184H257.448V95.3484ZM239.266 76.7762C239.266 75.5797 239.292 74.1231 239.344 72.4063C239.396 70.6895 239.448 69.1028 239.5 67.6462C239.604 66.1375 239.682 65.1491 239.734 64.6809H239.422C238.954 65.7214 238.46 66.7358 237.939 67.7242C237.419 68.7127 236.795 69.7271 236.067 70.7676L225.844 86.2184H239.266V76.7762ZM299.763 79.0392C299.763 85.0218 299.113 90.1461 297.812 94.412C296.564 98.6778 294.509 101.955 291.648 104.244C288.838 106.533 285.041 107.678 280.255 107.678C273.544 107.678 268.628 105.155 265.506 100.108C262.385 95.0102 260.824 87.9871 260.824 79.0392C260.824 73.0046 261.448 67.8543 262.697 63.5884C263.946 59.3226 266 56.0451 268.862 53.7561C271.723 51.4671 275.521 50.3226 280.255 50.3226C286.914 50.3226 291.83 52.8457 295.003 57.8919C298.177 62.9381 299.763 69.9872 299.763 79.0392ZM272.529 79.0392C272.529 85.386 273.076 90.1721 274.168 93.3975C275.261 96.5709 277.289 98.1576 280.255 98.1576C283.168 98.1576 285.197 96.5709 286.341 93.3975C287.486 90.2241 288.058 85.438 288.058 79.0392C288.058 72.6924 287.486 67.9063 286.341 64.6809C285.197 61.4555 283.168 59.8428 280.255 59.8428C277.289 59.8428 275.261 61.4555 274.168 64.6809C273.076 67.9063 272.529 72.6924 272.529 79.0392ZM317.42 50.4006C321.79 50.4006 325.093 51.9353 327.33 55.0047C329.619 58.022 330.764 62.2879 330.764 67.8023C330.764 73.3167 329.697 77.6346 327.564 80.756C325.431 83.8253 322.05 85.36 317.42 85.36C313.154 85.36 309.902 83.8253 307.665 80.756C305.428 77.6346 304.31 73.3167 304.31 67.8023C304.31 62.2879 305.35 58.022 307.431 55.0047C309.512 51.9353 312.842 50.4006 317.42 50.4006ZM356.983 51.181L326.082 106.897H316.952L347.853 51.181H356.983ZM317.498 58.3601C315.105 58.3601 313.908 61.5335 313.908 67.8803C313.908 74.2791 315.105 77.4785 317.498 77.4785C319.943 77.4785 321.165 74.2791 321.165 67.8803C321.165 61.5335 319.943 58.3601 317.498 58.3601ZM356.437 72.6404C360.807 72.6404 364.11 74.1751 366.347 77.2444C368.636 80.2618 369.781 84.5276 369.781 90.0421C369.781 95.5565 368.714 99.8744 366.581 102.996C364.448 106.065 361.067 107.6 356.437 107.6C352.171 107.6 348.92 106.065 346.683 102.996C344.446 99.8744 343.327 95.5565 343.327 90.0421C343.327 84.5276 344.368 80.2618 346.449 77.2444C348.529 74.1751 351.859 72.6404 356.437 72.6404ZM356.515 80.5999C354.122 80.5999 352.925 83.7733 352.925 90.1201C352.925 96.5189 354.122 99.7183 356.515 99.7183C358.96 99.7183 360.183 96.5189 360.183 90.1201C360.183 83.7733 358.96 80.5999 356.515 80.5999Z" fill="#37A3E2"/>
<rect x="46.897" y="149.897" width="468.206" height="65.0286" rx="8.67048" fill="#D8D7E9" fill-opacity="0.5"/>
<path d="M77.4297 178.059C78.8113 178.059 79.8547 178.252 80.56 178.639C81.2653 179.025 81.6179 179.706 81.6179 180.682C81.6179 181.271 81.4779 181.769 81.1977 182.175C80.9272 182.58 80.5359 182.827 80.0238 182.914V182.986C80.3716 183.054 80.6856 183.175 80.9658 183.349C81.246 183.522 81.4682 183.774 81.6324 184.102C81.7967 184.431 81.8788 184.865 81.8788 185.406C81.8788 186.344 81.5407 187.078 80.8644 187.609C80.1881 188.141 79.2606 188.406 78.0819 188.406H74.2125V178.059H77.4297ZM77.6761 182.16C78.3138 182.16 78.7533 182.059 78.9949 181.856C79.2461 181.653 79.3717 181.358 79.3717 180.972C79.3717 180.576 79.2268 180.291 78.9369 180.117C78.6471 179.943 78.1882 179.856 77.5602 179.856H76.4008V182.16H77.6761ZM76.4008 183.899V186.595H77.8355C78.4925 186.595 78.9514 186.469 79.2123 186.218C79.4731 185.957 79.6035 185.614 79.6035 185.189C79.6035 184.803 79.4683 184.493 79.1978 184.262C78.9369 184.02 78.4587 183.899 77.7631 183.899H76.4008ZM86.8913 180.349C87.983 180.349 88.8477 180.663 89.4853 181.291C90.123 181.909 90.4418 182.793 90.4418 183.943V184.986H85.3406C85.3599 185.595 85.5387 186.073 85.8768 186.421C86.2246 186.769 86.7029 186.943 87.3115 186.943C87.8236 186.943 88.2873 186.894 88.7028 186.798C89.1182 186.691 89.5481 186.532 89.9926 186.319V187.986C89.6061 188.179 89.1955 188.319 88.7607 188.406C88.3356 188.503 87.8187 188.551 87.2101 188.551C86.4178 188.551 85.7174 188.406 85.1087 188.116C84.5001 187.817 84.0218 187.368 83.674 186.769C83.3262 186.17 83.1523 185.416 83.1523 184.508C83.1523 183.58 83.3069 182.812 83.616 182.204C83.9349 181.585 84.3745 181.122 84.9348 180.812C85.4952 180.503 86.1473 180.349 86.8913 180.349ZM86.9057 181.885C86.4903 181.885 86.1425 182.02 85.8623 182.291C85.5918 182.561 85.4324 182.981 85.3841 183.551H88.4129C88.4033 183.068 88.2777 182.672 88.0361 182.363C87.7946 182.044 87.4178 181.885 86.9057 181.885ZM96.4244 182.117H94.555V188.406H92.3956V182.117H91.2073V181.073L92.3956 180.494V179.914C92.3956 179.238 92.5067 178.716 92.729 178.349C92.9608 177.972 93.2845 177.706 93.6999 177.552C94.125 177.397 94.6226 177.32 95.1926 177.32C95.6177 177.32 95.9993 177.354 96.3375 177.421C96.6853 177.489 96.9655 177.566 97.178 177.653L96.6273 179.233C96.4631 179.184 96.2843 179.141 96.0911 179.102C95.8979 179.054 95.6757 179.03 95.4245 179.03C95.125 179.03 94.9028 179.122 94.7579 179.305C94.6226 179.489 94.555 179.721 94.555 180.001V180.494H96.4244V182.117ZM104.695 184.435C104.695 185.749 104.348 186.764 103.652 187.479C102.966 188.194 102.029 188.551 100.84 188.551C100.106 188.551 99.4492 188.392 98.8695 188.073C98.2995 187.754 97.8503 187.29 97.5218 186.682C97.1933 186.063 97.029 185.315 97.029 184.435C97.029 183.121 97.372 182.112 98.058 181.407C98.7439 180.701 99.6859 180.349 100.884 180.349C101.628 180.349 102.285 180.508 102.855 180.827C103.425 181.146 103.874 181.609 104.203 182.218C104.531 182.817 104.695 183.556 104.695 184.435ZM99.2318 184.435C99.2318 185.218 99.3574 185.812 99.6086 186.218C99.8695 186.614 100.29 186.812 100.869 186.812C101.439 186.812 101.85 186.614 102.101 186.218C102.362 185.812 102.493 185.218 102.493 184.435C102.493 183.653 102.362 183.068 102.101 182.682C101.85 182.286 101.435 182.088 100.855 182.088C100.285 182.088 99.8695 182.286 99.6086 182.682C99.3574 183.068 99.2318 183.653 99.2318 184.435ZM110.755 180.349C110.861 180.349 110.987 180.353 111.132 180.363C111.277 180.373 111.393 180.387 111.48 180.407L111.32 182.436C111.253 182.416 111.151 182.402 111.016 182.392C110.89 182.373 110.779 182.363 110.683 182.363C110.315 182.363 109.963 182.431 109.625 182.566C109.287 182.692 109.011 182.899 108.799 183.189C108.596 183.479 108.494 183.875 108.494 184.377V188.406H106.335V180.494H107.973L108.291 181.827H108.393C108.625 181.421 108.944 181.073 109.349 180.783C109.755 180.494 110.224 180.349 110.755 180.349ZM115.749 180.349C116.84 180.349 117.705 180.663 118.343 181.291C118.98 181.909 119.299 182.793 119.299 183.943V184.986H114.198C114.217 185.595 114.396 186.073 114.734 186.421C115.082 186.769 115.56 186.943 116.169 186.943C116.681 186.943 117.145 186.894 117.56 186.798C117.976 186.691 118.405 186.532 118.85 186.319V187.986C118.463 188.179 118.053 188.319 117.618 188.406C117.193 188.503 116.676 188.551 116.067 188.551C115.275 188.551 114.575 188.406 113.966 188.116C113.357 187.817 112.879 187.368 112.531 186.769C112.184 186.17 112.01 185.416 112.01 184.508C112.01 183.58 112.164 182.812 112.473 182.204C112.792 181.585 113.232 181.122 113.792 180.812C114.353 180.503 115.005 180.349 115.749 180.349ZM115.763 181.885C115.348 181.885 115 182.02 114.72 182.291C114.449 182.561 114.29 182.981 114.241 183.551H117.27C117.261 183.068 117.135 182.672 116.893 182.363C116.652 182.044 116.275 181.885 115.763 181.885Z" fill="#7D7D85"/>
<path d="M441.077 187.412H438.888V181.427C438.888 181.176 438.893 180.847 438.903 180.441C438.922 180.036 438.937 179.678 438.946 179.369C438.898 179.427 438.792 179.533 438.627 179.688C438.473 179.833 438.328 179.963 438.193 180.079L437.004 181.036L435.946 179.717L439.28 177.065H441.077V187.412ZM450.645 179.383C450.645 180.098 450.428 180.668 449.993 181.094C449.568 181.519 449.041 181.809 448.413 181.963V182.007C449.244 182.103 449.872 182.354 450.297 182.76C450.732 183.166 450.949 183.712 450.949 184.398C450.949 184.997 450.8 185.538 450.5 186.021C450.21 186.494 449.756 186.871 449.138 187.151C448.529 187.422 447.742 187.557 446.776 187.557C445.655 187.557 444.66 187.369 443.79 186.992V185.137C444.235 185.359 444.699 185.528 445.182 185.644C445.674 185.76 446.128 185.818 446.544 185.818C447.326 185.818 447.872 185.683 448.182 185.412C448.5 185.142 448.66 184.76 448.66 184.267C448.66 183.977 448.587 183.736 448.442 183.543C448.297 183.34 448.041 183.19 447.674 183.093C447.317 182.987 446.814 182.934 446.167 182.934H445.385V181.253H446.182C446.819 181.253 447.302 181.195 447.631 181.079C447.969 180.953 448.196 180.789 448.312 180.586C448.438 180.374 448.5 180.132 448.5 179.862C448.5 179.495 448.384 179.21 448.153 179.007C447.93 178.794 447.554 178.688 447.022 178.688C446.529 178.688 446.099 178.775 445.732 178.949C445.375 179.113 445.071 179.277 444.819 179.441L443.805 177.934C444.211 177.644 444.684 177.403 445.225 177.21C445.776 177.016 446.428 176.92 447.182 176.92C448.244 176.92 449.085 177.137 449.703 177.572C450.331 177.997 450.645 178.601 450.645 179.383ZM459.156 181.485C459.156 182.074 459.112 182.664 459.025 183.253C458.938 183.833 458.784 184.383 458.562 184.905C458.349 185.417 458.045 185.876 457.649 186.282C457.262 186.678 456.765 186.992 456.156 187.224C455.557 187.446 454.828 187.557 453.968 187.557C453.765 187.557 453.528 187.547 453.258 187.528C452.987 187.518 452.76 187.494 452.576 187.456V185.702C452.77 185.741 452.973 185.775 453.185 185.803C453.398 185.832 453.61 185.847 453.823 185.847C454.683 185.847 455.344 185.712 455.808 185.441C456.282 185.161 456.615 184.779 456.808 184.296C457.001 183.813 457.112 183.253 457.141 182.615H457.055C456.852 182.953 456.581 183.238 456.243 183.47C455.914 183.702 455.422 183.818 454.765 183.818C453.886 183.818 453.18 183.533 452.649 182.963C452.118 182.393 451.852 181.586 451.852 180.543C451.852 179.422 452.166 178.543 452.794 177.905C453.431 177.268 454.291 176.949 455.373 176.949C456.079 176.949 456.716 177.113 457.286 177.442C457.856 177.76 458.31 178.258 458.649 178.934C458.987 179.601 459.156 180.451 459.156 181.485ZM455.417 178.702C454.992 178.702 454.644 178.847 454.373 179.137C454.103 179.427 453.968 179.886 453.968 180.514C453.968 181.016 454.084 181.412 454.316 181.702C454.547 181.992 454.9 182.137 455.373 182.137C455.702 182.137 455.982 182.065 456.214 181.92C456.456 181.775 456.644 181.596 456.779 181.383C456.914 181.161 456.982 180.934 456.982 180.702C456.982 180.383 456.924 180.069 456.808 179.76C456.692 179.451 456.518 179.2 456.286 179.007C456.055 178.804 455.765 178.702 455.417 178.702ZM462.783 185.89C462.657 186.402 462.478 186.963 462.247 187.572C462.015 188.18 461.778 188.75 461.536 189.282H459.986C460.121 188.712 460.256 188.103 460.392 187.456C460.527 186.808 460.628 186.233 460.696 185.731H462.681L462.783 185.89ZM469.509 187.412H467.321V181.427C467.321 181.176 467.326 180.847 467.336 180.441C467.355 180.036 467.369 179.678 467.379 179.369C467.331 179.427 467.224 179.533 467.06 179.688C466.906 179.833 466.761 179.963 466.625 180.079L465.437 181.036L464.379 179.717L467.712 177.065H469.509V187.412ZM472.18 183.021C472.18 182.422 472.223 181.833 472.31 181.253C472.397 180.673 472.547 180.127 472.759 179.615C472.982 179.094 473.286 178.635 473.672 178.239C474.069 177.833 474.566 177.519 475.165 177.297C475.774 177.065 476.508 176.949 477.368 176.949C477.571 176.949 477.807 176.958 478.078 176.978C478.349 176.987 478.576 177.012 478.759 177.05V178.804C478.576 178.756 478.373 178.722 478.15 178.702C477.938 178.673 477.725 178.659 477.513 178.659C476.653 178.659 475.986 178.794 475.513 179.065C475.049 179.335 474.721 179.717 474.527 180.21C474.334 180.693 474.223 181.253 474.194 181.891H474.281C474.474 181.552 474.75 181.267 475.107 181.036C475.474 180.804 475.948 180.688 476.527 180.688C477.436 180.688 478.155 180.973 478.687 181.543C479.218 182.113 479.484 182.92 479.484 183.963C479.484 185.084 479.165 185.963 478.527 186.601C477.899 187.238 477.044 187.557 475.962 187.557C475.257 187.557 474.619 187.398 474.049 187.079C473.479 186.75 473.025 186.253 472.687 185.586C472.349 184.91 472.18 184.055 472.18 183.021ZM475.919 185.803C476.344 185.803 476.692 185.659 476.962 185.369C477.233 185.069 477.368 184.61 477.368 183.992C477.368 183.49 477.252 183.093 477.02 182.804C476.788 182.514 476.436 182.369 475.962 182.369C475.643 182.369 475.363 182.441 475.122 182.586C474.88 182.722 474.692 182.9 474.556 183.122C474.421 183.345 474.354 183.572 474.354 183.804C474.354 184.122 474.412 184.436 474.527 184.746C474.643 185.045 474.817 185.296 475.049 185.499C475.291 185.702 475.581 185.803 475.919 185.803ZM487.632 187.412H480.401V185.89L482.995 183.267C483.516 182.726 483.937 182.277 484.255 181.92C484.574 181.552 484.806 181.224 484.951 180.934C485.096 180.635 485.168 180.316 485.168 179.978C485.168 179.562 485.053 179.253 484.821 179.05C484.598 178.847 484.294 178.746 483.908 178.746C483.512 178.746 483.125 178.838 482.748 179.021C482.372 179.205 481.975 179.466 481.56 179.804L480.372 178.398C480.671 178.137 480.985 177.896 481.314 177.673C481.652 177.451 482.038 177.272 482.473 177.137C482.917 176.992 483.449 176.92 484.067 176.92C484.743 176.92 485.323 177.045 485.806 177.297C486.299 177.538 486.676 177.871 486.937 178.297C487.207 178.712 487.342 179.185 487.342 179.717C487.342 180.287 487.226 180.809 486.994 181.282C486.772 181.755 486.444 182.224 486.009 182.688C485.584 183.151 485.067 183.663 484.458 184.224L483.125 185.47V185.572H487.632V187.412Z" fill="#7D7D85"/>
<rect x="46.897" y="226.074" width="468.206" height="65.0286" rx="8.67048" fill="#D8D7E9" fill-opacity="0.5"/>
<path d="M80.546 264.583L79.7924 262.119H76.0245L75.2709 264.583H72.9087L76.5607 254.192H79.2417L82.9082 264.583H80.546ZM78.5171 257.873C78.4688 257.709 78.406 257.501 78.3287 257.25C78.2514 256.999 78.1741 256.743 78.0969 256.482C78.0196 256.221 77.9568 255.994 77.9085 255.801C77.8602 255.994 77.7925 256.236 77.7056 256.525C77.6283 256.806 77.551 257.076 77.4737 257.337C77.4061 257.588 77.3529 257.767 77.3143 257.873L76.5752 260.279H79.2707L78.5171 257.873ZM88.2765 258.293H86.407V264.583H84.2477V258.293H83.0594V257.25L84.2477 256.67V256.091C84.2477 255.414 84.3588 254.893 84.581 254.526C84.8129 254.149 85.1366 253.883 85.552 253.728C85.9771 253.574 86.4747 253.497 87.0447 253.497C87.4698 253.497 87.8514 253.53 88.1896 253.598C88.5374 253.666 88.8176 253.743 89.0301 253.83L88.4794 255.41C88.3152 255.361 88.1364 255.318 87.9432 255.279C87.75 255.231 87.5278 255.207 87.2766 255.207C86.9771 255.207 86.7549 255.298 86.6099 255.482C86.4747 255.666 86.407 255.897 86.407 256.178V256.67H88.2765V258.293ZM92.6925 263.003C92.9341 263.003 93.1659 262.979 93.3882 262.931C93.6104 262.883 93.8326 262.825 94.0548 262.757V264.366C93.8229 264.462 93.5331 264.544 93.1853 264.612C92.8471 264.689 92.4752 264.728 92.0694 264.728C91.596 264.728 91.1709 264.651 90.7941 264.496C90.4269 264.341 90.1323 264.076 89.9101 263.699C89.6975 263.313 89.5912 262.781 89.5912 262.105V258.293H88.5623V257.38L89.7506 256.656L90.3738 254.989H91.7506V256.67H93.9678V258.293H91.7506V262.105C91.7506 262.404 91.8375 262.631 92.0114 262.786C92.1853 262.931 92.4124 263.003 92.6925 263.003ZM98.7588 256.525C99.8506 256.525 100.715 256.839 101.353 257.467C101.991 258.086 102.309 258.97 102.309 260.119V261.163H97.2082C97.2275 261.772 97.4062 262.25 97.7444 262.598C98.0922 262.945 98.5704 263.119 99.1791 263.119C99.6912 263.119 100.155 263.071 100.57 262.974C100.986 262.868 101.416 262.709 101.86 262.496V264.163C101.474 264.356 101.063 264.496 100.628 264.583C100.203 264.68 99.6863 264.728 99.0777 264.728C98.2854 264.728 97.585 264.583 96.9763 264.293C96.3676 263.994 95.8894 263.544 95.5416 262.945C95.1938 262.346 95.0199 261.593 95.0199 260.685C95.0199 259.757 95.1745 258.989 95.4836 258.38C95.8024 257.762 96.242 257.298 96.8024 256.989C97.3628 256.68 98.0149 256.525 98.7588 256.525ZM98.7733 258.062C98.3579 258.062 98.0101 258.197 97.7299 258.467C97.4594 258.738 97.3 259.158 97.2517 259.728H100.281C100.271 259.245 100.145 258.849 99.9037 258.54C99.6622 258.221 99.2854 258.062 98.7733 258.062ZM108.335 256.525C108.442 256.525 108.567 256.53 108.712 256.54C108.857 256.55 108.973 256.564 109.06 256.583L108.901 258.612C108.833 258.593 108.732 258.578 108.596 258.569C108.471 258.549 108.36 258.54 108.263 258.54C107.896 258.54 107.543 258.607 107.205 258.743C106.867 258.868 106.592 259.076 106.379 259.366C106.176 259.656 106.075 260.052 106.075 260.554V264.583H103.915V256.67H105.553L105.872 258.004H105.973C106.205 257.598 106.524 257.25 106.93 256.96C107.336 256.67 107.804 256.525 108.335 256.525Z" fill="#7D7D85"/>
<path d="M448.236 253.111C448.835 253.111 449.381 253.203 449.874 253.386C450.376 253.57 450.777 253.845 451.076 254.212C451.386 254.58 451.54 255.043 451.54 255.604C451.54 256.222 451.362 256.734 451.004 257.14C450.656 257.536 450.217 257.864 449.685 258.125C450.052 258.319 450.4 258.546 450.729 258.806C451.067 259.058 451.337 259.357 451.54 259.705C451.753 260.043 451.859 260.444 451.859 260.908C451.859 261.478 451.704 261.975 451.395 262.401C451.096 262.826 450.671 263.154 450.12 263.386C449.579 263.618 448.951 263.734 448.236 263.734C447.077 263.734 446.178 263.487 445.541 262.995C444.913 262.502 444.599 261.826 444.599 260.966C444.599 260.251 444.792 259.676 445.178 259.241C445.565 258.806 446.033 258.454 446.584 258.183C446.12 257.893 445.724 257.546 445.396 257.14C445.077 256.724 444.917 256.208 444.917 255.589C444.917 255.039 445.072 254.58 445.381 254.212C445.69 253.845 446.096 253.57 446.598 253.386C447.11 253.203 447.656 253.111 448.236 253.111ZM448.222 254.705C447.864 254.705 447.565 254.797 447.323 254.981C447.091 255.164 446.975 255.425 446.975 255.763C446.975 256.121 447.101 256.41 447.352 256.633C447.603 256.855 447.898 257.048 448.236 257.212C448.565 257.058 448.854 256.874 449.106 256.662C449.357 256.439 449.482 256.14 449.482 255.763C449.482 255.425 449.362 255.164 449.12 254.981C448.888 254.797 448.589 254.705 448.222 254.705ZM446.627 260.835C446.627 261.212 446.758 261.521 447.019 261.763C447.289 262.004 447.685 262.125 448.207 262.125C448.748 262.125 449.154 262.009 449.424 261.777C449.695 261.545 449.83 261.236 449.83 260.85C449.83 260.589 449.753 260.362 449.598 260.169C449.444 259.966 449.25 259.787 449.019 259.633C448.796 259.468 448.565 259.319 448.323 259.183L448.135 259.082C447.69 259.294 447.328 259.541 447.048 259.821C446.768 260.101 446.627 260.439 446.627 260.835ZM460.283 261.444H459.036V263.589H456.906V261.444H452.486V259.922L457.022 253.242H459.036V259.748H460.283V261.444ZM456.906 257.995C456.906 257.773 456.911 257.502 456.921 257.183C456.93 256.865 456.94 256.57 456.95 256.299C456.969 256.019 456.983 255.836 456.993 255.749H456.935C456.848 255.942 456.756 256.13 456.66 256.314C456.563 256.497 456.447 256.686 456.312 256.879L454.414 259.748H456.906V257.995ZM463.634 262.067C463.509 262.579 463.33 263.14 463.098 263.748C462.866 264.357 462.63 264.927 462.388 265.458H460.837C460.973 264.888 461.108 264.28 461.243 263.632C461.378 262.985 461.48 262.41 461.547 261.908H463.533L463.634 262.067ZM472.187 263.589H464.955V262.067L467.549 259.444C468.071 258.903 468.491 258.454 468.81 258.096C469.129 257.729 469.361 257.401 469.506 257.111C469.651 256.811 469.723 256.493 469.723 256.154C469.723 255.739 469.607 255.43 469.375 255.227C469.153 255.024 468.849 254.923 468.462 254.923C468.066 254.923 467.68 255.014 467.303 255.198C466.926 255.382 466.53 255.642 466.115 255.981L464.926 254.575C465.226 254.314 465.54 254.072 465.868 253.85C466.207 253.628 466.593 253.449 467.028 253.314C467.472 253.169 468.004 253.097 468.622 253.097C469.298 253.097 469.878 253.222 470.361 253.473C470.854 253.715 471.23 254.048 471.491 254.473C471.762 254.889 471.897 255.362 471.897 255.894C471.897 256.464 471.781 256.985 471.549 257.459C471.327 257.932 470.999 258.401 470.564 258.864C470.139 259.328 469.622 259.84 469.013 260.401L467.68 261.647V261.748H472.187V263.589ZM473.031 259.198C473.031 258.599 473.075 258.009 473.162 257.43C473.249 256.85 473.398 256.304 473.611 255.792C473.833 255.27 474.138 254.811 474.524 254.415C474.92 254.01 475.418 253.696 476.017 253.473C476.625 253.242 477.36 253.126 478.219 253.126C478.422 253.126 478.659 253.135 478.93 253.155C479.2 253.164 479.427 253.188 479.611 253.227V254.981C479.427 254.932 479.224 254.898 479.002 254.879C478.79 254.85 478.577 254.836 478.364 254.836C477.505 254.836 476.838 254.971 476.364 255.241C475.901 255.512 475.572 255.894 475.379 256.386C475.186 256.869 475.075 257.43 475.046 258.067H475.133C475.326 257.729 475.601 257.444 475.959 257.212C476.326 256.98 476.799 256.865 477.379 256.865C478.287 256.865 479.007 257.15 479.538 257.72C480.07 258.29 480.335 259.096 480.335 260.14C480.335 261.26 480.017 262.14 479.379 262.777C478.751 263.415 477.896 263.734 476.814 263.734C476.108 263.734 475.471 263.574 474.901 263.256C474.331 262.927 473.877 262.43 473.539 261.763C473.2 261.087 473.031 260.232 473.031 259.198ZM476.77 261.98C477.195 261.98 477.543 261.835 477.814 261.545C478.084 261.246 478.219 260.787 478.219 260.169C478.219 259.666 478.104 259.27 477.872 258.98C477.64 258.691 477.287 258.546 476.814 258.546C476.495 258.546 476.215 258.618 475.973 258.763C475.732 258.898 475.543 259.077 475.408 259.299C475.273 259.521 475.205 259.748 475.205 259.98C475.205 260.299 475.263 260.613 475.379 260.922C475.495 261.222 475.669 261.473 475.901 261.676C476.142 261.879 476.432 261.98 476.77 261.98ZM481.18 259.198C481.18 258.599 481.223 258.009 481.31 257.43C481.397 256.85 481.547 256.304 481.759 255.792C481.982 255.27 482.286 254.811 482.672 254.415C483.069 254.01 483.566 253.696 484.165 253.473C484.774 253.242 485.508 253.126 486.368 253.126C486.571 253.126 486.807 253.135 487.078 253.155C487.349 253.164 487.576 253.188 487.759 253.227V254.981C487.576 254.932 487.373 254.898 487.15 254.879C486.938 254.85 486.725 254.836 486.513 254.836C485.653 254.836 484.986 254.971 484.513 255.241C484.049 255.512 483.721 255.894 483.527 256.386C483.334 256.869 483.223 257.43 483.194 258.067H483.281C483.474 257.729 483.75 257.444 484.107 257.212C484.474 256.98 484.948 256.865 485.527 256.865C486.436 256.865 487.155 257.15 487.687 257.72C488.218 258.29 488.484 259.096 488.484 260.14C488.484 261.26 488.165 262.14 487.527 262.777C486.899 263.415 486.044 263.734 484.962 263.734C484.257 263.734 483.619 263.574 483.049 263.256C482.479 262.927 482.025 262.43 481.687 261.763C481.349 261.087 481.18 260.232 481.18 259.198ZM484.919 261.98C485.344 261.98 485.692 261.835 485.962 261.545C486.233 261.246 486.368 260.787 486.368 260.169C486.368 259.666 486.252 259.27 486.02 258.98C485.788 258.691 485.436 258.546 484.962 258.546C484.643 258.546 484.363 258.618 484.122 258.763C483.88 258.898 483.692 259.077 483.556 259.299C483.421 259.521 483.354 259.748 483.354 259.98C483.354 260.299 483.412 260.613 483.527 260.922C483.643 261.222 483.817 261.473 484.049 261.676C484.291 261.879 484.581 261.98 484.919 261.98Z" fill="#37A3E2"/>
</g>
<defs>
<clipPath id="clip0_1144_196">
<rect width="562" height="315" fill="white"/>
</clipPath>
</defs>
</svg>
