<svg width="562" height="315" viewBox="0 0 562 315" fill="none" xmlns="http://www.w3.org/2000/svg">
<g clip-path="url(#clip0_1144_195)">
<path d="M256.517 75.4948C256.517 78.6523 256.284 81.8098 255.818 84.9673C255.352 88.073 254.524 91.0235 253.334 93.8187C252.195 96.5621 250.564 99.0208 248.442 101.195C246.372 103.317 243.706 104.999 240.445 106.242C237.236 107.432 233.328 108.027 228.721 108.027C227.634 108.027 226.366 107.976 224.916 107.872C223.467 107.82 222.25 107.691 221.267 107.484V98.0891C222.302 98.2961 223.389 98.4773 224.528 98.6326C225.667 98.7878 226.806 98.8655 227.944 98.8655C232.551 98.8655 236.097 98.1408 238.581 96.6915C241.118 95.1904 242.904 93.1458 243.939 90.5576C244.974 87.9695 245.569 84.9673 245.725 81.551H245.259C244.172 83.3627 242.722 84.8897 240.911 86.132C239.151 87.3743 236.511 87.9954 232.991 87.9954C228.281 87.9954 224.502 86.4684 221.655 83.4144C218.808 80.3605 217.385 76.0383 217.385 70.448C217.385 64.4436 219.067 59.7332 222.432 56.3169C225.848 52.9006 230.455 51.1924 236.252 51.1924C240.031 51.1924 243.447 52.0724 246.501 53.8323C249.555 55.5404 251.988 58.2062 253.8 61.8296C255.611 65.4012 256.517 69.9562 256.517 75.4948ZM236.485 60.5873C234.208 60.5873 232.344 61.3637 230.895 62.9166C229.445 64.4694 228.721 66.9282 228.721 70.2927C228.721 72.9843 229.342 75.1066 230.584 76.6595C231.826 78.2123 233.716 78.9888 236.252 78.9888C238.012 78.9888 239.513 78.6005 240.755 77.8241C242.05 77.0477 243.059 76.0901 243.784 74.9513C244.508 73.7608 244.871 72.5444 244.871 71.3021C244.871 69.5939 244.56 67.9116 243.939 66.2552C243.318 64.5989 242.386 63.253 241.144 62.2178C239.901 61.1308 238.349 60.5873 236.485 60.5873ZM290.623 107.251H278.899V75.1842C278.899 73.8384 278.925 72.0785 278.977 69.9045C279.08 67.7305 279.158 65.8153 279.21 64.1589C278.951 64.4694 278.381 65.0388 277.501 65.867C276.673 66.6435 275.897 67.3423 275.172 67.9634L268.805 73.0879L263.137 66.0223L280.995 51.8136H290.623V107.251ZM316.965 85.5885L303.3 64.8577H316.421L324.652 78.3676L332.959 64.8577H346.081L332.261 85.5885L346.702 107.251H333.581L324.652 92.7317L315.723 107.251H302.601L316.965 85.5885Z" fill="#37A3E2"/>
<rect x="48.0698" y="150.251" width="465.861" height="64.7029" rx="8.62705" fill="#D8D7E9" fill-opacity="0.5"/>
<path d="M74.5424 186.831H86.6403V188.403H74.5424V186.831ZM75.4652 177.732H85.6454V179.275H75.4652V177.732ZM75.5373 183.269H85.6021V184.798H75.5373V183.269ZM77.2821 179.16H79.1999V183.413H77.2821V179.16ZM81.9107 179.16H83.8285V183.413H81.9107V179.16ZM87.663 186.917H99.7609V188.475H87.663V186.917ZM92.7386 184.38H94.642V187.537H92.7386V184.38ZM89.0328 177.444H98.3911V181.899H90.9506V184.134H89.0473V180.4H96.4877V178.972H89.0328V177.444ZM89.0473 183.385H98.6939V184.913H89.0473V183.385ZM101.49 182.707H102.543C103.437 182.707 104.201 182.697 104.835 182.678C105.47 182.649 106.042 182.611 106.551 182.563C107.061 182.505 107.566 182.423 108.065 182.318L108.253 183.832C107.734 183.947 107.21 184.033 106.681 184.091C106.152 184.149 105.556 184.187 104.893 184.206C104.239 184.226 103.456 184.235 102.543 184.235H101.49V182.707ZM101.49 177.487H107.489V179.015H103.394V183.125H101.49V177.487ZM102.846 185.23H111.959V189.945H110.026V186.759H102.846V185.23ZM110.026 176.579H111.959V184.653H110.026V176.579ZM106.883 179.924H110.531V181.438H106.883V179.924ZM120.941 178.323H123.609V179.852H120.941V178.323ZM120.941 180.89H123.609V182.418H120.941V180.89ZM116.961 177.343H118.504V178.886C118.504 179.809 118.374 180.674 118.115 181.481C117.855 182.289 117.456 182.995 116.918 183.601C116.38 184.197 115.687 184.653 114.841 184.971L113.818 183.486C114.375 183.284 114.851 183.024 115.245 182.707C115.639 182.39 115.961 182.029 116.211 181.625C116.461 181.212 116.649 180.775 116.774 180.313C116.899 179.842 116.961 179.366 116.961 178.886V177.343ZM117.35 177.343H118.893V178.886C118.893 179.338 118.951 179.789 119.066 180.241C119.182 180.683 119.36 181.101 119.6 181.496C119.84 181.89 120.148 182.245 120.523 182.563C120.898 182.88 121.349 183.135 121.878 183.327L120.826 184.827C120.037 184.509 119.384 184.053 118.865 183.457C118.355 182.861 117.975 182.169 117.725 181.38C117.475 180.592 117.35 179.76 117.35 178.886V177.343ZM123.147 176.593H125.079V186.47H123.147V176.593ZM116.24 188.172H125.368V189.715H116.24V188.172ZM116.24 185.576H118.158V189.152H116.24V185.576ZM139.797 176.593H141.715V183.442H139.797V176.593ZM132.818 184.019H141.715V187.581H134.721V188.979H132.832V186.225H139.812V185.461H132.818V184.019ZM132.832 188.403H142.047V189.859H132.832V188.403ZM131.29 177.155H133.193V178.655H135.875V177.155H137.778V183.024H131.29V177.155ZM133.193 180.097V181.539H135.875V180.097H133.193ZM145.16 182.75H154.547V184.264H145.16V182.75ZM143.747 186.773H155.845V188.33H143.747V186.773ZM145.16 177.674H154.446V179.232H147.063V183.385H145.16V177.674Z" fill="#7D7D85"/>
<path d="M383.325 179.614C383.325 180.326 383.109 180.893 382.677 181.316C382.254 181.739 381.73 182.027 381.105 182.181V182.224C381.932 182.32 382.556 182.57 382.979 182.974C383.412 183.378 383.628 183.921 383.628 184.603C383.628 185.199 383.479 185.738 383.181 186.218C382.893 186.689 382.441 187.064 381.826 187.343C381.22 187.612 380.437 187.747 379.475 187.747C378.36 187.747 377.37 187.559 376.505 187.184V185.339C376.947 185.56 377.409 185.728 377.889 185.843C378.38 185.959 378.831 186.016 379.245 186.016C380.023 186.016 380.566 185.882 380.874 185.613C381.191 185.343 381.35 184.964 381.35 184.474C381.35 184.185 381.278 183.945 381.134 183.753C380.989 183.551 380.735 183.402 380.369 183.306C380.014 183.2 379.514 183.147 378.87 183.147H378.091V181.474H378.884C379.519 181.474 379.999 181.417 380.326 181.301C380.663 181.176 380.888 181.013 381.004 180.811C381.129 180.599 381.191 180.359 381.191 180.09C381.191 179.725 381.076 179.441 380.845 179.239C380.624 179.028 380.249 178.922 379.721 178.922C379.23 178.922 378.802 179.009 378.437 179.182C378.082 179.345 377.779 179.508 377.529 179.672L376.519 178.172C376.923 177.884 377.394 177.643 377.933 177.451C378.48 177.259 379.129 177.163 379.879 177.163C380.937 177.163 381.773 177.379 382.388 177.812C383.013 178.235 383.325 178.835 383.325 179.614ZM387.929 183.262C387.573 183.108 387.271 183.008 387.021 182.959C386.78 182.902 386.55 182.873 386.328 182.873C386.059 182.873 385.776 182.955 385.478 183.118C385.189 183.281 384.925 183.483 384.685 183.724V182.094C385.165 181.585 385.766 181.33 386.487 181.33C386.766 181.33 387.045 181.359 387.323 181.417C387.612 181.465 387.982 181.585 388.434 181.777C388.789 181.931 389.092 182.037 389.342 182.094C389.592 182.142 389.823 182.166 390.034 182.166C390.313 182.166 390.597 182.085 390.885 181.921C391.173 181.758 391.438 181.556 391.678 181.316V182.945C391.197 183.455 390.597 183.709 389.876 183.709C389.597 183.709 389.313 183.68 389.025 183.623C388.746 183.565 388.381 183.445 387.929 183.262ZM392.677 183.233C392.677 182.637 392.72 182.051 392.807 181.474C392.893 180.897 393.042 180.354 393.254 179.845C393.475 179.326 393.778 178.869 394.162 178.475C394.556 178.071 395.051 177.759 395.647 177.538C396.253 177.307 396.984 177.192 397.839 177.192C398.041 177.192 398.276 177.201 398.546 177.221C398.815 177.23 399.041 177.254 399.223 177.293V179.037C399.041 178.989 398.839 178.956 398.618 178.936C398.406 178.908 398.195 178.893 397.983 178.893C397.128 178.893 396.464 179.028 395.993 179.297C395.532 179.566 395.205 179.946 395.013 180.436C394.821 180.917 394.71 181.474 394.681 182.109H394.768C394.96 181.772 395.234 181.489 395.59 181.258C395.955 181.027 396.426 180.912 397.003 180.912C397.906 180.912 398.623 181.195 399.151 181.763C399.68 182.33 399.944 183.132 399.944 184.171C399.944 185.286 399.627 186.161 398.993 186.795C398.368 187.43 397.517 187.747 396.44 187.747C395.739 187.747 395.104 187.588 394.537 187.271C393.97 186.944 393.518 186.449 393.182 185.786C392.845 185.113 392.677 184.262 392.677 183.233ZM396.397 186.002C396.82 186.002 397.166 185.858 397.435 185.569C397.704 185.271 397.839 184.815 397.839 184.2C397.839 183.7 397.724 183.306 397.493 183.017C397.262 182.729 396.911 182.585 396.44 182.585C396.123 182.585 395.844 182.657 395.604 182.801C395.364 182.935 395.176 183.113 395.042 183.334C394.907 183.555 394.84 183.781 394.84 184.012C394.84 184.329 394.897 184.642 395.013 184.949C395.128 185.247 395.301 185.497 395.532 185.699C395.772 185.901 396.061 186.002 396.397 186.002ZM400.857 182.354H412.955V183.868H400.857V182.354ZM406.105 183.176H408.023V185.988H406.105V183.176ZM402.255 187.112H411.614V188.655H402.255V187.112ZM402.255 184.978H404.173V187.761H402.255V184.978ZM402.399 175.952H404.288V177.307H409.508V175.952H411.412V181.431H402.399V175.952ZM404.288 178.749V179.946H409.508V178.749H404.288Z" fill="#7D7D85"/>
<path d="M434.624 182.12C434.327 181.771 434.017 181.258 433.694 180.581H434.257C434.918 181.357 435.621 181.935 436.366 182.315V182.597C435.621 182.977 434.918 183.555 434.257 184.331H433.694C434.017 183.654 434.327 183.141 434.624 182.792H426.897V182.12H434.624V182.12" fill="#7D7D85"/>
<path d="M456.005 187.603H453.827V181.647C453.827 181.397 453.832 181.071 453.842 180.667C453.861 180.263 453.875 179.907 453.885 179.6C453.837 179.657 453.731 179.763 453.568 179.917C453.414 180.061 453.27 180.191 453.135 180.306L451.953 181.258L450.9 179.946L454.217 177.307H456.005V187.603ZM462.021 183.262C461.666 183.108 461.363 183.008 461.113 182.959C460.873 182.902 460.642 182.873 460.421 182.873C460.152 182.873 459.868 182.955 459.57 183.118C459.282 183.281 459.017 183.483 458.777 183.724V182.094C459.258 181.585 459.858 181.33 460.579 181.33C460.858 181.33 461.137 181.359 461.416 181.417C461.704 181.465 462.074 181.585 462.526 181.777C462.882 181.931 463.184 182.037 463.434 182.094C463.684 182.142 463.915 182.166 464.127 182.166C464.405 182.166 464.689 182.085 464.977 181.921C465.266 181.758 465.53 181.556 465.77 181.316V182.945C465.29 183.455 464.689 183.709 463.968 183.709C463.689 183.709 463.406 183.68 463.117 183.623C462.838 183.565 462.473 183.445 462.021 183.262ZM473.633 179.614C473.633 180.326 473.417 180.893 472.984 181.316C472.561 181.739 472.037 182.027 471.412 182.181V182.224C472.239 182.32 472.864 182.57 473.287 182.974C473.719 183.378 473.936 183.921 473.936 184.603C473.936 185.199 473.787 185.738 473.489 186.218C473.2 186.689 472.748 187.064 472.133 187.343C471.528 187.612 470.744 187.747 469.783 187.747C468.668 187.747 467.678 187.559 466.812 187.184V185.339C467.255 185.56 467.716 185.728 468.197 185.843C468.687 185.959 469.139 186.016 469.552 186.016C470.331 186.016 470.874 185.882 471.182 185.613C471.499 185.343 471.657 184.964 471.657 184.474C471.657 184.185 471.585 183.945 471.441 183.753C471.297 183.551 471.042 183.402 470.677 183.306C470.321 183.2 469.821 183.147 469.177 183.147H468.399V181.474H469.192C469.826 181.474 470.307 181.417 470.634 181.301C470.97 181.176 471.196 181.013 471.311 180.811C471.436 180.599 471.499 180.359 471.499 180.09C471.499 179.725 471.383 179.441 471.153 179.239C470.932 179.028 470.557 178.922 470.028 178.922C469.538 178.922 469.11 179.009 468.745 179.182C468.389 179.345 468.086 179.508 467.836 179.672L466.827 178.172C467.231 177.884 467.702 177.643 468.24 177.451C468.788 177.259 469.437 177.163 470.187 177.163C471.244 177.163 472.08 177.379 472.696 177.812C473.32 178.235 473.633 178.835 473.633 179.614ZM474.949 182.354H487.047V183.868H474.949V182.354ZM480.198 183.176H482.115V185.988H480.198V183.176ZM476.348 187.112H485.706V188.655H476.348V187.112ZM476.348 184.978H478.265V187.761H476.348V184.978ZM476.492 175.952H478.381V177.307H483.601V175.952H485.504V181.431H476.492V175.952ZM478.381 178.749V179.946H483.601V178.749H478.381Z" fill="#37A3E2"/>
<rect x="48.0698" y="226.046" width="465.861" height="64.7029" rx="8.62705" fill="#D8D7E9" fill-opacity="0.5"/>
<path d="M83.6843 264.457H81.507V260.016H77.4263V264.457H75.2489V254.162H77.4263V258.199H81.507V254.162H83.6843V264.457ZM93.1096 260.506C93.1096 261.813 92.7635 262.823 92.0714 263.534C91.3889 264.246 90.4564 264.601 89.274 264.601C88.5434 264.601 87.8898 264.443 87.313 264.125C86.7458 263.808 86.2988 263.347 85.972 262.741C85.6451 262.126 85.4817 261.381 85.4817 260.506C85.4817 259.199 85.823 258.194 86.5055 257.492C87.188 256.791 88.1253 256.44 89.3173 256.44C90.0575 256.44 90.7112 256.598 91.2783 256.916C91.8455 257.233 92.2925 257.694 92.6193 258.3C92.9462 258.896 93.1096 259.631 93.1096 260.506ZM87.6735 260.506C87.6735 261.285 87.7984 261.876 88.0484 262.28C88.3079 262.674 88.7261 262.871 89.3029 262.871C89.87 262.871 90.2786 262.674 90.5285 262.28C90.7881 261.876 90.9178 261.285 90.9178 260.506C90.9178 259.727 90.7881 259.146 90.5285 258.761C90.2786 258.367 89.8652 258.17 89.2884 258.17C88.7213 258.17 88.3079 258.367 88.0484 258.761C87.7984 259.146 87.6735 259.727 87.6735 260.506ZM98.0575 262.885C98.2978 262.885 98.5286 262.861 98.7497 262.813C98.9708 262.765 99.1919 262.707 99.413 262.64V264.241C99.1822 264.337 98.8939 264.419 98.5478 264.486C98.2113 264.563 97.8412 264.601 97.4375 264.601C96.9664 264.601 96.5435 264.524 96.1686 264.371C95.8033 264.217 95.5101 263.952 95.289 263.577C95.0775 263.193 94.9718 262.664 94.9718 261.991V258.199H93.948V257.291L95.1304 256.57L95.7504 254.911H97.1203V256.584H99.3264V258.199H97.1203V261.991C97.1203 262.289 97.2068 262.515 97.3798 262.669C97.5528 262.813 97.7787 262.885 98.0575 262.885ZM107.623 254.162C109.026 254.162 110.06 254.416 110.723 254.926C111.396 255.435 111.732 256.209 111.732 257.247C111.732 257.718 111.641 258.132 111.458 258.487C111.285 258.833 111.05 259.131 110.752 259.381C110.463 259.622 110.151 259.819 109.815 259.973L112.843 264.457H110.42L107.969 260.506H106.801V264.457H104.624V254.162H107.623ZM107.464 255.95H106.801V258.732H107.507C108.228 258.732 108.743 258.612 109.05 258.372C109.368 258.132 109.526 257.776 109.526 257.305C109.526 256.815 109.358 256.469 109.022 256.267C108.695 256.055 108.176 255.95 107.464 255.95ZM117.07 256.44C118.156 256.44 119.016 256.752 119.651 257.377C120.285 257.992 120.603 258.872 120.603 260.016V261.054H115.527C115.546 261.66 115.724 262.135 116.06 262.482C116.407 262.828 116.882 263.001 117.488 263.001C117.998 263.001 118.459 262.953 118.872 262.856C119.286 262.751 119.713 262.592 120.156 262.381V264.039C119.771 264.231 119.363 264.371 118.93 264.457C118.507 264.553 117.993 264.601 117.387 264.601C116.599 264.601 115.902 264.457 115.296 264.169C114.691 263.871 114.215 263.424 113.869 262.828C113.523 262.232 113.35 261.482 113.35 260.578C113.35 259.655 113.503 258.891 113.811 258.285C114.128 257.67 114.566 257.209 115.123 256.901C115.681 256.594 116.33 256.44 117.07 256.44ZM117.084 257.968C116.671 257.968 116.325 258.103 116.046 258.372C115.777 258.641 115.618 259.059 115.57 259.627H118.584C118.574 259.146 118.449 258.752 118.209 258.444C117.969 258.127 117.594 257.968 117.084 257.968ZM124.349 264.457H122.201V253.498H124.349V264.457ZM133.602 260.506C133.602 261.813 133.256 262.823 132.564 263.534C131.881 264.246 130.949 264.601 129.766 264.601C129.036 264.601 128.382 264.443 127.805 264.125C127.238 263.808 126.791 263.347 126.464 262.741C126.137 262.126 125.974 261.381 125.974 260.506C125.974 259.199 126.315 258.194 126.998 257.492C127.68 256.791 128.618 256.44 129.81 256.44C130.55 256.44 131.203 256.598 131.771 256.916C132.338 257.233 132.785 257.694 133.112 258.3C133.438 258.896 133.602 259.631 133.602 260.506ZM128.166 260.506C128.166 261.285 128.291 261.876 128.541 262.28C128.8 262.674 129.218 262.871 129.795 262.871C130.362 262.871 130.771 262.674 131.021 262.28C131.28 261.876 131.41 261.285 131.41 260.506C131.41 259.727 131.28 259.146 131.021 258.761C130.771 258.367 130.358 258.17 129.781 258.17C129.214 258.17 128.8 258.367 128.541 258.761C128.291 259.146 128.166 259.727 128.166 260.506ZM138.463 256.425C139.521 256.425 140.328 256.656 140.886 257.118C141.453 257.569 141.737 258.266 141.737 259.208V264.457H140.237L139.819 263.39H139.761C139.425 263.813 139.069 264.121 138.694 264.313C138.319 264.505 137.805 264.601 137.151 264.601C136.449 264.601 135.868 264.399 135.406 263.996C134.945 263.582 134.714 262.953 134.714 262.107C134.714 261.27 135.007 260.655 135.594 260.261C136.18 259.857 137.06 259.636 138.233 259.598L139.602 259.554V259.208C139.602 258.795 139.492 258.492 139.271 258.3C139.059 258.108 138.761 258.012 138.377 258.012C137.992 258.012 137.617 258.069 137.252 258.185C136.887 258.29 136.521 258.425 136.156 258.588L135.45 257.132C135.873 256.911 136.339 256.738 136.848 256.613C137.367 256.488 137.906 256.425 138.463 256.425ZM138.766 260.838C138.074 260.857 137.593 260.982 137.324 261.213C137.055 261.443 136.92 261.746 136.92 262.121C136.92 262.448 137.017 262.683 137.209 262.828C137.401 262.962 137.651 263.03 137.959 263.03C138.42 263.03 138.809 262.895 139.127 262.626C139.444 262.347 139.602 261.958 139.602 261.458V260.809L138.766 260.838ZM146.286 264.601C145.411 264.601 144.695 264.26 144.138 263.577C143.59 262.885 143.316 261.871 143.316 260.535C143.316 259.189 143.594 258.17 144.152 257.478C144.71 256.786 145.44 256.44 146.344 256.44C146.911 256.44 147.377 256.55 147.742 256.771C148.108 256.993 148.396 257.267 148.608 257.593H148.68C148.651 257.44 148.617 257.218 148.579 256.93C148.54 256.632 148.521 256.329 148.521 256.022V253.498H150.67V264.457H149.026L148.608 263.433H148.521C148.31 263.76 148.026 264.039 147.67 264.27C147.315 264.491 146.853 264.601 146.286 264.601ZM147.036 262.885C147.632 262.885 148.05 262.712 148.29 262.366C148.531 262.011 148.656 261.482 148.665 260.78V260.549C148.665 259.78 148.545 259.194 148.305 258.79C148.074 258.386 147.642 258.185 147.007 258.185C146.536 258.185 146.166 258.391 145.897 258.805C145.628 259.208 145.493 259.795 145.493 260.564C145.493 261.333 145.628 261.914 145.897 262.309C146.166 262.693 146.546 262.885 147.036 262.885Z" fill="#7D7D85"/>
<path d="M369.729 263.397H362.534V261.883L365.115 259.273C365.634 258.735 366.052 258.288 366.369 257.932C366.687 257.567 366.917 257.24 367.062 256.952C367.206 256.654 367.278 256.337 367.278 256C367.278 255.587 367.162 255.279 366.932 255.077C366.711 254.876 366.408 254.775 366.023 254.775C365.629 254.775 365.245 254.866 364.87 255.049C364.495 255.231 364.101 255.491 363.687 255.827L362.505 254.429C362.803 254.169 363.115 253.929 363.442 253.708C363.779 253.486 364.163 253.309 364.596 253.174C365.038 253.03 365.567 252.958 366.182 252.958C366.855 252.958 367.432 253.083 367.912 253.333C368.403 253.573 368.777 253.905 369.037 254.328C369.306 254.741 369.441 255.212 369.441 255.741C369.441 256.308 369.325 256.827 369.095 257.298C368.874 257.769 368.547 258.235 368.114 258.697C367.691 259.158 367.177 259.668 366.571 260.225L365.245 261.465V261.566H369.729V263.397ZM373.929 259.057C373.573 258.903 373.271 258.802 373.021 258.754C372.78 258.697 372.55 258.668 372.328 258.668C372.059 258.668 371.776 258.75 371.478 258.913C371.189 259.076 370.925 259.278 370.685 259.519V257.889C371.165 257.38 371.766 257.125 372.487 257.125C372.766 257.125 373.045 257.154 373.323 257.211C373.612 257.26 373.982 257.38 374.434 257.572C374.789 257.726 375.092 257.832 375.342 257.889C375.592 257.937 375.823 257.961 376.034 257.961C376.313 257.961 376.597 257.88 376.885 257.716C377.173 257.553 377.438 257.351 377.678 257.111V258.74C377.197 259.249 376.597 259.504 375.876 259.504C375.597 259.504 375.313 259.475 375.025 259.418C374.746 259.36 374.381 259.24 373.929 259.057ZM382.498 256.822C383.123 256.822 383.68 256.942 384.171 257.183C384.661 257.423 385.045 257.774 385.324 258.235C385.613 258.697 385.757 259.269 385.757 259.951C385.757 261.066 385.411 261.946 384.719 262.59C384.027 263.224 383.003 263.542 381.647 263.542C381.109 263.542 380.599 263.494 380.119 263.397C379.648 263.301 379.234 263.162 378.879 262.979V261.105C379.234 261.287 379.662 261.446 380.162 261.581C380.662 261.706 381.133 261.768 381.575 261.768C382.219 261.768 382.71 261.638 383.046 261.379C383.392 261.11 383.565 260.696 383.565 260.139C383.565 259.1 382.878 258.581 381.503 258.581C381.234 258.581 380.955 258.61 380.667 258.668C380.378 258.716 380.138 258.764 379.946 258.812L379.081 258.351L379.47 253.102H385.05V254.948H381.373L381.186 256.966C381.349 256.938 381.522 256.909 381.705 256.88C381.897 256.841 382.162 256.822 382.498 256.822ZM386.871 261.609H398.969V263.167H386.871V261.609ZM391.961 259.028H393.864V262.403H391.961V259.028ZM391.947 254.097H393.634V254.385C393.634 255.029 393.509 255.635 393.259 256.202C393.009 256.76 392.639 257.264 392.149 257.716C391.668 258.168 391.077 258.548 390.375 258.855C389.673 259.163 388.861 259.374 387.938 259.49L387.246 257.961C388.063 257.865 388.765 257.702 389.351 257.471C389.947 257.231 390.433 256.942 390.808 256.606C391.192 256.269 391.476 255.914 391.658 255.539C391.851 255.154 391.947 254.77 391.947 254.385V254.097ZM392.192 254.097H393.879V254.385C393.879 254.77 393.97 255.154 394.153 255.539C394.345 255.914 394.629 256.269 395.004 256.606C395.388 256.942 395.878 257.231 396.474 257.471C397.07 257.702 397.772 257.865 398.58 257.961L397.887 259.49C396.965 259.374 396.152 259.163 395.451 258.855C394.749 258.548 394.153 258.168 393.663 257.716C393.182 257.264 392.817 256.76 392.567 256.202C392.317 255.635 392.192 255.029 392.192 254.385V254.097ZM387.895 253.131H397.916V254.659H387.895V253.131ZM391.961 251.501H393.864V253.751H391.961V251.501Z" fill="#7D7D85"/>
<path d="M420.624 257.915C420.327 257.566 420.017 257.053 419.694 256.376H420.257C420.918 257.152 421.621 257.73 422.366 258.11V258.392C421.621 258.772 420.918 259.35 420.257 260.126H419.694C420.017 259.449 420.327 258.936 420.624 258.587H412.897V257.915H420.624V257.915" fill="#7D7D85"/>
<path d="M442.005 263.397H439.827V257.442C439.827 257.192 439.832 256.865 439.842 256.462C439.861 256.058 439.875 255.702 439.885 255.395C439.837 255.452 439.731 255.558 439.568 255.712C439.414 255.856 439.27 255.986 439.135 256.101L437.953 257.053L436.9 255.741L440.217 253.102H442.005V263.397ZM444.748 261.609H456.846V263.167H444.748V261.609ZM449.838 259.028H451.742V262.403H449.838V259.028ZM449.824 254.097H451.511V254.385C451.511 255.029 451.386 255.635 451.136 256.202C450.886 256.76 450.516 257.264 450.026 257.716C449.545 258.168 448.954 258.548 448.252 258.855C447.55 259.163 446.738 259.374 445.815 259.49L445.123 257.961C445.94 257.865 446.642 257.702 447.228 257.471C447.824 257.231 448.31 256.942 448.685 256.606C449.069 256.269 449.353 255.914 449.535 255.539C449.728 255.154 449.824 254.77 449.824 254.385V254.097ZM450.069 254.097H451.756V254.385C451.756 254.77 451.847 255.154 452.03 255.539C452.222 255.914 452.506 256.269 452.881 256.606C453.265 256.942 453.755 257.231 454.351 257.471C454.947 257.702 455.649 257.865 456.457 257.961L455.765 259.49C454.842 259.374 454.029 259.163 453.328 258.855C452.626 258.548 452.03 258.168 451.54 257.716C451.059 257.264 450.694 256.76 450.444 256.202C450.194 255.635 450.069 255.029 450.069 254.385V254.097ZM445.772 253.131H455.793V254.659H445.772V253.131ZM449.838 251.501H451.742V253.751H449.838V251.501ZM462.119 252.511H468.536V261.494H462.119V252.511ZM466.661 254.025H464.008V259.98H466.661V254.025ZM470.627 251.3H472.544V264.695H470.627V251.3ZM474.966 252.41H481.339V258.87H474.966V252.41ZM479.45 253.938H476.855V257.356H479.45V253.938ZM483.17 251.328H485.088V261.062H483.17V251.328ZM484.555 255.178H486.862V256.75H484.555V255.178ZM476.48 262.907H485.564V264.45H476.48V262.907ZM476.48 260.11H478.412V263.686H476.48V260.11Z" fill="#37A3E2"/>
</g>
<defs>
<clipPath id="clip0_1144_195">
<rect width="562" height="315" fill="white"/>
</clipPath>
</defs>
</svg>
