<svg width="562" height="315" viewBox="0 0 562 315" fill="none" xmlns="http://www.w3.org/2000/svg">
<g clip-path="url(#clip0_1144_203)">
<path d="M221 186.667C221 174.349 217.587 162.272 211.14 151.775C204.693 141.279 195.465 132.774 184.478 127.205C173.491 121.635 161.176 119.218 148.899 120.222C136.622 121.226 124.864 125.612 114.928 132.893C104.992 140.173 97.2677 150.065 92.6119 161.469C87.9562 172.873 86.551 185.344 88.5524 197.498C90.5537 209.653 95.8834 221.015 103.95 230.324C112.016 239.633 122.504 246.526 134.25 250.236L154.333 186.667H221Z" fill="#D8D7E9"/>
<path d="M134.25 250.236C144.239 253.391 154.83 254.149 165.165 252.447C175.501 250.745 185.29 246.632 193.739 240.44C202.188 234.249 209.059 226.154 213.796 216.811C218.532 207.468 221 197.141 221 186.666H154.334L134.25 250.236Z" fill="#37A3E2"/>
<path d="M169.345 217.573C169.345 218.217 169.149 218.732 168.757 219.115C168.374 219.498 167.899 219.76 167.333 219.899V219.938C168.082 220.025 168.648 220.252 169.032 220.618C169.424 220.984 169.62 221.476 169.62 222.095C169.62 222.635 169.485 223.123 169.215 223.559C168.953 223.986 168.544 224.326 167.986 224.578C167.437 224.822 166.727 224.944 165.856 224.944C164.845 224.944 163.947 224.774 163.163 224.434V222.761C163.564 222.962 163.982 223.114 164.418 223.219C164.862 223.323 165.272 223.376 165.646 223.376C166.352 223.376 166.845 223.254 167.123 223.01C167.411 222.766 167.555 222.422 167.555 221.977C167.555 221.716 167.489 221.498 167.359 221.324C167.228 221.141 166.997 221.006 166.666 220.919C166.344 220.823 165.89 220.775 165.307 220.775H164.601V219.259H165.32C165.895 219.259 166.33 219.206 166.627 219.102C166.932 218.989 167.136 218.84 167.241 218.657C167.354 218.466 167.411 218.248 167.411 218.004C167.411 217.673 167.306 217.416 167.097 217.233C166.897 217.041 166.557 216.945 166.078 216.945C165.633 216.945 165.246 217.024 164.915 217.181C164.592 217.329 164.318 217.477 164.091 217.625L163.176 216.266C163.542 216.004 163.969 215.786 164.457 215.612C164.954 215.438 165.542 215.351 166.222 215.351C167.18 215.351 167.938 215.547 168.496 215.939C169.062 216.322 169.345 216.867 169.345 217.573ZM177.008 220.147C177.008 221.149 176.899 222.008 176.681 222.722C176.472 223.437 176.128 223.986 175.649 224.369C175.178 224.752 174.542 224.944 173.74 224.944C172.616 224.944 171.793 224.522 171.27 223.676C170.747 222.822 170.486 221.646 170.486 220.147C170.486 219.137 170.59 218.274 170.8 217.56C171.009 216.845 171.353 216.296 171.832 215.913C172.311 215.529 172.947 215.338 173.74 215.338C174.856 215.338 175.679 215.76 176.211 216.605C176.742 217.451 177.008 218.631 177.008 220.147ZM172.446 220.147C172.446 221.21 172.538 222.012 172.721 222.552C172.904 223.084 173.244 223.35 173.74 223.35C174.228 223.35 174.568 223.084 174.76 222.552C174.951 222.021 175.047 221.219 175.047 220.147C175.047 219.084 174.951 218.283 174.76 217.743C174.568 217.202 174.228 216.932 173.74 216.932C173.244 216.932 172.904 217.202 172.721 217.743C172.538 218.283 172.446 219.084 172.446 220.147ZM179.965 215.351C180.697 215.351 181.25 215.608 181.625 216.122C182.008 216.627 182.2 217.342 182.2 218.265C182.2 219.189 182.022 219.912 181.664 220.435C181.307 220.949 180.741 221.206 179.965 221.206C179.251 221.206 178.706 220.949 178.331 220.435C177.957 219.912 177.769 219.189 177.769 218.265C177.769 217.342 177.944 216.627 178.292 216.122C178.641 215.608 179.198 215.351 179.965 215.351ZM186.592 215.481L181.416 224.813H179.887L185.062 215.481H186.592ZM179.978 216.684C179.577 216.684 179.377 217.215 179.377 218.278C179.377 219.35 179.577 219.886 179.978 219.886C180.388 219.886 180.593 219.35 180.593 218.278C180.593 217.215 180.388 216.684 179.978 216.684ZM186.5 219.076C187.232 219.076 187.785 219.333 188.16 219.847C188.543 220.352 188.735 221.067 188.735 221.99C188.735 222.914 188.557 223.637 188.199 224.16C187.842 224.674 187.276 224.931 186.5 224.931C185.786 224.931 185.241 224.674 184.866 224.16C184.492 223.637 184.304 222.914 184.304 221.99C184.304 221.067 184.479 220.352 184.827 219.847C185.176 219.333 185.733 219.076 186.5 219.076ZM186.513 220.409C186.112 220.409 185.912 220.94 185.912 222.003C185.912 223.075 186.112 223.611 186.513 223.611C186.923 223.611 187.128 223.075 187.128 222.003C187.128 220.94 186.923 220.409 186.513 220.409Z" fill="white"/>
<path d="M140.958 290.812H139.834V292.746H137.913V290.812H133.926V289.439L138.017 283.414H139.834V289.283H140.958V290.812ZM137.913 287.701C137.913 287.501 137.917 287.257 137.926 286.969C137.934 286.682 137.943 286.416 137.952 286.172C137.969 285.919 137.982 285.754 137.991 285.675H137.939C137.86 285.849 137.778 286.019 137.69 286.185C137.603 286.35 137.499 286.52 137.377 286.695L135.665 289.283H137.913V287.701ZM144.503 286.708H146.242V288.812H144.503V286.708ZM150.032 281.793H151.77V288.799H150.032V281.793ZM141.772 287.257L141.589 286.054C142.364 286.054 143.188 286.05 144.059 286.041C144.93 286.032 145.815 286.011 146.712 285.976C147.61 285.941 148.481 285.884 149.326 285.806L149.418 286.878C148.546 287 147.666 287.087 146.778 287.139C145.889 287.191 145.022 287.226 144.177 287.244C143.331 287.252 142.53 287.257 141.772 287.257ZM143.314 289.178H151.77V292.014H145.052V292.968H143.327V290.916H150.058V290.354H143.314V289.178ZM143.327 292.628H152.058V293.831H143.327V292.628ZM147.902 287.4H150.568V288.446H147.902V287.4ZM145.431 281.976C146.033 281.976 146.56 282.05 147.013 282.199C147.466 282.347 147.819 282.556 148.072 282.826C148.324 283.096 148.451 283.418 148.451 283.793C148.451 284.159 148.324 284.477 148.072 284.747C147.819 285.017 147.466 285.226 147.013 285.375C146.56 285.523 146.033 285.597 145.431 285.597C144.83 285.597 144.299 285.523 143.837 285.375C143.384 285.226 143.031 285.017 142.778 284.747C142.525 284.477 142.399 284.159 142.399 283.793C142.399 283.418 142.525 283.096 142.778 282.826C143.031 282.556 143.384 282.347 143.837 282.199C144.299 282.05 144.83 281.976 145.431 281.976ZM145.431 283.113C145.004 283.113 144.66 283.17 144.399 283.283C144.146 283.397 144.02 283.567 144.02 283.793C144.02 284.011 144.146 284.176 144.399 284.29C144.66 284.403 145.004 284.46 145.431 284.46C145.867 284.46 146.207 284.403 146.451 284.29C146.704 284.176 146.83 284.011 146.83 283.793C146.83 283.567 146.704 283.397 146.451 283.283C146.207 283.17 145.867 283.113 145.431 283.113ZM165.046 281.78H166.784V293.922H165.046V281.78ZM160.262 282.63C160.881 282.63 161.429 282.808 161.909 283.166C162.388 283.514 162.763 284.015 163.033 284.669C163.312 285.314 163.451 286.076 163.451 286.956C163.451 287.845 163.312 288.616 163.033 289.269C162.763 289.914 162.388 290.415 161.909 290.773C161.429 291.121 160.881 291.295 160.262 291.295C159.652 291.295 159.107 291.121 158.628 290.773C158.149 290.415 157.77 289.914 157.491 289.269C157.221 288.616 157.086 287.845 157.086 286.956C157.086 286.076 157.221 285.314 157.491 284.669C157.77 284.015 158.149 283.514 158.628 283.166C159.107 282.808 159.652 282.63 160.262 282.63ZM160.262 284.211C159.966 284.211 159.704 284.316 159.478 284.525C159.251 284.734 159.072 285.043 158.942 285.453C158.82 285.854 158.759 286.355 158.759 286.956C158.759 287.549 158.82 288.054 158.942 288.472C159.072 288.882 159.251 289.191 159.478 289.4C159.704 289.609 159.966 289.714 160.262 289.714C160.567 289.714 160.833 289.609 161.059 289.4C161.286 289.191 161.46 288.882 161.582 288.472C161.713 288.054 161.778 287.549 161.778 286.956C161.778 286.355 161.713 285.854 161.582 285.453C161.46 285.043 161.286 284.734 161.059 284.525C160.833 284.316 160.567 284.211 160.262 284.211ZM175.122 284.93H177.932V286.329H175.122V284.93ZM177.017 281.806H178.768V290.629H177.017V281.806ZM170.769 292.302H179.043V293.7H170.769V292.302ZM170.769 289.884H172.508V293.125H170.769V289.884ZM171.436 283.388H172.847V284.146C172.847 284.913 172.725 285.64 172.481 286.329C172.237 287.017 171.863 287.623 171.357 288.145C170.861 288.66 170.22 289.047 169.436 289.309L168.573 287.923C169.07 287.758 169.497 287.544 169.854 287.283C170.22 287.013 170.517 286.708 170.743 286.368C170.978 286.028 171.153 285.671 171.266 285.296C171.379 284.921 171.436 284.538 171.436 284.146V283.388ZM171.802 283.388H173.187V284.146C173.187 284.617 173.283 285.087 173.475 285.558C173.666 286.019 173.963 286.442 174.363 286.825C174.773 287.2 175.296 287.496 175.932 287.714L175.082 289.06C174.333 288.808 173.714 288.437 173.226 287.949C172.747 287.453 172.39 286.878 172.155 286.224C171.919 285.562 171.802 284.869 171.802 284.146V283.388ZM169.044 282.617H175.553V284.002H169.044V282.617Z" fill="#222222"/>
<path d="M490.027 136.667C490.027 107.705 479.255 79.7778 459.805 58.3183C440.355 36.8588 413.619 23.4008 384.796 20.562C355.973 17.7233 327.125 25.7066 303.863 42.9593C280.6 60.2121 264.586 85.5006 258.936 113.906L373.361 136.667H490.027Z" fill="#D8D7E9"/>
<path d="M259.909 113.906C256.732 129.879 256.934 146.339 260.502 162.229C264.07 178.118 270.925 193.085 280.626 206.165C290.327 219.245 302.659 230.15 316.829 238.177C330.998 246.204 346.691 251.175 362.898 252.771C379.105 254.368 395.466 252.553 410.93 247.445C426.393 242.337 440.615 234.047 452.682 223.111C464.748 212.174 474.392 198.833 480.991 183.945C487.59 169.057 491 152.952 491 136.667H374.333L259.909 113.906Z" fill="#37A3E2"/>
<path d="M353.994 189.08C355.301 189.08 356.467 189.332 357.493 189.834C358.518 190.337 359.322 191.071 359.906 192.036C360.509 193.001 360.81 194.198 360.81 195.625C360.81 197.958 360.087 199.798 358.639 201.145C357.191 202.472 355.049 203.136 352.214 203.136C351.088 203.136 350.023 203.035 349.017 202.834C348.032 202.633 347.167 202.341 346.423 201.959V198.038C347.167 198.42 348.062 198.752 349.108 199.034C350.153 199.295 351.139 199.426 352.063 199.426C353.411 199.426 354.436 199.154 355.14 198.611C355.864 198.048 356.226 197.184 356.226 196.017C356.226 193.846 354.788 192.76 351.913 192.76C351.35 192.76 350.767 192.82 350.163 192.941C349.56 193.041 349.057 193.142 348.655 193.243L346.846 192.277L347.66 181.299H359.332V185.159H351.641L351.249 189.382C351.591 189.322 351.953 189.261 352.335 189.201C352.737 189.12 353.29 189.08 353.994 189.08ZM377.317 186.124C377.317 187.612 376.864 188.799 375.96 189.683C375.075 190.568 373.979 191.171 372.672 191.493V191.584C374.401 191.785 375.708 192.308 376.593 193.152C377.498 193.997 377.95 195.133 377.95 196.56C377.95 197.807 377.639 198.933 377.015 199.938C376.412 200.924 375.467 201.708 374.18 202.291C372.913 202.854 371.274 203.136 369.264 203.136C366.931 203.136 364.86 202.743 363.05 201.959V198.099C363.975 198.561 364.94 198.913 365.946 199.154C366.971 199.396 367.916 199.516 368.781 199.516C370.41 199.516 371.546 199.235 372.189 198.672C372.853 198.109 373.185 197.314 373.185 196.289C373.185 195.686 373.034 195.183 372.732 194.781C372.431 194.359 371.898 194.047 371.134 193.846C370.39 193.625 369.344 193.514 367.997 193.514H366.368V190.015H368.027C369.354 190.015 370.36 189.895 371.043 189.653C371.747 189.392 372.22 189.05 372.461 188.628C372.722 188.185 372.853 187.683 372.853 187.12C372.853 186.356 372.612 185.762 372.129 185.34C371.667 184.898 370.882 184.677 369.776 184.677C368.751 184.677 367.856 184.858 367.092 185.22C366.348 185.561 365.715 185.903 365.192 186.245L363.081 183.108C363.925 182.505 364.91 182.002 366.036 181.6C367.183 181.198 368.54 180.997 370.108 180.997C372.32 180.997 374.069 181.449 375.356 182.354C376.663 183.239 377.317 184.496 377.317 186.124ZM384.865 180.997C386.554 180.997 387.831 181.59 388.696 182.776C389.581 183.943 390.023 185.592 390.023 187.723C390.023 189.854 389.611 191.523 388.786 192.73C387.962 193.916 386.655 194.509 384.865 194.509C383.216 194.509 381.96 193.916 381.095 192.73C380.23 191.523 379.798 189.854 379.798 187.723C379.798 185.592 380.2 183.943 381.005 182.776C381.809 181.59 383.096 180.997 384.865 180.997ZM400.157 181.299L388.213 202.834H384.684L396.628 181.299H400.157ZM384.895 184.073C383.971 184.073 383.508 185.3 383.508 187.753C383.508 190.226 383.971 191.463 384.895 191.463C385.841 191.463 386.313 190.226 386.313 187.753C386.313 185.3 385.841 184.073 384.895 184.073ZM399.946 189.593C401.635 189.593 402.912 190.186 403.777 191.373C404.661 192.539 405.104 194.188 405.104 196.319C405.104 198.45 404.692 200.119 403.867 201.326C403.043 202.512 401.736 203.105 399.946 203.105C398.297 203.105 397.041 202.512 396.176 201.326C395.311 200.119 394.879 198.45 394.879 196.319C394.879 194.188 395.281 192.539 396.085 191.373C396.89 190.186 398.177 189.593 399.946 189.593ZM399.976 192.669C399.051 192.669 398.589 193.896 398.589 196.349C398.589 198.822 399.051 200.059 399.976 200.059C400.921 200.059 401.394 198.822 401.394 196.349C401.394 193.896 400.921 192.669 399.976 192.669Z" fill="white"/>
<path d="M361.991 290.812H360.867V292.746H358.946V290.812H354.959V289.439L359.05 283.414H360.867V289.283H361.991V290.812ZM358.946 287.701C358.946 287.501 358.95 287.257 358.959 286.969C358.967 286.682 358.976 286.416 358.985 286.172C359.002 285.919 359.015 285.754 359.024 285.675H358.972C358.893 285.849 358.811 286.019 358.723 286.185C358.636 286.35 358.532 286.52 358.41 286.695L356.698 289.283H358.946V287.701ZM365.536 286.708H367.275V288.812H365.536V286.708ZM371.065 281.793H372.803V288.799H371.065V281.793ZM362.805 287.257L362.622 286.054C363.397 286.054 364.221 286.05 365.092 286.041C365.963 286.032 366.848 286.011 367.745 285.976C368.643 285.941 369.514 285.884 370.359 285.806L370.451 286.878C369.579 287 368.699 287.087 367.811 287.139C366.922 287.191 366.055 287.226 365.21 287.244C364.364 287.252 363.563 287.257 362.805 287.257ZM364.347 289.178H372.803V292.014H366.085V292.968H364.36V290.916H371.091V290.354H364.347V289.178ZM364.36 292.628H373.091V293.831H364.36V292.628ZM368.935 287.4H371.601V288.446H368.935V287.4ZM366.464 281.976C367.066 281.976 367.593 282.05 368.046 282.199C368.499 282.347 368.852 282.556 369.105 282.826C369.357 283.096 369.484 283.418 369.484 283.793C369.484 284.159 369.357 284.477 369.105 284.747C368.852 285.017 368.499 285.226 368.046 285.375C367.593 285.523 367.066 285.597 366.464 285.597C365.863 285.597 365.332 285.523 364.87 285.375C364.417 285.226 364.064 285.017 363.811 284.747C363.558 284.477 363.432 284.159 363.432 283.793C363.432 283.418 363.558 283.096 363.811 282.826C364.064 282.556 364.417 282.347 364.87 282.199C365.332 282.05 365.863 281.976 366.464 281.976ZM366.464 283.113C366.037 283.113 365.693 283.17 365.432 283.283C365.179 283.397 365.053 283.567 365.053 283.793C365.053 284.011 365.179 284.176 365.432 284.29C365.693 284.403 366.037 284.46 366.464 284.46C366.9 284.46 367.24 284.403 367.484 284.29C367.737 284.176 367.863 284.011 367.863 283.793C367.863 283.567 367.737 283.397 367.484 283.283C367.24 283.17 366.9 283.113 366.464 283.113ZM386.078 281.78H387.817V293.922H386.078V281.78ZM381.295 282.63C381.913 282.63 382.462 282.808 382.942 283.166C383.421 283.514 383.796 284.015 384.066 284.669C384.345 285.314 384.484 286.076 384.484 286.956C384.484 287.845 384.345 288.616 384.066 289.269C383.796 289.914 383.421 290.415 382.942 290.773C382.462 291.121 381.913 291.295 381.295 291.295C380.685 291.295 380.14 291.121 379.661 290.773C379.182 290.415 378.803 289.914 378.524 289.269C378.254 288.616 378.119 287.845 378.119 286.956C378.119 286.076 378.254 285.314 378.524 284.669C378.803 284.015 379.182 283.514 379.661 283.166C380.14 282.808 380.685 282.63 381.295 282.63ZM381.295 284.211C380.999 284.211 380.737 284.316 380.511 284.525C380.284 284.734 380.105 285.043 379.975 285.453C379.853 285.854 379.792 286.355 379.792 286.956C379.792 287.549 379.853 288.054 379.975 288.472C380.105 288.882 380.284 289.191 380.511 289.4C380.737 289.609 380.999 289.714 381.295 289.714C381.6 289.714 381.866 289.609 382.092 289.4C382.319 289.191 382.493 288.882 382.615 288.472C382.746 288.054 382.811 287.549 382.811 286.956C382.811 286.355 382.746 285.854 382.615 285.453C382.493 285.043 382.319 284.734 382.092 284.525C381.866 284.316 381.6 284.211 381.295 284.211ZM390.181 283.061H400.049V284.42H390.181V283.061ZM389.672 289.635H400.638V291.021H389.672V289.635ZM394.272 290.864H395.998V293.909H394.272V290.864ZM395.148 284.891C396.446 284.891 397.461 285.07 398.193 285.427C398.925 285.784 399.291 286.298 399.291 286.969C399.291 287.64 398.925 288.158 398.193 288.524C397.461 288.882 396.442 289.06 395.135 289.06C393.837 289.06 392.822 288.882 392.09 288.524C391.358 288.158 390.992 287.64 390.992 286.969C390.992 286.298 391.358 285.784 392.09 285.427C392.822 285.07 393.841 284.891 395.148 284.891ZM395.135 286.185C394.351 286.185 393.763 286.246 393.371 286.368C392.987 286.49 392.795 286.69 392.795 286.969C392.795 287.239 392.987 287.44 393.371 287.57C393.763 287.701 394.351 287.766 395.135 287.766C395.928 287.766 396.516 287.701 396.899 287.57C397.292 287.44 397.488 287.239 397.488 286.969C397.488 286.69 397.292 286.49 396.899 286.368C396.516 286.246 395.928 286.185 395.135 286.185ZM394.272 281.793H395.998V283.963H394.272V281.793Z" fill="#222222"/>
</g>
<defs>
<clipPath id="clip0_1144_203">
<rect width="562" height="315" fill="white"/>
</clipPath>
</defs>
</svg>
