<svg width="562" height="315" viewBox="0 0 562 315" fill="none" xmlns="http://www.w3.org/2000/svg">
<rect x="26.0244" y="26.0244" width="262.96" height="71.0968" rx="12.0484" fill="#37A3E2"/>
<path d="M63.1691 42.9321H65.2522V57.4829H63.1691V42.9321ZM60.6003 48.5081H63.6389V50.1997H60.6003V48.5081ZM56.434 46.7225H58.0473V47.4743C58.0473 48.2366 57.9637 48.9884 57.7967 49.7298C57.64 50.4711 57.3947 51.1708 57.0605 51.8286C56.7368 52.4864 56.3244 53.0712 55.8232 53.5828C55.3324 54.0945 54.7581 54.4965 54.1002 54.7889L52.9882 53.1756C53.5729 52.9146 54.0793 52.5752 54.5075 52.1575C54.946 51.7294 55.3063 51.2595 55.5882 50.7479C55.8701 50.2258 56.079 49.688 56.2147 49.1346C56.3609 48.5707 56.434 48.0173 56.434 47.4743V46.7225ZM56.8726 46.7225H58.5015V47.4743C58.5015 47.986 58.5694 48.5133 58.7051 49.0563C58.8513 49.5888 59.0654 50.1057 59.3473 50.6069C59.6292 51.0977 59.9843 51.5467 60.4124 51.9539C60.8509 52.3611 61.3626 52.6953 61.9473 52.9563L60.8666 54.5383C60.1983 54.2563 59.6136 53.87 59.1124 53.3792C58.6216 52.8885 58.2091 52.3246 57.875 51.6876C57.5409 51.0507 57.2902 50.3772 57.1232 49.6671C56.9561 48.9466 56.8726 48.2157 56.8726 47.4743V46.7225ZM53.4737 45.3128H61.3835V46.9574H53.4737V45.3128ZM56.4183 43.2923H58.5015V46.1743H56.4183V43.2923ZM73.8813 43.2297C74.9568 43.2297 75.8861 43.3445 76.6693 43.5742C77.4524 43.7935 78.058 44.1172 78.4862 44.5453C78.9247 44.963 79.144 45.4642 79.144 46.049C79.144 46.6337 78.9247 47.1402 78.4862 47.5683C78.058 47.986 77.4524 48.3097 76.6693 48.5394C75.8861 48.7691 74.9568 48.884 73.8813 48.884C72.8266 48.884 71.9025 48.7691 71.1089 48.5394C70.3153 48.3097 69.7045 47.986 69.2764 47.5683C68.8482 47.1402 68.6342 46.6337 68.6342 46.049C68.6342 45.4642 68.8482 44.963 69.2764 44.5453C69.7045 44.1172 70.3153 43.7935 71.1089 43.5742C71.9025 43.3445 72.8266 43.2297 73.8813 43.2297ZM73.8813 44.8273C73.2339 44.8273 72.6752 44.8743 72.2053 44.9682C71.7354 45.0518 71.3804 45.1823 71.1403 45.3598C70.9105 45.5373 70.7957 45.767 70.7957 46.049C70.7957 46.3205 70.9105 46.5502 71.1403 46.7382C71.3804 46.9157 71.7354 47.0514 72.2053 47.1454C72.6752 47.2289 73.2339 47.2707 73.8813 47.2707C74.5495 47.2707 75.1134 47.2289 75.5729 47.1454C76.0323 47.0514 76.3821 46.9157 76.6223 46.7382C76.8624 46.5502 76.9825 46.3205 76.9825 46.049C76.9825 45.767 76.8624 45.5373 76.6223 45.3598C76.3821 45.1823 76.0323 45.0518 75.5729 44.9682C75.1134 44.8743 74.5495 44.8273 73.8813 44.8273ZM68.8535 52.3611H78.8777V57.3106H68.8535V52.3611ZM76.8415 54.0057H70.8896V55.666H76.8415V54.0057ZM67.3185 49.7141H80.444V51.343H67.3185V49.7141ZM87.3971 46.8791H89.6213V48.555H87.3971V46.8791ZM84.938 43.9971C85.5854 43.9971 86.1545 44.1538 86.6453 44.467C87.1465 44.7803 87.5381 45.2136 87.82 45.767C88.1124 46.31 88.2586 46.9418 88.2586 47.6623C88.2586 48.3723 88.1124 49.0041 87.82 49.5575C87.5381 50.1109 87.1465 50.5442 86.6453 50.8575C86.1545 51.1708 85.5854 51.3274 84.938 51.3274C84.3011 51.3274 83.732 51.1708 83.2308 50.8575C82.7296 50.5442 82.338 50.1109 82.0561 49.5575C81.7741 49.0041 81.6332 48.3723 81.6332 47.6623C81.6332 46.9418 81.7741 46.31 82.0561 45.767C82.338 45.2136 82.7296 44.7803 83.2308 44.467C83.732 44.1538 84.3011 43.9971 84.938 43.9971ZM84.938 45.7984C84.6561 45.7984 84.4055 45.8715 84.1862 46.0177C83.9669 46.1638 83.7947 46.3779 83.6694 46.6598C83.5545 46.9313 83.4971 47.2655 83.4971 47.6623C83.4971 48.0591 83.5545 48.3984 83.6694 48.6804C83.7947 48.9623 83.9669 49.1763 84.1862 49.3225C84.4055 49.4687 84.6561 49.5418 84.938 49.5418C85.22 49.5418 85.4706 49.4687 85.6899 49.3225C85.9091 49.1763 86.0814 48.9623 86.2067 48.6804C86.332 48.3984 86.3947 48.0591 86.3947 47.6623C86.3947 47.2655 86.332 46.9313 86.2067 46.6598C86.0814 46.3779 85.9091 46.1638 85.6899 46.0177C85.4706 45.8715 85.22 45.7984 84.938 45.7984ZM91.955 42.9634H93.9442V53.7395H91.955V42.9634ZM89.0887 43.1983H91.0466V53.3166H89.0887V43.1983ZM84.1706 55.5407H94.3045V57.2166H84.1706V55.5407ZM84.1706 52.3768H86.2694V56.4178H84.1706V52.3768ZM103.713 43.9502C104.433 43.9502 105.076 44.1642 105.64 44.5923C106.214 45.01 106.658 45.6104 106.971 46.3936C107.295 47.1663 107.456 48.0799 107.456 49.1346C107.456 50.1997 107.295 51.1238 106.971 51.9069C106.658 52.6796 106.214 53.28 105.64 53.7081C105.076 54.1258 104.433 54.3347 103.713 54.3347C102.992 54.3347 102.35 54.1258 101.786 53.7081C101.223 53.28 100.779 52.6796 100.455 51.9069C100.131 51.1238 99.9695 50.1997 99.9695 49.1346C99.9695 48.0799 100.131 47.1663 100.455 46.3936C100.779 45.6104 101.223 45.01 101.786 44.5923C102.35 44.1642 102.992 43.9502 103.713 43.9502ZM103.713 45.8454C103.368 45.8454 103.06 45.9707 102.789 46.2213C102.528 46.4719 102.324 46.8426 102.178 47.3333C102.032 47.8137 101.959 48.4141 101.959 49.1346C101.959 49.8446 102.032 50.4503 102.178 50.9515C102.324 51.4422 102.528 51.8129 102.789 52.0635C103.06 52.3141 103.368 52.4394 103.713 52.4394C104.078 52.4394 104.392 52.3141 104.653 52.0635C104.914 51.8129 105.117 51.4422 105.264 50.9515C105.41 50.4503 105.483 49.8446 105.483 49.1346C105.483 48.4141 105.41 47.8137 105.264 47.3333C105.117 46.8426 104.914 46.4719 104.653 46.2213C104.392 45.9707 104.078 45.8454 103.713 45.8454ZM109.837 42.9321H111.92V57.4829H109.837V42.9321ZM106.846 48.1791H110.714V49.8394H106.846V48.1791ZM116.602 43.7779H118.231V45.4538C118.231 46.2787 118.116 47.0827 117.887 47.8659C117.657 48.649 117.297 49.3486 116.806 49.9647C116.326 50.5808 115.689 51.0611 114.895 51.4057L113.799 49.7924C114.467 49.4896 115.005 49.1032 115.412 48.6334C115.83 48.1635 116.132 47.6518 116.32 47.0984C116.508 46.545 116.602 45.9968 116.602 45.4538V43.7779ZM116.994 43.7779H118.623V45.4538C118.623 45.9863 118.712 46.5084 118.889 47.0201C119.067 47.5213 119.354 47.9807 119.751 48.3984C120.147 48.8161 120.664 49.1607 121.301 49.4322L120.205 51.0141C119.453 50.7009 118.837 50.2623 118.357 49.6984C117.887 49.1241 117.542 48.4767 117.323 47.7562C117.104 47.0253 116.994 46.2578 116.994 45.4538V43.7779ZM124.371 42.9634H126.36V51.7659H124.371V42.9634ZM122.648 46.4875H124.951V48.1635H122.648V46.4875ZM121.317 43.1827H123.259V51.6876H121.317V43.1827ZM116.383 52.3925H126.36V57.4672H124.277V54.0527H116.383V52.3925ZM138.623 42.9634H140.612V51.8912H138.623V42.9634ZM136.869 46.6755H139.171V48.3514H136.869V46.6755ZM135.632 43.1513H137.574V51.7346H135.632V43.1513ZM128.176 44.3574H135.224V45.955H128.176V44.3574ZM131.716 46.4092C132.332 46.4092 132.875 46.5189 133.345 46.7382C133.815 46.947 134.18 47.2446 134.441 47.6309C134.713 48.0068 134.848 48.4454 134.848 48.9466C134.848 49.4374 134.713 49.876 134.441 50.2623C134.18 50.6382 133.815 50.9358 133.345 51.1551C132.875 51.3639 132.332 51.4683 131.716 51.4683C131.121 51.4683 130.583 51.3639 130.103 51.1551C129.633 50.9358 129.262 50.6382 128.99 50.2623C128.719 49.876 128.583 49.4374 128.583 48.9466C128.583 48.4454 128.719 48.0068 128.99 47.6309C129.262 47.2446 129.633 46.947 130.103 46.7382C130.583 46.5189 131.121 46.4092 131.716 46.4092ZM131.716 47.8972C131.34 47.8972 131.032 47.986 130.792 48.1635C130.562 48.341 130.447 48.602 130.447 48.9466C130.447 49.2808 130.562 49.5418 130.792 49.7298C131.032 49.9073 131.34 49.996 131.716 49.996C132.092 49.996 132.4 49.9073 132.64 49.7298C132.88 49.5418 133 49.2808 133 48.9466C133 48.602 132.88 48.341 132.64 48.1635C132.4 47.986 132.092 47.8972 131.716 47.8972ZM130.682 43.0574H132.734V45.4851H130.682V43.0574ZM131.747 52.3455H133.313V52.6274C133.313 53.3061 133.193 53.9587 132.953 54.5853C132.723 55.2013 132.368 55.7443 131.888 56.2142C131.408 56.6841 130.786 57.0391 130.024 57.2793L129.053 55.76C129.69 55.572 130.202 55.3162 130.588 54.9925C130.985 54.6584 131.277 54.2877 131.465 53.8804C131.653 53.4732 131.747 53.0555 131.747 52.6274V52.3455ZM132.28 52.3455H133.768V52.6274C133.768 53.0555 133.851 53.4836 134.018 53.9118C134.185 54.3294 134.446 54.7106 134.801 55.0552C135.156 55.3997 135.621 55.6817 136.195 55.901L135.381 57.4203C134.629 57.1592 134.023 56.7781 133.564 56.2769C133.115 55.7756 132.786 55.2118 132.577 54.5853C132.379 53.9483 132.28 53.2957 132.28 52.6274V52.3455ZM136.979 52.3455H138.467V52.6274C138.467 53.2435 138.362 53.8752 138.153 54.5226C137.944 55.1596 137.615 55.7339 137.166 56.2455C136.717 56.7572 136.122 57.1488 135.381 57.4203L134.551 55.901C135.125 55.6608 135.59 55.3632 135.945 55.0082C136.3 54.6427 136.561 54.2511 136.728 53.8334C136.895 53.4158 136.979 53.0138 136.979 52.6274V52.3455ZM137.48 52.3455H139.03V52.6274C139.03 53.0764 139.124 53.5097 139.312 53.9274C139.5 54.3451 139.793 54.7158 140.189 55.0395C140.597 55.3527 141.114 55.5929 141.74 55.76L140.753 57.2793C139.991 57.0391 139.37 56.6893 138.889 56.2299C138.409 55.7809 138.054 55.2483 137.824 54.6323C137.595 54.0162 137.48 53.3479 137.48 52.6274V52.3455ZM144.12 46.8635H154.175V48.5237H144.12V46.8635ZM142.506 50.0274H155.632V51.6876H142.506V50.0274ZM144.12 43.4646H146.203V47.6936H144.12V43.4646ZM143.994 55.4781H154.254V57.154H143.994V55.4781ZM143.994 52.831H146.077V55.9323H143.994V52.831ZM167.237 42.9477H169.21V57.4516H167.237V42.9477ZM161.723 48.2418H165.091V49.9177H161.723V48.2418ZM164.23 43.214H166.172V56.8251H164.23V43.214ZM157.166 52.5334H158.184C158.862 52.5334 159.478 52.523 160.032 52.5021C160.596 52.4812 161.128 52.4447 161.63 52.3925C162.141 52.3402 162.658 52.2619 163.18 52.1575L163.352 53.8491C162.809 53.964 162.277 54.0475 161.755 54.0997C161.233 54.1519 160.679 54.1885 160.095 54.2094C159.52 54.2302 158.883 54.2407 158.184 54.2407H157.166V52.5334ZM157.166 44.5923H162.71V46.2369H159.217V53.2539H157.166V44.5923ZM173.877 54.4286C173.741 54.9821 173.548 55.5877 173.297 56.2455C173.047 56.9034 172.791 57.5195 172.53 58.0938H170.854C171 57.4777 171.146 56.8198 171.292 56.1202C171.438 55.4206 171.548 54.7993 171.621 54.2563H173.767L173.877 54.4286ZM186.594 47.396C186.594 48.1687 186.359 48.7848 185.889 49.2442C185.429 49.7037 184.86 50.0169 184.182 50.184V50.231C185.08 50.3354 185.758 50.6069 186.218 51.0454C186.688 51.484 186.923 52.074 186.923 52.8154C186.923 53.4628 186.761 54.0475 186.437 54.5696C186.124 55.0813 185.633 55.4885 184.965 55.7913C184.307 56.0837 183.456 56.2299 182.412 56.2299C181.2 56.2299 180.125 56.0263 179.185 55.619V53.6142C179.666 53.8543 180.167 54.0371 180.689 54.1624C181.221 54.2877 181.712 54.3503 182.161 54.3503C183.007 54.3503 183.597 54.2041 183.931 53.9118C184.276 53.6194 184.448 53.2069 184.448 52.6744C184.448 52.3611 184.37 52.1001 184.213 51.8912C184.056 51.672 183.78 51.5101 183.383 51.4057C182.996 51.2908 182.453 51.2334 181.754 51.2334H180.908V49.4165H181.77C182.459 49.4165 182.981 49.3539 183.336 49.2286C183.701 49.0928 183.947 48.9153 184.072 48.696C184.208 48.4663 184.276 48.2052 184.276 47.9129C184.276 47.5161 184.15 47.208 183.9 46.9888C183.66 46.759 183.252 46.6442 182.678 46.6442C182.145 46.6442 181.681 46.7381 181.284 46.9261C180.898 47.1036 180.569 47.2811 180.297 47.4586L179.201 45.8297C179.639 45.5164 180.151 45.2554 180.736 45.0466C181.331 44.8377 182.036 44.7333 182.85 44.7333C183.999 44.7333 184.907 44.9682 185.576 45.4381C186.254 45.8976 186.594 46.5502 186.594 47.396ZM194.884 46.8008H198.611V48.4767H194.884V46.8008ZM198.079 42.9634H200.178V53.6612H198.079V42.9634ZM190.576 55.5407H200.491V57.2166H190.576V55.5407ZM190.576 52.6117H192.659V56.4961H190.576V52.6117ZM188.634 43.9188H190.702V46.1116H193.458V43.9188H195.51V51.4057H188.634V43.9188ZM190.702 47.7092V49.7454H193.458V47.7092H190.702ZM208.725 46.9574H210.307V47.3333C210.307 48.0852 210.244 48.8318 210.119 49.5731C210.004 50.3041 209.816 50.9985 209.555 51.6563C209.304 52.3037 208.975 52.8937 208.568 53.4262C208.171 53.9483 207.68 54.3712 207.096 54.6949L205.921 53.1286C206.433 52.8258 206.866 52.4603 207.221 52.0322C207.586 51.6041 207.879 51.1342 208.098 50.6226C208.317 50.1005 208.474 49.5627 208.568 49.0093C208.672 48.4454 208.725 47.8868 208.725 47.3333V46.9574ZM209.132 46.9574H210.714V47.3333C210.714 47.8763 210.761 48.4193 210.855 48.9623C210.959 49.4948 211.121 50.0013 211.34 50.4816C211.56 50.9619 211.847 51.4057 212.202 51.8129C212.557 52.2097 212.99 52.5439 213.502 52.8154L212.374 54.366C211.601 53.9587 210.975 53.3949 210.495 52.6744C210.014 51.9435 209.664 51.1185 209.445 50.1997C209.236 49.2808 209.132 48.3253 209.132 47.3333V46.9574ZM206.407 45.4068H213.016V47.0827H206.407V45.4068ZM208.725 43.4333H210.714V46.7382H208.725V43.4333ZM216.775 42.9477H218.765V57.4516H216.775V42.9477ZM215.052 48.5081H217.449V50.1997H215.052V48.5081ZM213.658 43.1827H215.601V56.8094H213.658V43.1827ZM220.455 51.0611H233.581V52.737H220.455V51.0611ZM225.921 52.1575H228.005V57.4672H225.921V52.1575ZM226.986 43.4489C228.02 43.4489 228.929 43.5847 229.712 43.8562C230.505 44.1172 231.121 44.4931 231.56 44.9839C231.999 45.4747 232.218 46.049 232.218 46.7068C232.218 47.3751 231.999 47.9546 231.56 48.4454C231.121 48.9257 230.505 49.3016 229.712 49.5731C228.929 49.8342 228.02 49.9647 226.986 49.9647C225.953 49.9647 225.039 49.8342 224.245 49.5731C223.462 49.3016 222.846 48.9257 222.397 48.4454C221.959 47.9546 221.739 47.3751 221.739 46.7068C221.739 46.049 221.959 45.4747 222.397 44.9839C222.846 44.4931 223.462 44.1172 224.245 43.8562C225.039 43.5847 225.953 43.4489 226.986 43.4489ZM226.971 45.0935C226.344 45.0935 225.796 45.1562 225.326 45.2815C224.867 45.4068 224.512 45.5895 224.261 45.8297C224.01 46.0594 223.885 46.3518 223.885 46.7068C223.885 47.0514 224.01 47.3438 224.261 47.5839C224.512 47.8241 224.867 48.0068 225.326 48.1321C225.796 48.247 226.344 48.3044 226.971 48.3044C227.618 48.3044 228.172 48.247 228.631 48.1321C229.09 48.0068 229.445 47.8241 229.696 47.5839C229.957 47.3438 230.088 47.0514 230.088 46.7068C230.088 46.3518 229.957 46.0594 229.696 45.8297C229.445 45.5895 229.09 45.4068 228.631 45.2815C228.172 45.1562 227.618 45.0935 226.971 45.0935ZM244.763 42.9321H246.83V57.4829H244.763V42.9321ZM242.366 46.0333H245.107V47.6936H242.366V46.0333ZM235.193 52.5491H236.352C237.072 52.5491 237.756 52.5439 238.403 52.5334C239.051 52.5125 239.698 52.476 240.346 52.4238C240.993 52.3716 241.667 52.2933 242.366 52.1888L242.523 53.8804C241.813 53.9953 241.124 54.0788 240.455 54.131C239.797 54.1833 239.134 54.2198 238.466 54.2407C237.798 54.2616 237.093 54.272 236.352 54.272H235.193V52.5491ZM235.177 44.1694H241.646V49.7768H237.26V52.9407H235.193V48.1478H239.594V45.814H235.177V44.1694ZM242.335 49.9804H245.076V51.6406H242.335V49.9804ZM250.306 44.1851H259.484V45.8454H250.306V44.1851ZM248.959 54.0214H262.085V55.713H248.959V54.0214ZM253.595 49.0406H255.694V54.8672H253.595V49.0406ZM258.733 44.1851H260.831V45.5634C260.831 46.1691 260.821 46.8112 260.8 47.49C260.79 48.1687 260.743 48.9205 260.659 49.7454C260.586 50.5703 260.45 51.4945 260.252 52.5178L258.169 52.2985C258.461 50.8471 258.628 49.5836 258.67 48.5081C258.712 47.4221 258.733 46.4406 258.733 45.5634V44.1851ZM70.1786 71.4297H72.7317V73.1527H70.1786V71.4297ZM68.6123 65.9321H70.7112V80.4359H68.6123V65.9321ZM59.7941 67.3261H61.8616V76.3479H59.7941V67.3261ZM59.7941 75.1732H61.0315C62.0652 75.1732 63.1408 75.1314 64.2581 75.0479C65.3753 74.9643 66.5187 74.8077 67.6882 74.578L67.9075 76.2696C66.6962 76.5202 65.5163 76.6925 64.3677 76.7865C63.2191 76.87 62.107 76.9118 61.0315 76.9118H59.7941V75.1732ZM82.8644 65.9321H84.9632V80.4359H82.8644V65.9321ZM84.4307 71.4924H86.9837V73.1997H84.4307V71.4924ZM79.0583 67.4357H81.1101C81.1101 68.8871 80.9013 70.2602 80.4836 71.555C80.0764 72.8498 79.3976 74.0402 78.4474 75.1262C77.5077 76.2017 76.2337 77.1415 74.6257 77.9455L73.451 76.3636C74.7249 75.7057 75.7743 74.9643 76.5992 74.1394C77.4346 73.3145 78.0506 72.38 78.4474 71.3358C78.8547 70.2811 79.0583 69.1064 79.0583 67.8116V67.4357ZM74.2498 67.4357H80.139V69.1116H74.2498V67.4357ZM97.1164 65.9321H99.2152V80.4829H97.1164V65.9321ZM98.761 71.3044H101.314V73.0274H98.761V71.3044ZM88.4078 75.2828H89.6295C90.4544 75.2828 91.2271 75.2724 91.9476 75.2515C92.6681 75.2202 93.3677 75.1732 94.0465 75.1105C94.7252 75.0374 95.4196 74.9382 96.1296 74.8129L96.3332 76.5359C95.6023 76.6612 94.8818 76.7604 94.1718 76.8334C93.4722 76.9065 92.7517 76.9535 92.0103 76.9744C91.2689 76.9953 90.4753 77.0057 89.6295 77.0057H88.4078V75.2828ZM88.4078 67.2791H95.1742V68.955H90.491V76.0973H88.4078V67.2791ZM102.112 77.0841H115.253V78.7756H102.112V77.0841ZM107.625 73.9828H109.692V77.4913H107.625V73.9828ZM103.49 66.8718H105.573V69.1116H111.744V66.8718H113.812V74.4214H103.49V66.8718ZM105.573 70.7406V72.7611H111.744V70.7406H105.573ZM126.404 65.9477H128.471V80.4516H126.404V65.9477ZM117.115 67.3261H119.199V76.3479H117.115V67.3261ZM117.115 75.1105H118.4C119.465 75.1105 120.577 75.0688 121.736 74.9852C122.895 74.8912 124.075 74.7242 125.276 74.484L125.495 76.2226C124.263 76.4836 123.046 76.6612 121.846 76.7551C120.655 76.8387 119.507 76.8804 118.4 76.8804H117.115V75.1105ZM138.49 66.9502C139.211 66.9502 139.853 67.1642 140.417 67.5923C140.991 68.01 141.435 68.6104 141.748 69.3936C142.072 70.1663 142.234 71.0799 142.234 72.1346C142.234 73.1997 142.072 74.1238 141.748 74.9069C141.435 75.6796 140.991 76.28 140.417 76.7081C139.853 77.1258 139.211 77.3347 138.49 77.3347C137.77 77.3347 137.128 77.1258 136.564 76.7081C136 76.28 135.556 75.6796 135.233 74.9069C134.909 74.1238 134.747 73.1997 134.747 72.1346C134.747 71.0799 134.909 70.1663 135.233 69.3936C135.556 68.6104 136 68.01 136.564 67.5923C137.128 67.1642 137.77 66.9502 138.49 66.9502ZM138.49 68.8454C138.146 68.8454 137.838 68.9707 137.566 69.2213C137.305 69.4719 137.102 69.8426 136.955 70.3333C136.809 70.8137 136.736 71.4141 136.736 72.1346C136.736 72.8446 136.809 73.4503 136.955 73.9515C137.102 74.4422 137.305 74.8129 137.566 75.0635C137.838 75.3141 138.146 75.4394 138.49 75.4394C138.856 75.4394 139.169 75.3141 139.43 75.0635C139.691 74.8129 139.895 74.4422 140.041 73.9515C140.187 73.4503 140.26 72.8446 140.26 72.1346C140.26 71.4141 140.187 70.8137 140.041 70.3333C139.895 69.8426 139.691 69.4719 139.43 69.2213C139.169 68.9707 138.856 68.8454 138.49 68.8454ZM144.615 65.9321H146.698V80.4829H144.615V65.9321ZM141.623 71.1791H145.492V72.8394H141.623V71.1791ZM150.236 72.3695H160.511V74.0611H150.236V72.3695ZM148.78 77.0527H161.921V78.7443H148.78V77.0527ZM150.236 67.2164H152.335V73.043H150.236V67.2164ZM165.694 67.2164H167.292V69.6442C167.292 70.4795 167.229 71.294 167.104 72.0876C166.989 72.8707 166.801 73.6121 166.54 74.3117C166.279 75.0009 165.94 75.6274 165.522 76.1913C165.115 76.7447 164.624 77.1989 164.05 77.5539L162.75 76.0033C163.293 75.6796 163.752 75.2828 164.128 74.8129C164.504 74.343 164.807 73.8262 165.037 73.2623C165.266 72.6984 165.433 72.1137 165.538 71.5081C165.642 70.892 165.694 70.2707 165.694 69.6442V67.2164ZM166.102 67.2164H167.715V69.5032C167.715 70.1297 167.762 70.7406 167.856 71.3358C167.95 71.931 168.096 72.4896 168.295 73.0117C168.503 73.5338 168.78 74.0089 169.125 74.437C169.469 74.8547 169.897 75.1993 170.409 75.4708L169.203 77.131C168.618 76.7969 168.122 76.3688 167.715 75.8467C167.318 75.3246 167 74.7294 166.76 74.0611C166.53 73.3928 166.363 72.6723 166.258 71.8996C166.154 71.1269 166.102 70.3281 166.102 69.5032V67.2164ZM173.495 65.9477H175.484V80.4516H173.495V65.9477ZM171.756 71.5864H174.168V73.2623H171.756V71.5864ZM170.378 66.1827H172.32V79.8094H170.378V66.1827ZM184.548 67.4044H186.239V68.3128C186.239 69.2213 186.093 70.0932 185.801 70.9285C185.508 71.7534 185.059 72.4739 184.454 73.09C183.859 73.7061 183.091 74.1655 182.151 74.4683L181.118 72.8237C181.713 72.6253 182.224 72.3695 182.652 72.0563C183.091 71.7326 183.446 71.3671 183.718 70.9599C183.999 70.5526 184.208 70.1245 184.344 69.6755C184.48 69.2265 184.548 68.7723 184.548 68.3128V67.4044ZM184.986 67.4044H186.647V68.3128C186.647 68.8767 186.761 69.4406 186.991 70.0044C187.221 70.5578 187.576 71.0591 188.056 71.5081C188.547 71.9466 189.173 72.2964 189.936 72.5575L188.918 74.2021C188.02 73.8993 187.278 73.4503 186.694 72.8551C186.119 72.2599 185.691 71.5707 185.409 70.7876C185.127 69.994 184.986 69.1691 184.986 68.3128V67.4044ZM189.09 69.4092H191.831V71.1008H189.09V69.4092ZM181.681 66.7465H189.482V68.4068H181.681V66.7465ZM183.436 75.2358H193.335V80.4672H191.236V76.8961H183.436V75.2358ZM191.236 65.9634H193.335V74.578H191.236V65.9634ZM195.432 72.7141H208.558V74.3587H195.432V72.7141ZM201.964 75.1575C203.53 75.1575 204.762 75.3872 205.66 75.8467C206.558 76.3061 207.007 76.964 207.007 77.8202C207.007 78.666 206.558 79.3186 205.66 79.7781C204.762 80.2375 203.53 80.4672 201.964 80.4672C200.397 80.4672 199.165 80.2375 198.267 79.7781C197.38 79.3186 196.936 78.666 196.936 77.8202C196.936 76.964 197.38 76.3061 198.267 75.8467C199.165 75.3872 200.397 75.1575 201.964 75.1575ZM201.964 76.7238C201.316 76.7238 200.773 76.7656 200.335 76.8491C199.907 76.9326 199.583 77.0527 199.364 77.2094C199.144 77.366 199.035 77.5696 199.035 77.8202C199.035 78.0604 199.144 78.264 199.364 78.4311C199.583 78.5877 199.907 78.7078 200.335 78.7913C200.773 78.8644 201.316 78.901 201.964 78.901C202.611 78.901 203.149 78.8644 203.577 78.7913C204.015 78.7078 204.344 78.5877 204.564 78.4311C204.783 78.264 204.893 78.0604 204.893 77.8202C204.893 77.5696 204.783 77.366 204.564 77.2094C204.344 77.0527 204.015 76.9326 203.577 76.8491C203.149 76.7656 202.611 76.7238 201.964 76.7238ZM201.995 66.261C203.06 66.261 203.984 66.3758 204.767 66.6056C205.561 66.8353 206.172 67.1642 206.6 67.5923C207.038 68.01 207.258 68.5164 207.258 69.1116C207.258 69.6964 207.038 70.2028 206.6 70.6309C206.172 71.0486 205.561 71.3775 204.767 71.6177C203.984 71.8474 203.06 71.9623 201.995 71.9623C200.94 71.9623 200.016 71.8474 199.223 71.6177C198.439 71.3775 197.829 71.0486 197.39 70.6309C196.962 70.2028 196.748 69.6964 196.748 69.1116C196.748 68.5164 196.962 68.01 197.39 67.5923C197.829 67.1642 198.439 66.8353 199.223 66.6056C200.016 66.3758 200.94 66.261 201.995 66.261ZM201.995 67.8586C201.348 67.8586 200.789 67.9056 200.319 67.9996C199.849 68.0935 199.494 68.2345 199.254 68.4225C199.024 68.6 198.909 68.8297 198.909 69.1116C198.909 69.3831 199.024 69.6128 199.254 69.8008C199.494 69.9783 199.849 70.1141 200.319 70.208C200.789 70.302 201.348 70.349 201.995 70.349C202.663 70.349 203.227 70.302 203.687 70.208C204.146 70.1141 204.496 69.9783 204.736 69.8008C204.976 69.6128 205.096 69.3831 205.096 69.1116C205.096 68.8297 204.976 68.6 204.736 68.4225C204.496 68.2345 204.146 68.0935 203.687 67.9996C203.227 67.9056 202.663 67.8586 201.995 67.8586ZM220.069 65.9634H222.058V74.8912H220.069V65.9634ZM218.314 69.6755H220.617V71.3514H218.314V69.6755ZM217.077 66.1513H219.019V74.7346H217.077V66.1513ZM209.622 67.3574H216.67V68.955H209.622V67.3574ZM213.161 69.4092C213.777 69.4092 214.32 69.5189 214.79 69.7382C215.26 69.947 215.626 70.2446 215.887 70.6309C216.158 71.0068 216.294 71.4454 216.294 71.9466C216.294 72.4374 216.158 72.876 215.887 73.2623C215.626 73.6382 215.26 73.9358 214.79 74.1551C214.32 74.3639 213.777 74.4683 213.161 74.4683C212.566 74.4683 212.028 74.3639 211.548 74.1551C211.078 73.9358 210.708 73.6382 210.436 73.2623C210.165 72.876 210.029 72.4374 210.029 71.9466C210.029 71.4454 210.165 71.0068 210.436 70.6309C210.708 70.2446 211.078 69.947 211.548 69.7382C212.028 69.5189 212.566 69.4092 213.161 69.4092ZM213.161 70.8972C212.785 70.8972 212.477 70.986 212.237 71.1635C212.008 71.341 211.893 71.602 211.893 71.9466C211.893 72.2808 212.008 72.5418 212.237 72.7298C212.477 72.9073 212.785 72.996 213.161 72.996C213.537 72.996 213.845 72.9073 214.086 72.7298C214.326 72.5418 214.446 72.2808 214.446 71.9466C214.446 71.602 214.326 71.341 214.086 71.1635C213.845 70.986 213.537 70.8972 213.161 70.8972ZM212.128 66.0574H214.179V68.4851H212.128V66.0574ZM213.193 75.3455H214.759V75.6274C214.759 76.3061 214.639 76.9587 214.399 77.5853C214.169 78.2013 213.814 78.7443 213.334 79.2142C212.853 79.6841 212.232 80.0391 211.47 80.2793L210.499 78.76C211.136 78.572 211.647 78.3162 212.034 77.9925C212.43 77.6584 212.723 77.2877 212.911 76.8804C213.099 76.4732 213.193 76.0555 213.193 75.6274V75.3455ZM213.725 75.3455H215.213V75.6274C215.213 76.0555 215.297 76.4836 215.464 76.9118C215.631 77.3294 215.892 77.7106 216.247 78.0552C216.602 78.3997 217.067 78.6817 217.641 78.901L216.827 80.4203C216.075 80.1592 215.469 79.7781 215.01 79.2769C214.561 78.7756 214.232 78.2118 214.023 77.5853C213.824 76.9483 213.725 76.2957 213.725 75.6274V75.3455ZM218.424 75.3455H219.912V75.6274C219.912 76.2435 219.808 76.8752 219.599 77.5226C219.39 78.1596 219.061 78.7339 218.612 79.2455C218.163 79.7572 217.568 80.1488 216.827 80.4203L215.996 78.901C216.571 78.6608 217.035 78.3632 217.39 78.0082C217.745 77.6427 218.006 77.2511 218.174 76.8334C218.341 76.4158 218.424 76.0138 218.424 75.6274V75.3455ZM218.925 75.3455H220.476V75.6274C220.476 76.0764 220.57 76.5097 220.758 76.9274C220.946 77.3451 221.238 77.7158 221.635 78.0395C222.042 78.3527 222.559 78.5929 223.186 78.76L222.199 80.2793C221.437 80.0391 220.815 79.6893 220.335 79.2299C219.855 78.7809 219.5 78.2483 219.27 77.6323C219.04 77.0162 218.925 76.3479 218.925 75.6274V75.3455ZM227.915 66.9502C228.635 66.9502 229.277 67.1642 229.841 67.5923C230.415 68.01 230.859 68.6104 231.173 69.3936C231.496 70.1663 231.658 71.0799 231.658 72.1346C231.658 73.1997 231.496 74.1238 231.173 74.9069C230.859 75.6796 230.415 76.28 229.841 76.7081C229.277 77.1258 228.635 77.3347 227.915 77.3347C227.194 77.3347 226.552 77.1258 225.988 76.7081C225.424 76.28 224.98 75.6796 224.657 74.9069C224.333 74.1238 224.171 73.1997 224.171 72.1346C224.171 71.0799 224.333 70.1663 224.657 69.3936C224.98 68.6104 225.424 68.01 225.988 67.5923C226.552 67.1642 227.194 66.9502 227.915 66.9502ZM227.915 68.8454C227.57 68.8454 227.262 68.9707 226.991 69.2213C226.729 69.4719 226.526 69.8426 226.38 70.3333C226.233 70.8137 226.16 71.4141 226.16 72.1346C226.16 72.8446 226.233 73.4503 226.38 73.9515C226.526 74.4422 226.729 74.8129 226.991 75.0635C227.262 75.3141 227.57 75.4394 227.915 75.4394C228.28 75.4394 228.593 75.3141 228.854 75.0635C229.115 74.8129 229.319 74.4422 229.465 73.9515C229.611 73.4503 229.685 72.8446 229.685 72.1346C229.685 71.4141 229.611 70.8137 229.465 70.3333C229.319 69.8426 229.115 69.4719 228.854 69.2213C228.593 68.9707 228.28 68.8454 227.915 68.8454ZM234.039 65.9321H236.122V80.4829H234.039V65.9321ZM231.047 71.1791H234.916V72.8394H231.047V71.1791ZM241.086 73.325H243.169V77.3816H241.086V73.325ZM246.349 73.325H248.432V77.3816H246.349V73.325ZM238.204 77.0841H251.345V78.7756H238.204V77.0841ZM244.751 66.6682C245.795 66.6682 246.725 66.8301 247.539 67.1538C248.364 67.4775 249.006 67.9317 249.466 68.5164C249.935 69.0907 250.17 69.7747 250.17 70.5683C250.17 71.3514 249.935 72.0354 249.466 72.6201C249.006 73.1944 248.364 73.6434 247.539 73.9671C246.725 74.2908 245.795 74.4527 244.751 74.4527C243.717 74.4527 242.788 74.2908 241.963 73.9671C241.149 73.6434 240.506 73.1944 240.036 72.6201C239.567 72.0354 239.332 71.3514 239.332 70.5683C239.332 69.7747 239.567 69.0907 240.036 68.5164C240.506 67.9317 241.149 67.4775 241.963 67.1538C242.788 66.8301 243.717 66.6682 244.751 66.6682ZM244.751 68.2815C244.083 68.2815 243.493 68.3755 242.981 68.5634C242.48 68.7409 242.088 68.9968 241.806 69.3309C241.524 69.6651 241.383 70.0775 241.383 70.5683C241.383 71.0382 241.524 71.4454 241.806 71.79C242.088 72.1241 242.48 72.3852 242.981 72.5731C243.493 72.7506 244.083 72.8394 244.751 72.8394C245.43 72.8394 246.02 72.7506 246.521 72.5731C247.033 72.3852 247.424 72.1241 247.696 71.79C247.978 71.4454 248.119 71.0382 248.119 70.5683C248.119 70.0775 247.978 69.6651 247.696 69.3309C247.424 68.9968 247.033 68.7409 246.521 68.5634C246.02 68.3755 245.43 68.2815 244.751 68.2815ZM254.993 75.3611H253.129L252.738 67.8899H255.385L254.993 75.3611ZM252.707 77.9768C252.707 77.4965 252.837 77.1624 253.098 76.9744C253.359 76.776 253.678 76.6768 254.054 76.6768C254.419 76.6768 254.732 76.776 254.993 76.9744C255.254 77.1624 255.385 77.4965 255.385 77.9768C255.385 78.4363 255.254 78.7704 254.993 78.9793C254.732 79.1777 254.419 79.2769 254.054 79.2769C253.678 79.2769 253.359 79.1777 253.098 78.9793C252.837 78.7704 252.707 78.4363 252.707 77.9768Z" fill="white"/>
<rect x="273.016" y="121.218" width="262.96" height="71.0968" rx="12.0484" fill="#37A3E2"/>
<path d="M320.463 138.705H329.641V140.365H320.463V138.705ZM318.85 143.623H331.991V145.283H318.85V143.623ZM324.332 144.25H326.415V147.194H324.332V144.25ZM328.388 138.705H330.425V139.676C330.425 140.229 330.409 140.882 330.378 141.634C330.346 142.386 330.226 143.252 330.017 144.234L327.981 144.03C328.19 143.07 328.31 142.24 328.341 141.54C328.373 140.84 328.388 140.219 328.388 139.676V138.705ZM324.3 147.742H326.07V148.134C326.07 148.687 325.95 149.215 325.71 149.716C325.47 150.207 325.104 150.651 324.614 151.047C324.133 151.444 323.543 151.778 322.844 152.05C322.144 152.321 321.33 152.504 320.4 152.598L319.696 151.032C320.489 150.948 321.173 150.807 321.747 150.609C322.322 150.41 322.797 150.181 323.173 149.92C323.549 149.648 323.831 149.361 324.019 149.058C324.206 148.745 324.3 148.437 324.3 148.134V147.742ZM324.661 147.742H326.431V148.134C326.431 148.447 326.519 148.761 326.697 149.074C326.885 149.387 327.167 149.679 327.543 149.951C327.919 150.212 328.394 150.436 328.968 150.624C329.542 150.812 330.231 150.948 331.035 151.032L330.346 152.598C329.417 152.504 328.597 152.326 327.887 152.065C327.188 151.804 326.598 151.481 326.117 151.094C325.637 150.698 325.272 150.249 325.021 149.747C324.781 149.246 324.661 148.708 324.661 148.134V147.742ZM333.102 149.23H346.243V150.922H333.102V149.23ZM338.552 140.162H340.322V140.976C340.322 141.592 340.234 142.177 340.056 142.73C339.889 143.284 339.638 143.801 339.304 144.281C338.981 144.751 338.579 145.179 338.098 145.565C337.618 145.941 337.07 146.265 336.454 146.536C335.838 146.808 335.164 147.012 334.433 147.147L333.603 145.471C334.25 145.367 334.835 145.21 335.357 145.001C335.89 144.793 336.354 144.542 336.751 144.25C337.148 143.957 337.477 143.639 337.738 143.294C338.009 142.939 338.213 142.568 338.349 142.182C338.485 141.785 338.552 141.383 338.552 140.976V140.162ZM338.991 140.162H340.745V140.976C340.745 141.383 340.813 141.78 340.949 142.166C341.085 142.553 341.288 142.923 341.56 143.279C341.831 143.623 342.165 143.942 342.562 144.234C342.969 144.516 343.439 144.761 343.972 144.97C344.515 145.169 345.115 145.315 345.773 145.409L344.959 147.069C344.207 146.933 343.518 146.735 342.891 146.474C342.275 146.213 341.722 145.894 341.231 145.518C340.75 145.142 340.343 144.72 340.009 144.25C339.675 143.78 339.419 143.273 339.242 142.73C339.075 142.177 338.991 141.592 338.991 140.976V140.162ZM334.183 139.363H345.115V141.023H334.183V139.363ZM360.585 138.157H362.668V146.615H360.585V138.157ZM362.105 141.43H364.595V143.153H362.105V141.43ZM351.673 138.987H353.741V140.819H356.591V138.987H358.643V145.894H351.673V138.987ZM353.741 142.433V144.265H356.591V142.433H353.741ZM353.255 147.257H362.762V148.886H355.323V152.003H353.255V147.257ZM353.255 150.828H363.044V152.488H353.255V150.828ZM366.865 139.378H376.043V141.039H366.865V139.378ZM365.518 149.215H378.643V150.906H365.518V149.215ZM370.154 144.234H372.253V150.061H370.154V144.234ZM375.292 139.378H377.39V140.757C377.39 141.362 377.38 142.005 377.359 142.683C377.349 143.362 377.302 144.114 377.218 144.939C377.145 145.764 377.009 146.688 376.811 147.711L374.728 147.492C375.02 146.04 375.187 144.777 375.229 143.701C375.271 142.615 375.292 141.634 375.292 140.757V139.378ZM393.644 138.157H395.727V146.192H393.644V138.157ZM387.081 138.658H388.804V140.036C388.804 140.934 388.652 141.785 388.349 142.589C388.047 143.383 387.582 144.077 386.955 144.673C386.339 145.268 385.556 145.711 384.606 146.004L383.604 144.359C384.209 144.171 384.731 143.926 385.17 143.623C385.608 143.32 385.969 142.976 386.251 142.589C386.533 142.203 386.741 141.796 386.877 141.368C387.013 140.929 387.081 140.485 387.081 140.036V138.658ZM387.504 138.658H389.195V140.036C389.195 140.475 389.263 140.903 389.399 141.321C389.535 141.728 389.738 142.114 390.01 142.48C390.281 142.835 390.631 143.158 391.059 143.451C391.487 143.733 391.994 143.957 392.578 144.124L391.576 145.753C390.887 145.544 390.286 145.257 389.775 144.892C389.263 144.516 388.835 144.077 388.49 143.576C388.156 143.075 387.906 142.527 387.739 141.932C387.582 141.326 387.504 140.694 387.504 140.036V138.658ZM385.922 146.85H395.789V148.494H385.922V146.85ZM385.781 150.859H395.93V152.504H385.781V150.859ZM387.629 147.461H389.681V151.815H387.629V147.461ZM392.046 147.461H394.113V151.815H392.046V147.461ZM401.897 139.144C402.617 139.144 403.259 139.358 403.823 139.786C404.398 140.203 404.841 140.804 405.155 141.587C405.478 142.36 405.64 143.273 405.64 144.328C405.64 145.393 405.478 146.317 405.155 147.1C404.841 147.873 404.398 148.473 403.823 148.902C403.259 149.319 402.617 149.528 401.897 149.528C401.176 149.528 400.534 149.319 399.97 148.902C399.406 148.473 398.962 147.873 398.639 147.1C398.315 146.317 398.153 145.393 398.153 144.328C398.153 143.273 398.315 142.36 398.639 141.587C398.962 140.804 399.406 140.203 399.97 139.786C400.534 139.358 401.176 139.144 401.897 139.144ZM401.897 141.039C401.552 141.039 401.244 141.164 400.973 141.415C400.712 141.665 400.508 142.036 400.362 142.527C400.216 143.007 400.142 143.607 400.142 144.328C400.142 145.038 400.216 145.644 400.362 146.145C400.508 146.636 400.712 147.006 400.973 147.257C401.244 147.508 401.552 147.633 401.897 147.633C402.262 147.633 402.575 147.508 402.836 147.257C403.098 147.006 403.301 146.636 403.447 146.145C403.593 145.644 403.667 145.038 403.667 144.328C403.667 143.607 403.593 143.007 403.447 142.527C403.301 142.036 403.098 141.665 402.836 141.415C402.575 141.164 402.262 141.039 401.897 141.039ZM408.021 138.125H410.104V152.676H408.021V138.125ZM405.029 143.372H408.898V145.033H405.029V143.372ZM419.501 142.683H423.322V144.359H419.501V142.683ZM415.554 139.253H417.229V141.368C417.229 142.276 417.151 143.158 416.994 144.015C416.838 144.871 416.598 145.67 416.274 146.411C415.95 147.152 415.538 147.805 415.037 148.369C414.546 148.933 413.961 149.387 413.282 149.732L411.982 148.071C412.598 147.779 413.126 147.398 413.564 146.928C414.013 146.458 414.384 145.926 414.676 145.33C414.979 144.725 415.198 144.088 415.334 143.419C415.48 142.741 415.554 142.057 415.554 141.368V139.253ZM415.976 139.253H417.637V141.368C417.637 142.046 417.705 142.72 417.84 143.388C417.976 144.046 418.18 144.662 418.451 145.236C418.733 145.811 419.093 146.322 419.532 146.771C419.97 147.21 420.493 147.565 421.098 147.836L419.845 149.497C419.166 149.163 418.582 148.724 418.091 148.181C417.6 147.628 417.198 146.996 416.885 146.286C416.582 145.576 416.352 144.803 416.196 143.968C416.05 143.132 415.976 142.266 415.976 141.368V139.253ZM422.273 138.125H424.356V152.676H422.273V138.125ZM441.173 143.623H443.726V145.346H441.173V143.623ZM439.607 138.125H441.706V152.629H439.607V138.125ZM430.789 139.519H432.856V148.541H430.789V139.519ZM430.789 147.367H432.026C433.06 147.367 434.135 147.325 435.253 147.241C436.37 147.158 437.513 147.001 438.683 146.771L438.902 148.463C437.691 148.714 436.511 148.886 435.362 148.98C434.214 149.063 433.102 149.105 432.026 149.105H430.789V147.367ZM453.922 138.141H456.005V146.207H453.922V138.141ZM455.441 141.368H457.931V143.075H455.441V141.368ZM449.771 138.956H452.011C452.011 140.25 451.744 141.404 451.212 142.417C450.69 143.43 449.927 144.291 448.925 145.001C447.923 145.701 446.701 146.239 445.26 146.615L444.461 144.954C445.641 144.652 446.623 144.255 447.406 143.764C448.189 143.263 448.779 142.694 449.176 142.057C449.572 141.42 449.771 140.741 449.771 140.021V138.956ZM445.213 138.956H451.087V140.616H445.213V138.956ZM447.672 146.771H449.207V147.445C449.207 148.186 449.097 148.896 448.878 149.575C448.659 150.243 448.314 150.833 447.844 151.345C447.385 151.867 446.779 152.264 446.027 152.535L444.994 151.032C445.631 150.802 446.142 150.499 446.529 150.123C446.925 149.737 447.213 149.314 447.39 148.855C447.578 148.395 447.672 147.925 447.672 147.445V146.771ZM448.189 146.771H449.693V147.445C449.693 147.925 449.771 148.4 449.927 148.87C450.095 149.34 450.361 149.779 450.726 150.186C451.092 150.583 451.577 150.906 452.183 151.157L451.306 152.676C450.544 152.384 449.933 151.966 449.473 151.423C449.024 150.88 448.695 150.264 448.486 149.575C448.288 148.875 448.189 148.165 448.189 147.445V146.771ZM452.935 146.771H454.438V147.445C454.438 148.124 454.334 148.808 454.125 149.497C453.927 150.186 453.598 150.807 453.138 151.361C452.689 151.924 452.079 152.363 451.306 152.676L450.444 151.157C451.05 150.885 451.536 150.541 451.901 150.123C452.266 149.706 452.528 149.267 452.684 148.808C452.851 148.338 452.935 147.883 452.935 147.445V146.771ZM453.436 146.771H455.002V147.445C455.002 147.957 455.091 148.447 455.269 148.917C455.446 149.377 455.733 149.794 456.13 150.17C456.527 150.536 457.038 150.823 457.665 151.032L456.631 152.535C455.879 152.264 455.263 151.877 454.783 151.376C454.313 150.875 453.968 150.29 453.749 149.622C453.54 148.943 453.436 148.218 453.436 147.445V146.771ZM468.111 138.125H470.21V152.676H468.111V138.125ZM469.755 143.498H472.309V145.221H469.755V143.498ZM459.402 147.476H460.624C461.449 147.476 462.222 147.466 462.942 147.445C463.663 147.414 464.362 147.367 465.041 147.304C465.72 147.231 466.414 147.132 467.124 147.006L467.328 148.729C466.597 148.855 465.876 148.954 465.166 149.027C464.467 149.1 463.746 149.147 463.005 149.168C462.263 149.189 461.47 149.199 460.624 149.199H459.402V147.476ZM459.402 139.472H466.169V141.148H461.485V148.291H459.402V139.472ZM482.363 138.125H484.462V152.629H482.363V138.125ZM483.929 143.686H486.482V145.393H483.929V143.686ZM478.557 139.629H480.609C480.609 141.08 480.4 142.454 479.982 143.748C479.575 145.043 478.896 146.234 477.946 147.32C477.006 148.395 475.732 149.335 474.124 150.139L472.949 148.557C474.223 147.899 475.273 147.158 476.098 146.333C476.933 145.508 477.549 144.573 477.946 143.529C478.353 142.474 478.557 141.3 478.557 140.005V139.629ZM473.748 139.629H479.638V141.305H473.748V139.629ZM343.483 170.179C344.527 170.179 345.435 170.288 346.208 170.508C346.981 170.727 347.576 171.04 347.994 171.447C348.422 171.855 348.636 172.345 348.636 172.92C348.636 173.483 348.422 173.969 347.994 174.376C347.576 174.794 346.981 175.112 346.208 175.332C345.435 175.551 344.527 175.661 343.483 175.661C342.449 175.661 341.546 175.551 340.773 175.332C340 175.112 339.4 174.794 338.972 174.376C338.554 173.969 338.345 173.483 338.345 172.92C338.345 172.345 338.554 171.855 338.972 171.447C339.4 171.04 340 170.727 340.773 170.508C341.546 170.288 342.449 170.179 343.483 170.179ZM343.483 171.745C342.835 171.745 342.282 171.787 341.822 171.87C341.363 171.954 341.013 172.084 340.773 172.262C340.543 172.439 340.428 172.659 340.428 172.92C340.428 173.181 340.543 173.4 340.773 173.577C341.013 173.745 341.363 173.875 341.822 173.969C342.282 174.053 342.835 174.094 343.483 174.094C344.14 174.094 344.699 174.053 345.159 173.969C345.618 173.875 345.968 173.745 346.208 173.577C346.448 173.4 346.568 173.181 346.568 172.92C346.568 172.659 346.448 172.439 346.208 172.262C345.968 172.084 345.618 171.954 345.159 171.87C344.699 171.787 344.14 171.745 343.483 171.745ZM338.502 161.799H347.696V163.428H338.502V161.799ZM337.045 167.626H350.092V169.27H337.045V167.626ZM341.869 165.088H343.952V168.033H341.869V165.088ZM346.474 161.799H348.557V162.989C348.557 163.564 348.542 164.164 348.51 164.791C348.479 165.417 348.359 166.106 348.15 166.858L346.083 166.654C346.281 165.913 346.396 165.255 346.427 164.681C346.459 164.107 346.474 163.543 346.474 162.989V161.799ZM351.266 169.489H364.391V171.134H351.266V169.489ZM356.732 170.32H358.815V175.661H356.732V170.32ZM352.754 161.705H354.821V163.35H360.789V161.705H362.841V168.111H352.754V161.705ZM354.821 164.978V166.466H360.789V164.978H354.821ZM370.949 169.834H373.017V171.056H378.828V169.834H380.88V175.504H370.949V169.834ZM373.017 172.622V173.875H378.828V172.622H373.017ZM369.414 167.485H382.54V169.114H369.414V167.485ZM374.912 161.298H376.698V161.736C376.698 162.248 376.609 162.733 376.431 163.193C376.264 163.652 376.019 164.08 375.695 164.477C375.371 164.874 374.969 165.234 374.489 165.558C374.019 165.871 373.476 166.138 372.86 166.357C372.244 166.566 371.56 166.722 370.808 166.827L370.056 165.213C370.714 165.14 371.304 165.02 371.826 164.853C372.348 164.686 372.803 164.488 373.189 164.258C373.575 164.018 373.894 163.762 374.144 163.491C374.406 163.209 374.599 162.921 374.724 162.629C374.849 162.326 374.912 162.029 374.912 161.736V161.298ZM375.257 161.298H377.042V161.736C377.042 162.029 377.105 162.326 377.23 162.629C377.355 162.921 377.543 163.209 377.794 163.491C378.055 163.762 378.379 164.018 378.765 164.258C379.151 164.488 379.606 164.686 380.128 164.853C380.66 165.02 381.25 165.14 381.898 165.213L381.146 166.827C380.394 166.722 379.71 166.566 379.094 166.357C378.488 166.138 377.945 165.871 377.465 165.558C376.985 165.234 376.583 164.874 376.259 164.477C375.935 164.08 375.685 163.652 375.507 163.193C375.34 162.723 375.257 162.237 375.257 161.736V161.298ZM384.324 162.206H390.527V163.866H384.324V162.206ZM386.11 165.589H388.162V169.207H386.11V165.589ZM389.712 162.206H391.764V163.115C391.764 163.626 391.748 164.237 391.717 164.947C391.696 165.647 391.597 166.456 391.419 167.375L389.399 167.14C389.556 166.252 389.644 165.485 389.665 164.838C389.696 164.19 389.712 163.616 389.712 163.115V162.206ZM393.158 161.141H395.257V171.995H393.158V161.141ZM394.427 165.574H396.995V167.281H394.427V165.574ZM385.577 173.734H395.727V175.41H385.577V173.734ZM385.577 171.04H387.676V174.251H385.577V171.04ZM383.651 170.069L383.463 168.409C384.298 168.409 385.222 168.403 386.235 168.393C387.248 168.372 388.282 168.33 389.336 168.268C390.391 168.195 391.404 168.09 392.375 167.954L392.516 169.442C391.513 169.62 390.49 169.756 389.446 169.85C388.402 169.933 387.384 169.991 386.392 170.022C385.4 170.043 384.486 170.059 383.651 170.069ZM407.88 161.125H409.963V175.676H407.88V161.125ZM402.147 162.144C402.889 162.144 403.547 162.358 404.121 162.786C404.695 163.203 405.144 163.804 405.468 164.587C405.802 165.36 405.969 166.273 405.969 167.328C405.969 168.393 405.802 169.317 405.468 170.1C405.144 170.873 404.695 171.473 404.121 171.902C403.547 172.319 402.889 172.528 402.147 172.528C401.416 172.528 400.764 172.319 400.189 171.902C399.615 171.473 399.161 170.873 398.827 170.1C398.503 169.317 398.341 168.393 398.341 167.328C398.341 166.273 398.503 165.36 398.827 164.587C399.161 163.804 399.615 163.203 400.189 162.786C400.764 162.358 401.416 162.144 402.147 162.144ZM402.147 164.039C401.792 164.039 401.479 164.164 401.208 164.415C400.936 164.665 400.722 165.036 400.565 165.527C400.419 166.007 400.346 166.607 400.346 167.328C400.346 168.038 400.419 168.644 400.565 169.145C400.722 169.636 400.936 170.006 401.208 170.257C401.479 170.508 401.792 170.633 402.147 170.633C402.513 170.633 402.831 170.508 403.103 170.257C403.374 170.006 403.583 169.636 403.729 169.145C403.886 168.644 403.964 168.038 403.964 167.328C403.964 166.607 403.886 166.007 403.729 165.527C403.583 165.036 403.374 164.665 403.103 164.415C402.831 164.164 402.513 164.039 402.147 164.039ZM419.278 162.504H420.985V163.412C420.985 164.289 420.833 165.125 420.531 165.918C420.238 166.701 419.784 167.391 419.168 167.986C418.562 168.571 417.79 169.004 416.85 169.286L415.832 167.641C416.646 167.401 417.304 167.062 417.805 166.623C418.317 166.174 418.688 165.673 418.917 165.119C419.158 164.556 419.278 163.987 419.278 163.412V162.504ZM419.701 162.504H421.392V163.412C421.392 163.945 421.507 164.472 421.737 164.994C421.966 165.516 422.327 165.986 422.817 166.404C423.319 166.811 423.956 167.13 424.728 167.359L423.757 168.973C422.838 168.711 422.076 168.304 421.47 167.751C420.875 167.187 420.431 166.534 420.139 165.793C419.847 165.041 419.701 164.248 419.701 163.412V162.504ZM416.396 161.924H424.227V163.584H416.396V161.924ZM425.417 161.157H427.501V169.16H425.417V161.157ZM426.937 164.227H429.427V165.934H426.937V164.227ZM418.04 169.724H420.108V171.009H425.449V169.724H427.501V175.504H418.04V169.724ZM420.108 172.622V173.844H425.449V172.622H420.108ZM440.437 161.157H442.52V170.194H440.437V161.157ZM438.542 164.321H441.189V165.965H438.542V164.321ZM438.51 167.187H441.157V168.832H438.51V167.187ZM430.381 162.394H438.354V164.039H430.381V162.394ZM434.454 164.446C435.122 164.446 435.712 164.561 436.224 164.791C436.735 165.02 437.137 165.339 437.43 165.746C437.722 166.143 437.868 166.613 437.868 167.156C437.868 167.678 437.722 168.142 437.43 168.55C437.137 168.957 436.735 169.275 436.224 169.505C435.712 169.724 435.122 169.834 434.454 169.834C433.796 169.834 433.211 169.724 432.7 169.505C432.188 169.275 431.786 168.957 431.493 168.55C431.201 168.142 431.055 167.678 431.055 167.156C431.055 166.613 431.201 166.143 431.493 165.746C431.786 165.339 432.188 165.02 432.7 164.791C433.211 164.561 433.796 164.446 434.454 164.446ZM434.454 165.981C434.026 165.981 433.676 166.085 433.404 166.294C433.133 166.493 432.997 166.78 432.997 167.156C432.997 167.521 433.133 167.808 433.404 168.017C433.676 168.215 434.026 168.315 434.454 168.315C434.892 168.315 435.247 168.215 435.519 168.017C435.79 167.808 435.926 167.521 435.926 167.156C435.926 166.78 435.79 166.493 435.519 166.294C435.247 166.085 434.892 165.981 434.454 165.981ZM433.42 161.031H435.519V163.538H433.42V161.031ZM433.812 170.633H435.378V170.915C435.378 171.583 435.258 172.22 435.018 172.826C434.788 173.431 434.428 173.964 433.937 174.423C433.457 174.883 432.835 175.227 432.073 175.457L431.118 173.953C431.744 173.776 432.256 173.53 432.653 173.217C433.049 172.893 433.342 172.533 433.53 172.136C433.718 171.729 433.812 171.322 433.812 170.915V170.633ZM434.344 170.633H435.832V170.915C435.832 171.322 435.916 171.729 436.083 172.136C436.25 172.544 436.511 172.92 436.866 173.264C437.231 173.598 437.696 173.87 438.26 174.079L437.445 175.614C436.694 175.363 436.093 174.992 435.644 174.502C435.195 174.011 434.866 173.452 434.657 172.826C434.449 172.199 434.344 171.562 434.344 170.915V170.633ZM439.059 170.633H440.547V170.915C440.547 171.52 440.442 172.136 440.233 172.763C440.035 173.389 439.706 173.953 439.247 174.455C438.798 174.956 438.197 175.342 437.445 175.614L436.647 174.079C437.21 173.859 437.67 173.572 438.025 173.217C438.38 172.862 438.641 172.486 438.808 172.089C438.975 171.682 439.059 171.291 439.059 170.915V170.633ZM439.576 170.633H441.126V170.915C441.126 171.343 441.215 171.761 441.392 172.168C441.58 172.575 441.873 172.935 442.27 173.249C442.677 173.551 443.194 173.786 443.82 173.953L442.849 175.457C442.087 175.238 441.46 174.904 440.97 174.455C440.489 174.016 440.134 173.489 439.904 172.873C439.685 172.257 439.576 171.604 439.576 170.915V170.633ZM448.565 162.144C449.285 162.144 449.927 162.358 450.491 162.786C451.066 163.203 451.509 163.804 451.823 164.587C452.146 165.36 452.308 166.273 452.308 167.328C452.308 168.393 452.146 169.317 451.823 170.1C451.509 170.873 451.066 171.473 450.491 171.902C449.927 172.319 449.285 172.528 448.565 172.528C447.844 172.528 447.202 172.319 446.638 171.902C446.074 171.473 445.631 170.873 445.307 170.1C444.983 169.317 444.821 168.393 444.821 167.328C444.821 166.273 444.983 165.36 445.307 164.587C445.631 163.804 446.074 163.203 446.638 162.786C447.202 162.358 447.844 162.144 448.565 162.144ZM448.565 164.039C448.22 164.039 447.912 164.164 447.641 164.415C447.38 164.665 447.176 165.036 447.03 165.527C446.884 166.007 446.811 166.607 446.811 167.328C446.811 168.038 446.884 168.644 447.03 169.145C447.176 169.636 447.38 170.006 447.641 170.257C447.912 170.508 448.22 170.633 448.565 170.633C448.93 170.633 449.244 170.508 449.505 170.257C449.766 170.006 449.969 169.636 450.115 169.145C450.262 168.644 450.335 168.038 450.335 167.328C450.335 166.607 450.262 166.007 450.115 165.527C449.969 165.036 449.766 164.665 449.505 164.415C449.244 164.164 448.93 164.039 448.565 164.039ZM454.689 161.125H456.772V175.676H454.689V161.125ZM451.697 166.372H455.566V168.033H451.697V166.372ZM461.736 168.518H463.819V172.575H461.736V168.518ZM466.999 168.518H469.082V172.575H466.999V168.518ZM458.854 172.277H471.995V173.969H458.854V172.277ZM465.401 161.862C466.445 161.862 467.375 162.023 468.189 162.347C469.014 162.671 469.656 163.125 470.116 163.71C470.586 164.284 470.821 164.968 470.821 165.762C470.821 166.545 470.586 167.229 470.116 167.813C469.656 168.388 469.014 168.837 468.189 169.16C467.375 169.484 466.445 169.646 465.401 169.646C464.367 169.646 463.438 169.484 462.613 169.16C461.799 168.837 461.157 168.388 460.687 167.813C460.217 167.229 459.982 166.545 459.982 165.762C459.982 164.968 460.217 164.284 460.687 163.71C461.157 163.125 461.799 162.671 462.613 162.347C463.438 162.023 464.367 161.862 465.401 161.862ZM465.401 163.475C464.733 163.475 464.143 163.569 463.631 163.757C463.13 163.934 462.738 164.19 462.457 164.524C462.175 164.858 462.034 165.271 462.034 165.762C462.034 166.232 462.175 166.639 462.457 166.983C462.738 167.317 463.13 167.579 463.631 167.766C464.143 167.944 464.733 168.033 465.401 168.033C466.08 168.033 466.67 167.944 467.171 167.766C467.683 167.579 468.074 167.317 468.346 166.983C468.628 166.639 468.769 166.232 468.769 165.762C468.769 165.271 468.628 164.858 468.346 164.524C468.074 164.19 467.683 163.934 467.171 163.757C466.67 163.569 466.08 163.475 465.401 163.475Z" fill="white"/>
<rect x="26.0239" y="216.411" width="262.96" height="71.0968" rx="12.0484" fill="#37A3E2"/>
<path d="M61.8333 233.35H63.9165V242.074H61.8333V233.35ZM63.3526 236.921H65.843V238.629H63.3526V236.921ZM54.4874 242.717H63.9165V247.697H54.4874V242.717ZM61.8803 244.345H56.5392V246.053H61.8803V244.345ZM52.5139 234.634H61.0345V236.279H52.5139V234.634ZM56.7742 236.718C57.4842 236.718 58.1055 236.827 58.6381 237.047C59.1706 237.266 59.5883 237.574 59.8911 237.971C60.1939 238.357 60.3453 238.811 60.3453 239.333C60.3453 239.845 60.1939 240.299 59.8911 240.696C59.5883 241.082 59.1706 241.385 58.6381 241.604C58.1055 241.824 57.4842 241.933 56.7742 241.933C56.0746 241.933 55.4533 241.824 54.9103 241.604C54.3778 241.385 53.9601 241.082 53.6573 240.696C53.3545 240.299 53.203 239.845 53.203 239.333C53.203 238.811 53.3545 238.357 53.6573 237.971C53.9601 237.574 54.3778 237.266 54.9103 237.047C55.4533 236.827 56.0746 236.718 56.7742 236.718ZM56.7742 238.253C56.3147 238.253 55.9388 238.347 55.6465 238.535C55.3541 238.712 55.2079 238.978 55.2079 239.333C55.2079 239.688 55.3541 239.96 55.6465 240.148C55.9388 240.325 56.3147 240.414 56.7742 240.414C57.2441 240.414 57.62 240.325 57.9019 240.148C58.1943 239.96 58.3405 239.688 58.3405 239.333C58.3405 238.978 58.1943 238.712 57.9019 238.535C57.62 238.347 57.2441 238.253 56.7742 238.253ZM55.7404 233.24H57.8079V235.527H55.7404V233.24ZM68.5358 234.979H70.2901C70.2901 235.898 70.2587 236.796 70.1961 237.673C70.1439 238.54 70.0394 239.38 69.8828 240.195C69.7262 241.009 69.5069 241.798 69.225 242.56C68.9535 243.322 68.5932 244.069 68.1442 244.8L66.531 243.923C66.9591 243.254 67.3037 242.591 67.5647 241.933C67.8258 241.265 68.0242 240.581 68.1599 239.882C68.3061 239.182 68.4053 238.446 68.4575 237.673C68.5097 236.89 68.5358 236.049 68.5358 235.151V234.979ZM67.0165 234.979H69.6479V236.655H67.0165V234.979ZM71.7624 234.979H73.5166C73.5166 235.929 73.4905 236.864 73.4383 237.783C73.3965 238.702 73.3026 239.605 73.1564 240.492C73.0206 241.38 72.8066 242.241 72.5142 243.077C72.2323 243.912 71.8459 244.721 71.3551 245.505L69.7732 244.612C70.1386 244.037 70.4415 243.458 70.6816 242.873C70.9322 242.288 71.1306 241.693 71.2768 241.088C71.423 240.482 71.5274 239.866 71.5901 239.239C71.6632 238.602 71.7102 237.95 71.731 237.281C71.7519 236.603 71.7624 235.903 71.7624 235.183V234.979ZM70.7129 234.979H72.9527V236.655H70.7129V234.979ZM77.3697 233.35H79.3432V247.854H77.3697V233.35ZM72.8118 238.785H74.8793V240.445H72.8118V238.785ZM74.5504 233.648H76.5082V247.196H74.5504V233.648ZM90.306 233.35H92.3892V247.854H90.306V233.35ZM91.9193 239.004H94.4724V240.727H91.9193V239.004ZM80.9396 235.48H89.3976V237.141H80.9396V235.48ZM85.1999 237.971C85.8995 237.971 86.526 238.122 87.0795 238.425C87.6329 238.717 88.0662 239.119 88.3795 239.631C88.7032 240.143 88.865 240.738 88.865 241.417C88.865 242.095 88.7032 242.696 88.3795 243.218C88.0662 243.729 87.6329 244.137 87.0795 244.439C86.5365 244.732 85.91 244.878 85.1999 244.878C84.5003 244.878 83.8686 244.732 83.3047 244.439C82.7513 244.137 82.3127 243.729 81.989 243.218C81.6758 242.696 81.5191 242.095 81.5191 241.417C81.5191 240.738 81.6758 240.143 81.989 239.631C82.3127 239.119 82.7513 238.717 83.3047 238.425C83.8686 238.122 84.5003 237.971 85.1999 237.971ZM85.1999 239.662C84.8658 239.662 84.5734 239.73 84.3228 239.866C84.0722 240.002 83.8738 240.2 83.7276 240.461C83.5814 240.722 83.5083 241.041 83.5083 241.417C83.5083 241.782 83.5814 242.1 83.7276 242.372C83.8738 242.633 84.0722 242.837 84.3228 242.983C84.5734 243.119 84.8658 243.186 85.1999 243.186C85.5236 243.186 85.8108 243.119 86.0614 242.983C86.312 242.837 86.5104 242.633 86.6566 242.372C86.8028 242.1 86.8758 241.782 86.8758 241.417C86.8758 241.041 86.8028 240.722 86.6566 240.461C86.5104 240.2 86.312 240.002 86.0614 239.866C85.8108 239.73 85.5236 239.662 85.1999 239.662ZM84.1348 233.585H86.2337V236.122H84.1348V233.585ZM96.8832 237.25H106.939V238.91H96.8832V237.25ZM95.2699 240.414H108.395V242.074H95.2699V240.414ZM96.8832 233.851H98.9664V238.08H96.8832V233.851ZM96.7579 245.865H107.017V247.541H96.7579V245.865ZM96.7579 243.218H98.8411V246.319H96.7579V243.218ZM113.418 240.759H126.56V242.403H113.418V240.759ZM119.12 241.651H121.203V244.706H119.12V241.651ZM114.938 245.927H125.103V247.603H114.938V245.927ZM114.938 243.609H117.021V246.632H114.938V243.609ZM115.094 233.804H117.146V235.277H122.816V233.804H124.884V239.756H115.094V233.804ZM117.146 236.843V238.143H122.816V236.843H117.146ZM132.385 233.914C133.116 233.914 133.768 234.05 134.343 234.321C134.917 234.582 135.366 234.948 135.69 235.418C136.024 235.877 136.191 236.41 136.191 237.015C136.191 237.621 136.024 238.159 135.69 238.629C135.366 239.088 134.917 239.453 134.343 239.725C133.768 239.986 133.116 240.116 132.385 240.116C131.654 240.116 131.001 239.986 130.427 239.725C129.853 239.453 129.399 239.088 129.064 238.629C128.741 238.159 128.579 237.621 128.579 237.015C128.579 236.41 128.741 235.877 129.064 235.418C129.399 234.948 129.853 234.582 130.427 234.321C131.001 234.05 131.654 233.914 132.385 233.914ZM132.385 235.606C132.04 235.606 131.732 235.663 131.461 235.778C131.189 235.882 130.975 236.039 130.819 236.248C130.662 236.457 130.584 236.712 130.584 237.015C130.584 237.318 130.662 237.574 130.819 237.783C130.975 237.981 131.189 238.138 131.461 238.253C131.732 238.357 132.04 238.409 132.385 238.409C132.74 238.409 133.053 238.357 133.325 238.253C133.596 238.138 133.81 237.981 133.967 237.783C134.123 237.574 134.202 237.318 134.202 237.015C134.202 236.712 134.123 236.457 133.967 236.248C133.81 236.039 133.596 235.882 133.325 235.778C133.053 235.663 132.74 235.606 132.385 235.606ZM131.398 241.573H133.497V247.4H131.398V241.573ZM137.742 233.334H139.825V247.838H137.742V233.334ZM127.968 242.67L127.733 240.978C128.568 240.978 129.503 240.973 130.537 240.962C131.581 240.941 132.651 240.894 133.748 240.821C134.844 240.748 135.904 240.633 136.927 240.477L137.052 241.996C136.008 242.205 134.948 242.356 133.873 242.45C132.797 242.544 131.753 242.602 130.74 242.623C129.727 242.643 128.803 242.659 127.968 242.67ZM151.931 233.334H154.014V247.838H151.931V233.334ZM147.655 234.838H149.707C149.707 235.945 149.597 237.005 149.378 238.018C149.169 239.02 148.814 239.965 148.313 240.853C147.822 241.74 147.143 242.565 146.277 243.327C145.42 244.079 144.35 244.768 143.066 245.395L141.969 243.75C143.369 243.072 144.481 242.325 145.306 241.51C146.141 240.686 146.741 239.756 147.107 238.722C147.472 237.678 147.655 236.509 147.655 235.214V234.838ZM142.753 234.838H148.626V236.498H142.753V234.838ZM160.87 239.991H162.013C162.984 239.991 163.814 239.981 164.503 239.96C165.193 239.929 165.814 239.887 166.367 239.835C166.921 239.772 167.469 239.683 168.012 239.568L168.216 241.213C167.652 241.338 167.083 241.432 166.508 241.495C165.934 241.557 165.287 241.599 164.566 241.62C163.856 241.641 163.005 241.651 162.013 241.651H160.87V239.991ZM160.87 234.321H167.385V235.981H162.937V240.445H160.87V234.321ZM162.342 242.732H172.241V247.854H170.142V244.392H162.342V242.732ZM170.142 233.334H172.241V242.106H170.142V233.334ZM166.728 236.968H170.69V238.613H166.728V236.968ZM174.338 240.759H187.48V242.403H174.338V240.759ZM180.04 241.651H182.123V244.706H180.04V241.651ZM175.858 245.927H186.023V247.603H175.858V245.927ZM175.858 243.609H177.941V246.632H175.858V243.609ZM176.014 233.804H178.066V235.277H183.736V233.804H185.804V239.756H176.014V233.804ZM178.066 236.843V238.143H183.736V236.843H178.066ZM194.401 238.675H196.782V240.351H194.401V238.675ZM199.069 233.334H201.058V247.838H199.069V233.334ZM196.124 233.569H198.067V247.196H196.124V233.569ZM191.864 234.353C192.501 234.353 193.054 234.567 193.524 234.995C194.005 235.412 194.37 236.018 194.621 236.812C194.882 237.595 195.012 238.535 195.012 239.631C195.012 240.717 194.882 241.657 194.621 242.45C194.37 243.244 194.005 243.855 193.524 244.283C193.054 244.7 192.496 244.909 191.848 244.909C191.222 244.909 190.668 244.7 190.188 244.283C189.718 243.855 189.353 243.244 189.092 242.45C188.841 241.657 188.716 240.717 188.716 239.631C188.716 238.535 188.841 237.595 189.092 236.812C189.353 236.018 189.718 235.412 190.188 234.995C190.668 234.567 191.227 234.353 191.864 234.353ZM191.864 236.326C191.603 236.326 191.379 236.446 191.191 236.686C191.003 236.926 190.856 237.292 190.752 237.783C190.658 238.263 190.611 238.879 190.611 239.631C190.611 240.362 190.658 240.973 190.752 241.463C190.856 241.954 191.003 242.325 191.191 242.576C191.379 242.816 191.603 242.936 191.864 242.936C192.125 242.936 192.35 242.816 192.538 242.576C192.736 242.325 192.882 241.954 192.976 241.463C193.07 240.973 193.117 240.362 193.117 239.631C193.117 238.879 193.07 238.263 192.976 237.783C192.882 237.292 192.736 236.926 192.538 236.686C192.35 236.446 192.125 236.326 191.864 236.326ZM207.475 234.634H214.445V244.392H207.475V234.634ZM212.409 236.279H209.527V242.748H212.409V236.279ZM216.716 233.319H218.799V247.87H216.716V233.319ZM224.562 242.153H226.661V247.415H224.562V242.153ZM231.25 233.334H233.349V247.838H231.25V233.334ZM221.226 242.951L220.991 241.26C221.972 241.249 222.991 241.244 224.045 241.244C225.1 241.234 226.165 241.208 227.24 241.166C228.316 241.124 229.365 241.056 230.389 240.962L230.498 242.482C229.433 242.628 228.368 242.737 227.303 242.811C226.248 242.873 225.209 242.915 224.186 242.936C223.163 242.946 222.176 242.951 221.226 242.951ZM228.368 243.5H231.673V245.082H228.368V243.5ZM222.056 234.024H229.449V237.861H224.202V239.114H222.072V236.404H227.334V235.574H222.056V234.024ZM222.072 238.707H229.684V240.289H222.072V238.707ZM244.688 233.35H246.771V242.027H244.688V233.35ZM246.05 236.859H248.603V238.566H246.05V236.859ZM238.344 242.638H239.895V242.889C239.895 243.588 239.78 244.257 239.55 244.894C239.331 245.531 238.981 246.089 238.501 246.57C238.021 247.05 237.399 247.415 236.637 247.666L235.65 246.162C236.287 245.964 236.804 245.698 237.201 245.364C237.598 245.019 237.885 244.633 238.062 244.205C238.25 243.766 238.344 243.327 238.344 242.889V242.638ZM238.877 242.638H240.365V242.889C240.365 243.327 240.448 243.766 240.615 244.205C240.782 244.633 241.043 245.029 241.398 245.395C241.764 245.76 242.239 246.058 242.824 246.288L241.978 247.807C241.226 247.535 240.621 247.139 240.161 246.617C239.712 246.105 239.383 245.525 239.174 244.878C238.976 244.22 238.877 243.557 238.877 242.889V242.638ZM243.607 242.638H245.079V242.889C245.079 243.547 244.975 244.199 244.766 244.847C244.568 245.494 244.239 246.079 243.779 246.601C243.33 247.133 242.73 247.535 241.978 247.807L241.148 246.288C241.733 246.048 242.203 245.739 242.558 245.364C242.913 244.988 243.174 244.586 243.341 244.158C243.518 243.719 243.607 243.296 243.607 242.889V242.638ZM244.093 242.638H245.659V242.889C245.659 243.348 245.748 243.797 245.925 244.236C246.113 244.664 246.405 245.045 246.802 245.379C247.199 245.713 247.711 245.974 248.337 246.162L247.366 247.666C246.593 247.415 245.967 247.055 245.487 246.585C245.006 246.115 244.651 245.567 244.421 244.941C244.202 244.304 244.093 243.62 244.093 242.889V242.638ZM238.564 238.644H240.647V240.868H238.564V238.644ZM235.447 241.761L235.212 240.148C236.047 240.148 236.955 240.143 237.937 240.132C238.929 240.111 239.937 240.075 240.96 240.023C241.994 239.96 242.986 239.866 243.936 239.741L244.093 241.166C243.111 241.343 242.109 241.474 241.085 241.557C240.062 241.641 239.065 241.693 238.094 241.714C237.133 241.735 236.251 241.751 235.447 241.761ZM239.597 233.695C240.307 233.695 240.929 233.815 241.461 234.055C242.004 234.285 242.432 234.608 242.745 235.026C243.059 235.433 243.215 235.914 243.215 236.467C243.215 237.01 243.059 237.49 242.745 237.908C242.432 238.326 242.004 238.649 241.461 238.879C240.929 239.109 240.307 239.224 239.597 239.224C238.887 239.224 238.261 239.109 237.718 238.879C237.175 238.649 236.747 238.326 236.433 237.908C236.12 237.49 235.963 237.01 235.963 236.467C235.963 235.914 236.12 235.433 236.433 235.026C236.747 234.608 237.175 234.285 237.718 234.055C238.261 233.815 238.887 233.695 239.597 233.695ZM239.597 235.198C239.096 235.198 238.689 235.308 238.376 235.527C238.062 235.747 237.906 236.06 237.906 236.467C237.906 236.728 237.974 236.958 238.109 237.156C238.255 237.344 238.454 237.49 238.704 237.595C238.966 237.689 239.263 237.736 239.597 237.736C239.931 237.736 240.224 237.689 240.474 237.595C240.725 237.49 240.918 237.344 241.054 237.156C241.2 236.958 241.273 236.728 241.273 236.467C241.273 236.06 241.117 235.747 240.803 235.527C240.5 235.308 240.098 235.198 239.597 235.198ZM250.388 240.32H251.531C252.398 240.32 253.171 240.31 253.849 240.289C254.538 240.268 255.181 240.226 255.776 240.163C256.371 240.101 256.977 240.017 257.593 239.913L257.781 241.557C257.154 241.672 256.528 241.761 255.901 241.824C255.275 241.886 254.612 241.933 253.912 241.965C253.212 241.986 252.419 241.996 251.531 241.996H250.388V240.32ZM250.388 234.337H256.951V235.997H252.44V240.759H250.388V234.337ZM259.566 233.334H261.665V243.891H259.566V233.334ZM256.12 237.109H259.958V238.769H256.12V237.109ZM252.079 245.959H261.978V247.635H252.079V245.959ZM252.079 243.045H254.163V247.039H252.079V243.045ZM103.41 265.372C104.454 265.372 105.363 265.482 106.135 265.701C106.908 265.92 107.503 266.233 107.921 266.641C108.349 267.048 108.563 267.539 108.563 268.113C108.563 268.677 108.349 269.162 107.921 269.57C107.503 269.987 106.908 270.306 106.135 270.525C105.363 270.744 104.454 270.854 103.41 270.854C102.376 270.854 101.473 270.744 100.7 270.525C99.9276 270.306 99.3271 269.987 98.899 269.57C98.4813 269.162 98.2725 268.677 98.2725 268.113C98.2725 267.539 98.4813 267.048 98.899 266.641C99.3271 266.233 99.9276 265.92 100.7 265.701C101.473 265.482 102.376 265.372 103.41 265.372ZM103.41 266.938C102.763 266.938 102.209 266.98 101.75 267.064C101.29 267.147 100.94 267.278 100.7 267.455C100.471 267.633 100.356 267.852 100.356 268.113C100.356 268.374 100.471 268.593 100.7 268.771C100.94 268.938 101.29 269.068 101.75 269.162C102.209 269.246 102.763 269.288 103.41 269.288C104.068 269.288 104.626 269.246 105.086 269.162C105.545 269.068 105.895 268.938 106.135 268.771C106.375 268.593 106.496 268.374 106.496 268.113C106.496 267.852 106.375 267.633 106.135 267.455C105.895 267.278 105.545 267.147 105.086 267.064C104.626 266.98 104.068 266.938 103.41 266.938ZM98.4291 256.992H107.623V258.621H98.4291V256.992ZM96.9725 262.819H110.02V264.463H96.9725V262.819ZM101.797 260.281H103.88V263.226H101.797V260.281ZM106.402 256.992H108.485V258.183C108.485 258.757 108.469 259.357 108.438 259.984C108.406 260.61 108.286 261.3 108.077 262.051L106.01 261.848C106.208 261.106 106.323 260.449 106.355 259.874C106.386 259.3 106.402 258.736 106.402 258.183V256.992ZM111.193 264.683H124.319V266.327H111.193V264.683ZM116.66 265.513H118.743V270.854H116.66V265.513ZM112.681 256.898H114.749V258.543H120.716V256.898H122.768V263.304H112.681V256.898ZM114.749 260.172V261.66H120.716V260.172H114.749ZM125.445 262.85H138.571V264.354H125.445V262.85ZM126.918 265.09H137.02V268.536H129.001V269.773H126.933V267.22H134.968V266.5H126.918V265.09ZM126.933 269.319H137.427V270.729H126.933V269.319ZM127.043 256.585H136.973V260.015H129.126V261.19H127.074V258.7H134.921V257.995H127.043V256.585ZM127.074 260.767H137.239V262.177H127.074V260.767ZM143.594 261.66H156.735V263.304H143.594V261.66ZM144.815 256.836H148.199V258.465H144.815V256.836ZM147.603 256.836H149.624V257.619C149.624 258.13 149.593 258.783 149.53 259.577C149.478 260.36 149.269 261.273 148.903 262.318L146.898 262.036C147.128 261.336 147.29 260.72 147.384 260.188C147.488 259.645 147.551 259.164 147.572 258.747C147.593 258.318 147.603 257.943 147.603 257.619V256.836ZM150.438 256.836H154.166V258.465H150.438V256.836ZM153.211 256.836H155.231V257.822C155.231 258.418 155.205 259.091 155.153 259.843C155.111 260.584 154.939 261.441 154.636 262.412L152.615 262.13C152.814 261.493 152.955 260.924 153.038 260.422C153.122 259.911 153.169 259.446 153.179 259.028C153.2 258.6 153.211 258.198 153.211 257.822V256.836ZM145.191 264.291H155.2V265.826H147.274V269.491H145.191V264.291ZM145.191 269.131H155.309V270.697H145.191V269.131ZM146.429 266.719H154.855V268.207H146.429V266.719ZM168.23 256.334H170.219V264.557H168.23V256.334ZM166.46 259.671H168.778V261.331H166.46V259.671ZM165.035 256.601H166.977V264.432H165.035V256.601ZM158.425 257.353H160.508V262.835H158.425V257.353ZM158.425 262.083H159.412C160.258 262.083 161.062 262.062 161.824 262.02C162.586 261.968 163.375 261.863 164.189 261.707L164.393 263.383C163.547 263.55 162.727 263.665 161.934 263.727C161.14 263.78 160.299 263.806 159.412 263.806H158.425V262.083ZM161.307 265.043H162.889V265.685C162.889 266.416 162.774 267.116 162.545 267.784C162.325 268.452 161.975 269.042 161.495 269.554C161.015 270.076 160.393 270.473 159.631 270.744L158.629 269.225C159.255 269.006 159.767 268.713 160.164 268.348C160.561 267.972 160.848 267.554 161.025 267.095C161.213 266.625 161.307 266.155 161.307 265.685V265.043ZM161.84 265.043H163.328V265.685C163.328 266.166 163.411 266.641 163.578 267.111C163.745 267.57 164.012 267.998 164.377 268.395C164.743 268.781 165.223 269.1 165.818 269.35L164.957 270.87C164.194 270.588 163.583 270.175 163.124 269.632C162.665 269.089 162.336 268.478 162.137 267.8C161.939 267.111 161.84 266.406 161.84 265.685V265.043ZM166.586 265.043H168.089V265.685C168.089 266.353 167.985 267.032 167.776 267.721C167.567 268.411 167.233 269.032 166.773 269.585C166.324 270.139 165.719 270.567 164.957 270.87L164.111 269.35C164.696 269.079 165.171 268.739 165.536 268.332C165.902 267.925 166.168 267.492 166.335 267.032C166.502 266.562 166.586 266.113 166.586 265.685V265.043ZM167.087 265.043H168.637V265.685C168.637 266.186 168.731 266.672 168.919 267.142C169.107 267.601 169.4 268.014 169.796 268.379C170.193 268.745 170.71 269.027 171.347 269.225L170.313 270.744C169.551 270.483 168.93 270.102 168.449 269.601C167.98 269.1 167.635 268.515 167.416 267.847C167.196 267.168 167.087 266.447 167.087 265.685V265.043ZM173.633 265.027H175.7V266.249H181.511V265.027H183.563V270.697H173.633V265.027ZM175.7 267.815V269.068H181.511V267.815H175.7ZM172.098 262.678H185.223V264.307H172.098V262.678ZM177.595 256.491H179.381V256.93C179.381 257.441 179.292 257.927 179.115 258.386C178.948 258.846 178.702 259.274 178.378 259.671C178.055 260.067 177.653 260.428 177.172 260.751C176.703 261.065 176.16 261.331 175.543 261.55C174.927 261.759 174.243 261.916 173.492 262.02L172.74 260.407C173.398 260.334 173.988 260.214 174.51 260.047C175.032 259.879 175.486 259.681 175.872 259.451C176.259 259.211 176.577 258.955 176.828 258.684C177.089 258.402 177.282 258.115 177.407 257.822C177.533 257.52 177.595 257.222 177.595 256.93V256.491ZM177.94 256.491H179.725V256.93C179.725 257.222 179.788 257.52 179.913 257.822C180.039 258.115 180.227 258.402 180.477 258.684C180.738 258.955 181.062 259.211 181.448 259.451C181.835 259.681 182.289 259.879 182.811 260.047C183.344 260.214 183.934 260.334 184.581 260.407L183.829 262.02C183.077 261.916 182.393 261.759 181.777 261.55C181.172 261.331 180.629 261.065 180.148 260.751C179.668 260.428 179.266 260.067 178.942 259.671C178.619 259.274 178.368 258.846 178.191 258.386C178.023 257.916 177.94 257.431 177.94 256.93V256.491ZM196.405 256.334H198.473V270.838H196.405V256.334ZM187.117 257.713H189.2V266.735H187.117V257.713ZM187.117 265.497H188.402C189.467 265.497 190.579 265.455 191.738 265.372C192.897 265.278 194.077 265.111 195.278 264.871L195.497 266.609C194.265 266.87 193.048 267.048 191.847 267.142C190.657 267.225 189.508 267.267 188.402 267.267H187.117V265.497ZM209.874 256.319H211.973V270.87H209.874V256.319ZM211.519 261.691H214.072V263.414H211.519V261.691ZM201.166 265.67H202.387C203.212 265.67 203.985 265.659 204.705 265.638C205.426 265.607 206.125 265.56 206.804 265.497C207.483 265.424 208.177 265.325 208.887 265.2L209.091 266.923C208.36 267.048 207.64 267.147 206.93 267.22C206.23 267.293 205.509 267.34 204.768 267.361C204.027 267.382 203.233 267.392 202.387 267.392H201.166V265.67ZM201.166 257.666H207.932V259.342H203.249V266.484H201.166V257.666ZM217.407 265.748H215.543L215.151 258.277H217.798L217.407 265.748ZM215.12 268.364C215.12 267.883 215.25 267.549 215.512 267.361C215.773 267.163 216.091 267.064 216.467 267.064C216.832 267.064 217.146 267.163 217.407 267.361C217.668 267.549 217.798 267.883 217.798 268.364C217.798 268.823 217.668 269.157 217.407 269.366C217.146 269.564 216.832 269.664 216.467 269.664C216.091 269.664 215.773 269.564 215.512 269.366C215.25 269.157 215.12 268.823 215.12 268.364Z" fill="white"/>
</svg>
