<svg width="562" height="315" viewBox="0 0 562 315" fill="none" xmlns="http://www.w3.org/2000/svg">
<rect x="61" y="181" width="200" height="66" fill="#D8D7E9"/>
<path d="M141.583 286H137.657V275.262C137.657 274.811 137.666 274.222 137.683 273.494C137.718 272.766 137.744 272.125 137.761 271.57C137.674 271.674 137.484 271.865 137.189 272.142C136.912 272.402 136.652 272.636 136.409 272.844L134.277 274.56L132.379 272.194L138.359 267.436H141.583V286ZM146.946 284.18C146.946 283.383 147.163 282.828 147.596 282.516C148.029 282.187 148.558 282.022 149.182 282.022C149.789 282.022 150.309 282.187 150.742 282.516C151.175 282.828 151.392 283.383 151.392 284.18C151.392 284.943 151.175 285.497 150.742 285.844C150.309 286.173 149.789 286.338 149.182 286.338C148.558 286.338 148.029 286.173 147.596 285.844C147.163 285.497 146.946 284.943 146.946 284.18ZM167.048 282.152H164.812V286H160.99V282.152H153.06V279.422L161.198 267.436H164.812V279.11H167.048V282.152ZM160.99 275.964C160.99 275.565 160.999 275.08 161.016 274.508C161.033 273.936 161.051 273.407 161.068 272.922C161.103 272.419 161.129 272.09 161.146 271.934H161.042C160.886 272.281 160.721 272.619 160.548 272.948C160.375 273.277 160.167 273.615 159.924 273.962L156.518 279.11H160.99V275.964ZM179.925 267.696H186.061V270.452H179.925V267.696ZM179.925 272.506H186.165V275.262H179.925V272.506ZM184.969 264.238H188.453V278.33H184.969V264.238ZM169.265 265.954H180.653V277.03H169.265V265.954ZM177.273 268.684H172.671V274.326H177.273V268.684ZM180.289 278.954C182.837 278.954 184.848 279.37 186.321 280.202C187.794 281.017 188.531 282.152 188.531 283.608C188.531 285.099 187.794 286.251 186.321 287.066C184.848 287.898 182.837 288.314 180.289 288.314C177.741 288.314 175.73 287.898 174.257 287.066C172.784 286.251 172.047 285.099 172.047 283.608C172.047 282.152 172.784 281.017 174.257 280.202C175.73 279.37 177.741 278.954 180.289 278.954ZM180.289 281.606C179.249 281.606 178.374 281.675 177.663 281.814C176.952 281.953 176.406 282.178 176.025 282.49C175.661 282.785 175.479 283.166 175.479 283.634C175.479 284.085 175.661 284.466 176.025 284.778C176.406 285.073 176.952 285.298 177.663 285.454C178.374 285.593 179.249 285.662 180.289 285.662C181.329 285.662 182.204 285.593 182.915 285.454C183.626 285.298 184.163 285.073 184.527 284.778C184.891 284.466 185.073 284.085 185.073 283.634C185.073 283.166 184.891 282.785 184.527 282.49C184.163 282.178 183.626 281.953 182.915 281.814C182.204 281.675 181.329 281.606 180.289 281.606Z" fill="#222222"/>
<rect x="314.5" y="24.1162" width="173" height="59" rx="10" fill="#37A3E2"/>
<path d="M368.113 49.7122C368.113 50.9949 367.723 52.0175 366.943 52.7802C366.18 53.5429 365.235 54.0629 364.109 54.3402V54.4182C365.599 54.5915 366.726 55.0422 367.489 55.7702C368.269 56.4982 368.659 57.4775 368.659 58.7082C368.659 59.7829 368.39 60.7535 367.853 61.6202C367.333 62.4695 366.518 63.1455 365.409 63.6482C364.317 64.1335 362.904 64.3762 361.171 64.3762C359.16 64.3762 357.375 64.0382 355.815 63.3622V60.0342C356.612 60.4329 357.444 60.7362 358.311 60.9442C359.195 61.1522 360.009 61.2562 360.755 61.2562C362.159 61.2562 363.138 61.0135 363.693 60.5282C364.265 60.0429 364.551 59.3582 364.551 58.4742C364.551 57.9542 364.421 57.5209 364.161 57.1742C363.901 56.8102 363.441 56.5415 362.783 56.3682C362.141 56.1775 361.24 56.0822 360.079 56.0822H358.675V53.0662H360.105C361.249 53.0662 362.115 52.9622 362.705 52.7542C363.311 52.5289 363.719 52.2342 363.927 51.8702C364.152 51.4889 364.265 51.0555 364.265 50.5702C364.265 49.9115 364.057 49.4002 363.641 49.0362C363.242 48.6549 362.566 48.4642 361.613 48.4642C360.729 48.4642 359.957 48.6202 359.299 48.9322C358.657 49.2269 358.111 49.5215 357.661 49.8162L355.841 47.1122C356.569 46.5922 357.418 46.1589 358.389 45.8122C359.377 45.4655 360.547 45.2922 361.899 45.2922C363.805 45.2922 365.313 45.6822 366.423 46.4622C367.549 47.2249 368.113 48.3082 368.113 49.7122ZM371.188 44.4862H374.438V49.8942H377.48V44.4862H380.678V60.7102H371.188V44.4862ZM374.438 52.5722V57.9542H377.48V52.5722H374.438ZM387.88 42.3282H391.182V66.4042H387.88V42.3282ZM384.942 51.5322H388.92V54.2882H384.942V51.5322ZM382.628 42.7182H385.852V65.3382H382.628V42.7182ZM400.637 53.4562H422.425V56.1862H400.637V53.4562ZM411.479 57.5122C414.079 57.5122 416.125 57.9022 417.615 58.6822C419.106 59.4622 419.851 60.5542 419.851 61.9582C419.851 63.3795 419.106 64.4802 417.615 65.2602C416.125 66.0402 414.079 66.4302 411.479 66.4302C408.879 66.4302 406.834 66.0402 405.343 65.2602C403.87 64.4802 403.133 63.3795 403.133 61.9582C403.133 60.5542 403.87 59.4622 405.343 58.6822C406.834 57.9022 408.879 57.5122 411.479 57.5122ZM411.479 60.1642C410.405 60.1642 409.503 60.2335 408.775 60.3722C408.065 60.4935 407.527 60.6842 407.163 60.9442C406.799 61.2042 406.617 61.5422 406.617 61.9582C406.617 62.3742 406.799 62.7209 407.163 62.9982C407.527 63.2582 408.065 63.4489 408.775 63.5702C409.503 63.6915 410.405 63.7522 411.479 63.7522C412.554 63.7522 413.447 63.6915 414.157 63.5702C414.885 63.4489 415.431 63.2582 415.795 62.9982C416.159 62.7209 416.341 62.3742 416.341 61.9582C416.341 61.5422 416.159 61.2042 415.795 60.9442C415.431 60.6842 414.885 60.4935 414.157 60.3722C413.447 60.2335 412.554 60.1642 411.479 60.1642ZM409.165 44.8242H412.233V45.3962C412.233 46.1069 412.103 46.8002 411.843 47.4762C411.583 48.1349 411.193 48.7502 410.673 49.3222C410.171 49.8769 409.538 50.3795 408.775 50.8302C408.013 51.2635 407.129 51.6275 406.123 51.9222C405.118 52.2169 404 52.4249 402.769 52.5462L401.573 49.8422C402.631 49.7555 403.567 49.6082 404.381 49.4002C405.213 49.1749 405.924 48.9149 406.513 48.6202C407.12 48.3082 407.614 47.9789 407.995 47.6322C408.394 47.2855 408.689 46.9215 408.879 46.5402C409.07 46.1415 409.165 45.7602 409.165 45.3962V44.8242ZM410.855 44.8242H413.897V45.3962C413.897 45.7775 413.993 46.1589 414.183 46.5402C414.374 46.9215 414.66 47.2942 415.041 47.6582C415.44 48.0049 415.934 48.3342 416.523 48.6462C417.13 48.9409 417.841 49.1922 418.655 49.4002C419.487 49.6082 420.432 49.7555 421.489 49.8422L420.293 52.5462C419.063 52.4249 417.945 52.2255 416.939 51.9482C415.934 51.6535 415.05 51.2809 414.287 50.8302C413.542 50.3795 412.909 49.8769 412.389 49.3222C411.887 48.7502 411.505 48.1349 411.245 47.4762C410.985 46.8175 410.855 46.1242 410.855 45.3962V44.8242ZM402.639 43.4722H420.475V46.2022H402.639V43.4722ZM439.687 42.3022H443.171V66.3782H439.687V42.3022ZM442.287 51.5322H446.525V54.3662H442.287V51.5322ZM433.369 44.7982H436.775C436.775 47.2075 436.429 49.4869 435.735 51.6362C435.059 53.7855 433.933 55.7615 432.355 57.5642C430.795 59.3495 428.681 60.9095 426.011 62.2442L424.061 59.6182C426.176 58.5262 427.918 57.2955 429.287 55.9262C430.674 54.5569 431.697 53.0055 432.355 51.2722C433.031 49.5215 433.369 47.5715 433.369 45.4222V44.7982ZM425.387 44.7982H435.163V47.5802H425.387V44.7982Z" fill="white"/>
<rect x="401" y="63.1162" width="23.2522" height="23.2522" transform="rotate(45 401 63.1162)" fill="#37A3E2"/>
<rect x="301" y="108" width="200" height="136" fill="#37A3E2"/>
<path d="M385.275 282.152H383.039V286H379.217V282.152H371.287V279.422L379.425 267.436H383.039V279.11H385.275V282.152ZM379.217 275.964C379.217 275.565 379.226 275.08 379.243 274.508C379.26 273.936 379.278 273.407 379.295 272.922C379.33 272.419 379.356 272.09 379.373 271.934H379.269C379.113 272.281 378.948 272.619 378.775 272.948C378.602 273.277 378.394 273.615 378.151 273.962L374.745 279.11H379.217V275.964ZM386.946 284.18C386.946 283.383 387.163 282.828 387.596 282.516C388.029 282.187 388.558 282.022 389.182 282.022C389.789 282.022 390.309 282.187 390.742 282.516C391.175 282.828 391.392 283.383 391.392 284.18C391.392 284.943 391.175 285.497 390.742 285.844C390.309 286.173 389.789 286.338 389.182 286.338C388.558 286.338 388.029 286.173 387.596 285.844C387.163 285.497 386.946 284.943 386.946 284.18ZM406.632 286H393.658V283.27L398.312 278.564C399.248 277.593 400.002 276.787 400.574 276.146C401.146 275.487 401.562 274.898 401.822 274.378C402.082 273.841 402.212 273.269 402.212 272.662C402.212 271.917 402.004 271.362 401.588 270.998C401.189 270.634 400.643 270.452 399.95 270.452C399.239 270.452 398.546 270.617 397.87 270.946C397.194 271.275 396.483 271.743 395.738 272.35L393.606 269.828C394.143 269.36 394.707 268.927 395.296 268.528C395.903 268.129 396.596 267.809 397.376 267.566C398.173 267.306 399.127 267.176 400.236 267.176C401.449 267.176 402.489 267.401 403.356 267.852C404.24 268.285 404.916 268.883 405.384 269.646C405.869 270.391 406.112 271.241 406.112 272.194C406.112 273.217 405.904 274.153 405.488 275.002C405.089 275.851 404.5 276.692 403.72 277.524C402.957 278.356 402.03 279.275 400.938 280.28L398.546 282.516V282.698H406.632V286ZM419.925 267.696H426.061V270.452H419.925V267.696ZM419.925 272.506H426.165V275.262H419.925V272.506ZM424.969 264.238H428.453V278.33H424.969V264.238ZM409.265 265.954H420.653V277.03H409.265V265.954ZM417.273 268.684H412.671V274.326H417.273V268.684ZM420.289 278.954C422.837 278.954 424.848 279.37 426.321 280.202C427.794 281.017 428.531 282.152 428.531 283.608C428.531 285.099 427.794 286.251 426.321 287.066C424.848 287.898 422.837 288.314 420.289 288.314C417.741 288.314 415.73 287.898 414.257 287.066C412.784 286.251 412.047 285.099 412.047 283.608C412.047 282.152 412.784 281.017 414.257 280.202C415.73 279.37 417.741 278.954 420.289 278.954ZM420.289 281.606C419.249 281.606 418.374 281.675 417.663 281.814C416.952 281.953 416.406 282.178 416.025 282.49C415.661 282.785 415.479 283.166 415.479 283.634C415.479 284.085 415.661 284.466 416.025 284.778C416.406 285.073 416.952 285.298 417.663 285.454C418.374 285.593 419.249 285.662 420.289 285.662C421.329 285.662 422.204 285.593 422.915 285.454C423.626 285.298 424.163 285.073 424.527 284.778C424.891 284.466 425.073 284.085 425.073 283.634C425.073 283.166 424.891 282.785 424.527 282.49C424.163 282.178 423.626 281.953 422.915 281.814C422.204 281.675 421.329 281.606 420.289 281.606Z" fill="#222222"/>
</svg>
